%TF.GenerationSoftware,KiCad,Pcbnew,9.0.1*%
%TF.CreationDate,2025-04-25T14:26:40+02:00*%
%TF.ProjectId,flyback,666c7962-6163-46b2-9e6b-696361645f70,rev?*%
%TF.SameCoordinates,Original*%
%TF.FileFunction,Legend,Top*%
%TF.FilePolarity,Positive*%
%FSLAX46Y46*%
G04 Gerber Fmt 4.6, Leading zero omitted, Abs format (unit mm)*
G04 Created by KiCad (PCBNEW 9.0.1) date 2025-04-25 14:26:40*
%MOMM*%
%LPD*%
G01*
G04 APERTURE LIST*
%ADD10C,0.150000*%
%ADD11C,0.100000*%
%ADD12C,0.120000*%
%ADD13C,0.200000*%
G04 APERTURE END LIST*
D10*
X99735833Y-81182319D02*
X99402500Y-80706128D01*
X99164405Y-81182319D02*
X99164405Y-80182319D01*
X99164405Y-80182319D02*
X99545357Y-80182319D01*
X99545357Y-80182319D02*
X99640595Y-80229938D01*
X99640595Y-80229938D02*
X99688214Y-80277557D01*
X99688214Y-80277557D02*
X99735833Y-80372795D01*
X99735833Y-80372795D02*
X99735833Y-80515652D01*
X99735833Y-80515652D02*
X99688214Y-80610890D01*
X99688214Y-80610890D02*
X99640595Y-80658509D01*
X99640595Y-80658509D02*
X99545357Y-80706128D01*
X99545357Y-80706128D02*
X99164405Y-80706128D01*
X100212024Y-81182319D02*
X100402500Y-81182319D01*
X100402500Y-81182319D02*
X100497738Y-81134700D01*
X100497738Y-81134700D02*
X100545357Y-81087080D01*
X100545357Y-81087080D02*
X100640595Y-80944223D01*
X100640595Y-80944223D02*
X100688214Y-80753747D01*
X100688214Y-80753747D02*
X100688214Y-80372795D01*
X100688214Y-80372795D02*
X100640595Y-80277557D01*
X100640595Y-80277557D02*
X100592976Y-80229938D01*
X100592976Y-80229938D02*
X100497738Y-80182319D01*
X100497738Y-80182319D02*
X100307262Y-80182319D01*
X100307262Y-80182319D02*
X100212024Y-80229938D01*
X100212024Y-80229938D02*
X100164405Y-80277557D01*
X100164405Y-80277557D02*
X100116786Y-80372795D01*
X100116786Y-80372795D02*
X100116786Y-80610890D01*
X100116786Y-80610890D02*
X100164405Y-80706128D01*
X100164405Y-80706128D02*
X100212024Y-80753747D01*
X100212024Y-80753747D02*
X100307262Y-80801366D01*
X100307262Y-80801366D02*
X100497738Y-80801366D01*
X100497738Y-80801366D02*
X100592976Y-80753747D01*
X100592976Y-80753747D02*
X100640595Y-80706128D01*
X100640595Y-80706128D02*
X100688214Y-80610890D01*
X189932142Y-70804819D02*
X189598809Y-70328628D01*
X189360714Y-70804819D02*
X189360714Y-69804819D01*
X189360714Y-69804819D02*
X189741666Y-69804819D01*
X189741666Y-69804819D02*
X189836904Y-69852438D01*
X189836904Y-69852438D02*
X189884523Y-69900057D01*
X189884523Y-69900057D02*
X189932142Y-69995295D01*
X189932142Y-69995295D02*
X189932142Y-70138152D01*
X189932142Y-70138152D02*
X189884523Y-70233390D01*
X189884523Y-70233390D02*
X189836904Y-70281009D01*
X189836904Y-70281009D02*
X189741666Y-70328628D01*
X189741666Y-70328628D02*
X189360714Y-70328628D01*
X190884523Y-70804819D02*
X190313095Y-70804819D01*
X190598809Y-70804819D02*
X190598809Y-69804819D01*
X190598809Y-69804819D02*
X190503571Y-69947676D01*
X190503571Y-69947676D02*
X190408333Y-70042914D01*
X190408333Y-70042914D02*
X190313095Y-70090533D01*
X191265476Y-69900057D02*
X191313095Y-69852438D01*
X191313095Y-69852438D02*
X191408333Y-69804819D01*
X191408333Y-69804819D02*
X191646428Y-69804819D01*
X191646428Y-69804819D02*
X191741666Y-69852438D01*
X191741666Y-69852438D02*
X191789285Y-69900057D01*
X191789285Y-69900057D02*
X191836904Y-69995295D01*
X191836904Y-69995295D02*
X191836904Y-70090533D01*
X191836904Y-70090533D02*
X191789285Y-70233390D01*
X191789285Y-70233390D02*
X191217857Y-70804819D01*
X191217857Y-70804819D02*
X191836904Y-70804819D01*
X183094642Y-92179819D02*
X182761309Y-91703628D01*
X182523214Y-92179819D02*
X182523214Y-91179819D01*
X182523214Y-91179819D02*
X182904166Y-91179819D01*
X182904166Y-91179819D02*
X182999404Y-91227438D01*
X182999404Y-91227438D02*
X183047023Y-91275057D01*
X183047023Y-91275057D02*
X183094642Y-91370295D01*
X183094642Y-91370295D02*
X183094642Y-91513152D01*
X183094642Y-91513152D02*
X183047023Y-91608390D01*
X183047023Y-91608390D02*
X182999404Y-91656009D01*
X182999404Y-91656009D02*
X182904166Y-91703628D01*
X182904166Y-91703628D02*
X182523214Y-91703628D01*
X184047023Y-92179819D02*
X183475595Y-92179819D01*
X183761309Y-92179819D02*
X183761309Y-91179819D01*
X183761309Y-91179819D02*
X183666071Y-91322676D01*
X183666071Y-91322676D02*
X183570833Y-91417914D01*
X183570833Y-91417914D02*
X183475595Y-91465533D01*
X184999404Y-92179819D02*
X184427976Y-92179819D01*
X184713690Y-92179819D02*
X184713690Y-91179819D01*
X184713690Y-91179819D02*
X184618452Y-91322676D01*
X184618452Y-91322676D02*
X184523214Y-91417914D01*
X184523214Y-91417914D02*
X184427976Y-91465533D01*
X163753095Y-93999819D02*
X163753095Y-94809342D01*
X163753095Y-94809342D02*
X163800714Y-94904580D01*
X163800714Y-94904580D02*
X163848333Y-94952200D01*
X163848333Y-94952200D02*
X163943571Y-94999819D01*
X163943571Y-94999819D02*
X164134047Y-94999819D01*
X164134047Y-94999819D02*
X164229285Y-94952200D01*
X164229285Y-94952200D02*
X164276904Y-94904580D01*
X164276904Y-94904580D02*
X164324523Y-94809342D01*
X164324523Y-94809342D02*
X164324523Y-93999819D01*
X164753095Y-94095057D02*
X164800714Y-94047438D01*
X164800714Y-94047438D02*
X164895952Y-93999819D01*
X164895952Y-93999819D02*
X165134047Y-93999819D01*
X165134047Y-93999819D02*
X165229285Y-94047438D01*
X165229285Y-94047438D02*
X165276904Y-94095057D01*
X165276904Y-94095057D02*
X165324523Y-94190295D01*
X165324523Y-94190295D02*
X165324523Y-94285533D01*
X165324523Y-94285533D02*
X165276904Y-94428390D01*
X165276904Y-94428390D02*
X164705476Y-94999819D01*
X164705476Y-94999819D02*
X165324523Y-94999819D01*
X183094642Y-91151280D02*
X183047023Y-91198900D01*
X183047023Y-91198900D02*
X182904166Y-91246519D01*
X182904166Y-91246519D02*
X182808928Y-91246519D01*
X182808928Y-91246519D02*
X182666071Y-91198900D01*
X182666071Y-91198900D02*
X182570833Y-91103661D01*
X182570833Y-91103661D02*
X182523214Y-91008423D01*
X182523214Y-91008423D02*
X182475595Y-90817947D01*
X182475595Y-90817947D02*
X182475595Y-90675090D01*
X182475595Y-90675090D02*
X182523214Y-90484614D01*
X182523214Y-90484614D02*
X182570833Y-90389376D01*
X182570833Y-90389376D02*
X182666071Y-90294138D01*
X182666071Y-90294138D02*
X182808928Y-90246519D01*
X182808928Y-90246519D02*
X182904166Y-90246519D01*
X182904166Y-90246519D02*
X183047023Y-90294138D01*
X183047023Y-90294138D02*
X183094642Y-90341757D01*
X184047023Y-91246519D02*
X183475595Y-91246519D01*
X183761309Y-91246519D02*
X183761309Y-90246519D01*
X183761309Y-90246519D02*
X183666071Y-90389376D01*
X183666071Y-90389376D02*
X183570833Y-90484614D01*
X183570833Y-90484614D02*
X183475595Y-90532233D01*
X184427976Y-90341757D02*
X184475595Y-90294138D01*
X184475595Y-90294138D02*
X184570833Y-90246519D01*
X184570833Y-90246519D02*
X184808928Y-90246519D01*
X184808928Y-90246519D02*
X184904166Y-90294138D01*
X184904166Y-90294138D02*
X184951785Y-90341757D01*
X184951785Y-90341757D02*
X184999404Y-90436995D01*
X184999404Y-90436995D02*
X184999404Y-90532233D01*
X184999404Y-90532233D02*
X184951785Y-90675090D01*
X184951785Y-90675090D02*
X184380357Y-91246519D01*
X184380357Y-91246519D02*
X184999404Y-91246519D01*
X183094642Y-81184580D02*
X183047023Y-81232200D01*
X183047023Y-81232200D02*
X182904166Y-81279819D01*
X182904166Y-81279819D02*
X182808928Y-81279819D01*
X182808928Y-81279819D02*
X182666071Y-81232200D01*
X182666071Y-81232200D02*
X182570833Y-81136961D01*
X182570833Y-81136961D02*
X182523214Y-81041723D01*
X182523214Y-81041723D02*
X182475595Y-80851247D01*
X182475595Y-80851247D02*
X182475595Y-80708390D01*
X182475595Y-80708390D02*
X182523214Y-80517914D01*
X182523214Y-80517914D02*
X182570833Y-80422676D01*
X182570833Y-80422676D02*
X182666071Y-80327438D01*
X182666071Y-80327438D02*
X182808928Y-80279819D01*
X182808928Y-80279819D02*
X182904166Y-80279819D01*
X182904166Y-80279819D02*
X183047023Y-80327438D01*
X183047023Y-80327438D02*
X183094642Y-80375057D01*
X184047023Y-81279819D02*
X183475595Y-81279819D01*
X183761309Y-81279819D02*
X183761309Y-80279819D01*
X183761309Y-80279819D02*
X183666071Y-80422676D01*
X183666071Y-80422676D02*
X183570833Y-80517914D01*
X183570833Y-80517914D02*
X183475595Y-80565533D01*
X184999404Y-81279819D02*
X184427976Y-81279819D01*
X184713690Y-81279819D02*
X184713690Y-80279819D01*
X184713690Y-80279819D02*
X184618452Y-80422676D01*
X184618452Y-80422676D02*
X184523214Y-80517914D01*
X184523214Y-80517914D02*
X184427976Y-80565533D01*
X200809405Y-88629819D02*
X200809405Y-87629819D01*
X200809405Y-87629819D02*
X201047500Y-87629819D01*
X201047500Y-87629819D02*
X201190357Y-87677438D01*
X201190357Y-87677438D02*
X201285595Y-87772676D01*
X201285595Y-87772676D02*
X201333214Y-87867914D01*
X201333214Y-87867914D02*
X201380833Y-88058390D01*
X201380833Y-88058390D02*
X201380833Y-88201247D01*
X201380833Y-88201247D02*
X201333214Y-88391723D01*
X201333214Y-88391723D02*
X201285595Y-88486961D01*
X201285595Y-88486961D02*
X201190357Y-88582200D01*
X201190357Y-88582200D02*
X201047500Y-88629819D01*
X201047500Y-88629819D02*
X200809405Y-88629819D01*
X202237976Y-87629819D02*
X202047500Y-87629819D01*
X202047500Y-87629819D02*
X201952262Y-87677438D01*
X201952262Y-87677438D02*
X201904643Y-87725057D01*
X201904643Y-87725057D02*
X201809405Y-87867914D01*
X201809405Y-87867914D02*
X201761786Y-88058390D01*
X201761786Y-88058390D02*
X201761786Y-88439342D01*
X201761786Y-88439342D02*
X201809405Y-88534580D01*
X201809405Y-88534580D02*
X201857024Y-88582200D01*
X201857024Y-88582200D02*
X201952262Y-88629819D01*
X201952262Y-88629819D02*
X202142738Y-88629819D01*
X202142738Y-88629819D02*
X202237976Y-88582200D01*
X202237976Y-88582200D02*
X202285595Y-88534580D01*
X202285595Y-88534580D02*
X202333214Y-88439342D01*
X202333214Y-88439342D02*
X202333214Y-88201247D01*
X202333214Y-88201247D02*
X202285595Y-88106009D01*
X202285595Y-88106009D02*
X202237976Y-88058390D01*
X202237976Y-88058390D02*
X202142738Y-88010771D01*
X202142738Y-88010771D02*
X201952262Y-88010771D01*
X201952262Y-88010771D02*
X201857024Y-88058390D01*
X201857024Y-88058390D02*
X201809405Y-88106009D01*
X201809405Y-88106009D02*
X201761786Y-88201247D01*
X200882142Y-93154819D02*
X200548809Y-92678628D01*
X200310714Y-93154819D02*
X200310714Y-92154819D01*
X200310714Y-92154819D02*
X200691666Y-92154819D01*
X200691666Y-92154819D02*
X200786904Y-92202438D01*
X200786904Y-92202438D02*
X200834523Y-92250057D01*
X200834523Y-92250057D02*
X200882142Y-92345295D01*
X200882142Y-92345295D02*
X200882142Y-92488152D01*
X200882142Y-92488152D02*
X200834523Y-92583390D01*
X200834523Y-92583390D02*
X200786904Y-92631009D01*
X200786904Y-92631009D02*
X200691666Y-92678628D01*
X200691666Y-92678628D02*
X200310714Y-92678628D01*
X201834523Y-93154819D02*
X201263095Y-93154819D01*
X201548809Y-93154819D02*
X201548809Y-92154819D01*
X201548809Y-92154819D02*
X201453571Y-92297676D01*
X201453571Y-92297676D02*
X201358333Y-92392914D01*
X201358333Y-92392914D02*
X201263095Y-92440533D01*
X202167857Y-92154819D02*
X202834523Y-92154819D01*
X202834523Y-92154819D02*
X202405952Y-93154819D01*
X200882142Y-84454819D02*
X200548809Y-83978628D01*
X200310714Y-84454819D02*
X200310714Y-83454819D01*
X200310714Y-83454819D02*
X200691666Y-83454819D01*
X200691666Y-83454819D02*
X200786904Y-83502438D01*
X200786904Y-83502438D02*
X200834523Y-83550057D01*
X200834523Y-83550057D02*
X200882142Y-83645295D01*
X200882142Y-83645295D02*
X200882142Y-83788152D01*
X200882142Y-83788152D02*
X200834523Y-83883390D01*
X200834523Y-83883390D02*
X200786904Y-83931009D01*
X200786904Y-83931009D02*
X200691666Y-83978628D01*
X200691666Y-83978628D02*
X200310714Y-83978628D01*
X201834523Y-84454819D02*
X201263095Y-84454819D01*
X201548809Y-84454819D02*
X201548809Y-83454819D01*
X201548809Y-83454819D02*
X201453571Y-83597676D01*
X201453571Y-83597676D02*
X201358333Y-83692914D01*
X201358333Y-83692914D02*
X201263095Y-83740533D01*
X202691666Y-83454819D02*
X202501190Y-83454819D01*
X202501190Y-83454819D02*
X202405952Y-83502438D01*
X202405952Y-83502438D02*
X202358333Y-83550057D01*
X202358333Y-83550057D02*
X202263095Y-83692914D01*
X202263095Y-83692914D02*
X202215476Y-83883390D01*
X202215476Y-83883390D02*
X202215476Y-84264342D01*
X202215476Y-84264342D02*
X202263095Y-84359580D01*
X202263095Y-84359580D02*
X202310714Y-84407200D01*
X202310714Y-84407200D02*
X202405952Y-84454819D01*
X202405952Y-84454819D02*
X202596428Y-84454819D01*
X202596428Y-84454819D02*
X202691666Y-84407200D01*
X202691666Y-84407200D02*
X202739285Y-84359580D01*
X202739285Y-84359580D02*
X202786904Y-84264342D01*
X202786904Y-84264342D02*
X202786904Y-84026247D01*
X202786904Y-84026247D02*
X202739285Y-83931009D01*
X202739285Y-83931009D02*
X202691666Y-83883390D01*
X202691666Y-83883390D02*
X202596428Y-83835771D01*
X202596428Y-83835771D02*
X202405952Y-83835771D01*
X202405952Y-83835771D02*
X202310714Y-83883390D01*
X202310714Y-83883390D02*
X202263095Y-83931009D01*
X202263095Y-83931009D02*
X202215476Y-84026247D01*
X194389761Y-95387557D02*
X194294523Y-95339938D01*
X194294523Y-95339938D02*
X194199285Y-95244700D01*
X194199285Y-95244700D02*
X194056428Y-95101842D01*
X194056428Y-95101842D02*
X193961190Y-95054223D01*
X193961190Y-95054223D02*
X193865952Y-95054223D01*
X193913571Y-95292319D02*
X193818333Y-95244700D01*
X193818333Y-95244700D02*
X193723095Y-95149461D01*
X193723095Y-95149461D02*
X193675476Y-94958985D01*
X193675476Y-94958985D02*
X193675476Y-94625652D01*
X193675476Y-94625652D02*
X193723095Y-94435176D01*
X193723095Y-94435176D02*
X193818333Y-94339938D01*
X193818333Y-94339938D02*
X193913571Y-94292319D01*
X193913571Y-94292319D02*
X194104047Y-94292319D01*
X194104047Y-94292319D02*
X194199285Y-94339938D01*
X194199285Y-94339938D02*
X194294523Y-94435176D01*
X194294523Y-94435176D02*
X194342142Y-94625652D01*
X194342142Y-94625652D02*
X194342142Y-94958985D01*
X194342142Y-94958985D02*
X194294523Y-95149461D01*
X194294523Y-95149461D02*
X194199285Y-95244700D01*
X194199285Y-95244700D02*
X194104047Y-95292319D01*
X194104047Y-95292319D02*
X193913571Y-95292319D01*
X194723095Y-94387557D02*
X194770714Y-94339938D01*
X194770714Y-94339938D02*
X194865952Y-94292319D01*
X194865952Y-94292319D02*
X195104047Y-94292319D01*
X195104047Y-94292319D02*
X195199285Y-94339938D01*
X195199285Y-94339938D02*
X195246904Y-94387557D01*
X195246904Y-94387557D02*
X195294523Y-94482795D01*
X195294523Y-94482795D02*
X195294523Y-94578033D01*
X195294523Y-94578033D02*
X195246904Y-94720890D01*
X195246904Y-94720890D02*
X194675476Y-95292319D01*
X194675476Y-95292319D02*
X195294523Y-95292319D01*
X183021905Y-85913119D02*
X183021905Y-84913119D01*
X183021905Y-84913119D02*
X183260000Y-84913119D01*
X183260000Y-84913119D02*
X183402857Y-84960738D01*
X183402857Y-84960738D02*
X183498095Y-85055976D01*
X183498095Y-85055976D02*
X183545714Y-85151214D01*
X183545714Y-85151214D02*
X183593333Y-85341690D01*
X183593333Y-85341690D02*
X183593333Y-85484547D01*
X183593333Y-85484547D02*
X183545714Y-85675023D01*
X183545714Y-85675023D02*
X183498095Y-85770261D01*
X183498095Y-85770261D02*
X183402857Y-85865500D01*
X183402857Y-85865500D02*
X183260000Y-85913119D01*
X183260000Y-85913119D02*
X183021905Y-85913119D01*
X183926667Y-84913119D02*
X184545714Y-84913119D01*
X184545714Y-84913119D02*
X184212381Y-85294071D01*
X184212381Y-85294071D02*
X184355238Y-85294071D01*
X184355238Y-85294071D02*
X184450476Y-85341690D01*
X184450476Y-85341690D02*
X184498095Y-85389309D01*
X184498095Y-85389309D02*
X184545714Y-85484547D01*
X184545714Y-85484547D02*
X184545714Y-85722642D01*
X184545714Y-85722642D02*
X184498095Y-85817880D01*
X184498095Y-85817880D02*
X184450476Y-85865500D01*
X184450476Y-85865500D02*
X184355238Y-85913119D01*
X184355238Y-85913119D02*
X184069524Y-85913119D01*
X184069524Y-85913119D02*
X183974286Y-85865500D01*
X183974286Y-85865500D02*
X183926667Y-85817880D01*
X195638095Y-72042319D02*
X195638095Y-72851842D01*
X195638095Y-72851842D02*
X195685714Y-72947080D01*
X195685714Y-72947080D02*
X195733333Y-72994700D01*
X195733333Y-72994700D02*
X195828571Y-73042319D01*
X195828571Y-73042319D02*
X196019047Y-73042319D01*
X196019047Y-73042319D02*
X196114285Y-72994700D01*
X196114285Y-72994700D02*
X196161904Y-72947080D01*
X196161904Y-72947080D02*
X196209523Y-72851842D01*
X196209523Y-72851842D02*
X196209523Y-72042319D01*
X196590476Y-72042319D02*
X197209523Y-72042319D01*
X197209523Y-72042319D02*
X196876190Y-72423271D01*
X196876190Y-72423271D02*
X197019047Y-72423271D01*
X197019047Y-72423271D02*
X197114285Y-72470890D01*
X197114285Y-72470890D02*
X197161904Y-72518509D01*
X197161904Y-72518509D02*
X197209523Y-72613747D01*
X197209523Y-72613747D02*
X197209523Y-72851842D01*
X197209523Y-72851842D02*
X197161904Y-72947080D01*
X197161904Y-72947080D02*
X197114285Y-72994700D01*
X197114285Y-72994700D02*
X197019047Y-73042319D01*
X197019047Y-73042319D02*
X196733333Y-73042319D01*
X196733333Y-73042319D02*
X196638095Y-72994700D01*
X196638095Y-72994700D02*
X196590476Y-72947080D01*
X144734580Y-90317857D02*
X144782200Y-90365476D01*
X144782200Y-90365476D02*
X144829819Y-90508333D01*
X144829819Y-90508333D02*
X144829819Y-90603571D01*
X144829819Y-90603571D02*
X144782200Y-90746428D01*
X144782200Y-90746428D02*
X144686961Y-90841666D01*
X144686961Y-90841666D02*
X144591723Y-90889285D01*
X144591723Y-90889285D02*
X144401247Y-90936904D01*
X144401247Y-90936904D02*
X144258390Y-90936904D01*
X144258390Y-90936904D02*
X144067914Y-90889285D01*
X144067914Y-90889285D02*
X143972676Y-90841666D01*
X143972676Y-90841666D02*
X143877438Y-90746428D01*
X143877438Y-90746428D02*
X143829819Y-90603571D01*
X143829819Y-90603571D02*
X143829819Y-90508333D01*
X143829819Y-90508333D02*
X143877438Y-90365476D01*
X143877438Y-90365476D02*
X143925057Y-90317857D01*
X144829819Y-89365476D02*
X144829819Y-89936904D01*
X144829819Y-89651190D02*
X143829819Y-89651190D01*
X143829819Y-89651190D02*
X143972676Y-89746428D01*
X143972676Y-89746428D02*
X144067914Y-89841666D01*
X144067914Y-89841666D02*
X144115533Y-89936904D01*
X144258390Y-88794047D02*
X144210771Y-88889285D01*
X144210771Y-88889285D02*
X144163152Y-88936904D01*
X144163152Y-88936904D02*
X144067914Y-88984523D01*
X144067914Y-88984523D02*
X144020295Y-88984523D01*
X144020295Y-88984523D02*
X143925057Y-88936904D01*
X143925057Y-88936904D02*
X143877438Y-88889285D01*
X143877438Y-88889285D02*
X143829819Y-88794047D01*
X143829819Y-88794047D02*
X143829819Y-88603571D01*
X143829819Y-88603571D02*
X143877438Y-88508333D01*
X143877438Y-88508333D02*
X143925057Y-88460714D01*
X143925057Y-88460714D02*
X144020295Y-88413095D01*
X144020295Y-88413095D02*
X144067914Y-88413095D01*
X144067914Y-88413095D02*
X144163152Y-88460714D01*
X144163152Y-88460714D02*
X144210771Y-88508333D01*
X144210771Y-88508333D02*
X144258390Y-88603571D01*
X144258390Y-88603571D02*
X144258390Y-88794047D01*
X144258390Y-88794047D02*
X144306009Y-88889285D01*
X144306009Y-88889285D02*
X144353628Y-88936904D01*
X144353628Y-88936904D02*
X144448866Y-88984523D01*
X144448866Y-88984523D02*
X144639342Y-88984523D01*
X144639342Y-88984523D02*
X144734580Y-88936904D01*
X144734580Y-88936904D02*
X144782200Y-88889285D01*
X144782200Y-88889285D02*
X144829819Y-88794047D01*
X144829819Y-88794047D02*
X144829819Y-88603571D01*
X144829819Y-88603571D02*
X144782200Y-88508333D01*
X144782200Y-88508333D02*
X144734580Y-88460714D01*
X144734580Y-88460714D02*
X144639342Y-88413095D01*
X144639342Y-88413095D02*
X144448866Y-88413095D01*
X144448866Y-88413095D02*
X144353628Y-88460714D01*
X144353628Y-88460714D02*
X144306009Y-88508333D01*
X144306009Y-88508333D02*
X144258390Y-88603571D01*
X136034580Y-89771666D02*
X136082200Y-89819285D01*
X136082200Y-89819285D02*
X136129819Y-89962142D01*
X136129819Y-89962142D02*
X136129819Y-90057380D01*
X136129819Y-90057380D02*
X136082200Y-90200237D01*
X136082200Y-90200237D02*
X135986961Y-90295475D01*
X135986961Y-90295475D02*
X135891723Y-90343094D01*
X135891723Y-90343094D02*
X135701247Y-90390713D01*
X135701247Y-90390713D02*
X135558390Y-90390713D01*
X135558390Y-90390713D02*
X135367914Y-90343094D01*
X135367914Y-90343094D02*
X135272676Y-90295475D01*
X135272676Y-90295475D02*
X135177438Y-90200237D01*
X135177438Y-90200237D02*
X135129819Y-90057380D01*
X135129819Y-90057380D02*
X135129819Y-89962142D01*
X135129819Y-89962142D02*
X135177438Y-89819285D01*
X135177438Y-89819285D02*
X135225057Y-89771666D01*
X136129819Y-89295475D02*
X136129819Y-89104999D01*
X136129819Y-89104999D02*
X136082200Y-89009761D01*
X136082200Y-89009761D02*
X136034580Y-88962142D01*
X136034580Y-88962142D02*
X135891723Y-88866904D01*
X135891723Y-88866904D02*
X135701247Y-88819285D01*
X135701247Y-88819285D02*
X135320295Y-88819285D01*
X135320295Y-88819285D02*
X135225057Y-88866904D01*
X135225057Y-88866904D02*
X135177438Y-88914523D01*
X135177438Y-88914523D02*
X135129819Y-89009761D01*
X135129819Y-89009761D02*
X135129819Y-89200237D01*
X135129819Y-89200237D02*
X135177438Y-89295475D01*
X135177438Y-89295475D02*
X135225057Y-89343094D01*
X135225057Y-89343094D02*
X135320295Y-89390713D01*
X135320295Y-89390713D02*
X135558390Y-89390713D01*
X135558390Y-89390713D02*
X135653628Y-89343094D01*
X135653628Y-89343094D02*
X135701247Y-89295475D01*
X135701247Y-89295475D02*
X135748866Y-89200237D01*
X135748866Y-89200237D02*
X135748866Y-89009761D01*
X135748866Y-89009761D02*
X135701247Y-88914523D01*
X135701247Y-88914523D02*
X135653628Y-88866904D01*
X135653628Y-88866904D02*
X135558390Y-88819285D01*
X211704819Y-62533333D02*
X212419104Y-62533333D01*
X212419104Y-62533333D02*
X212561961Y-62580952D01*
X212561961Y-62580952D02*
X212657200Y-62676190D01*
X212657200Y-62676190D02*
X212704819Y-62819047D01*
X212704819Y-62819047D02*
X212704819Y-62914285D01*
X211800057Y-62104761D02*
X211752438Y-62057142D01*
X211752438Y-62057142D02*
X211704819Y-61961904D01*
X211704819Y-61961904D02*
X211704819Y-61723809D01*
X211704819Y-61723809D02*
X211752438Y-61628571D01*
X211752438Y-61628571D02*
X211800057Y-61580952D01*
X211800057Y-61580952D02*
X211895295Y-61533333D01*
X211895295Y-61533333D02*
X211990533Y-61533333D01*
X211990533Y-61533333D02*
X212133390Y-61580952D01*
X212133390Y-61580952D02*
X212704819Y-62152380D01*
X212704819Y-62152380D02*
X212704819Y-61533333D01*
X112863604Y-80300180D02*
X112863604Y-79490657D01*
X112863604Y-79490657D02*
X112815985Y-79395419D01*
X112815985Y-79395419D02*
X112768366Y-79347800D01*
X112768366Y-79347800D02*
X112673128Y-79300180D01*
X112673128Y-79300180D02*
X112482652Y-79300180D01*
X112482652Y-79300180D02*
X112387414Y-79347800D01*
X112387414Y-79347800D02*
X112339795Y-79395419D01*
X112339795Y-79395419D02*
X112292176Y-79490657D01*
X112292176Y-79490657D02*
X112292176Y-80300180D01*
X111292176Y-79300180D02*
X111863604Y-79300180D01*
X111577890Y-79300180D02*
X111577890Y-80300180D01*
X111577890Y-80300180D02*
X111673128Y-80157323D01*
X111673128Y-80157323D02*
X111768366Y-80062085D01*
X111768366Y-80062085D02*
X111863604Y-80014466D01*
X124493367Y-83186380D02*
X124493367Y-84186380D01*
X124493367Y-84186380D02*
X124255272Y-84186380D01*
X124255272Y-84186380D02*
X124112415Y-84138761D01*
X124112415Y-84138761D02*
X124017177Y-84043523D01*
X124017177Y-84043523D02*
X123969558Y-83948285D01*
X123969558Y-83948285D02*
X123921939Y-83757809D01*
X123921939Y-83757809D02*
X123921939Y-83614952D01*
X123921939Y-83614952D02*
X123969558Y-83424476D01*
X123969558Y-83424476D02*
X124017177Y-83329238D01*
X124017177Y-83329238D02*
X124112415Y-83234000D01*
X124112415Y-83234000D02*
X124255272Y-83186380D01*
X124255272Y-83186380D02*
X124493367Y-83186380D01*
X123112415Y-83234000D02*
X123207653Y-83186380D01*
X123207653Y-83186380D02*
X123398129Y-83186380D01*
X123398129Y-83186380D02*
X123493367Y-83234000D01*
X123493367Y-83234000D02*
X123540986Y-83329238D01*
X123540986Y-83329238D02*
X123540986Y-83710190D01*
X123540986Y-83710190D02*
X123493367Y-83805428D01*
X123493367Y-83805428D02*
X123398129Y-83853047D01*
X123398129Y-83853047D02*
X123207653Y-83853047D01*
X123207653Y-83853047D02*
X123112415Y-83805428D01*
X123112415Y-83805428D02*
X123064796Y-83710190D01*
X123064796Y-83710190D02*
X123064796Y-83614952D01*
X123064796Y-83614952D02*
X123540986Y-83519714D01*
X122683843Y-83234000D02*
X122588605Y-83186380D01*
X122588605Y-83186380D02*
X122398129Y-83186380D01*
X122398129Y-83186380D02*
X122302891Y-83234000D01*
X122302891Y-83234000D02*
X122255272Y-83329238D01*
X122255272Y-83329238D02*
X122255272Y-83376857D01*
X122255272Y-83376857D02*
X122302891Y-83472095D01*
X122302891Y-83472095D02*
X122398129Y-83519714D01*
X122398129Y-83519714D02*
X122540986Y-83519714D01*
X122540986Y-83519714D02*
X122636224Y-83567333D01*
X122636224Y-83567333D02*
X122683843Y-83662571D01*
X122683843Y-83662571D02*
X122683843Y-83710190D01*
X122683843Y-83710190D02*
X122636224Y-83805428D01*
X122636224Y-83805428D02*
X122540986Y-83853047D01*
X122540986Y-83853047D02*
X122398129Y-83853047D01*
X122398129Y-83853047D02*
X122302891Y-83805428D01*
X121826700Y-83186380D02*
X121826700Y-83853047D01*
X121826700Y-84186380D02*
X121874319Y-84138761D01*
X121874319Y-84138761D02*
X121826700Y-84091142D01*
X121826700Y-84091142D02*
X121779081Y-84138761D01*
X121779081Y-84138761D02*
X121826700Y-84186380D01*
X121826700Y-84186380D02*
X121826700Y-84091142D01*
X120921939Y-83853047D02*
X120921939Y-83043523D01*
X120921939Y-83043523D02*
X120969558Y-82948285D01*
X120969558Y-82948285D02*
X121017177Y-82900666D01*
X121017177Y-82900666D02*
X121112415Y-82853047D01*
X121112415Y-82853047D02*
X121255272Y-82853047D01*
X121255272Y-82853047D02*
X121350510Y-82900666D01*
X120921939Y-83234000D02*
X121017177Y-83186380D01*
X121017177Y-83186380D02*
X121207653Y-83186380D01*
X121207653Y-83186380D02*
X121302891Y-83234000D01*
X121302891Y-83234000D02*
X121350510Y-83281619D01*
X121350510Y-83281619D02*
X121398129Y-83376857D01*
X121398129Y-83376857D02*
X121398129Y-83662571D01*
X121398129Y-83662571D02*
X121350510Y-83757809D01*
X121350510Y-83757809D02*
X121302891Y-83805428D01*
X121302891Y-83805428D02*
X121207653Y-83853047D01*
X121207653Y-83853047D02*
X121017177Y-83853047D01*
X121017177Y-83853047D02*
X120921939Y-83805428D01*
X120445748Y-83853047D02*
X120445748Y-83186380D01*
X120445748Y-83757809D02*
X120398129Y-83805428D01*
X120398129Y-83805428D02*
X120302891Y-83853047D01*
X120302891Y-83853047D02*
X120160034Y-83853047D01*
X120160034Y-83853047D02*
X120064796Y-83805428D01*
X120064796Y-83805428D02*
X120017177Y-83710190D01*
X120017177Y-83710190D02*
X120017177Y-83186380D01*
X119112415Y-83186380D02*
X119112415Y-83710190D01*
X119112415Y-83710190D02*
X119160034Y-83805428D01*
X119160034Y-83805428D02*
X119255272Y-83853047D01*
X119255272Y-83853047D02*
X119445748Y-83853047D01*
X119445748Y-83853047D02*
X119540986Y-83805428D01*
X119112415Y-83234000D02*
X119207653Y-83186380D01*
X119207653Y-83186380D02*
X119445748Y-83186380D01*
X119445748Y-83186380D02*
X119540986Y-83234000D01*
X119540986Y-83234000D02*
X119588605Y-83329238D01*
X119588605Y-83329238D02*
X119588605Y-83424476D01*
X119588605Y-83424476D02*
X119540986Y-83519714D01*
X119540986Y-83519714D02*
X119445748Y-83567333D01*
X119445748Y-83567333D02*
X119207653Y-83567333D01*
X119207653Y-83567333D02*
X119112415Y-83614952D01*
X118779081Y-83853047D02*
X118398129Y-83853047D01*
X118636224Y-84186380D02*
X118636224Y-83329238D01*
X118636224Y-83329238D02*
X118588605Y-83234000D01*
X118588605Y-83234000D02*
X118493367Y-83186380D01*
X118493367Y-83186380D02*
X118398129Y-83186380D01*
X117921938Y-83186380D02*
X118017176Y-83234000D01*
X118017176Y-83234000D02*
X118064795Y-83281619D01*
X118064795Y-83281619D02*
X118112414Y-83376857D01*
X118112414Y-83376857D02*
X118112414Y-83662571D01*
X118112414Y-83662571D02*
X118064795Y-83757809D01*
X118064795Y-83757809D02*
X118017176Y-83805428D01*
X118017176Y-83805428D02*
X117921938Y-83853047D01*
X117921938Y-83853047D02*
X117779081Y-83853047D01*
X117779081Y-83853047D02*
X117683843Y-83805428D01*
X117683843Y-83805428D02*
X117636224Y-83757809D01*
X117636224Y-83757809D02*
X117588605Y-83662571D01*
X117588605Y-83662571D02*
X117588605Y-83376857D01*
X117588605Y-83376857D02*
X117636224Y-83281619D01*
X117636224Y-83281619D02*
X117683843Y-83234000D01*
X117683843Y-83234000D02*
X117779081Y-83186380D01*
X117779081Y-83186380D02*
X117921938Y-83186380D01*
X117160033Y-83186380D02*
X117160033Y-83853047D01*
X117160033Y-83662571D02*
X117112414Y-83757809D01*
X117112414Y-83757809D02*
X117064795Y-83805428D01*
X117064795Y-83805428D02*
X116969557Y-83853047D01*
X116969557Y-83853047D02*
X116874319Y-83853047D01*
X116588604Y-84091142D02*
X116540985Y-84138761D01*
X116540985Y-84138761D02*
X116445747Y-84186380D01*
X116445747Y-84186380D02*
X116207652Y-84186380D01*
X116207652Y-84186380D02*
X116112414Y-84138761D01*
X116112414Y-84138761D02*
X116064795Y-84091142D01*
X116064795Y-84091142D02*
X116017176Y-83995904D01*
X116017176Y-83995904D02*
X116017176Y-83900666D01*
X116017176Y-83900666D02*
X116064795Y-83757809D01*
X116064795Y-83757809D02*
X116636223Y-83186380D01*
X116636223Y-83186380D02*
X116017176Y-83186380D01*
X115398128Y-84186380D02*
X115302890Y-84186380D01*
X115302890Y-84186380D02*
X115207652Y-84138761D01*
X115207652Y-84138761D02*
X115160033Y-84091142D01*
X115160033Y-84091142D02*
X115112414Y-83995904D01*
X115112414Y-83995904D02*
X115064795Y-83805428D01*
X115064795Y-83805428D02*
X115064795Y-83567333D01*
X115064795Y-83567333D02*
X115112414Y-83376857D01*
X115112414Y-83376857D02*
X115160033Y-83281619D01*
X115160033Y-83281619D02*
X115207652Y-83234000D01*
X115207652Y-83234000D02*
X115302890Y-83186380D01*
X115302890Y-83186380D02*
X115398128Y-83186380D01*
X115398128Y-83186380D02*
X115493366Y-83234000D01*
X115493366Y-83234000D02*
X115540985Y-83281619D01*
X115540985Y-83281619D02*
X115588604Y-83376857D01*
X115588604Y-83376857D02*
X115636223Y-83567333D01*
X115636223Y-83567333D02*
X115636223Y-83805428D01*
X115636223Y-83805428D02*
X115588604Y-83995904D01*
X115588604Y-83995904D02*
X115540985Y-84091142D01*
X115540985Y-84091142D02*
X115493366Y-84138761D01*
X115493366Y-84138761D02*
X115398128Y-84186380D01*
X114588604Y-83186380D02*
X114398128Y-83186380D01*
X114398128Y-83186380D02*
X114302890Y-83234000D01*
X114302890Y-83234000D02*
X114255271Y-83281619D01*
X114255271Y-83281619D02*
X114160033Y-83424476D01*
X114160033Y-83424476D02*
X114112414Y-83614952D01*
X114112414Y-83614952D02*
X114112414Y-83995904D01*
X114112414Y-83995904D02*
X114160033Y-84091142D01*
X114160033Y-84091142D02*
X114207652Y-84138761D01*
X114207652Y-84138761D02*
X114302890Y-84186380D01*
X114302890Y-84186380D02*
X114493366Y-84186380D01*
X114493366Y-84186380D02*
X114588604Y-84138761D01*
X114588604Y-84138761D02*
X114636223Y-84091142D01*
X114636223Y-84091142D02*
X114683842Y-83995904D01*
X114683842Y-83995904D02*
X114683842Y-83757809D01*
X114683842Y-83757809D02*
X114636223Y-83662571D01*
X114636223Y-83662571D02*
X114588604Y-83614952D01*
X114588604Y-83614952D02*
X114493366Y-83567333D01*
X114493366Y-83567333D02*
X114302890Y-83567333D01*
X114302890Y-83567333D02*
X114207652Y-83614952D01*
X114207652Y-83614952D02*
X114160033Y-83662571D01*
X114160033Y-83662571D02*
X114112414Y-83757809D01*
X189819642Y-74729580D02*
X189772023Y-74777200D01*
X189772023Y-74777200D02*
X189629166Y-74824819D01*
X189629166Y-74824819D02*
X189533928Y-74824819D01*
X189533928Y-74824819D02*
X189391071Y-74777200D01*
X189391071Y-74777200D02*
X189295833Y-74681961D01*
X189295833Y-74681961D02*
X189248214Y-74586723D01*
X189248214Y-74586723D02*
X189200595Y-74396247D01*
X189200595Y-74396247D02*
X189200595Y-74253390D01*
X189200595Y-74253390D02*
X189248214Y-74062914D01*
X189248214Y-74062914D02*
X189295833Y-73967676D01*
X189295833Y-73967676D02*
X189391071Y-73872438D01*
X189391071Y-73872438D02*
X189533928Y-73824819D01*
X189533928Y-73824819D02*
X189629166Y-73824819D01*
X189629166Y-73824819D02*
X189772023Y-73872438D01*
X189772023Y-73872438D02*
X189819642Y-73920057D01*
X190772023Y-74824819D02*
X190200595Y-74824819D01*
X190486309Y-74824819D02*
X190486309Y-73824819D01*
X190486309Y-73824819D02*
X190391071Y-73967676D01*
X190391071Y-73967676D02*
X190295833Y-74062914D01*
X190295833Y-74062914D02*
X190200595Y-74110533D01*
X191391071Y-73824819D02*
X191486309Y-73824819D01*
X191486309Y-73824819D02*
X191581547Y-73872438D01*
X191581547Y-73872438D02*
X191629166Y-73920057D01*
X191629166Y-73920057D02*
X191676785Y-74015295D01*
X191676785Y-74015295D02*
X191724404Y-74205771D01*
X191724404Y-74205771D02*
X191724404Y-74443866D01*
X191724404Y-74443866D02*
X191676785Y-74634342D01*
X191676785Y-74634342D02*
X191629166Y-74729580D01*
X191629166Y-74729580D02*
X191581547Y-74777200D01*
X191581547Y-74777200D02*
X191486309Y-74824819D01*
X191486309Y-74824819D02*
X191391071Y-74824819D01*
X191391071Y-74824819D02*
X191295833Y-74777200D01*
X191295833Y-74777200D02*
X191248214Y-74729580D01*
X191248214Y-74729580D02*
X191200595Y-74634342D01*
X191200595Y-74634342D02*
X191152976Y-74443866D01*
X191152976Y-74443866D02*
X191152976Y-74205771D01*
X191152976Y-74205771D02*
X191200595Y-74015295D01*
X191200595Y-74015295D02*
X191248214Y-73920057D01*
X191248214Y-73920057D02*
X191295833Y-73872438D01*
X191295833Y-73872438D02*
X191391071Y-73824819D01*
X210094642Y-87729819D02*
X209761309Y-87253628D01*
X209523214Y-87729819D02*
X209523214Y-86729819D01*
X209523214Y-86729819D02*
X209904166Y-86729819D01*
X209904166Y-86729819D02*
X209999404Y-86777438D01*
X209999404Y-86777438D02*
X210047023Y-86825057D01*
X210047023Y-86825057D02*
X210094642Y-86920295D01*
X210094642Y-86920295D02*
X210094642Y-87063152D01*
X210094642Y-87063152D02*
X210047023Y-87158390D01*
X210047023Y-87158390D02*
X209999404Y-87206009D01*
X209999404Y-87206009D02*
X209904166Y-87253628D01*
X209904166Y-87253628D02*
X209523214Y-87253628D01*
X211047023Y-87729819D02*
X210475595Y-87729819D01*
X210761309Y-87729819D02*
X210761309Y-86729819D01*
X210761309Y-86729819D02*
X210666071Y-86872676D01*
X210666071Y-86872676D02*
X210570833Y-86967914D01*
X210570833Y-86967914D02*
X210475595Y-87015533D01*
X211951785Y-86729819D02*
X211475595Y-86729819D01*
X211475595Y-86729819D02*
X211427976Y-87206009D01*
X211427976Y-87206009D02*
X211475595Y-87158390D01*
X211475595Y-87158390D02*
X211570833Y-87110771D01*
X211570833Y-87110771D02*
X211808928Y-87110771D01*
X211808928Y-87110771D02*
X211904166Y-87158390D01*
X211904166Y-87158390D02*
X211951785Y-87206009D01*
X211951785Y-87206009D02*
X211999404Y-87301247D01*
X211999404Y-87301247D02*
X211999404Y-87539342D01*
X211999404Y-87539342D02*
X211951785Y-87634580D01*
X211951785Y-87634580D02*
X211904166Y-87682200D01*
X211904166Y-87682200D02*
X211808928Y-87729819D01*
X211808928Y-87729819D02*
X211570833Y-87729819D01*
X211570833Y-87729819D02*
X211475595Y-87682200D01*
X211475595Y-87682200D02*
X211427976Y-87634580D01*
X210094642Y-81829819D02*
X209761309Y-81353628D01*
X209523214Y-81829819D02*
X209523214Y-80829819D01*
X209523214Y-80829819D02*
X209904166Y-80829819D01*
X209904166Y-80829819D02*
X209999404Y-80877438D01*
X209999404Y-80877438D02*
X210047023Y-80925057D01*
X210047023Y-80925057D02*
X210094642Y-81020295D01*
X210094642Y-81020295D02*
X210094642Y-81163152D01*
X210094642Y-81163152D02*
X210047023Y-81258390D01*
X210047023Y-81258390D02*
X209999404Y-81306009D01*
X209999404Y-81306009D02*
X209904166Y-81353628D01*
X209904166Y-81353628D02*
X209523214Y-81353628D01*
X211047023Y-81829819D02*
X210475595Y-81829819D01*
X210761309Y-81829819D02*
X210761309Y-80829819D01*
X210761309Y-80829819D02*
X210666071Y-80972676D01*
X210666071Y-80972676D02*
X210570833Y-81067914D01*
X210570833Y-81067914D02*
X210475595Y-81115533D01*
X211380357Y-80829819D02*
X211999404Y-80829819D01*
X211999404Y-80829819D02*
X211666071Y-81210771D01*
X211666071Y-81210771D02*
X211808928Y-81210771D01*
X211808928Y-81210771D02*
X211904166Y-81258390D01*
X211904166Y-81258390D02*
X211951785Y-81306009D01*
X211951785Y-81306009D02*
X211999404Y-81401247D01*
X211999404Y-81401247D02*
X211999404Y-81639342D01*
X211999404Y-81639342D02*
X211951785Y-81734580D01*
X211951785Y-81734580D02*
X211904166Y-81782200D01*
X211904166Y-81782200D02*
X211808928Y-81829819D01*
X211808928Y-81829819D02*
X211523214Y-81829819D01*
X211523214Y-81829819D02*
X211427976Y-81782200D01*
X211427976Y-81782200D02*
X211380357Y-81734580D01*
X210094642Y-81479819D02*
X209761309Y-81003628D01*
X209523214Y-81479819D02*
X209523214Y-80479819D01*
X209523214Y-80479819D02*
X209904166Y-80479819D01*
X209904166Y-80479819D02*
X209999404Y-80527438D01*
X209999404Y-80527438D02*
X210047023Y-80575057D01*
X210047023Y-80575057D02*
X210094642Y-80670295D01*
X210094642Y-80670295D02*
X210094642Y-80813152D01*
X210094642Y-80813152D02*
X210047023Y-80908390D01*
X210047023Y-80908390D02*
X209999404Y-80956009D01*
X209999404Y-80956009D02*
X209904166Y-81003628D01*
X209904166Y-81003628D02*
X209523214Y-81003628D01*
X211047023Y-81479819D02*
X210475595Y-81479819D01*
X210761309Y-81479819D02*
X210761309Y-80479819D01*
X210761309Y-80479819D02*
X210666071Y-80622676D01*
X210666071Y-80622676D02*
X210570833Y-80717914D01*
X210570833Y-80717914D02*
X210475595Y-80765533D01*
X211904166Y-80813152D02*
X211904166Y-81479819D01*
X211666071Y-80432200D02*
X211427976Y-81146485D01*
X211427976Y-81146485D02*
X212047023Y-81146485D01*
X195134580Y-62842857D02*
X195182200Y-62890476D01*
X195182200Y-62890476D02*
X195229819Y-63033333D01*
X195229819Y-63033333D02*
X195229819Y-63128571D01*
X195229819Y-63128571D02*
X195182200Y-63271428D01*
X195182200Y-63271428D02*
X195086961Y-63366666D01*
X195086961Y-63366666D02*
X194991723Y-63414285D01*
X194991723Y-63414285D02*
X194801247Y-63461904D01*
X194801247Y-63461904D02*
X194658390Y-63461904D01*
X194658390Y-63461904D02*
X194467914Y-63414285D01*
X194467914Y-63414285D02*
X194372676Y-63366666D01*
X194372676Y-63366666D02*
X194277438Y-63271428D01*
X194277438Y-63271428D02*
X194229819Y-63128571D01*
X194229819Y-63128571D02*
X194229819Y-63033333D01*
X194229819Y-63033333D02*
X194277438Y-62890476D01*
X194277438Y-62890476D02*
X194325057Y-62842857D01*
X195229819Y-61890476D02*
X195229819Y-62461904D01*
X195229819Y-62176190D02*
X194229819Y-62176190D01*
X194229819Y-62176190D02*
X194372676Y-62271428D01*
X194372676Y-62271428D02*
X194467914Y-62366666D01*
X194467914Y-62366666D02*
X194515533Y-62461904D01*
X194563152Y-61033333D02*
X195229819Y-61033333D01*
X194182200Y-61271428D02*
X194896485Y-61509523D01*
X194896485Y-61509523D02*
X194896485Y-60890476D01*
X205384580Y-62842857D02*
X205432200Y-62890476D01*
X205432200Y-62890476D02*
X205479819Y-63033333D01*
X205479819Y-63033333D02*
X205479819Y-63128571D01*
X205479819Y-63128571D02*
X205432200Y-63271428D01*
X205432200Y-63271428D02*
X205336961Y-63366666D01*
X205336961Y-63366666D02*
X205241723Y-63414285D01*
X205241723Y-63414285D02*
X205051247Y-63461904D01*
X205051247Y-63461904D02*
X204908390Y-63461904D01*
X204908390Y-63461904D02*
X204717914Y-63414285D01*
X204717914Y-63414285D02*
X204622676Y-63366666D01*
X204622676Y-63366666D02*
X204527438Y-63271428D01*
X204527438Y-63271428D02*
X204479819Y-63128571D01*
X204479819Y-63128571D02*
X204479819Y-63033333D01*
X204479819Y-63033333D02*
X204527438Y-62890476D01*
X204527438Y-62890476D02*
X204575057Y-62842857D01*
X205479819Y-61890476D02*
X205479819Y-62461904D01*
X205479819Y-62176190D02*
X204479819Y-62176190D01*
X204479819Y-62176190D02*
X204622676Y-62271428D01*
X204622676Y-62271428D02*
X204717914Y-62366666D01*
X204717914Y-62366666D02*
X204765533Y-62461904D01*
X204479819Y-60985714D02*
X204479819Y-61461904D01*
X204479819Y-61461904D02*
X204956009Y-61509523D01*
X204956009Y-61509523D02*
X204908390Y-61461904D01*
X204908390Y-61461904D02*
X204860771Y-61366666D01*
X204860771Y-61366666D02*
X204860771Y-61128571D01*
X204860771Y-61128571D02*
X204908390Y-61033333D01*
X204908390Y-61033333D02*
X204956009Y-60985714D01*
X204956009Y-60985714D02*
X205051247Y-60938095D01*
X205051247Y-60938095D02*
X205289342Y-60938095D01*
X205289342Y-60938095D02*
X205384580Y-60985714D01*
X205384580Y-60985714D02*
X205432200Y-61033333D01*
X205432200Y-61033333D02*
X205479819Y-61128571D01*
X205479819Y-61128571D02*
X205479819Y-61366666D01*
X205479819Y-61366666D02*
X205432200Y-61461904D01*
X205432200Y-61461904D02*
X205384580Y-61509523D01*
X211509580Y-62842857D02*
X211557200Y-62890476D01*
X211557200Y-62890476D02*
X211604819Y-63033333D01*
X211604819Y-63033333D02*
X211604819Y-63128571D01*
X211604819Y-63128571D02*
X211557200Y-63271428D01*
X211557200Y-63271428D02*
X211461961Y-63366666D01*
X211461961Y-63366666D02*
X211366723Y-63414285D01*
X211366723Y-63414285D02*
X211176247Y-63461904D01*
X211176247Y-63461904D02*
X211033390Y-63461904D01*
X211033390Y-63461904D02*
X210842914Y-63414285D01*
X210842914Y-63414285D02*
X210747676Y-63366666D01*
X210747676Y-63366666D02*
X210652438Y-63271428D01*
X210652438Y-63271428D02*
X210604819Y-63128571D01*
X210604819Y-63128571D02*
X210604819Y-63033333D01*
X210604819Y-63033333D02*
X210652438Y-62890476D01*
X210652438Y-62890476D02*
X210700057Y-62842857D01*
X211604819Y-61890476D02*
X211604819Y-62461904D01*
X211604819Y-62176190D02*
X210604819Y-62176190D01*
X210604819Y-62176190D02*
X210747676Y-62271428D01*
X210747676Y-62271428D02*
X210842914Y-62366666D01*
X210842914Y-62366666D02*
X210890533Y-62461904D01*
X210604819Y-61033333D02*
X210604819Y-61223809D01*
X210604819Y-61223809D02*
X210652438Y-61319047D01*
X210652438Y-61319047D02*
X210700057Y-61366666D01*
X210700057Y-61366666D02*
X210842914Y-61461904D01*
X210842914Y-61461904D02*
X211033390Y-61509523D01*
X211033390Y-61509523D02*
X211414342Y-61509523D01*
X211414342Y-61509523D02*
X211509580Y-61461904D01*
X211509580Y-61461904D02*
X211557200Y-61414285D01*
X211557200Y-61414285D02*
X211604819Y-61319047D01*
X211604819Y-61319047D02*
X211604819Y-61128571D01*
X211604819Y-61128571D02*
X211557200Y-61033333D01*
X211557200Y-61033333D02*
X211509580Y-60985714D01*
X211509580Y-60985714D02*
X211414342Y-60938095D01*
X211414342Y-60938095D02*
X211176247Y-60938095D01*
X211176247Y-60938095D02*
X211081009Y-60985714D01*
X211081009Y-60985714D02*
X211033390Y-61033333D01*
X211033390Y-61033333D02*
X210985771Y-61128571D01*
X210985771Y-61128571D02*
X210985771Y-61319047D01*
X210985771Y-61319047D02*
X211033390Y-61414285D01*
X211033390Y-61414285D02*
X211081009Y-61461904D01*
X211081009Y-61461904D02*
X211176247Y-61509523D01*
D11*
X168738095Y-50957419D02*
X168738095Y-51766942D01*
X168738095Y-51766942D02*
X168785714Y-51862180D01*
X168785714Y-51862180D02*
X168833333Y-51909800D01*
X168833333Y-51909800D02*
X168928571Y-51957419D01*
X168928571Y-51957419D02*
X169119047Y-51957419D01*
X169119047Y-51957419D02*
X169214285Y-51909800D01*
X169214285Y-51909800D02*
X169261904Y-51862180D01*
X169261904Y-51862180D02*
X169309523Y-51766942D01*
X169309523Y-51766942D02*
X169309523Y-50957419D01*
X170214285Y-51290752D02*
X170214285Y-51957419D01*
X169976190Y-50909800D02*
X169738095Y-51624085D01*
X169738095Y-51624085D02*
X170357142Y-51624085D01*
D10*
X180511905Y-65154819D02*
X180511905Y-64154819D01*
X180511905Y-64154819D02*
X180750000Y-64154819D01*
X180750000Y-64154819D02*
X180892857Y-64202438D01*
X180892857Y-64202438D02*
X180988095Y-64297676D01*
X180988095Y-64297676D02*
X181035714Y-64392914D01*
X181035714Y-64392914D02*
X181083333Y-64583390D01*
X181083333Y-64583390D02*
X181083333Y-64726247D01*
X181083333Y-64726247D02*
X181035714Y-64916723D01*
X181035714Y-64916723D02*
X180988095Y-65011961D01*
X180988095Y-65011961D02*
X180892857Y-65107200D01*
X180892857Y-65107200D02*
X180750000Y-65154819D01*
X180750000Y-65154819D02*
X180511905Y-65154819D01*
X181940476Y-64488152D02*
X181940476Y-65154819D01*
X181702381Y-64107200D02*
X181464286Y-64821485D01*
X181464286Y-64821485D02*
X182083333Y-64821485D01*
X105183842Y-89819580D02*
X105136223Y-89867200D01*
X105136223Y-89867200D02*
X104993366Y-89914819D01*
X104993366Y-89914819D02*
X104898128Y-89914819D01*
X104898128Y-89914819D02*
X104755271Y-89867200D01*
X104755271Y-89867200D02*
X104660033Y-89771961D01*
X104660033Y-89771961D02*
X104612414Y-89676723D01*
X104612414Y-89676723D02*
X104564795Y-89486247D01*
X104564795Y-89486247D02*
X104564795Y-89343390D01*
X104564795Y-89343390D02*
X104612414Y-89152914D01*
X104612414Y-89152914D02*
X104660033Y-89057676D01*
X104660033Y-89057676D02*
X104755271Y-88962438D01*
X104755271Y-88962438D02*
X104898128Y-88914819D01*
X104898128Y-88914819D02*
X104993366Y-88914819D01*
X104993366Y-88914819D02*
X105136223Y-88962438D01*
X105136223Y-88962438D02*
X105183842Y-89010057D01*
X106136223Y-89914819D02*
X105564795Y-89914819D01*
X105850509Y-89914819D02*
X105850509Y-88914819D01*
X105850509Y-88914819D02*
X105755271Y-89057676D01*
X105755271Y-89057676D02*
X105660033Y-89152914D01*
X105660033Y-89152914D02*
X105564795Y-89200533D01*
X106469557Y-88914819D02*
X107136223Y-88914819D01*
X107136223Y-88914819D02*
X106707652Y-89914819D01*
X78774819Y-64623333D02*
X79489104Y-64623333D01*
X79489104Y-64623333D02*
X79631961Y-64670952D01*
X79631961Y-64670952D02*
X79727200Y-64766190D01*
X79727200Y-64766190D02*
X79774819Y-64909047D01*
X79774819Y-64909047D02*
X79774819Y-65004285D01*
X79774819Y-63623333D02*
X79774819Y-64194761D01*
X79774819Y-63909047D02*
X78774819Y-63909047D01*
X78774819Y-63909047D02*
X78917676Y-64004285D01*
X78917676Y-64004285D02*
X79012914Y-64099523D01*
X79012914Y-64099523D02*
X79060533Y-64194761D01*
X150234642Y-86596519D02*
X149901309Y-86120328D01*
X149663214Y-86596519D02*
X149663214Y-85596519D01*
X149663214Y-85596519D02*
X150044166Y-85596519D01*
X150044166Y-85596519D02*
X150139404Y-85644138D01*
X150139404Y-85644138D02*
X150187023Y-85691757D01*
X150187023Y-85691757D02*
X150234642Y-85786995D01*
X150234642Y-85786995D02*
X150234642Y-85929852D01*
X150234642Y-85929852D02*
X150187023Y-86025090D01*
X150187023Y-86025090D02*
X150139404Y-86072709D01*
X150139404Y-86072709D02*
X150044166Y-86120328D01*
X150044166Y-86120328D02*
X149663214Y-86120328D01*
X151187023Y-86596519D02*
X150615595Y-86596519D01*
X150901309Y-86596519D02*
X150901309Y-85596519D01*
X150901309Y-85596519D02*
X150806071Y-85739376D01*
X150806071Y-85739376D02*
X150710833Y-85834614D01*
X150710833Y-85834614D02*
X150615595Y-85882233D01*
X151663214Y-86596519D02*
X151853690Y-86596519D01*
X151853690Y-86596519D02*
X151948928Y-86548900D01*
X151948928Y-86548900D02*
X151996547Y-86501280D01*
X151996547Y-86501280D02*
X152091785Y-86358423D01*
X152091785Y-86358423D02*
X152139404Y-86167947D01*
X152139404Y-86167947D02*
X152139404Y-85786995D01*
X152139404Y-85786995D02*
X152091785Y-85691757D01*
X152091785Y-85691757D02*
X152044166Y-85644138D01*
X152044166Y-85644138D02*
X151948928Y-85596519D01*
X151948928Y-85596519D02*
X151758452Y-85596519D01*
X151758452Y-85596519D02*
X151663214Y-85644138D01*
X151663214Y-85644138D02*
X151615595Y-85691757D01*
X151615595Y-85691757D02*
X151567976Y-85786995D01*
X151567976Y-85786995D02*
X151567976Y-86025090D01*
X151567976Y-86025090D02*
X151615595Y-86120328D01*
X151615595Y-86120328D02*
X151663214Y-86167947D01*
X151663214Y-86167947D02*
X151758452Y-86215566D01*
X151758452Y-86215566D02*
X151948928Y-86215566D01*
X151948928Y-86215566D02*
X152044166Y-86167947D01*
X152044166Y-86167947D02*
X152091785Y-86120328D01*
X152091785Y-86120328D02*
X152139404Y-86025090D01*
X150111905Y-86779819D02*
X150111905Y-85779819D01*
X150111905Y-85779819D02*
X150350000Y-85779819D01*
X150350000Y-85779819D02*
X150492857Y-85827438D01*
X150492857Y-85827438D02*
X150588095Y-85922676D01*
X150588095Y-85922676D02*
X150635714Y-86017914D01*
X150635714Y-86017914D02*
X150683333Y-86208390D01*
X150683333Y-86208390D02*
X150683333Y-86351247D01*
X150683333Y-86351247D02*
X150635714Y-86541723D01*
X150635714Y-86541723D02*
X150588095Y-86636961D01*
X150588095Y-86636961D02*
X150492857Y-86732200D01*
X150492857Y-86732200D02*
X150350000Y-86779819D01*
X150350000Y-86779819D02*
X150111905Y-86779819D01*
X151016667Y-85779819D02*
X151683333Y-85779819D01*
X151683333Y-85779819D02*
X151254762Y-86779819D01*
X144861905Y-72479819D02*
X144861905Y-71479819D01*
X144861905Y-71479819D02*
X145100000Y-71479819D01*
X145100000Y-71479819D02*
X145242857Y-71527438D01*
X145242857Y-71527438D02*
X145338095Y-71622676D01*
X145338095Y-71622676D02*
X145385714Y-71717914D01*
X145385714Y-71717914D02*
X145433333Y-71908390D01*
X145433333Y-71908390D02*
X145433333Y-72051247D01*
X145433333Y-72051247D02*
X145385714Y-72241723D01*
X145385714Y-72241723D02*
X145338095Y-72336961D01*
X145338095Y-72336961D02*
X145242857Y-72432200D01*
X145242857Y-72432200D02*
X145100000Y-72479819D01*
X145100000Y-72479819D02*
X144861905Y-72479819D01*
X146338095Y-71479819D02*
X145861905Y-71479819D01*
X145861905Y-71479819D02*
X145814286Y-71956009D01*
X145814286Y-71956009D02*
X145861905Y-71908390D01*
X145861905Y-71908390D02*
X145957143Y-71860771D01*
X145957143Y-71860771D02*
X146195238Y-71860771D01*
X146195238Y-71860771D02*
X146290476Y-71908390D01*
X146290476Y-71908390D02*
X146338095Y-71956009D01*
X146338095Y-71956009D02*
X146385714Y-72051247D01*
X146385714Y-72051247D02*
X146385714Y-72289342D01*
X146385714Y-72289342D02*
X146338095Y-72384580D01*
X146338095Y-72384580D02*
X146290476Y-72432200D01*
X146290476Y-72432200D02*
X146195238Y-72479819D01*
X146195238Y-72479819D02*
X145957143Y-72479819D01*
X145957143Y-72479819D02*
X145861905Y-72432200D01*
X145861905Y-72432200D02*
X145814286Y-72384580D01*
X136132142Y-72979819D02*
X135798809Y-72503628D01*
X135560714Y-72979819D02*
X135560714Y-71979819D01*
X135560714Y-71979819D02*
X135941666Y-71979819D01*
X135941666Y-71979819D02*
X136036904Y-72027438D01*
X136036904Y-72027438D02*
X136084523Y-72075057D01*
X136084523Y-72075057D02*
X136132142Y-72170295D01*
X136132142Y-72170295D02*
X136132142Y-72313152D01*
X136132142Y-72313152D02*
X136084523Y-72408390D01*
X136084523Y-72408390D02*
X136036904Y-72456009D01*
X136036904Y-72456009D02*
X135941666Y-72503628D01*
X135941666Y-72503628D02*
X135560714Y-72503628D01*
X137084523Y-72979819D02*
X136513095Y-72979819D01*
X136798809Y-72979819D02*
X136798809Y-71979819D01*
X136798809Y-71979819D02*
X136703571Y-72122676D01*
X136703571Y-72122676D02*
X136608333Y-72217914D01*
X136608333Y-72217914D02*
X136513095Y-72265533D01*
X137655952Y-72408390D02*
X137560714Y-72360771D01*
X137560714Y-72360771D02*
X137513095Y-72313152D01*
X137513095Y-72313152D02*
X137465476Y-72217914D01*
X137465476Y-72217914D02*
X137465476Y-72170295D01*
X137465476Y-72170295D02*
X137513095Y-72075057D01*
X137513095Y-72075057D02*
X137560714Y-72027438D01*
X137560714Y-72027438D02*
X137655952Y-71979819D01*
X137655952Y-71979819D02*
X137846428Y-71979819D01*
X137846428Y-71979819D02*
X137941666Y-72027438D01*
X137941666Y-72027438D02*
X137989285Y-72075057D01*
X137989285Y-72075057D02*
X138036904Y-72170295D01*
X138036904Y-72170295D02*
X138036904Y-72217914D01*
X138036904Y-72217914D02*
X137989285Y-72313152D01*
X137989285Y-72313152D02*
X137941666Y-72360771D01*
X137941666Y-72360771D02*
X137846428Y-72408390D01*
X137846428Y-72408390D02*
X137655952Y-72408390D01*
X137655952Y-72408390D02*
X137560714Y-72456009D01*
X137560714Y-72456009D02*
X137513095Y-72503628D01*
X137513095Y-72503628D02*
X137465476Y-72598866D01*
X137465476Y-72598866D02*
X137465476Y-72789342D01*
X137465476Y-72789342D02*
X137513095Y-72884580D01*
X137513095Y-72884580D02*
X137560714Y-72932200D01*
X137560714Y-72932200D02*
X137655952Y-72979819D01*
X137655952Y-72979819D02*
X137846428Y-72979819D01*
X137846428Y-72979819D02*
X137941666Y-72932200D01*
X137941666Y-72932200D02*
X137989285Y-72884580D01*
X137989285Y-72884580D02*
X138036904Y-72789342D01*
X138036904Y-72789342D02*
X138036904Y-72598866D01*
X138036904Y-72598866D02*
X137989285Y-72503628D01*
X137989285Y-72503628D02*
X137941666Y-72456009D01*
X137941666Y-72456009D02*
X137846428Y-72408390D01*
X136132142Y-77354580D02*
X136084523Y-77402200D01*
X136084523Y-77402200D02*
X135941666Y-77449819D01*
X135941666Y-77449819D02*
X135846428Y-77449819D01*
X135846428Y-77449819D02*
X135703571Y-77402200D01*
X135703571Y-77402200D02*
X135608333Y-77306961D01*
X135608333Y-77306961D02*
X135560714Y-77211723D01*
X135560714Y-77211723D02*
X135513095Y-77021247D01*
X135513095Y-77021247D02*
X135513095Y-76878390D01*
X135513095Y-76878390D02*
X135560714Y-76687914D01*
X135560714Y-76687914D02*
X135608333Y-76592676D01*
X135608333Y-76592676D02*
X135703571Y-76497438D01*
X135703571Y-76497438D02*
X135846428Y-76449819D01*
X135846428Y-76449819D02*
X135941666Y-76449819D01*
X135941666Y-76449819D02*
X136084523Y-76497438D01*
X136084523Y-76497438D02*
X136132142Y-76545057D01*
X137084523Y-77449819D02*
X136513095Y-77449819D01*
X136798809Y-77449819D02*
X136798809Y-76449819D01*
X136798809Y-76449819D02*
X136703571Y-76592676D01*
X136703571Y-76592676D02*
X136608333Y-76687914D01*
X136608333Y-76687914D02*
X136513095Y-76735533D01*
X137417857Y-76449819D02*
X138036904Y-76449819D01*
X138036904Y-76449819D02*
X137703571Y-76830771D01*
X137703571Y-76830771D02*
X137846428Y-76830771D01*
X137846428Y-76830771D02*
X137941666Y-76878390D01*
X137941666Y-76878390D02*
X137989285Y-76926009D01*
X137989285Y-76926009D02*
X138036904Y-77021247D01*
X138036904Y-77021247D02*
X138036904Y-77259342D01*
X138036904Y-77259342D02*
X137989285Y-77354580D01*
X137989285Y-77354580D02*
X137941666Y-77402200D01*
X137941666Y-77402200D02*
X137846428Y-77449819D01*
X137846428Y-77449819D02*
X137560714Y-77449819D01*
X137560714Y-77449819D02*
X137465476Y-77402200D01*
X137465476Y-77402200D02*
X137417857Y-77354580D01*
X123832142Y-76229819D02*
X123498809Y-75753628D01*
X123260714Y-76229819D02*
X123260714Y-75229819D01*
X123260714Y-75229819D02*
X123641666Y-75229819D01*
X123641666Y-75229819D02*
X123736904Y-75277438D01*
X123736904Y-75277438D02*
X123784523Y-75325057D01*
X123784523Y-75325057D02*
X123832142Y-75420295D01*
X123832142Y-75420295D02*
X123832142Y-75563152D01*
X123832142Y-75563152D02*
X123784523Y-75658390D01*
X123784523Y-75658390D02*
X123736904Y-75706009D01*
X123736904Y-75706009D02*
X123641666Y-75753628D01*
X123641666Y-75753628D02*
X123260714Y-75753628D01*
X124784523Y-76229819D02*
X124213095Y-76229819D01*
X124498809Y-76229819D02*
X124498809Y-75229819D01*
X124498809Y-75229819D02*
X124403571Y-75372676D01*
X124403571Y-75372676D02*
X124308333Y-75467914D01*
X124308333Y-75467914D02*
X124213095Y-75515533D01*
X125403571Y-75229819D02*
X125498809Y-75229819D01*
X125498809Y-75229819D02*
X125594047Y-75277438D01*
X125594047Y-75277438D02*
X125641666Y-75325057D01*
X125641666Y-75325057D02*
X125689285Y-75420295D01*
X125689285Y-75420295D02*
X125736904Y-75610771D01*
X125736904Y-75610771D02*
X125736904Y-75848866D01*
X125736904Y-75848866D02*
X125689285Y-76039342D01*
X125689285Y-76039342D02*
X125641666Y-76134580D01*
X125641666Y-76134580D02*
X125594047Y-76182200D01*
X125594047Y-76182200D02*
X125498809Y-76229819D01*
X125498809Y-76229819D02*
X125403571Y-76229819D01*
X125403571Y-76229819D02*
X125308333Y-76182200D01*
X125308333Y-76182200D02*
X125260714Y-76134580D01*
X125260714Y-76134580D02*
X125213095Y-76039342D01*
X125213095Y-76039342D02*
X125165476Y-75848866D01*
X125165476Y-75848866D02*
X125165476Y-75610771D01*
X125165476Y-75610771D02*
X125213095Y-75420295D01*
X125213095Y-75420295D02*
X125260714Y-75325057D01*
X125260714Y-75325057D02*
X125308333Y-75277438D01*
X125308333Y-75277438D02*
X125403571Y-75229819D01*
X99735833Y-77577319D02*
X99402500Y-77101128D01*
X99164405Y-77577319D02*
X99164405Y-76577319D01*
X99164405Y-76577319D02*
X99545357Y-76577319D01*
X99545357Y-76577319D02*
X99640595Y-76624938D01*
X99640595Y-76624938D02*
X99688214Y-76672557D01*
X99688214Y-76672557D02*
X99735833Y-76767795D01*
X99735833Y-76767795D02*
X99735833Y-76910652D01*
X99735833Y-76910652D02*
X99688214Y-77005890D01*
X99688214Y-77005890D02*
X99640595Y-77053509D01*
X99640595Y-77053509D02*
X99545357Y-77101128D01*
X99545357Y-77101128D02*
X99164405Y-77101128D01*
X100307262Y-77005890D02*
X100212024Y-76958271D01*
X100212024Y-76958271D02*
X100164405Y-76910652D01*
X100164405Y-76910652D02*
X100116786Y-76815414D01*
X100116786Y-76815414D02*
X100116786Y-76767795D01*
X100116786Y-76767795D02*
X100164405Y-76672557D01*
X100164405Y-76672557D02*
X100212024Y-76624938D01*
X100212024Y-76624938D02*
X100307262Y-76577319D01*
X100307262Y-76577319D02*
X100497738Y-76577319D01*
X100497738Y-76577319D02*
X100592976Y-76624938D01*
X100592976Y-76624938D02*
X100640595Y-76672557D01*
X100640595Y-76672557D02*
X100688214Y-76767795D01*
X100688214Y-76767795D02*
X100688214Y-76815414D01*
X100688214Y-76815414D02*
X100640595Y-76910652D01*
X100640595Y-76910652D02*
X100592976Y-76958271D01*
X100592976Y-76958271D02*
X100497738Y-77005890D01*
X100497738Y-77005890D02*
X100307262Y-77005890D01*
X100307262Y-77005890D02*
X100212024Y-77053509D01*
X100212024Y-77053509D02*
X100164405Y-77101128D01*
X100164405Y-77101128D02*
X100116786Y-77196366D01*
X100116786Y-77196366D02*
X100116786Y-77386842D01*
X100116786Y-77386842D02*
X100164405Y-77482080D01*
X100164405Y-77482080D02*
X100212024Y-77529700D01*
X100212024Y-77529700D02*
X100307262Y-77577319D01*
X100307262Y-77577319D02*
X100497738Y-77577319D01*
X100497738Y-77577319D02*
X100592976Y-77529700D01*
X100592976Y-77529700D02*
X100640595Y-77482080D01*
X100640595Y-77482080D02*
X100688214Y-77386842D01*
X100688214Y-77386842D02*
X100688214Y-77196366D01*
X100688214Y-77196366D02*
X100640595Y-77101128D01*
X100640595Y-77101128D02*
X100592976Y-77053509D01*
X100592976Y-77053509D02*
X100497738Y-77005890D01*
X99910833Y-74552319D02*
X99577500Y-74076128D01*
X99339405Y-74552319D02*
X99339405Y-73552319D01*
X99339405Y-73552319D02*
X99720357Y-73552319D01*
X99720357Y-73552319D02*
X99815595Y-73599938D01*
X99815595Y-73599938D02*
X99863214Y-73647557D01*
X99863214Y-73647557D02*
X99910833Y-73742795D01*
X99910833Y-73742795D02*
X99910833Y-73885652D01*
X99910833Y-73885652D02*
X99863214Y-73980890D01*
X99863214Y-73980890D02*
X99815595Y-74028509D01*
X99815595Y-74028509D02*
X99720357Y-74076128D01*
X99720357Y-74076128D02*
X99339405Y-74076128D01*
X100244167Y-73552319D02*
X100910833Y-73552319D01*
X100910833Y-73552319D02*
X100482262Y-74552319D01*
X145569761Y-47350057D02*
X145474523Y-47302438D01*
X145474523Y-47302438D02*
X145379285Y-47207200D01*
X145379285Y-47207200D02*
X145236428Y-47064342D01*
X145236428Y-47064342D02*
X145141190Y-47016723D01*
X145141190Y-47016723D02*
X145045952Y-47016723D01*
X145093571Y-47254819D02*
X144998333Y-47207200D01*
X144998333Y-47207200D02*
X144903095Y-47111961D01*
X144903095Y-47111961D02*
X144855476Y-46921485D01*
X144855476Y-46921485D02*
X144855476Y-46588152D01*
X144855476Y-46588152D02*
X144903095Y-46397676D01*
X144903095Y-46397676D02*
X144998333Y-46302438D01*
X144998333Y-46302438D02*
X145093571Y-46254819D01*
X145093571Y-46254819D02*
X145284047Y-46254819D01*
X145284047Y-46254819D02*
X145379285Y-46302438D01*
X145379285Y-46302438D02*
X145474523Y-46397676D01*
X145474523Y-46397676D02*
X145522142Y-46588152D01*
X145522142Y-46588152D02*
X145522142Y-46921485D01*
X145522142Y-46921485D02*
X145474523Y-47111961D01*
X145474523Y-47111961D02*
X145379285Y-47207200D01*
X145379285Y-47207200D02*
X145284047Y-47254819D01*
X145284047Y-47254819D02*
X145093571Y-47254819D01*
X146474523Y-47254819D02*
X145903095Y-47254819D01*
X146188809Y-47254819D02*
X146188809Y-46254819D01*
X146188809Y-46254819D02*
X146093571Y-46397676D01*
X146093571Y-46397676D02*
X145998333Y-46492914D01*
X145998333Y-46492914D02*
X145903095Y-46540533D01*
X150116905Y-95629819D02*
X150116905Y-94629819D01*
X150116905Y-94629819D02*
X150355000Y-94629819D01*
X150355000Y-94629819D02*
X150497857Y-94677438D01*
X150497857Y-94677438D02*
X150593095Y-94772676D01*
X150593095Y-94772676D02*
X150640714Y-94867914D01*
X150640714Y-94867914D02*
X150688333Y-95058390D01*
X150688333Y-95058390D02*
X150688333Y-95201247D01*
X150688333Y-95201247D02*
X150640714Y-95391723D01*
X150640714Y-95391723D02*
X150593095Y-95486961D01*
X150593095Y-95486961D02*
X150497857Y-95582200D01*
X150497857Y-95582200D02*
X150355000Y-95629819D01*
X150355000Y-95629819D02*
X150116905Y-95629819D01*
X151069286Y-94725057D02*
X151116905Y-94677438D01*
X151116905Y-94677438D02*
X151212143Y-94629819D01*
X151212143Y-94629819D02*
X151450238Y-94629819D01*
X151450238Y-94629819D02*
X151545476Y-94677438D01*
X151545476Y-94677438D02*
X151593095Y-94725057D01*
X151593095Y-94725057D02*
X151640714Y-94820295D01*
X151640714Y-94820295D02*
X151640714Y-94915533D01*
X151640714Y-94915533D02*
X151593095Y-95058390D01*
X151593095Y-95058390D02*
X151021667Y-95629819D01*
X151021667Y-95629819D02*
X151640714Y-95629819D01*
X97486905Y-69854819D02*
X97486905Y-68854819D01*
X97486905Y-68854819D02*
X97725000Y-68854819D01*
X97725000Y-68854819D02*
X97867857Y-68902438D01*
X97867857Y-68902438D02*
X97963095Y-68997676D01*
X97963095Y-68997676D02*
X98010714Y-69092914D01*
X98010714Y-69092914D02*
X98058333Y-69283390D01*
X98058333Y-69283390D02*
X98058333Y-69426247D01*
X98058333Y-69426247D02*
X98010714Y-69616723D01*
X98010714Y-69616723D02*
X97963095Y-69711961D01*
X97963095Y-69711961D02*
X97867857Y-69807200D01*
X97867857Y-69807200D02*
X97725000Y-69854819D01*
X97725000Y-69854819D02*
X97486905Y-69854819D01*
X99010714Y-69854819D02*
X98439286Y-69854819D01*
X98725000Y-69854819D02*
X98725000Y-68854819D01*
X98725000Y-68854819D02*
X98629762Y-68997676D01*
X98629762Y-68997676D02*
X98534524Y-69092914D01*
X98534524Y-69092914D02*
X98439286Y-69140533D01*
X135459580Y-63966666D02*
X135507200Y-64014285D01*
X135507200Y-64014285D02*
X135554819Y-64157142D01*
X135554819Y-64157142D02*
X135554819Y-64252380D01*
X135554819Y-64252380D02*
X135507200Y-64395237D01*
X135507200Y-64395237D02*
X135411961Y-64490475D01*
X135411961Y-64490475D02*
X135316723Y-64538094D01*
X135316723Y-64538094D02*
X135126247Y-64585713D01*
X135126247Y-64585713D02*
X134983390Y-64585713D01*
X134983390Y-64585713D02*
X134792914Y-64538094D01*
X134792914Y-64538094D02*
X134697676Y-64490475D01*
X134697676Y-64490475D02*
X134602438Y-64395237D01*
X134602438Y-64395237D02*
X134554819Y-64252380D01*
X134554819Y-64252380D02*
X134554819Y-64157142D01*
X134554819Y-64157142D02*
X134602438Y-64014285D01*
X134602438Y-64014285D02*
X134650057Y-63966666D01*
X134983390Y-63395237D02*
X134935771Y-63490475D01*
X134935771Y-63490475D02*
X134888152Y-63538094D01*
X134888152Y-63538094D02*
X134792914Y-63585713D01*
X134792914Y-63585713D02*
X134745295Y-63585713D01*
X134745295Y-63585713D02*
X134650057Y-63538094D01*
X134650057Y-63538094D02*
X134602438Y-63490475D01*
X134602438Y-63490475D02*
X134554819Y-63395237D01*
X134554819Y-63395237D02*
X134554819Y-63204761D01*
X134554819Y-63204761D02*
X134602438Y-63109523D01*
X134602438Y-63109523D02*
X134650057Y-63061904D01*
X134650057Y-63061904D02*
X134745295Y-63014285D01*
X134745295Y-63014285D02*
X134792914Y-63014285D01*
X134792914Y-63014285D02*
X134888152Y-63061904D01*
X134888152Y-63061904D02*
X134935771Y-63109523D01*
X134935771Y-63109523D02*
X134983390Y-63204761D01*
X134983390Y-63204761D02*
X134983390Y-63395237D01*
X134983390Y-63395237D02*
X135031009Y-63490475D01*
X135031009Y-63490475D02*
X135078628Y-63538094D01*
X135078628Y-63538094D02*
X135173866Y-63585713D01*
X135173866Y-63585713D02*
X135364342Y-63585713D01*
X135364342Y-63585713D02*
X135459580Y-63538094D01*
X135459580Y-63538094D02*
X135507200Y-63490475D01*
X135507200Y-63490475D02*
X135554819Y-63395237D01*
X135554819Y-63395237D02*
X135554819Y-63204761D01*
X135554819Y-63204761D02*
X135507200Y-63109523D01*
X135507200Y-63109523D02*
X135459580Y-63061904D01*
X135459580Y-63061904D02*
X135364342Y-63014285D01*
X135364342Y-63014285D02*
X135173866Y-63014285D01*
X135173866Y-63014285D02*
X135078628Y-63061904D01*
X135078628Y-63061904D02*
X135031009Y-63109523D01*
X135031009Y-63109523D02*
X134983390Y-63204761D01*
X121459580Y-63966666D02*
X121507200Y-64014285D01*
X121507200Y-64014285D02*
X121554819Y-64157142D01*
X121554819Y-64157142D02*
X121554819Y-64252380D01*
X121554819Y-64252380D02*
X121507200Y-64395237D01*
X121507200Y-64395237D02*
X121411961Y-64490475D01*
X121411961Y-64490475D02*
X121316723Y-64538094D01*
X121316723Y-64538094D02*
X121126247Y-64585713D01*
X121126247Y-64585713D02*
X120983390Y-64585713D01*
X120983390Y-64585713D02*
X120792914Y-64538094D01*
X120792914Y-64538094D02*
X120697676Y-64490475D01*
X120697676Y-64490475D02*
X120602438Y-64395237D01*
X120602438Y-64395237D02*
X120554819Y-64252380D01*
X120554819Y-64252380D02*
X120554819Y-64157142D01*
X120554819Y-64157142D02*
X120602438Y-64014285D01*
X120602438Y-64014285D02*
X120650057Y-63966666D01*
X120554819Y-63633332D02*
X120554819Y-62966666D01*
X120554819Y-62966666D02*
X121554819Y-63395237D01*
X105459580Y-63966666D02*
X105507200Y-64014285D01*
X105507200Y-64014285D02*
X105554819Y-64157142D01*
X105554819Y-64157142D02*
X105554819Y-64252380D01*
X105554819Y-64252380D02*
X105507200Y-64395237D01*
X105507200Y-64395237D02*
X105411961Y-64490475D01*
X105411961Y-64490475D02*
X105316723Y-64538094D01*
X105316723Y-64538094D02*
X105126247Y-64585713D01*
X105126247Y-64585713D02*
X104983390Y-64585713D01*
X104983390Y-64585713D02*
X104792914Y-64538094D01*
X104792914Y-64538094D02*
X104697676Y-64490475D01*
X104697676Y-64490475D02*
X104602438Y-64395237D01*
X104602438Y-64395237D02*
X104554819Y-64252380D01*
X104554819Y-64252380D02*
X104554819Y-64157142D01*
X104554819Y-64157142D02*
X104602438Y-64014285D01*
X104602438Y-64014285D02*
X104650057Y-63966666D01*
X104554819Y-63109523D02*
X104554819Y-63299999D01*
X104554819Y-63299999D02*
X104602438Y-63395237D01*
X104602438Y-63395237D02*
X104650057Y-63442856D01*
X104650057Y-63442856D02*
X104792914Y-63538094D01*
X104792914Y-63538094D02*
X104983390Y-63585713D01*
X104983390Y-63585713D02*
X105364342Y-63585713D01*
X105364342Y-63585713D02*
X105459580Y-63538094D01*
X105459580Y-63538094D02*
X105507200Y-63490475D01*
X105507200Y-63490475D02*
X105554819Y-63395237D01*
X105554819Y-63395237D02*
X105554819Y-63204761D01*
X105554819Y-63204761D02*
X105507200Y-63109523D01*
X105507200Y-63109523D02*
X105459580Y-63061904D01*
X105459580Y-63061904D02*
X105364342Y-63014285D01*
X105364342Y-63014285D02*
X105126247Y-63014285D01*
X105126247Y-63014285D02*
X105031009Y-63061904D01*
X105031009Y-63061904D02*
X104983390Y-63109523D01*
X104983390Y-63109523D02*
X104935771Y-63204761D01*
X104935771Y-63204761D02*
X104935771Y-63395237D01*
X104935771Y-63395237D02*
X104983390Y-63490475D01*
X104983390Y-63490475D02*
X105031009Y-63538094D01*
X105031009Y-63538094D02*
X105126247Y-63585713D01*
X124270833Y-79569580D02*
X124223214Y-79617200D01*
X124223214Y-79617200D02*
X124080357Y-79664819D01*
X124080357Y-79664819D02*
X123985119Y-79664819D01*
X123985119Y-79664819D02*
X123842262Y-79617200D01*
X123842262Y-79617200D02*
X123747024Y-79521961D01*
X123747024Y-79521961D02*
X123699405Y-79426723D01*
X123699405Y-79426723D02*
X123651786Y-79236247D01*
X123651786Y-79236247D02*
X123651786Y-79093390D01*
X123651786Y-79093390D02*
X123699405Y-78902914D01*
X123699405Y-78902914D02*
X123747024Y-78807676D01*
X123747024Y-78807676D02*
X123842262Y-78712438D01*
X123842262Y-78712438D02*
X123985119Y-78664819D01*
X123985119Y-78664819D02*
X124080357Y-78664819D01*
X124080357Y-78664819D02*
X124223214Y-78712438D01*
X124223214Y-78712438D02*
X124270833Y-78760057D01*
X125175595Y-78664819D02*
X124699405Y-78664819D01*
X124699405Y-78664819D02*
X124651786Y-79141009D01*
X124651786Y-79141009D02*
X124699405Y-79093390D01*
X124699405Y-79093390D02*
X124794643Y-79045771D01*
X124794643Y-79045771D02*
X125032738Y-79045771D01*
X125032738Y-79045771D02*
X125127976Y-79093390D01*
X125127976Y-79093390D02*
X125175595Y-79141009D01*
X125175595Y-79141009D02*
X125223214Y-79236247D01*
X125223214Y-79236247D02*
X125223214Y-79474342D01*
X125223214Y-79474342D02*
X125175595Y-79569580D01*
X125175595Y-79569580D02*
X125127976Y-79617200D01*
X125127976Y-79617200D02*
X125032738Y-79664819D01*
X125032738Y-79664819D02*
X124794643Y-79664819D01*
X124794643Y-79664819D02*
X124699405Y-79617200D01*
X124699405Y-79617200D02*
X124651786Y-79569580D01*
X130458333Y-76329819D02*
X130125000Y-75853628D01*
X129886905Y-76329819D02*
X129886905Y-75329819D01*
X129886905Y-75329819D02*
X130267857Y-75329819D01*
X130267857Y-75329819D02*
X130363095Y-75377438D01*
X130363095Y-75377438D02*
X130410714Y-75425057D01*
X130410714Y-75425057D02*
X130458333Y-75520295D01*
X130458333Y-75520295D02*
X130458333Y-75663152D01*
X130458333Y-75663152D02*
X130410714Y-75758390D01*
X130410714Y-75758390D02*
X130363095Y-75806009D01*
X130363095Y-75806009D02*
X130267857Y-75853628D01*
X130267857Y-75853628D02*
X129886905Y-75853628D01*
X131315476Y-75329819D02*
X131125000Y-75329819D01*
X131125000Y-75329819D02*
X131029762Y-75377438D01*
X131029762Y-75377438D02*
X130982143Y-75425057D01*
X130982143Y-75425057D02*
X130886905Y-75567914D01*
X130886905Y-75567914D02*
X130839286Y-75758390D01*
X130839286Y-75758390D02*
X130839286Y-76139342D01*
X130839286Y-76139342D02*
X130886905Y-76234580D01*
X130886905Y-76234580D02*
X130934524Y-76282200D01*
X130934524Y-76282200D02*
X131029762Y-76329819D01*
X131029762Y-76329819D02*
X131220238Y-76329819D01*
X131220238Y-76329819D02*
X131315476Y-76282200D01*
X131315476Y-76282200D02*
X131363095Y-76234580D01*
X131363095Y-76234580D02*
X131410714Y-76139342D01*
X131410714Y-76139342D02*
X131410714Y-75901247D01*
X131410714Y-75901247D02*
X131363095Y-75806009D01*
X131363095Y-75806009D02*
X131315476Y-75758390D01*
X131315476Y-75758390D02*
X131220238Y-75710771D01*
X131220238Y-75710771D02*
X131029762Y-75710771D01*
X131029762Y-75710771D02*
X130934524Y-75758390D01*
X130934524Y-75758390D02*
X130886905Y-75806009D01*
X130886905Y-75806009D02*
X130839286Y-75901247D01*
X121606633Y-93695219D02*
X121273300Y-93219028D01*
X121035205Y-93695219D02*
X121035205Y-92695219D01*
X121035205Y-92695219D02*
X121416157Y-92695219D01*
X121416157Y-92695219D02*
X121511395Y-92742838D01*
X121511395Y-92742838D02*
X121559014Y-92790457D01*
X121559014Y-92790457D02*
X121606633Y-92885695D01*
X121606633Y-92885695D02*
X121606633Y-93028552D01*
X121606633Y-93028552D02*
X121559014Y-93123790D01*
X121559014Y-93123790D02*
X121511395Y-93171409D01*
X121511395Y-93171409D02*
X121416157Y-93219028D01*
X121416157Y-93219028D02*
X121035205Y-93219028D01*
X122511395Y-92695219D02*
X122035205Y-92695219D01*
X122035205Y-92695219D02*
X121987586Y-93171409D01*
X121987586Y-93171409D02*
X122035205Y-93123790D01*
X122035205Y-93123790D02*
X122130443Y-93076171D01*
X122130443Y-93076171D02*
X122368538Y-93076171D01*
X122368538Y-93076171D02*
X122463776Y-93123790D01*
X122463776Y-93123790D02*
X122511395Y-93171409D01*
X122511395Y-93171409D02*
X122559014Y-93266647D01*
X122559014Y-93266647D02*
X122559014Y-93504742D01*
X122559014Y-93504742D02*
X122511395Y-93599980D01*
X122511395Y-93599980D02*
X122463776Y-93647600D01*
X122463776Y-93647600D02*
X122368538Y-93695219D01*
X122368538Y-93695219D02*
X122130443Y-93695219D01*
X122130443Y-93695219D02*
X122035205Y-93647600D01*
X122035205Y-93647600D02*
X121987586Y-93599980D01*
X116633333Y-93630219D02*
X116300000Y-93154028D01*
X116061905Y-93630219D02*
X116061905Y-92630219D01*
X116061905Y-92630219D02*
X116442857Y-92630219D01*
X116442857Y-92630219D02*
X116538095Y-92677838D01*
X116538095Y-92677838D02*
X116585714Y-92725457D01*
X116585714Y-92725457D02*
X116633333Y-92820695D01*
X116633333Y-92820695D02*
X116633333Y-92963552D01*
X116633333Y-92963552D02*
X116585714Y-93058790D01*
X116585714Y-93058790D02*
X116538095Y-93106409D01*
X116538095Y-93106409D02*
X116442857Y-93154028D01*
X116442857Y-93154028D02*
X116061905Y-93154028D01*
X117490476Y-92963552D02*
X117490476Y-93630219D01*
X117252381Y-92582600D02*
X117014286Y-93296885D01*
X117014286Y-93296885D02*
X117633333Y-93296885D01*
X104904819Y-78366666D02*
X104428628Y-78699999D01*
X104904819Y-78938094D02*
X103904819Y-78938094D01*
X103904819Y-78938094D02*
X103904819Y-78557142D01*
X103904819Y-78557142D02*
X103952438Y-78461904D01*
X103952438Y-78461904D02*
X104000057Y-78414285D01*
X104000057Y-78414285D02*
X104095295Y-78366666D01*
X104095295Y-78366666D02*
X104238152Y-78366666D01*
X104238152Y-78366666D02*
X104333390Y-78414285D01*
X104333390Y-78414285D02*
X104381009Y-78461904D01*
X104381009Y-78461904D02*
X104428628Y-78557142D01*
X104428628Y-78557142D02*
X104428628Y-78938094D01*
X103904819Y-78033332D02*
X103904819Y-77414285D01*
X103904819Y-77414285D02*
X104285771Y-77747618D01*
X104285771Y-77747618D02*
X104285771Y-77604761D01*
X104285771Y-77604761D02*
X104333390Y-77509523D01*
X104333390Y-77509523D02*
X104381009Y-77461904D01*
X104381009Y-77461904D02*
X104476247Y-77414285D01*
X104476247Y-77414285D02*
X104714342Y-77414285D01*
X104714342Y-77414285D02*
X104809580Y-77461904D01*
X104809580Y-77461904D02*
X104857200Y-77509523D01*
X104857200Y-77509523D02*
X104904819Y-77604761D01*
X104904819Y-77604761D02*
X104904819Y-77890475D01*
X104904819Y-77890475D02*
X104857200Y-77985713D01*
X104857200Y-77985713D02*
X104809580Y-78033332D01*
X116633333Y-85179819D02*
X116300000Y-84703628D01*
X116061905Y-85179819D02*
X116061905Y-84179819D01*
X116061905Y-84179819D02*
X116442857Y-84179819D01*
X116442857Y-84179819D02*
X116538095Y-84227438D01*
X116538095Y-84227438D02*
X116585714Y-84275057D01*
X116585714Y-84275057D02*
X116633333Y-84370295D01*
X116633333Y-84370295D02*
X116633333Y-84513152D01*
X116633333Y-84513152D02*
X116585714Y-84608390D01*
X116585714Y-84608390D02*
X116538095Y-84656009D01*
X116538095Y-84656009D02*
X116442857Y-84703628D01*
X116442857Y-84703628D02*
X116061905Y-84703628D01*
X117014286Y-84275057D02*
X117061905Y-84227438D01*
X117061905Y-84227438D02*
X117157143Y-84179819D01*
X117157143Y-84179819D02*
X117395238Y-84179819D01*
X117395238Y-84179819D02*
X117490476Y-84227438D01*
X117490476Y-84227438D02*
X117538095Y-84275057D01*
X117538095Y-84275057D02*
X117585714Y-84370295D01*
X117585714Y-84370295D02*
X117585714Y-84465533D01*
X117585714Y-84465533D02*
X117538095Y-84608390D01*
X117538095Y-84608390D02*
X116966667Y-85179819D01*
X116966667Y-85179819D02*
X117585714Y-85179819D01*
X105660033Y-93264819D02*
X105326700Y-92788628D01*
X105088605Y-93264819D02*
X105088605Y-92264819D01*
X105088605Y-92264819D02*
X105469557Y-92264819D01*
X105469557Y-92264819D02*
X105564795Y-92312438D01*
X105564795Y-92312438D02*
X105612414Y-92360057D01*
X105612414Y-92360057D02*
X105660033Y-92455295D01*
X105660033Y-92455295D02*
X105660033Y-92598152D01*
X105660033Y-92598152D02*
X105612414Y-92693390D01*
X105612414Y-92693390D02*
X105564795Y-92741009D01*
X105564795Y-92741009D02*
X105469557Y-92788628D01*
X105469557Y-92788628D02*
X105088605Y-92788628D01*
X106612414Y-93264819D02*
X106040986Y-93264819D01*
X106326700Y-93264819D02*
X106326700Y-92264819D01*
X106326700Y-92264819D02*
X106231462Y-92407676D01*
X106231462Y-92407676D02*
X106136224Y-92502914D01*
X106136224Y-92502914D02*
X106040986Y-92550533D01*
X150710833Y-90467880D02*
X150663214Y-90515500D01*
X150663214Y-90515500D02*
X150520357Y-90563119D01*
X150520357Y-90563119D02*
X150425119Y-90563119D01*
X150425119Y-90563119D02*
X150282262Y-90515500D01*
X150282262Y-90515500D02*
X150187024Y-90420261D01*
X150187024Y-90420261D02*
X150139405Y-90325023D01*
X150139405Y-90325023D02*
X150091786Y-90134547D01*
X150091786Y-90134547D02*
X150091786Y-89991690D01*
X150091786Y-89991690D02*
X150139405Y-89801214D01*
X150139405Y-89801214D02*
X150187024Y-89705976D01*
X150187024Y-89705976D02*
X150282262Y-89610738D01*
X150282262Y-89610738D02*
X150425119Y-89563119D01*
X150425119Y-89563119D02*
X150520357Y-89563119D01*
X150520357Y-89563119D02*
X150663214Y-89610738D01*
X150663214Y-89610738D02*
X150710833Y-89658357D01*
X151567976Y-89896452D02*
X151567976Y-90563119D01*
X151329881Y-89515500D02*
X151091786Y-90229785D01*
X151091786Y-90229785D02*
X151710833Y-90229785D01*
X116633333Y-89279780D02*
X116585714Y-89327400D01*
X116585714Y-89327400D02*
X116442857Y-89375019D01*
X116442857Y-89375019D02*
X116347619Y-89375019D01*
X116347619Y-89375019D02*
X116204762Y-89327400D01*
X116204762Y-89327400D02*
X116109524Y-89232161D01*
X116109524Y-89232161D02*
X116061905Y-89136923D01*
X116061905Y-89136923D02*
X116014286Y-88946447D01*
X116014286Y-88946447D02*
X116014286Y-88803590D01*
X116014286Y-88803590D02*
X116061905Y-88613114D01*
X116061905Y-88613114D02*
X116109524Y-88517876D01*
X116109524Y-88517876D02*
X116204762Y-88422638D01*
X116204762Y-88422638D02*
X116347619Y-88375019D01*
X116347619Y-88375019D02*
X116442857Y-88375019D01*
X116442857Y-88375019D02*
X116585714Y-88422638D01*
X116585714Y-88422638D02*
X116633333Y-88470257D01*
X116966667Y-88375019D02*
X117585714Y-88375019D01*
X117585714Y-88375019D02*
X117252381Y-88755971D01*
X117252381Y-88755971D02*
X117395238Y-88755971D01*
X117395238Y-88755971D02*
X117490476Y-88803590D01*
X117490476Y-88803590D02*
X117538095Y-88851209D01*
X117538095Y-88851209D02*
X117585714Y-88946447D01*
X117585714Y-88946447D02*
X117585714Y-89184542D01*
X117585714Y-89184542D02*
X117538095Y-89279780D01*
X117538095Y-89279780D02*
X117490476Y-89327400D01*
X117490476Y-89327400D02*
X117395238Y-89375019D01*
X117395238Y-89375019D02*
X117109524Y-89375019D01*
X117109524Y-89375019D02*
X117014286Y-89327400D01*
X117014286Y-89327400D02*
X116966667Y-89279780D01*
X99735833Y-88052080D02*
X99688214Y-88099700D01*
X99688214Y-88099700D02*
X99545357Y-88147319D01*
X99545357Y-88147319D02*
X99450119Y-88147319D01*
X99450119Y-88147319D02*
X99307262Y-88099700D01*
X99307262Y-88099700D02*
X99212024Y-88004461D01*
X99212024Y-88004461D02*
X99164405Y-87909223D01*
X99164405Y-87909223D02*
X99116786Y-87718747D01*
X99116786Y-87718747D02*
X99116786Y-87575890D01*
X99116786Y-87575890D02*
X99164405Y-87385414D01*
X99164405Y-87385414D02*
X99212024Y-87290176D01*
X99212024Y-87290176D02*
X99307262Y-87194938D01*
X99307262Y-87194938D02*
X99450119Y-87147319D01*
X99450119Y-87147319D02*
X99545357Y-87147319D01*
X99545357Y-87147319D02*
X99688214Y-87194938D01*
X99688214Y-87194938D02*
X99735833Y-87242557D01*
X100116786Y-87242557D02*
X100164405Y-87194938D01*
X100164405Y-87194938D02*
X100259643Y-87147319D01*
X100259643Y-87147319D02*
X100497738Y-87147319D01*
X100497738Y-87147319D02*
X100592976Y-87194938D01*
X100592976Y-87194938D02*
X100640595Y-87242557D01*
X100640595Y-87242557D02*
X100688214Y-87337795D01*
X100688214Y-87337795D02*
X100688214Y-87433033D01*
X100688214Y-87433033D02*
X100640595Y-87575890D01*
X100640595Y-87575890D02*
X100069167Y-88147319D01*
X100069167Y-88147319D02*
X100688214Y-88147319D01*
X99735833Y-91717080D02*
X99688214Y-91764700D01*
X99688214Y-91764700D02*
X99545357Y-91812319D01*
X99545357Y-91812319D02*
X99450119Y-91812319D01*
X99450119Y-91812319D02*
X99307262Y-91764700D01*
X99307262Y-91764700D02*
X99212024Y-91669461D01*
X99212024Y-91669461D02*
X99164405Y-91574223D01*
X99164405Y-91574223D02*
X99116786Y-91383747D01*
X99116786Y-91383747D02*
X99116786Y-91240890D01*
X99116786Y-91240890D02*
X99164405Y-91050414D01*
X99164405Y-91050414D02*
X99212024Y-90955176D01*
X99212024Y-90955176D02*
X99307262Y-90859938D01*
X99307262Y-90859938D02*
X99450119Y-90812319D01*
X99450119Y-90812319D02*
X99545357Y-90812319D01*
X99545357Y-90812319D02*
X99688214Y-90859938D01*
X99688214Y-90859938D02*
X99735833Y-90907557D01*
X100688214Y-91812319D02*
X100116786Y-91812319D01*
X100402500Y-91812319D02*
X100402500Y-90812319D01*
X100402500Y-90812319D02*
X100307262Y-90955176D01*
X100307262Y-90955176D02*
X100212024Y-91050414D01*
X100212024Y-91050414D02*
X100116786Y-91098033D01*
D12*
%TO.C,R9*%
X99675436Y-83112500D02*
X100129564Y-83112500D01*
X99675436Y-81642500D02*
X100129564Y-81642500D01*
%TO.C,R12*%
X190347936Y-71265000D02*
X190802064Y-71265000D01*
X190347936Y-72735000D02*
X190802064Y-72735000D01*
%TO.C,R11*%
X183510436Y-92640000D02*
X183964564Y-92640000D01*
X183510436Y-94110000D02*
X183964564Y-94110000D01*
%TO.C,U2*%
X167165000Y-93545000D02*
X167165000Y-88345000D01*
X167165000Y-88345000D02*
X161865000Y-88345000D01*
X165515000Y-93545000D02*
X167165000Y-93545000D01*
X161865000Y-93545000D02*
X163515000Y-93545000D01*
X161865000Y-88345000D02*
X161865000Y-93545000D01*
X163515000Y-93545000D02*
G75*
G02*
X165515000Y-93545000I1000000J0D01*
G01*
%TO.C,C12*%
X184448752Y-89851700D02*
X183026248Y-89851700D01*
X184448752Y-87131700D02*
X183026248Y-87131700D01*
%TO.C,C11*%
X184448752Y-79885000D02*
X183026248Y-79885000D01*
X184448752Y-77165000D02*
X183026248Y-77165000D01*
%TO.C,D6*%
X199287500Y-89225000D02*
X199287500Y-91125000D01*
X199287500Y-89225000D02*
X202947500Y-89225000D01*
X199287500Y-91125000D02*
X202947500Y-91125000D01*
%TO.C,R17*%
X201297936Y-93615000D02*
X201752064Y-93615000D01*
X201297936Y-95085000D02*
X201752064Y-95085000D01*
%TO.C,R16*%
X201297936Y-84915000D02*
X201752064Y-84915000D01*
X201297936Y-86385000D02*
X201752064Y-86385000D01*
%TO.C,Q2*%
X193540000Y-91517500D02*
X193540000Y-90627500D01*
X193540000Y-90627500D02*
X195390000Y-90627500D01*
X193525000Y-93747500D02*
X195375000Y-93747500D01*
X193525000Y-93747500D02*
X193525000Y-92857500D01*
X196005000Y-94067500D02*
X195525000Y-94067500D01*
X195765000Y-93737500D01*
X196005000Y-94067500D01*
G36*
X196005000Y-94067500D02*
G01*
X195525000Y-94067500D01*
X195765000Y-93737500D01*
X196005000Y-94067500D01*
G37*
%TO.C,D3*%
X186020000Y-84408300D02*
X186020000Y-82508300D01*
X186020000Y-84408300D02*
X182360000Y-84408300D01*
X186020000Y-82508300D02*
X182360000Y-82508300D01*
%TO.C,U3*%
X196400000Y-73427500D02*
X195750000Y-73427500D01*
X196400000Y-73427500D02*
X197050000Y-73427500D01*
X196400000Y-76547500D02*
X195750000Y-76547500D01*
X196400000Y-76547500D02*
X197050000Y-76547500D01*
X195237500Y-73477500D02*
X194997500Y-73147500D01*
X195477500Y-73147500D01*
X195237500Y-73477500D01*
G36*
X195237500Y-73477500D02*
G01*
X194997500Y-73147500D01*
X195477500Y-73147500D01*
X195237500Y-73477500D01*
G37*
%TO.C,C18*%
X136615000Y-93085000D02*
X138965000Y-93085000D01*
X143435000Y-93085000D02*
X141085000Y-93085000D01*
X136615000Y-87329437D02*
X136615000Y-93085000D01*
X143435000Y-87329437D02*
X143435000Y-93085000D01*
X137679437Y-86265000D02*
X136615000Y-87329437D01*
X137679437Y-86265000D02*
X138965000Y-86265000D01*
X142370563Y-86265000D02*
X143435000Y-87329437D01*
X142370563Y-86265000D02*
X141085000Y-86265000D01*
X142266250Y-85631250D02*
X141478750Y-85631250D01*
X141872500Y-85237500D02*
X141872500Y-86025000D01*
%TO.C,C9*%
X133172500Y-85167500D02*
X133172500Y-85955000D01*
X133566250Y-85561250D02*
X132778750Y-85561250D01*
X133670563Y-86195000D02*
X132385000Y-86195000D01*
X133670563Y-86195000D02*
X134735000Y-87259437D01*
X128979437Y-86195000D02*
X130265000Y-86195000D01*
X128979437Y-86195000D02*
X127915000Y-87259437D01*
X134735000Y-87259437D02*
X134735000Y-93015000D01*
X127915000Y-87259437D02*
X127915000Y-93015000D01*
X134735000Y-93015000D02*
X132385000Y-93015000D01*
X127915000Y-93015000D02*
X130265000Y-93015000D01*
%TO.C,J2*%
X213690000Y-64260000D02*
X215810000Y-64260000D01*
X213690000Y-64260000D02*
X213690000Y-62200000D01*
X215810000Y-64260000D02*
X215810000Y-60140000D01*
X213690000Y-62200000D02*
X215750000Y-62200000D01*
X215750000Y-62200000D02*
X215750000Y-60140000D01*
X213690000Y-61200000D02*
X213690000Y-60140000D01*
X213690000Y-60140000D02*
X214750000Y-60140000D01*
X215750000Y-60140000D02*
X215810000Y-60140000D01*
D13*
%TO.C,U1*%
X113001701Y-77255000D02*
X111201699Y-77255000D01*
X115201699Y-82255000D02*
X111201699Y-82255000D01*
D12*
%TO.C,C10*%
X190201248Y-76785000D02*
X190723752Y-76785000D01*
X190201248Y-75315000D02*
X190723752Y-75315000D01*
%TO.C,R15*%
X210964564Y-84890000D02*
X210510436Y-84890000D01*
X210964564Y-86360000D02*
X210510436Y-86360000D01*
%TO.C,R13*%
X210964564Y-78990000D02*
X210510436Y-78990000D01*
X210964564Y-80460000D02*
X210510436Y-80460000D01*
%TO.C,R14*%
X210510436Y-83410000D02*
X210964564Y-83410000D01*
X210510436Y-81940000D02*
X210964564Y-81940000D01*
%TO.C,C14*%
X187015000Y-65610000D02*
X189365000Y-65610000D01*
X193835000Y-65610000D02*
X191485000Y-65610000D01*
X187015000Y-59854437D02*
X187015000Y-65610000D01*
X193835000Y-59854437D02*
X193835000Y-65610000D01*
X188079437Y-58790000D02*
X187015000Y-59854437D01*
X188079437Y-58790000D02*
X189365000Y-58790000D01*
X192770563Y-58790000D02*
X193835000Y-59854437D01*
X192770563Y-58790000D02*
X191485000Y-58790000D01*
X192666250Y-58156250D02*
X191878750Y-58156250D01*
X192272500Y-57762500D02*
X192272500Y-58550000D01*
%TO.C,C15*%
X197265000Y-65610000D02*
X199615000Y-65610000D01*
X204085000Y-65610000D02*
X201735000Y-65610000D01*
X197265000Y-59854437D02*
X197265000Y-65610000D01*
X204085000Y-59854437D02*
X204085000Y-65610000D01*
X198329437Y-58790000D02*
X197265000Y-59854437D01*
X198329437Y-58790000D02*
X199615000Y-58790000D01*
X203020563Y-58790000D02*
X204085000Y-59854437D01*
X203020563Y-58790000D02*
X201735000Y-58790000D01*
X202916250Y-58156250D02*
X202128750Y-58156250D01*
X202522500Y-57762500D02*
X202522500Y-58550000D01*
%TO.C,C16*%
X207490000Y-61488748D02*
X207490000Y-62911252D01*
X210210000Y-61488748D02*
X210210000Y-62911252D01*
%TO.C,D4*%
X184760000Y-60550000D02*
X179250000Y-60550000D01*
X184760000Y-63850000D02*
X179250000Y-63850000D01*
X184760000Y-63850000D02*
X184760000Y-60550000D01*
%TO.C,C17*%
X106537952Y-88520000D02*
X105115448Y-88520000D01*
X106537952Y-85800000D02*
X105115448Y-85800000D01*
%TO.C,J1*%
X80590000Y-69370000D02*
X88210000Y-69370000D01*
X88210000Y-69370000D02*
X88210000Y-59210000D01*
X80590000Y-59210000D02*
X80590000Y-69370000D01*
X86940000Y-59210000D02*
X86940000Y-69370000D01*
X88210000Y-59210000D02*
X80590000Y-59210000D01*
%TO.C,R19*%
X150650436Y-87056700D02*
X151104564Y-87056700D01*
X150650436Y-88526700D02*
X151104564Y-88526700D01*
%TO.C,D7*%
X153110000Y-85275000D02*
X153110000Y-83375000D01*
X153110000Y-85275000D02*
X149450000Y-85275000D01*
X153110000Y-83375000D02*
X149450000Y-83375000D01*
%TO.C,D5*%
X142090000Y-72875000D02*
X142090000Y-76175000D01*
X142090000Y-72875000D02*
X147600000Y-72875000D01*
X142090000Y-76175000D02*
X147600000Y-76175000D01*
%TO.C,R18*%
X136547936Y-73440000D02*
X137002064Y-73440000D01*
X136547936Y-74910000D02*
X137002064Y-74910000D01*
%TO.C,C13*%
X136513748Y-77940000D02*
X137036252Y-77940000D01*
X136513748Y-79410000D02*
X137036252Y-79410000D01*
%TO.C,R10*%
X124702064Y-74860000D02*
X124247936Y-74860000D01*
X124702064Y-73390000D02*
X124247936Y-73390000D01*
%TO.C,R8*%
X99675436Y-78037500D02*
X100129564Y-78037500D01*
X99675436Y-79507500D02*
X100129564Y-79507500D01*
%TO.C,R7*%
X99850436Y-75012500D02*
X100304564Y-75012500D01*
X99850436Y-76482500D02*
X100304564Y-76482500D01*
%TO.C,Q1*%
X140625000Y-48160000D02*
X140285000Y-47690000D01*
X140965000Y-47690000D01*
X140625000Y-48160000D01*
G36*
X140625000Y-48160000D02*
G01*
X140285000Y-47690000D01*
X140965000Y-47690000D01*
X140625000Y-48160000D01*
G37*
X148775000Y-54750000D02*
X142355000Y-54750000D01*
X148775000Y-47850000D02*
X142355000Y-47850000D01*
X142355000Y-54750000D02*
X142355000Y-54480000D01*
X142355000Y-47850000D02*
X142355000Y-48120000D01*
%TO.C,D2*%
X148595000Y-96225000D02*
X148595000Y-98125000D01*
X148595000Y-96225000D02*
X152255000Y-96225000D01*
X148595000Y-98125000D02*
X152255000Y-98125000D01*
%TO.C,D1*%
X101510000Y-68550000D02*
X101510000Y-67760000D01*
X101510000Y-65940000D02*
X101510000Y-62660000D01*
X101510000Y-60840000D02*
X101510000Y-60050000D01*
X101510000Y-60050000D02*
X94940000Y-60050000D01*
X101500000Y-68550000D02*
X94950000Y-68550000D01*
X94940000Y-67760000D02*
X94940000Y-68550000D01*
X94940000Y-65940000D02*
X94940000Y-62660000D01*
X94940000Y-60050000D02*
X94940000Y-60840000D01*
X102437500Y-68040000D02*
X102437500Y-67760000D01*
X102717500Y-67760000D01*
X102437500Y-68040000D01*
G36*
X102437500Y-68040000D02*
G01*
X102437500Y-67760000D01*
X102717500Y-67760000D01*
X102437500Y-68040000D01*
G37*
%TO.C,C8*%
X148970000Y-63800000D02*
G75*
G02*
X136230000Y-63800000I-6370000J0D01*
G01*
X136230000Y-63800000D02*
G75*
G02*
X148970000Y-63800000I6370000J0D01*
G01*
%TO.C,C7*%
X134970000Y-63800000D02*
G75*
G02*
X122230000Y-63800000I-6370000J0D01*
G01*
X122230000Y-63800000D02*
G75*
G02*
X134970000Y-63800000I6370000J0D01*
G01*
%TO.C,C6*%
X118970000Y-63800000D02*
G75*
G02*
X106230000Y-63800000I-6370000J0D01*
G01*
X106230000Y-63800000D02*
G75*
G02*
X118970000Y-63800000I6370000J0D01*
G01*
%TO.C,C5*%
X124698752Y-78265000D02*
X124176248Y-78265000D01*
X124698752Y-76795000D02*
X124176248Y-76795000D01*
%TO.C,R6*%
X130852064Y-74960000D02*
X130397936Y-74960000D01*
X130852064Y-73490000D02*
X130397936Y-73490000D01*
%TO.C,R5*%
X121546236Y-94155400D02*
X122000364Y-94155400D01*
X121546236Y-95625400D02*
X122000364Y-95625400D01*
%TO.C,R4*%
X116572936Y-94090400D02*
X117027064Y-94090400D01*
X116572936Y-95560400D02*
X117027064Y-95560400D01*
%TO.C,R3*%
X105365000Y-78427064D02*
X105365000Y-77972936D01*
X106835000Y-78427064D02*
X106835000Y-77972936D01*
%TO.C,R2*%
X116572936Y-85640000D02*
X117027064Y-85640000D01*
X116572936Y-87110000D02*
X117027064Y-87110000D01*
%TO.C,R1*%
X106053764Y-91895000D02*
X105599636Y-91895000D01*
X106053764Y-90425000D02*
X105599636Y-90425000D01*
%TO.C,C4*%
X150166248Y-91048300D02*
X151588752Y-91048300D01*
X150166248Y-93768300D02*
X151588752Y-93768300D01*
%TO.C,C3*%
X116538748Y-89865200D02*
X117061252Y-89865200D01*
X116538748Y-91335200D02*
X117061252Y-91335200D01*
%TO.C,C2*%
X100163752Y-86747500D02*
X99641248Y-86747500D01*
X100163752Y-85277500D02*
X99641248Y-85277500D01*
%TO.C,C1*%
X100163752Y-90412500D02*
X99641248Y-90412500D01*
X100163752Y-88942500D02*
X99641248Y-88942500D01*
%TD*%
M02*
