M48
; DRILL file {KiCad 9.0.1} date 2025-04-28T07:23:36+0200
; FORMAT={-:-/ absolute / metric / decimal}
; #@! TF.CreationDate,2025-04-28T07:23:36+02:00
; #@! TF.GenerationSoftware,Kicad,Pcbnew,9.0.1
; #@! TF.FileFunction,Plated,1,2,PTH
FMAT,2
METRIC
; #@! TA.AperFunction,Plated,PTH,ViaDrill
T1C0.300
; #@! TA.AperFunction,Plated,PTH,ComponentDrill
T2C0.750
; #@! TA.AperFunction,Plated,PTH,ComponentDrill
T3C0.800
; #@! TA.AperFunction,Plated,PTH,ComponentDrill
T4C1.520
%
G90
G05
T1
X98.875Y-83.662
X101.225Y-71.675
X105.15Y-93.225
X105.637Y-83.662
X109.3Y-74.15
X109.477Y-90.3
X116.35Y-77.85
X127.95Y-53.525
X136.688Y-49.137
X147.6Y-71.125
X152.562Y-56.938
X158.845Y-94.075
X179.55Y-83.458
X190.425Y-56.45
X191.425Y-74.05
X200.35Y-95.85
X200.862Y-55.887
X204.175Y-84.65
X208.85Y-58.725
X213.7Y-79.75
T2
X154.0Y-57.0
X154.0Y-62.0
X154.0Y-67.0
X154.0Y-72.0
X154.0Y-77.0
X174.5Y-57.0
X174.5Y-62.0
X174.5Y-67.0
X174.5Y-72.0
X174.5Y-77.0
T3
X112.6Y-61.3
X112.6Y-66.3
X128.6Y-61.3
X128.6Y-66.3
X142.6Y-61.3
X142.6Y-66.3
X160.705Y-89.675
X160.705Y-92.215
X168.325Y-89.675
X168.325Y-92.215
X214.75Y-61.2
X214.75Y-63.2
T4
X84.4Y-61.75
X84.4Y-66.83
M30
