%TF.GenerationSoftware,KiCad,Pcbnew,9.0.1*%
%TF.CreationDate,2025-04-25T14:26:40+02:00*%
%TF.ProjectId,flyback,666c7962-6163-46b2-9e6b-696361645f70,rev?*%
%TF.SameCoordinates,Original*%
%TF.FileFunction,Copper,L1,Top*%
%TF.FilePolarity,Positive*%
%FSLAX46Y46*%
G04 Gerber Fmt 4.6, Leading zero omitted, Abs format (unit mm)*
G04 Created by KiCad (PCBNEW 9.0.1) date 2025-04-25 14:26:40*
%MOMM*%
%LPD*%
G01*
G04 APERTURE LIST*
G04 Aperture macros list*
%AMRoundRect*
0 Rectangle with rounded corners*
0 $1 Rounding radius*
0 $2 $3 $4 $5 $6 $7 $8 $9 X,Y pos of 4 corners*
0 Add a 4 corners polygon primitive as box body*
4,1,4,$2,$3,$4,$5,$6,$7,$8,$9,$2,$3,0*
0 Add four circle primitives for the rounded corners*
1,1,$1+$1,$2,$3*
1,1,$1+$1,$4,$5*
1,1,$1+$1,$6,$7*
1,1,$1+$1,$8,$9*
0 Add four rect primitives between the rounded corners*
20,1,$1+$1,$2,$3,$4,$5,0*
20,1,$1+$1,$4,$5,$6,$7,0*
20,1,$1+$1,$6,$7,$8,$9,0*
20,1,$1+$1,$8,$9,$2,$3,0*%
G04 Aperture macros list end*
%TA.AperFunction,SMDPad,CuDef*%
%ADD10RoundRect,0.250000X-0.350000X-0.450000X0.350000X-0.450000X0.350000X0.450000X-0.350000X0.450000X0*%
%TD*%
%TA.AperFunction,ComponentPad*%
%ADD11RoundRect,0.250000X0.550000X0.550000X-0.550000X0.550000X-0.550000X-0.550000X0.550000X-0.550000X0*%
%TD*%
%TA.AperFunction,ComponentPad*%
%ADD12C,1.600000*%
%TD*%
%TA.AperFunction,SMDPad,CuDef*%
%ADD13RoundRect,0.250000X0.412500X1.100000X-0.412500X1.100000X-0.412500X-1.100000X0.412500X-1.100000X0*%
%TD*%
%TA.AperFunction,SMDPad,CuDef*%
%ADD14R,1.200000X1.200000*%
%TD*%
%TA.AperFunction,SMDPad,CuDef*%
%ADD15RoundRect,0.162500X0.837500X0.162500X-0.837500X0.162500X-0.837500X-0.162500X0.837500X-0.162500X0*%
%TD*%
%TA.AperFunction,SMDPad,CuDef*%
%ADD16RoundRect,0.150000X-0.587500X-0.150000X0.587500X-0.150000X0.587500X0.150000X-0.587500X0.150000X0*%
%TD*%
%TA.AperFunction,SMDPad,CuDef*%
%ADD17RoundRect,0.250000X-0.550000X1.500000X-0.550000X-1.500000X0.550000X-1.500000X0.550000X1.500000X0*%
%TD*%
%TA.AperFunction,ComponentPad*%
%ADD18R,1.350000X1.350000*%
%TD*%
%TA.AperFunction,ComponentPad*%
%ADD19C,1.350000*%
%TD*%
%TA.AperFunction,SMDPad,CuDef*%
%ADD20O,1.250000X0.549999*%
%TD*%
%TA.AperFunction,SMDPad,CuDef*%
%ADD21RoundRect,0.250000X-0.337500X-0.475000X0.337500X-0.475000X0.337500X0.475000X-0.337500X0.475000X0*%
%TD*%
%TA.AperFunction,SMDPad,CuDef*%
%ADD22RoundRect,0.250000X0.350000X0.450000X-0.350000X0.450000X-0.350000X-0.450000X0.350000X-0.450000X0*%
%TD*%
%TA.AperFunction,SMDPad,CuDef*%
%ADD23RoundRect,0.250000X-1.100000X0.412500X-1.100000X-0.412500X1.100000X-0.412500X1.100000X0.412500X0*%
%TD*%
%TA.AperFunction,ComponentPad*%
%ADD24RoundRect,0.225000X-0.525000X-0.525000X0.525000X-0.525000X0.525000X0.525000X-0.525000X0.525000X0*%
%TD*%
%TA.AperFunction,ComponentPad*%
%ADD25R,1.500000X1.500000*%
%TD*%
%TA.AperFunction,SMDPad,CuDef*%
%ADD26RoundRect,0.250000X1.000000X0.650000X-1.000000X0.650000X-1.000000X-0.650000X1.000000X-0.650000X0*%
%TD*%
%TA.AperFunction,ComponentPad*%
%ADD27R,3.000000X3.000000*%
%TD*%
%TA.AperFunction,ComponentPad*%
%ADD28C,3.000000*%
%TD*%
%TA.AperFunction,SMDPad,CuDef*%
%ADD29RoundRect,0.250000X-1.000000X-0.650000X1.000000X-0.650000X1.000000X0.650000X-1.000000X0.650000X0*%
%TD*%
%TA.AperFunction,SMDPad,CuDef*%
%ADD30RoundRect,0.250000X-0.850000X-0.350000X0.850000X-0.350000X0.850000X0.350000X-0.850000X0.350000X0*%
%TD*%
%TA.AperFunction,SMDPad,CuDef*%
%ADD31RoundRect,0.249997X-2.950003X-2.650003X2.950003X-2.650003X2.950003X2.650003X-2.950003X2.650003X0*%
%TD*%
%TA.AperFunction,SMDPad,CuDef*%
%ADD32R,1.500000X1.300000*%
%TD*%
%TA.AperFunction,SMDPad,CuDef*%
%ADD33RoundRect,0.250000X0.337500X0.475000X-0.337500X0.475000X-0.337500X-0.475000X0.337500X-0.475000X0*%
%TD*%
%TA.AperFunction,SMDPad,CuDef*%
%ADD34RoundRect,0.250000X0.450000X-0.350000X0.450000X0.350000X-0.450000X0.350000X-0.450000X-0.350000X0*%
%TD*%
%TA.AperFunction,SMDPad,CuDef*%
%ADD35RoundRect,0.250000X-0.412500X-1.100000X0.412500X-1.100000X0.412500X1.100000X-0.412500X1.100000X0*%
%TD*%
%TA.AperFunction,ViaPad*%
%ADD36C,0.600000*%
%TD*%
%TA.AperFunction,Conductor*%
%ADD37C,0.500000*%
%TD*%
%TA.AperFunction,Conductor*%
%ADD38C,2.000000*%
%TD*%
G04 APERTURE END LIST*
D10*
%TO.P,R9,2*%
%TO.N,CS*%
X100902500Y-82377500D03*
%TO.P,R9,1*%
%TO.N,VREF*%
X98902500Y-82377500D03*
%TD*%
%TO.P,R12,1*%
%TO.N,Net-(C10-Pad1)*%
X189575000Y-72000000D03*
%TO.P,R12,2*%
%TO.N,Net-(D3-A)*%
X191575000Y-72000000D03*
%TD*%
%TO.P,R11,1*%
%TO.N,Net-(R11-Pad1)*%
X182737500Y-93375000D03*
%TO.P,R11,2*%
%TO.N,Net-(Q2-E)*%
X184737500Y-93375000D03*
%TD*%
D11*
%TO.P,U2,1*%
%TO.N,Net-(R11-Pad1)*%
X168325000Y-92215000D03*
D12*
%TO.P,U2,2*%
%TO.N,Net-(D3-A)*%
X168325000Y-89675000D03*
%TO.P,U2,3*%
%TO.N,VSENSE*%
X160705000Y-89675000D03*
%TO.P,U2,4*%
%TO.N,VREF*%
X160705000Y-92215000D03*
%TD*%
D13*
%TO.P,C12,1*%
%TO.N,Net-(Q2-E)*%
X185300000Y-88491700D03*
%TO.P,C12,2*%
%TO.N,GNDS*%
X182175000Y-88491700D03*
%TD*%
%TO.P,C11,1*%
%TO.N,Net-(D3-K)*%
X185300000Y-78525000D03*
%TO.P,C11,2*%
%TO.N,GNDS*%
X182175000Y-78525000D03*
%TD*%
D14*
%TO.P,D6,1,K*%
%TO.N,Net-(D6-K)*%
X200147500Y-90175000D03*
%TO.P,D6,2,A*%
%TO.N,GNDS*%
X202947500Y-90175000D03*
%TD*%
D10*
%TO.P,R17,1*%
%TO.N,VOUT*%
X200525000Y-94350000D03*
%TO.P,R17,2*%
%TO.N,Net-(D6-K)*%
X202525000Y-94350000D03*
%TD*%
%TO.P,R16,1*%
%TO.N,Net-(D3-K)*%
X200525000Y-85650000D03*
%TO.P,R16,2*%
%TO.N,VOUT*%
X202525000Y-85650000D03*
%TD*%
D15*
%TO.P,Q2,1,C*%
%TO.N,VOUT*%
X196195000Y-93137500D03*
%TO.P,Q2,2,B*%
%TO.N,Net-(D6-K)*%
X196195000Y-91237500D03*
%TO.P,Q2,3,E*%
%TO.N,Net-(Q2-E)*%
X192775000Y-92187500D03*
%TD*%
D14*
%TO.P,D3,1,K*%
%TO.N,Net-(D3-K)*%
X185160000Y-83458300D03*
%TO.P,D3,2,A*%
%TO.N,Net-(D3-A)*%
X182360000Y-83458300D03*
%TD*%
D16*
%TO.P,U3,1,K*%
%TO.N,Net-(D3-A)*%
X195462500Y-74037500D03*
%TO.P,U3,2,REF*%
%TO.N,Net-(U3-REF)*%
X195462500Y-75937500D03*
%TO.P,U3,3,A*%
%TO.N,GNDS*%
X197337500Y-74987500D03*
%TD*%
D17*
%TO.P,C18,2*%
%TO.N,GND*%
X140025000Y-92475000D03*
%TO.P,C18,1*%
%TO.N,VCC*%
X140025000Y-86875000D03*
%TD*%
%TO.P,C9,1*%
%TO.N,VCC*%
X131325000Y-86805000D03*
%TO.P,C9,2*%
%TO.N,GND*%
X131325000Y-92405000D03*
%TD*%
D18*
%TO.P,J2,1,Pin_1*%
%TO.N,VOUT*%
X214750000Y-61200000D03*
D19*
%TO.P,J2,2,Pin_2*%
%TO.N,GNDS*%
X214750000Y-63200000D03*
%TD*%
D20*
%TO.P,U1,1,COMP*%
%TO.N,COMP*%
X114726701Y-81660000D03*
%TO.P,U1,2,FB*%
%TO.N,FB*%
X114726701Y-80390000D03*
%TO.P,U1,3,CS*%
%TO.N,CS*%
X114726701Y-79120000D03*
%TO.P,U1,4,RC*%
%TO.N,Net-(U1-RC)*%
X114726701Y-77850000D03*
%TO.P,U1,5,GND*%
%TO.N,GND*%
X109476701Y-77850000D03*
%TO.P,U1,6,OUT*%
%TO.N,Net-(U1-OUT)*%
X109476701Y-79120000D03*
%TO.P,U1,7,VCC*%
%TO.N,VCC*%
X109476701Y-80390000D03*
%TO.P,U1,8,REF*%
%TO.N,VREF*%
X109476701Y-81660000D03*
%TD*%
D21*
%TO.P,C10,2*%
%TO.N,Net-(U3-REF)*%
X191500000Y-76050000D03*
%TO.P,C10,1*%
%TO.N,Net-(C10-Pad1)*%
X189425000Y-76050000D03*
%TD*%
D22*
%TO.P,R15,2*%
%TO.N,GNDS*%
X209737500Y-85625000D03*
%TO.P,R15,1*%
%TO.N,Net-(R14-Pad2)*%
X211737500Y-85625000D03*
%TD*%
%TO.P,R13,2*%
%TO.N,Net-(U3-REF)*%
X209737500Y-79725000D03*
%TO.P,R13,1*%
%TO.N,VOUT*%
X211737500Y-79725000D03*
%TD*%
D10*
%TO.P,R14,2*%
%TO.N,Net-(R14-Pad2)*%
X211737500Y-82675000D03*
%TO.P,R14,1*%
%TO.N,Net-(U3-REF)*%
X209737500Y-82675000D03*
%TD*%
D17*
%TO.P,C14,2*%
%TO.N,GNDS*%
X190425000Y-64900000D03*
%TO.P,C14,1*%
%TO.N,VOUT*%
X190425000Y-59500000D03*
%TD*%
%TO.P,C15,2*%
%TO.N,GNDS*%
X200675000Y-64900000D03*
%TO.P,C15,1*%
%TO.N,VOUT*%
X200675000Y-59500000D03*
%TD*%
D23*
%TO.P,C16,2*%
%TO.N,GNDS*%
X208850000Y-63762500D03*
%TO.P,C16,1*%
%TO.N,VOUT*%
X208850000Y-60637500D03*
%TD*%
D24*
%TO.P,U4,10,pri_d*%
%TO.N,SW*%
X154000000Y-57000000D03*
%TO.P,U4,9,9*%
%TO.N,unconnected-(U4-Pad9)*%
X154000000Y-62000000D03*
%TO.P,U4,8,pri*%
%TO.N,VBULK*%
X154000000Y-67000000D03*
%TO.P,U4,7,aux_d*%
%TO.N,Vaux*%
X154000000Y-72000000D03*
D25*
%TO.P,U4,6,aux*%
%TO.N,GND*%
X154000000Y-77000000D03*
D24*
%TO.P,U4,5,5*%
%TO.N,unconnected-(U4-Pad5)*%
X174500000Y-77000000D03*
%TO.P,U4,4,sec*%
%TO.N,GNDS*%
X174500000Y-72000000D03*
%TO.P,U4,3,3*%
%TO.N,unconnected-(U4-Pad3)*%
X174500000Y-67000000D03*
%TO.P,U4,2,sec_d*%
%TO.N,Net-(D4-A)*%
X174500000Y-62000000D03*
%TO.P,U4,1,1*%
%TO.N,unconnected-(U4-Pad1)*%
X174500000Y-57000000D03*
%TD*%
D26*
%TO.P,D4,2,A*%
%TO.N,Net-(D4-A)*%
X179250000Y-62200000D03*
%TO.P,D4,1,K*%
%TO.N,VOUT*%
X183250000Y-62200000D03*
%TD*%
D13*
%TO.P,C17,1*%
%TO.N,VREF*%
X107389200Y-87160000D03*
%TO.P,C17,2*%
%TO.N,GND*%
X104264200Y-87160000D03*
%TD*%
D27*
%TO.P,J1,1,Pin_1*%
%TO.N,/Vline*%
X84400000Y-66830000D03*
D28*
%TO.P,J1,2,Pin_2*%
%TO.N,Net-(J1-Pin_2)*%
X84400000Y-61750000D03*
%TD*%
D10*
%TO.P,R19,1*%
%TO.N,VCC*%
X149877500Y-87791700D03*
%TO.P,R19,2*%
%TO.N,Net-(D7-K)*%
X151877500Y-87791700D03*
%TD*%
D14*
%TO.P,D7,1,K*%
%TO.N,Net-(D7-K)*%
X152250000Y-84325000D03*
%TO.P,D7,2,A*%
%TO.N,Vaux*%
X149450000Y-84325000D03*
%TD*%
D29*
%TO.P,D5,1,K*%
%TO.N,Net-(D5-K)*%
X143600000Y-74525000D03*
%TO.P,D5,2,A*%
%TO.N,SW*%
X147600000Y-74525000D03*
%TD*%
D10*
%TO.P,R18,1*%
%TO.N,VBULK*%
X135775000Y-74175000D03*
%TO.P,R18,2*%
%TO.N,Net-(D5-K)*%
X137775000Y-74175000D03*
%TD*%
D21*
%TO.P,C13,1*%
%TO.N,VBULK*%
X135737500Y-78675000D03*
%TO.P,C13,2*%
%TO.N,Net-(D5-K)*%
X137812500Y-78675000D03*
%TD*%
D22*
%TO.P,R10,1*%
%TO.N,Net-(C5-Pad1)*%
X125475000Y-74125000D03*
%TO.P,R10,2*%
%TO.N,Net-(U1-RC)*%
X123475000Y-74125000D03*
%TD*%
D10*
%TO.P,R8,1*%
%TO.N,Net-(Q1-S)*%
X98902500Y-78772500D03*
%TO.P,R8,2*%
%TO.N,CS*%
X100902500Y-78772500D03*
%TD*%
%TO.P,R7,1*%
%TO.N,Net-(Q1-S)*%
X99077500Y-75747500D03*
%TO.P,R7,2*%
%TO.N,GND*%
X101077500Y-75747500D03*
%TD*%
D30*
%TO.P,Q1,3,S*%
%TO.N,Net-(Q1-S)*%
X140625000Y-53580000D03*
D31*
%TO.P,Q1,2,D*%
%TO.N,SW*%
X146925000Y-51300000D03*
D30*
%TO.P,Q1,1,G*%
%TO.N,Net-(Q1-G)*%
X140625000Y-49020000D03*
%TD*%
D14*
%TO.P,D2,1,K*%
%TO.N,VCC*%
X149455000Y-97175000D03*
%TO.P,D2,2,A*%
%TO.N,GND*%
X152255000Y-97175000D03*
%TD*%
D32*
%TO.P,D1,1,+*%
%TO.N,VBULK*%
X102675000Y-66850000D03*
%TO.P,D1,2,-*%
%TO.N,GND*%
X102675000Y-61750000D03*
%TO.P,D1,3*%
%TO.N,Net-(J1-Pin_2)*%
X93775000Y-61750000D03*
%TO.P,D1,4*%
%TO.N,/Vline*%
X93775000Y-66850000D03*
%TD*%
D12*
%TO.P,C8,1*%
%TO.N,VBULK*%
X142600000Y-66300000D03*
%TO.P,C8,2*%
%TO.N,GND*%
X142600000Y-61300000D03*
%TD*%
%TO.P,C7,1*%
%TO.N,VBULK*%
X128600000Y-66300000D03*
%TO.P,C7,2*%
%TO.N,GND*%
X128600000Y-61300000D03*
%TD*%
%TO.P,C6,1*%
%TO.N,VBULK*%
X112600000Y-66300000D03*
%TO.P,C6,2*%
%TO.N,GND*%
X112600000Y-61300000D03*
%TD*%
D33*
%TO.P,C5,1*%
%TO.N,Net-(C5-Pad1)*%
X125475000Y-77530000D03*
%TO.P,C5,2*%
%TO.N,CS*%
X123400000Y-77530000D03*
%TD*%
D22*
%TO.P,R6,1*%
%TO.N,VBULK*%
X131625000Y-74225000D03*
%TO.P,R6,2*%
%TO.N,VCC*%
X129625000Y-74225000D03*
%TD*%
D10*
%TO.P,R5,1*%
%TO.N,VSENSE*%
X120773300Y-94890400D03*
%TO.P,R5,2*%
%TO.N,GND*%
X122773300Y-94890400D03*
%TD*%
%TO.P,R4,1*%
%TO.N,FB*%
X115800000Y-94825400D03*
%TO.P,R4,2*%
%TO.N,VSENSE*%
X117800000Y-94825400D03*
%TD*%
D34*
%TO.P,R3,1*%
%TO.N,Net-(U1-OUT)*%
X106100000Y-79200000D03*
%TO.P,R3,2*%
%TO.N,Net-(Q1-G)*%
X106100000Y-77200000D03*
%TD*%
D10*
%TO.P,R2,1*%
%TO.N,COMP*%
X115800000Y-86375000D03*
%TO.P,R2,2*%
%TO.N,FB*%
X117800000Y-86375000D03*
%TD*%
D22*
%TO.P,R1,1*%
%TO.N,VREF*%
X106826700Y-91160000D03*
%TO.P,R1,2*%
%TO.N,Net-(U1-RC)*%
X104826700Y-91160000D03*
%TD*%
D35*
%TO.P,C4,1*%
%TO.N,VCC*%
X149315000Y-92408300D03*
%TO.P,C4,2*%
%TO.N,GND*%
X152440000Y-92408300D03*
%TD*%
D21*
%TO.P,C3,1*%
%TO.N,COMP*%
X115762500Y-90600200D03*
%TO.P,C3,2*%
%TO.N,FB*%
X117837500Y-90600200D03*
%TD*%
D33*
%TO.P,C2,1*%
%TO.N,CS*%
X100940000Y-86012500D03*
%TO.P,C2,2*%
%TO.N,GND*%
X98865000Y-86012500D03*
%TD*%
%TO.P,C1,1*%
%TO.N,Net-(U1-RC)*%
X100940000Y-89677500D03*
%TO.P,C1,2*%
%TO.N,GND*%
X98865000Y-89677500D03*
%TD*%
D36*
%TO.N,VOUT*%
X190425000Y-56450000D03*
X200862500Y-55887500D03*
X208850000Y-58725000D03*
X200350000Y-95850000D03*
X204175000Y-84650000D03*
X213700000Y-79750000D03*
%TO.N,VREF*%
X158845000Y-94075000D03*
X109476701Y-90300393D03*
X98875000Y-83662500D03*
X105637500Y-83662500D03*
%TO.N,Net-(U1-RC)*%
X116350000Y-77850000D03*
X105150000Y-93225000D03*
%TO.N,Net-(Q1-S)*%
X127950000Y-53525000D03*
%TO.N,Net-(Q1-G)*%
X136687500Y-49137500D03*
X109300000Y-74150000D03*
%TO.N,Net-(Q1-S)*%
X101225000Y-71675000D03*
%TO.N,Net-(D3-A)*%
X191425000Y-74050000D03*
X179550000Y-83458300D03*
%TO.N,SW*%
X147600000Y-71125000D03*
X152562500Y-56937500D03*
%TD*%
D37*
%TO.N,VOUT*%
X190425000Y-56450000D02*
X190425000Y-56225000D01*
X200862500Y-55887500D02*
X200875000Y-55875000D01*
X208850000Y-58725000D02*
X208850000Y-58625000D01*
X200350000Y-95850000D02*
X200350000Y-94525000D01*
X213700000Y-79750000D02*
X213750000Y-79800000D01*
%TO.N,VREF*%
X158845000Y-94075000D02*
X158775000Y-94075000D01*
X160705000Y-92215000D02*
X158845000Y-94075000D01*
%TO.N,VBULK*%
X131625000Y-74225000D02*
X131625000Y-69325000D01*
X131625000Y-69325000D02*
X128600000Y-66300000D01*
%TO.N,VREF*%
X98875000Y-82405000D02*
X98902500Y-82377500D01*
X98875000Y-83662500D02*
X98875000Y-82405000D01*
X105637500Y-83662500D02*
X105525000Y-83550000D01*
X105722501Y-83747501D02*
X105637500Y-83662500D01*
X107389200Y-83747501D02*
X105722501Y-83747501D01*
%TO.N,Net-(U1-RC)*%
X116350000Y-77850000D02*
X116775000Y-77850000D01*
X116775000Y-77850000D02*
X116950000Y-77675000D01*
X114726701Y-77850000D02*
X116350000Y-77850000D01*
X105150000Y-93225000D02*
X105225000Y-93300000D01*
X104826700Y-92901700D02*
X105150000Y-93225000D01*
X104826700Y-91160000D02*
X104826700Y-92901700D01*
%TO.N,Net-(Q1-S)*%
X128005000Y-53580000D02*
X127950000Y-53525000D01*
X140625000Y-53580000D02*
X128005000Y-53580000D01*
%TO.N,Net-(Q1-G)*%
X140507500Y-49137500D02*
X140625000Y-49020000D01*
X136687500Y-49137500D02*
X140507500Y-49137500D01*
%TO.N,Net-(Q1-S)*%
X101225000Y-71675000D02*
X101250000Y-71650000D01*
%TO.N,Net-(Q1-G)*%
X106250000Y-77200000D02*
X109300000Y-74150000D01*
X106100000Y-77200000D02*
X106250000Y-77200000D01*
%TO.N,Net-(Q1-S)*%
X99077500Y-73822500D02*
X101225000Y-71675000D01*
X99077500Y-75747500D02*
X99077500Y-73822500D01*
%TO.N,VREF*%
X109476701Y-81660000D02*
X109476701Y-90300393D01*
%TO.N,VSENSE*%
X155875000Y-98650000D02*
X155875000Y-94505000D01*
X123225000Y-98650000D02*
X155875000Y-98650000D01*
X155875000Y-94505000D02*
X160705000Y-89675000D01*
X120773300Y-96198300D02*
X123225000Y-98650000D01*
X120773300Y-94890400D02*
X120773300Y-96198300D01*
%TO.N,Net-(D3-A)*%
X191425000Y-72150000D02*
X191575000Y-72000000D01*
X191425000Y-74050000D02*
X191425000Y-72150000D01*
X179550000Y-83458300D02*
X174541700Y-83458300D01*
%TO.N,VOUT*%
X200350000Y-94525000D02*
X200525000Y-94350000D01*
X200350000Y-95950000D02*
X200350000Y-95850000D01*
X197407500Y-94350000D02*
X196195000Y-93137500D01*
X200525000Y-94350000D02*
X197407500Y-94350000D01*
X204175000Y-84650000D02*
X203525000Y-84650000D01*
X203525000Y-84650000D02*
X202525000Y-85650000D01*
X213675000Y-79725000D02*
X213700000Y-79750000D01*
X211737500Y-79725000D02*
X213675000Y-79725000D01*
%TO.N,Net-(U3-REF)*%
X199250000Y-79725000D02*
X195462500Y-75937500D01*
X209737500Y-79725000D02*
X199250000Y-79725000D01*
%TO.N,VOUT*%
X187725000Y-62200000D02*
X183250000Y-62200000D01*
X190425000Y-59500000D02*
X187725000Y-62200000D01*
X190425000Y-59500000D02*
X190425000Y-56450000D01*
X208850000Y-58625000D02*
X208800000Y-58575000D01*
X208850000Y-60637500D02*
X208850000Y-58725000D01*
X200675000Y-59500000D02*
X200675000Y-56075000D01*
X200675000Y-56075000D02*
X200862500Y-55887500D01*
%TO.N,SW*%
X147600000Y-71125000D02*
X147600000Y-71050000D01*
X152562500Y-56937500D02*
X146925000Y-51300000D01*
X147600000Y-71050000D02*
X147700000Y-70950000D01*
X147600000Y-74525000D02*
X147600000Y-71125000D01*
X152625000Y-57000000D02*
X152562500Y-56937500D01*
X154000000Y-57000000D02*
X152625000Y-57000000D01*
D38*
%TO.N,VBULK*%
X143300000Y-67000000D02*
X142600000Y-66300000D01*
X154000000Y-67000000D02*
X143300000Y-67000000D01*
D37*
%TO.N,VCC*%
X127425000Y-72025000D02*
X129625000Y-74225000D01*
X110051701Y-80390000D02*
X118416701Y-72025000D01*
X109476701Y-80390000D02*
X110051701Y-80390000D01*
X118416701Y-72025000D02*
X127425000Y-72025000D01*
%TO.N,Net-(U1-RC)*%
X102422500Y-91160000D02*
X100940000Y-89677500D01*
X104826700Y-91160000D02*
X102422500Y-91160000D01*
%TO.N,VREF*%
X107389200Y-83747501D02*
X109476701Y-81660000D01*
X107389200Y-87160000D02*
X107389200Y-83747501D01*
X106826700Y-87722500D02*
X107389200Y-87160000D01*
X106826700Y-91160000D02*
X106826700Y-87722500D01*
%TO.N,VCC*%
X149315000Y-92408300D02*
X143781700Y-86875000D01*
X143781700Y-86875000D02*
X140025000Y-86875000D01*
X149315000Y-97035000D02*
X149455000Y-97175000D01*
X149315000Y-92408300D02*
X149315000Y-97035000D01*
X149877500Y-91845800D02*
X149315000Y-92408300D01*
X149877500Y-87791700D02*
X149877500Y-91845800D01*
%TO.N,Net-(D7-K)*%
X152250000Y-87419200D02*
X151877500Y-87791700D01*
X152250000Y-84325000D02*
X152250000Y-87419200D01*
%TO.N,Vaux*%
X149450000Y-76550000D02*
X154000000Y-72000000D01*
X149450000Y-84325000D02*
X149450000Y-76550000D01*
%TO.N,VCC*%
X131325000Y-75925000D02*
X129625000Y-74225000D01*
X131325000Y-86805000D02*
X131325000Y-75925000D01*
%TO.N,VREF*%
X109476701Y-81660000D02*
X109476701Y-81947499D01*
%TO.N,Net-(R14-Pad2)*%
X211737500Y-82675000D02*
X211737500Y-85625000D01*
%TO.N,Net-(U3-REF)*%
X209737500Y-79725000D02*
X209737500Y-82675000D01*
%TO.N,Net-(D3-K)*%
X185300000Y-83318300D02*
X185160000Y-83458300D01*
X185300000Y-78525000D02*
X185300000Y-83318300D01*
%TO.N,Net-(C10-Pad1)*%
X189425000Y-72150000D02*
X189575000Y-72000000D01*
X189425000Y-76050000D02*
X189425000Y-72150000D01*
%TO.N,Net-(U3-REF)*%
X191612500Y-75937500D02*
X191500000Y-76050000D01*
X195462500Y-75937500D02*
X191612500Y-75937500D01*
%TO.N,Net-(D3-A)*%
X193425000Y-72000000D02*
X195462500Y-74037500D01*
X191575000Y-72000000D02*
X193425000Y-72000000D01*
%TO.N,Net-(Q2-E)*%
X185300000Y-92812500D02*
X184737500Y-93375000D01*
X185300000Y-88491700D02*
X185300000Y-92812500D01*
%TO.N,Net-(D3-K)*%
X187351700Y-85650000D02*
X185160000Y-83458300D01*
X200525000Y-85650000D02*
X187351700Y-85650000D01*
%TO.N,Net-(D6-K)*%
X200147500Y-91972500D02*
X202525000Y-94350000D01*
X200147500Y-90175000D02*
X200147500Y-91972500D01*
X199085000Y-91237500D02*
X200147500Y-90175000D01*
X196195000Y-91237500D02*
X199085000Y-91237500D01*
%TO.N,Net-(Q2-E)*%
X191587500Y-93375000D02*
X192775000Y-92187500D01*
X184737500Y-93375000D02*
X191587500Y-93375000D01*
%TO.N,Net-(R11-Pad1)*%
X181577500Y-92215000D02*
X182737500Y-93375000D01*
X168325000Y-92215000D02*
X181577500Y-92215000D01*
%TO.N,Net-(D3-A)*%
X174541700Y-83458300D02*
X168325000Y-89675000D01*
X182360000Y-83458300D02*
X179550000Y-83458300D01*
%TO.N,Net-(D4-A)*%
X174700000Y-62200000D02*
X174500000Y-62000000D01*
X179250000Y-62200000D02*
X174700000Y-62200000D01*
%TO.N,Net-(U1-OUT)*%
X109396701Y-79200000D02*
X109476701Y-79120000D01*
X106100000Y-79200000D02*
X109396701Y-79200000D01*
%TO.N,GND*%
X151877500Y-91845800D02*
X152440000Y-92408300D01*
X152255000Y-92593300D02*
X152440000Y-92408300D01*
%TO.N,Net-(D5-K)*%
X138125000Y-74525000D02*
X137775000Y-74175000D01*
X143600000Y-74525000D02*
X138125000Y-74525000D01*
%TO.N,VBULK*%
X135775000Y-74175000D02*
X135775000Y-78637500D01*
X135775000Y-78637500D02*
X135737500Y-78675000D01*
%TO.N,Net-(D5-K)*%
X137775000Y-78637500D02*
X137812500Y-78675000D01*
X137775000Y-74175000D02*
X137775000Y-78637500D01*
%TO.N,VBULK*%
X131625000Y-74225000D02*
X135725000Y-74225000D01*
X135725000Y-74225000D02*
X135775000Y-74175000D01*
%TO.N,VCC*%
X139955000Y-86805000D02*
X140025000Y-86875000D01*
X131325000Y-86805000D02*
X139955000Y-86805000D01*
%TO.N,VSENSE*%
X120708300Y-94825400D02*
X120773300Y-94890400D01*
X117800000Y-94825400D02*
X120708300Y-94825400D01*
%TO.N,FB*%
X117837500Y-92787900D02*
X115800000Y-94825400D01*
X117837500Y-90600200D02*
X117837500Y-92787900D01*
X117800000Y-90562700D02*
X117837500Y-90600200D01*
X117800000Y-86375000D02*
X117800000Y-90562700D01*
%TO.N,COMP*%
X115800000Y-90562700D02*
X115762500Y-90600200D01*
X115800000Y-86375000D02*
X115800000Y-90562700D01*
X114726701Y-85301701D02*
X115800000Y-86375000D01*
X114726701Y-81660000D02*
X114726701Y-85301701D01*
%TO.N,FB*%
X115301701Y-80390000D02*
X117800000Y-82888299D01*
X114726701Y-80390000D02*
X115301701Y-80390000D01*
X117800000Y-82888299D02*
X117800000Y-86375000D01*
%TO.N,CS*%
X121810000Y-79120000D02*
X114726701Y-79120000D01*
X123400000Y-77530000D02*
X121810000Y-79120000D01*
%TO.N,Net-(C5-Pad1)*%
X125475000Y-74125000D02*
X125475000Y-77530000D01*
%TO.N,Net-(U1-RC)*%
X118451701Y-74125000D02*
X114726701Y-77850000D01*
X123475000Y-74125000D02*
X118451701Y-74125000D01*
%TO.N,CS*%
X100940000Y-82415000D02*
X100902500Y-82377500D01*
X100940000Y-86012500D02*
X100940000Y-82415000D01*
X100902500Y-78772500D02*
X100902500Y-82377500D01*
%TO.N,Net-(Q1-S)*%
X99077500Y-78597500D02*
X98902500Y-78772500D01*
X99077500Y-75747500D02*
X99077500Y-78597500D01*
D38*
%TO.N,VBULK*%
X128600000Y-66300000D02*
X142600000Y-66300000D01*
X112600000Y-66300000D02*
X128600000Y-66300000D01*
X112050000Y-66850000D02*
X112600000Y-66300000D01*
X102675000Y-66850000D02*
X112050000Y-66850000D01*
%TO.N,/Vline*%
X84420000Y-66850000D02*
X84400000Y-66830000D01*
X93775000Y-66850000D02*
X84420000Y-66850000D01*
%TO.N,Net-(J1-Pin_2)*%
X84400000Y-61750000D02*
X93775000Y-61750000D01*
%TD*%
%TA.AperFunction,Conductor*%
%TO.N,GND*%
G36*
X155895575Y-44470185D02*
G01*
X155941330Y-44522989D01*
X155952532Y-44573530D01*
X156331014Y-92935280D01*
X156311855Y-93002471D01*
X156294699Y-93023931D01*
X155292050Y-94026581D01*
X155292047Y-94026584D01*
X155259764Y-94074899D01*
X155259765Y-94074900D01*
X155209914Y-94149508D01*
X155153343Y-94286082D01*
X155153340Y-94286092D01*
X155124500Y-94431079D01*
X155124500Y-97775500D01*
X155104815Y-97842539D01*
X155052011Y-97888294D01*
X155000500Y-97899500D01*
X153479000Y-97899500D01*
X153411961Y-97879815D01*
X153366206Y-97827011D01*
X153355000Y-97775500D01*
X153355000Y-97425000D01*
X151155000Y-97425000D01*
X151155000Y-97775500D01*
X151135315Y-97842539D01*
X151082511Y-97888294D01*
X151031000Y-97899500D01*
X150679500Y-97899500D01*
X150612461Y-97879815D01*
X150566706Y-97827011D01*
X150555500Y-97775500D01*
X150555499Y-96527155D01*
X151155000Y-96527155D01*
X151155000Y-96925000D01*
X152005000Y-96925000D01*
X152505000Y-96925000D01*
X153355000Y-96925000D01*
X153355000Y-96527172D01*
X153354999Y-96527155D01*
X153348598Y-96467627D01*
X153348596Y-96467620D01*
X153298354Y-96332913D01*
X153298350Y-96332906D01*
X153212190Y-96217812D01*
X153212187Y-96217809D01*
X153097093Y-96131649D01*
X153097086Y-96131645D01*
X152962379Y-96081403D01*
X152962372Y-96081401D01*
X152902844Y-96075000D01*
X152505000Y-96075000D01*
X152505000Y-96925000D01*
X152005000Y-96925000D01*
X152005000Y-96075000D01*
X151607155Y-96075000D01*
X151547627Y-96081401D01*
X151547620Y-96081403D01*
X151412913Y-96131645D01*
X151412906Y-96131649D01*
X151297812Y-96217809D01*
X151297809Y-96217812D01*
X151211649Y-96332906D01*
X151211645Y-96332913D01*
X151161403Y-96467620D01*
X151161401Y-96467627D01*
X151155000Y-96527155D01*
X150555499Y-96527155D01*
X150555499Y-96527129D01*
X150555498Y-96527123D01*
X150555497Y-96527116D01*
X150549091Y-96467517D01*
X150530330Y-96417217D01*
X150498797Y-96332671D01*
X150498793Y-96332664D01*
X150412547Y-96217455D01*
X150412544Y-96217452D01*
X150297335Y-96131206D01*
X150297328Y-96131202D01*
X150162484Y-96080909D01*
X150160985Y-96080555D01*
X150159941Y-96079960D01*
X150155215Y-96078198D01*
X150155500Y-96077432D01*
X150100269Y-96045981D01*
X150067883Y-95984070D01*
X150065500Y-95959878D01*
X150065500Y-94250807D01*
X150085185Y-94183768D01*
X150124403Y-94145268D01*
X150196156Y-94101012D01*
X150320212Y-93976956D01*
X150412314Y-93827634D01*
X150467499Y-93661097D01*
X150478000Y-93558309D01*
X150478000Y-93558286D01*
X151277501Y-93558286D01*
X151287994Y-93660997D01*
X151343141Y-93827419D01*
X151343143Y-93827424D01*
X151435184Y-93976645D01*
X151559154Y-94100615D01*
X151708375Y-94192656D01*
X151708380Y-94192658D01*
X151874802Y-94247805D01*
X151874809Y-94247806D01*
X151977519Y-94258299D01*
X152189999Y-94258299D01*
X152690000Y-94258299D01*
X152902472Y-94258299D01*
X152902486Y-94258298D01*
X153005197Y-94247805D01*
X153171619Y-94192658D01*
X153171624Y-94192656D01*
X153320845Y-94100615D01*
X153444815Y-93976645D01*
X153536856Y-93827424D01*
X153536858Y-93827419D01*
X153592005Y-93660997D01*
X153592006Y-93660990D01*
X153602499Y-93558286D01*
X153602500Y-93558273D01*
X153602500Y-92658300D01*
X152690000Y-92658300D01*
X152690000Y-94258299D01*
X152189999Y-94258299D01*
X152190000Y-94258298D01*
X152190000Y-92658300D01*
X151277501Y-92658300D01*
X151277501Y-93558286D01*
X150478000Y-93558286D01*
X150477999Y-92335566D01*
X150483327Y-92317421D01*
X150483665Y-92298513D01*
X150497164Y-92270297D01*
X150497684Y-92268528D01*
X150498897Y-92266676D01*
X150541631Y-92202721D01*
X150541635Y-92202715D01*
X150541639Y-92202708D01*
X150542584Y-92201295D01*
X150599158Y-92064713D01*
X150626087Y-91929336D01*
X150628000Y-91919720D01*
X150628000Y-91258313D01*
X151277500Y-91258313D01*
X151277500Y-92158300D01*
X152190000Y-92158300D01*
X152690000Y-92158300D01*
X153602499Y-92158300D01*
X153602499Y-91258328D01*
X153602498Y-91258313D01*
X153592005Y-91155602D01*
X153536858Y-90989180D01*
X153536856Y-90989175D01*
X153444815Y-90839954D01*
X153320845Y-90715984D01*
X153171624Y-90623943D01*
X153171619Y-90623941D01*
X153005197Y-90568794D01*
X153005190Y-90568793D01*
X152902486Y-90558300D01*
X152690000Y-90558300D01*
X152690000Y-92158300D01*
X152190000Y-92158300D01*
X152190000Y-90558300D01*
X151977529Y-90558300D01*
X151977512Y-90558301D01*
X151874802Y-90568794D01*
X151708380Y-90623941D01*
X151708375Y-90623943D01*
X151559154Y-90715984D01*
X151435184Y-90839954D01*
X151343143Y-90989175D01*
X151343141Y-90989180D01*
X151287994Y-91155602D01*
X151287993Y-91155609D01*
X151277500Y-91258313D01*
X150628000Y-91258313D01*
X150628000Y-88945657D01*
X150647685Y-88878618D01*
X150667356Y-88855040D01*
X150676383Y-88846607D01*
X150696156Y-88834412D01*
X150791323Y-88739244D01*
X150792856Y-88737813D01*
X150822268Y-88723030D01*
X150851142Y-88707264D01*
X150853326Y-88707420D01*
X150855285Y-88706436D01*
X150888009Y-88709900D01*
X150920834Y-88712248D01*
X150922934Y-88713598D01*
X150924766Y-88713792D01*
X150930891Y-88718711D01*
X150965181Y-88740749D01*
X151058844Y-88834412D01*
X151208166Y-88926514D01*
X151374703Y-88981699D01*
X151477491Y-88992200D01*
X152277508Y-88992199D01*
X152277516Y-88992198D01*
X152277519Y-88992198D01*
X152333802Y-88986448D01*
X152380297Y-88981699D01*
X152546834Y-88926514D01*
X152696156Y-88834412D01*
X152820212Y-88710356D01*
X152912314Y-88561034D01*
X152967499Y-88394497D01*
X152978000Y-88291709D01*
X152977999Y-87618445D01*
X152980382Y-87594255D01*
X152998416Y-87503592D01*
X152998417Y-87503588D01*
X153000500Y-87493118D01*
X153000500Y-85489141D01*
X153020185Y-85422102D01*
X153072989Y-85376347D01*
X153081149Y-85372966D01*
X153092331Y-85368796D01*
X153207546Y-85282546D01*
X153293796Y-85167331D01*
X153344091Y-85032483D01*
X153350500Y-84972873D01*
X153350499Y-83677128D01*
X153344091Y-83617517D01*
X153331462Y-83583658D01*
X153293797Y-83482671D01*
X153293793Y-83482664D01*
X153207547Y-83367455D01*
X153207544Y-83367452D01*
X153092335Y-83281206D01*
X153092328Y-83281202D01*
X152957482Y-83230908D01*
X152957483Y-83230908D01*
X152897883Y-83224501D01*
X152897881Y-83224500D01*
X152897873Y-83224500D01*
X152897864Y-83224500D01*
X151602129Y-83224500D01*
X151602123Y-83224501D01*
X151542516Y-83230908D01*
X151407671Y-83281202D01*
X151407664Y-83281206D01*
X151292455Y-83367452D01*
X151292452Y-83367455D01*
X151206206Y-83482664D01*
X151206202Y-83482671D01*
X151155908Y-83617517D01*
X151149501Y-83677116D01*
X151149501Y-83677123D01*
X151149500Y-83677135D01*
X151149500Y-84972870D01*
X151149501Y-84972876D01*
X151155908Y-85032483D01*
X151206202Y-85167328D01*
X151206206Y-85167335D01*
X151292452Y-85282544D01*
X151292455Y-85282547D01*
X151407665Y-85368794D01*
X151407667Y-85368794D01*
X151407669Y-85368796D01*
X151418830Y-85372958D01*
X151474764Y-85414826D01*
X151499184Y-85480289D01*
X151499500Y-85489141D01*
X151499500Y-86476974D01*
X151479815Y-86544013D01*
X151427011Y-86589768D01*
X151388104Y-86600332D01*
X151374701Y-86601701D01*
X151374700Y-86601701D01*
X151208168Y-86656885D01*
X151208163Y-86656887D01*
X151058842Y-86748989D01*
X150965181Y-86842651D01*
X150903858Y-86876136D01*
X150834166Y-86871152D01*
X150789819Y-86842651D01*
X150696157Y-86748989D01*
X150696156Y-86748988D01*
X150546834Y-86656886D01*
X150380297Y-86601701D01*
X150380295Y-86601700D01*
X150277510Y-86591200D01*
X149477498Y-86591200D01*
X149477480Y-86591201D01*
X149374703Y-86601700D01*
X149374700Y-86601701D01*
X149208168Y-86656885D01*
X149208163Y-86656887D01*
X149058842Y-86748989D01*
X148934789Y-86873042D01*
X148842687Y-87022363D01*
X148842686Y-87022366D01*
X148787501Y-87188903D01*
X148787501Y-87188904D01*
X148787500Y-87188904D01*
X148777000Y-87291683D01*
X148777000Y-88291701D01*
X148777001Y-88291719D01*
X148787500Y-88394496D01*
X148787501Y-88394499D01*
X148842685Y-88561031D01*
X148842687Y-88561036D01*
X148872758Y-88609789D01*
X148934788Y-88710356D01*
X149058844Y-88834412D01*
X149068091Y-88840116D01*
X149114818Y-88892060D01*
X149127000Y-88945657D01*
X149127000Y-90433800D01*
X149107315Y-90500839D01*
X149054511Y-90546594D01*
X149003001Y-90557800D01*
X148852499Y-90557800D01*
X148852480Y-90557801D01*
X148749703Y-90568300D01*
X148749700Y-90568301D01*
X148662068Y-90597340D01*
X148592239Y-90599742D01*
X148535383Y-90567315D01*
X144260121Y-86292052D01*
X144260114Y-86292046D01*
X144186429Y-86242812D01*
X144186429Y-86242813D01*
X144137191Y-86209913D01*
X144000617Y-86153343D01*
X144000607Y-86153340D01*
X143855620Y-86124500D01*
X143855618Y-86124500D01*
X141449499Y-86124500D01*
X141382460Y-86104815D01*
X141336705Y-86052011D01*
X141325499Y-86000500D01*
X141325499Y-85324998D01*
X141325498Y-85324981D01*
X141314999Y-85222203D01*
X141314998Y-85222200D01*
X141299192Y-85174500D01*
X141259814Y-85055666D01*
X141167712Y-84906344D01*
X141043656Y-84782288D01*
X140894334Y-84690186D01*
X140727797Y-84635001D01*
X140727795Y-84635000D01*
X140625010Y-84624500D01*
X139424998Y-84624500D01*
X139424981Y-84624501D01*
X139322203Y-84635000D01*
X139322200Y-84635001D01*
X139155668Y-84690185D01*
X139155663Y-84690187D01*
X139006342Y-84782289D01*
X138882289Y-84906342D01*
X138790187Y-85055663D01*
X138790185Y-85055668D01*
X138781418Y-85082125D01*
X138735001Y-85222203D01*
X138735001Y-85222204D01*
X138735000Y-85222204D01*
X138724500Y-85324983D01*
X138724500Y-85930500D01*
X138704815Y-85997539D01*
X138652011Y-86043294D01*
X138600500Y-86054500D01*
X132749499Y-86054500D01*
X132682460Y-86034815D01*
X132636705Y-85982011D01*
X132625499Y-85930500D01*
X132625499Y-85254998D01*
X132625498Y-85254981D01*
X132614999Y-85152203D01*
X132614998Y-85152200D01*
X132559814Y-84985666D01*
X132467712Y-84836344D01*
X132343656Y-84712288D01*
X132218353Y-84635001D01*
X132194336Y-84620187D01*
X132194335Y-84620186D01*
X132194334Y-84620186D01*
X132194328Y-84620184D01*
X132160494Y-84608972D01*
X132103050Y-84569199D01*
X132076228Y-84504683D01*
X132075500Y-84491267D01*
X132075500Y-75851079D01*
X132046659Y-75706092D01*
X132046658Y-75706091D01*
X132046658Y-75706087D01*
X132020799Y-75643657D01*
X131998015Y-75588651D01*
X131990546Y-75519182D01*
X132021821Y-75456703D01*
X132081910Y-75421051D01*
X132099975Y-75417841D01*
X132127797Y-75414999D01*
X132294334Y-75359814D01*
X132443656Y-75267712D01*
X132567712Y-75143656D01*
X132635099Y-75034402D01*
X132687047Y-74987679D01*
X132740638Y-74975500D01*
X134690202Y-74975500D01*
X134757241Y-74995185D01*
X134795739Y-75034401D01*
X134832288Y-75093656D01*
X134956344Y-75217712D01*
X134965591Y-75223416D01*
X135012318Y-75275360D01*
X135024500Y-75328957D01*
X135024500Y-77480621D01*
X135004815Y-77547660D01*
X134965599Y-77586158D01*
X134931346Y-77607285D01*
X134807289Y-77731342D01*
X134715187Y-77880663D01*
X134715185Y-77880668D01*
X134700038Y-77926380D01*
X134660001Y-78047203D01*
X134660001Y-78047204D01*
X134660000Y-78047204D01*
X134649500Y-78149983D01*
X134649500Y-79200001D01*
X134649501Y-79200019D01*
X134660000Y-79302796D01*
X134660001Y-79302799D01*
X134715185Y-79469331D01*
X134715187Y-79469336D01*
X134726293Y-79487342D01*
X134807288Y-79618656D01*
X134931344Y-79742712D01*
X135080666Y-79834814D01*
X135247203Y-79889999D01*
X135349991Y-79900500D01*
X136125008Y-79900499D01*
X136125016Y-79900498D01*
X136125019Y-79900498D01*
X136181302Y-79894748D01*
X136227797Y-79889999D01*
X136394334Y-79834814D01*
X136543656Y-79742712D01*
X136667712Y-79618656D01*
X136669461Y-79615819D01*
X136671169Y-79614283D01*
X136672193Y-79612989D01*
X136672414Y-79613163D01*
X136721406Y-79569096D01*
X136790368Y-79557872D01*
X136854451Y-79585713D01*
X136880537Y-79615817D01*
X136882288Y-79618656D01*
X137006344Y-79742712D01*
X137155666Y-79834814D01*
X137322203Y-79889999D01*
X137424991Y-79900500D01*
X138200008Y-79900499D01*
X138200016Y-79900498D01*
X138200019Y-79900498D01*
X138256302Y-79894748D01*
X138302797Y-79889999D01*
X138469334Y-79834814D01*
X138618656Y-79742712D01*
X138742712Y-79618656D01*
X138834814Y-79469334D01*
X138889999Y-79302797D01*
X138900500Y-79200009D01*
X138900499Y-78149992D01*
X138900153Y-78146608D01*
X138889999Y-78047203D01*
X138889998Y-78047200D01*
X138884464Y-78030501D01*
X138834814Y-77880666D01*
X138742712Y-77731344D01*
X138618656Y-77607288D01*
X138618653Y-77607285D01*
X138584401Y-77586158D01*
X138537678Y-77534210D01*
X138525500Y-77480621D01*
X138525500Y-75399500D01*
X138545185Y-75332461D01*
X138597989Y-75286706D01*
X138649500Y-75275500D01*
X141753130Y-75275500D01*
X141820169Y-75295185D01*
X141865924Y-75347989D01*
X141870836Y-75360495D01*
X141915186Y-75494334D01*
X142007288Y-75643656D01*
X142131344Y-75767712D01*
X142280666Y-75859814D01*
X142447203Y-75914999D01*
X142549991Y-75925500D01*
X144650008Y-75925499D01*
X144752797Y-75914999D01*
X144919334Y-75859814D01*
X145068656Y-75767712D01*
X145192712Y-75643656D01*
X145284814Y-75494334D01*
X145339999Y-75327797D01*
X145350500Y-75225009D01*
X145350499Y-73824992D01*
X145350498Y-73824983D01*
X145849500Y-73824983D01*
X145849500Y-75225001D01*
X145849501Y-75225018D01*
X145860000Y-75327796D01*
X145860001Y-75327799D01*
X145898899Y-75445183D01*
X145915186Y-75494334D01*
X146007288Y-75643656D01*
X146131344Y-75767712D01*
X146280666Y-75859814D01*
X146447203Y-75914999D01*
X146549991Y-75925500D01*
X148650008Y-75925499D01*
X148725664Y-75917770D01*
X148741803Y-75920770D01*
X148758096Y-75918724D01*
X148775445Y-75927024D01*
X148794354Y-75930539D01*
X148806312Y-75941790D01*
X148821124Y-75948877D01*
X148831231Y-75965239D01*
X148845239Y-75978419D01*
X148849215Y-75994350D01*
X148857845Y-76008319D01*
X148857502Y-76027548D01*
X148862160Y-76046209D01*
X148856881Y-76062409D01*
X148856600Y-76078178D01*
X148841368Y-76110016D01*
X148818722Y-76143910D01*
X148818721Y-76143912D01*
X148784913Y-76194508D01*
X148728343Y-76331082D01*
X148728340Y-76331092D01*
X148699500Y-76476079D01*
X148699500Y-83160858D01*
X148679815Y-83227897D01*
X148627011Y-83273652D01*
X148618847Y-83277034D01*
X148607669Y-83281204D01*
X148607664Y-83281206D01*
X148492455Y-83367452D01*
X148492452Y-83367455D01*
X148406206Y-83482664D01*
X148406202Y-83482671D01*
X148355908Y-83617517D01*
X148349501Y-83677116D01*
X148349501Y-83677123D01*
X148349500Y-83677135D01*
X148349500Y-84972870D01*
X148349501Y-84972876D01*
X148355908Y-85032483D01*
X148406202Y-85167328D01*
X148406206Y-85167335D01*
X148492452Y-85282544D01*
X148492455Y-85282547D01*
X148607664Y-85368793D01*
X148607671Y-85368797D01*
X148742517Y-85419091D01*
X148742516Y-85419091D01*
X148749444Y-85419835D01*
X148802127Y-85425500D01*
X150097872Y-85425499D01*
X150157483Y-85419091D01*
X150292331Y-85368796D01*
X150407546Y-85282546D01*
X150493796Y-85167331D01*
X150544091Y-85032483D01*
X150550500Y-84972873D01*
X150550499Y-83677128D01*
X150544091Y-83617517D01*
X150531462Y-83583658D01*
X150493797Y-83482671D01*
X150493793Y-83482664D01*
X150407547Y-83367455D01*
X150407544Y-83367452D01*
X150292335Y-83281206D01*
X150292332Y-83281205D01*
X150292331Y-83281204D01*
X150281161Y-83277038D01*
X150225231Y-83235166D01*
X150200816Y-83169701D01*
X150200500Y-83160858D01*
X150200500Y-76912229D01*
X150220185Y-76845190D01*
X150236814Y-76824553D01*
X150859212Y-76202155D01*
X152750000Y-76202155D01*
X152750000Y-77797844D01*
X152756401Y-77857375D01*
X152765277Y-77881170D01*
X153625000Y-77021447D01*
X153625000Y-77049370D01*
X153650556Y-77144745D01*
X153699925Y-77230255D01*
X153769745Y-77300075D01*
X153855255Y-77349444D01*
X153950630Y-77375000D01*
X153978552Y-77375000D01*
X153118829Y-78234720D01*
X153118829Y-78234722D01*
X153142622Y-78243597D01*
X153142623Y-78243598D01*
X153202155Y-78249999D01*
X153202172Y-78250000D01*
X154797828Y-78250000D01*
X154797844Y-78249999D01*
X154857372Y-78243598D01*
X154881169Y-78234721D01*
X154021448Y-77375000D01*
X154049370Y-77375000D01*
X154144745Y-77349444D01*
X154230255Y-77300075D01*
X154300075Y-77230255D01*
X154349444Y-77144745D01*
X154375000Y-77049370D01*
X154375000Y-77021448D01*
X155234721Y-77881169D01*
X155243598Y-77857372D01*
X155249999Y-77797844D01*
X155250000Y-77797827D01*
X155250000Y-76202172D01*
X155249999Y-76202155D01*
X155243598Y-76142623D01*
X155243597Y-76142622D01*
X155234722Y-76118829D01*
X155234720Y-76118829D01*
X154375000Y-76978550D01*
X154375000Y-76950630D01*
X154349444Y-76855255D01*
X154300075Y-76769745D01*
X154230255Y-76699925D01*
X154144745Y-76650556D01*
X154049370Y-76625000D01*
X154021449Y-76625000D01*
X154881170Y-75765277D01*
X154881170Y-75765276D01*
X154857375Y-75756401D01*
X154797844Y-75750000D01*
X153202155Y-75750000D01*
X153142627Y-75756401D01*
X153142623Y-75756402D01*
X153118829Y-75765277D01*
X153978552Y-76625000D01*
X153950630Y-76625000D01*
X153855255Y-76650556D01*
X153769745Y-76699925D01*
X153699925Y-76769745D01*
X153650556Y-76855255D01*
X153625000Y-76950630D01*
X153625000Y-76978551D01*
X152765277Y-76118829D01*
X152756402Y-76142623D01*
X152756401Y-76142627D01*
X152750000Y-76202155D01*
X150859212Y-76202155D01*
X153774549Y-73286817D01*
X153835872Y-73253333D01*
X153862230Y-73250499D01*
X154573338Y-73250499D01*
X154573344Y-73250499D01*
X154573352Y-73250498D01*
X154573355Y-73250498D01*
X154627760Y-73244940D01*
X154672708Y-73240349D01*
X154833697Y-73187003D01*
X154978044Y-73097968D01*
X155097968Y-72978044D01*
X155187003Y-72833697D01*
X155240349Y-72672708D01*
X155250500Y-72573345D01*
X155250499Y-71426656D01*
X155240349Y-71327292D01*
X155187003Y-71166303D01*
X155186999Y-71166297D01*
X155186998Y-71166294D01*
X155097970Y-71021959D01*
X155097967Y-71021955D01*
X154978044Y-70902032D01*
X154978040Y-70902029D01*
X154833705Y-70813001D01*
X154833699Y-70812998D01*
X154833697Y-70812997D01*
X154833694Y-70812996D01*
X154672709Y-70759651D01*
X154573346Y-70749500D01*
X153426662Y-70749500D01*
X153426644Y-70749501D01*
X153327292Y-70759650D01*
X153327289Y-70759651D01*
X153166305Y-70812996D01*
X153166294Y-70813001D01*
X153021959Y-70902029D01*
X153021955Y-70902032D01*
X152902032Y-71021955D01*
X152902029Y-71021959D01*
X152813001Y-71166294D01*
X152812996Y-71166305D01*
X152759651Y-71327290D01*
X152749500Y-71426647D01*
X152749500Y-72137769D01*
X152729815Y-72204808D01*
X152713181Y-72225450D01*
X149555645Y-75382985D01*
X149494322Y-75416470D01*
X149424630Y-75411486D01*
X149368697Y-75369614D01*
X149344280Y-75304150D01*
X149344606Y-75282701D01*
X149350500Y-75225009D01*
X149350499Y-73824992D01*
X149344965Y-73770822D01*
X149339999Y-73722203D01*
X149339998Y-73722200D01*
X149333308Y-73702011D01*
X149284814Y-73555666D01*
X149192712Y-73406344D01*
X149068656Y-73282288D01*
X148975888Y-73225069D01*
X148919336Y-73190187D01*
X148919331Y-73190185D01*
X148895496Y-73182287D01*
X148752797Y-73135001D01*
X148752795Y-73135000D01*
X148650016Y-73124500D01*
X148650009Y-73124500D01*
X148474500Y-73124500D01*
X148407461Y-73104815D01*
X148361706Y-73052011D01*
X148350500Y-73000500D01*
X148350500Y-71429604D01*
X148354100Y-71399943D01*
X148356346Y-71390824D01*
X148369737Y-71358497D01*
X148392487Y-71244119D01*
X148393152Y-71241424D01*
X148394075Y-71239838D01*
X148398989Y-71223639D01*
X148421658Y-71168913D01*
X148444673Y-71053211D01*
X148450500Y-71023920D01*
X148450500Y-70876080D01*
X148421659Y-70731093D01*
X148421658Y-70731092D01*
X148421658Y-70731088D01*
X148421656Y-70731083D01*
X148365087Y-70594512D01*
X148365080Y-70594499D01*
X148282951Y-70471585D01*
X148282948Y-70471581D01*
X148178418Y-70367051D01*
X148178414Y-70367048D01*
X148055500Y-70284919D01*
X148055487Y-70284912D01*
X147918916Y-70228343D01*
X147918906Y-70228340D01*
X147773919Y-70199500D01*
X147773917Y-70199500D01*
X147626082Y-70199500D01*
X147626080Y-70199500D01*
X147481092Y-70228340D01*
X147481082Y-70228343D01*
X147344511Y-70284912D01*
X147344498Y-70284919D01*
X147221584Y-70367048D01*
X147221580Y-70367051D01*
X147017054Y-70571576D01*
X147017043Y-70571590D01*
X147015188Y-70574366D01*
X146999780Y-70593140D01*
X146978212Y-70614708D01*
X146978212Y-70614709D01*
X146890609Y-70745815D01*
X146890602Y-70745827D01*
X146830264Y-70891498D01*
X146830261Y-70891510D01*
X146799500Y-71046153D01*
X146799500Y-71203846D01*
X146830261Y-71358489D01*
X146830263Y-71358497D01*
X146840061Y-71382151D01*
X146849500Y-71429604D01*
X146849500Y-73000500D01*
X146829815Y-73067539D01*
X146777011Y-73113294D01*
X146725501Y-73124500D01*
X146549999Y-73124500D01*
X146549980Y-73124501D01*
X146447203Y-73135000D01*
X146447200Y-73135001D01*
X146280668Y-73190185D01*
X146280663Y-73190187D01*
X146131342Y-73282289D01*
X146007289Y-73406342D01*
X145915187Y-73555663D01*
X145915185Y-73555668D01*
X145899305Y-73603592D01*
X145860001Y-73722203D01*
X145860001Y-73722204D01*
X145860000Y-73722204D01*
X145849500Y-73824983D01*
X145350498Y-73824983D01*
X145344965Y-73770822D01*
X145339999Y-73722203D01*
X145339998Y-73722200D01*
X145333308Y-73702011D01*
X145284814Y-73555666D01*
X145192712Y-73406344D01*
X145068656Y-73282288D01*
X144975888Y-73225069D01*
X144919336Y-73190187D01*
X144919331Y-73190185D01*
X144895496Y-73182287D01*
X144752797Y-73135001D01*
X144752795Y-73135000D01*
X144650010Y-73124500D01*
X142549998Y-73124500D01*
X142549981Y-73124501D01*
X142447203Y-73135000D01*
X142447200Y-73135001D01*
X142280668Y-73190185D01*
X142280663Y-73190187D01*
X142131342Y-73282289D01*
X142007289Y-73406342D01*
X141915187Y-73555663D01*
X141915185Y-73555668D01*
X141909706Y-73572203D01*
X141870835Y-73689505D01*
X141831064Y-73746949D01*
X141766549Y-73773772D01*
X141753131Y-73774500D01*
X138997643Y-73774500D01*
X138930604Y-73754815D01*
X138884849Y-73702011D01*
X138874285Y-73663102D01*
X138868204Y-73603582D01*
X138864999Y-73572203D01*
X138809814Y-73405666D01*
X138717712Y-73256344D01*
X138593656Y-73132288D01*
X138488681Y-73067539D01*
X138444336Y-73040187D01*
X138444331Y-73040185D01*
X138428684Y-73035000D01*
X138277797Y-72985001D01*
X138277795Y-72985000D01*
X138175010Y-72974500D01*
X137374998Y-72974500D01*
X137374980Y-72974501D01*
X137272203Y-72985000D01*
X137272200Y-72985001D01*
X137105668Y-73040185D01*
X137105663Y-73040187D01*
X136956342Y-73132289D01*
X136862681Y-73225951D01*
X136801358Y-73259436D01*
X136731666Y-73254452D01*
X136687319Y-73225951D01*
X136593657Y-73132289D01*
X136593656Y-73132288D01*
X136488681Y-73067539D01*
X136444336Y-73040187D01*
X136444331Y-73040185D01*
X136428684Y-73035000D01*
X136277797Y-72985001D01*
X136277795Y-72985000D01*
X136175010Y-72974500D01*
X135374998Y-72974500D01*
X135374980Y-72974501D01*
X135272203Y-72985000D01*
X135272200Y-72985001D01*
X135105668Y-73040185D01*
X135105663Y-73040187D01*
X134956342Y-73132289D01*
X134832289Y-73256342D01*
X134832288Y-73256344D01*
X134741621Y-73403341D01*
X134736395Y-73411813D01*
X134734600Y-73410706D01*
X134695313Y-73455337D01*
X134629092Y-73474500D01*
X132740638Y-73474500D01*
X132673599Y-73454815D01*
X132635099Y-73415597D01*
X132632765Y-73411813D01*
X132567712Y-73306344D01*
X132443656Y-73182288D01*
X132443655Y-73182287D01*
X132434402Y-73176580D01*
X132387678Y-73124632D01*
X132375500Y-73071042D01*
X132375500Y-69251079D01*
X132346659Y-69106092D01*
X132346658Y-69106091D01*
X132346658Y-69106087D01*
X132290084Y-68969505D01*
X132257186Y-68920270D01*
X132257185Y-68920268D01*
X132207956Y-68846589D01*
X132207952Y-68846584D01*
X131373549Y-68012181D01*
X131340064Y-67950858D01*
X131345048Y-67881166D01*
X131386920Y-67825233D01*
X131452384Y-67800816D01*
X131461230Y-67800500D01*
X141927111Y-67800500D01*
X141994150Y-67820185D01*
X142014792Y-67836819D01*
X142322490Y-68144517D01*
X142513566Y-68283343D01*
X142616781Y-68335933D01*
X142724006Y-68390568D01*
X142724012Y-68390570D01*
X142796991Y-68414282D01*
X142796992Y-68414282D01*
X142872812Y-68438917D01*
X142948631Y-68463553D01*
X143181903Y-68500500D01*
X143181908Y-68500500D01*
X154118097Y-68500500D01*
X154351368Y-68463553D01*
X154575992Y-68390568D01*
X154786433Y-68283343D01*
X154977510Y-68144517D01*
X155144517Y-67977510D01*
X155283343Y-67786433D01*
X155390568Y-67575992D01*
X155463553Y-67351368D01*
X155500500Y-67118097D01*
X155500500Y-66881902D01*
X155463553Y-66648631D01*
X155414815Y-66498632D01*
X155390568Y-66424008D01*
X155390566Y-66424005D01*
X155390566Y-66424003D01*
X155314139Y-66274008D01*
X155283343Y-66213567D01*
X155144517Y-66022490D01*
X154977510Y-65855483D01*
X154786433Y-65716657D01*
X154764503Y-65705483D01*
X154575996Y-65609433D01*
X154351368Y-65536446D01*
X154118097Y-65499500D01*
X154118092Y-65499500D01*
X143972889Y-65499500D01*
X143905850Y-65479815D01*
X143885208Y-65463181D01*
X143577511Y-65155484D01*
X143386434Y-65016657D01*
X143175996Y-64909433D01*
X142951368Y-64836446D01*
X142718097Y-64799500D01*
X142718092Y-64799500D01*
X128718092Y-64799500D01*
X112481908Y-64799500D01*
X112481903Y-64799500D01*
X112248630Y-64836447D01*
X112096993Y-64885716D01*
X112096992Y-64885717D01*
X112024007Y-64909432D01*
X112024001Y-64909434D01*
X111813565Y-65016657D01*
X111622488Y-65155484D01*
X111622487Y-65155485D01*
X111464792Y-65313181D01*
X111403469Y-65346666D01*
X111377111Y-65349500D01*
X102556903Y-65349500D01*
X102323631Y-65386446D01*
X102099003Y-65459433D01*
X101888566Y-65566657D01*
X101829692Y-65609432D01*
X101697490Y-65705483D01*
X101697488Y-65705485D01*
X101697487Y-65705485D01*
X101530485Y-65872487D01*
X101530485Y-65872488D01*
X101530483Y-65872490D01*
X101470862Y-65954550D01*
X101391657Y-66063566D01*
X101284433Y-66274003D01*
X101211446Y-66498631D01*
X101174500Y-66731902D01*
X101174500Y-66968097D01*
X101211446Y-67201368D01*
X101284433Y-67425996D01*
X101360863Y-67575996D01*
X101391657Y-67636433D01*
X101530483Y-67827510D01*
X101697490Y-67994517D01*
X101888567Y-68133343D01*
X101987991Y-68184002D01*
X102099003Y-68240566D01*
X102099005Y-68240566D01*
X102099008Y-68240568D01*
X102219412Y-68279689D01*
X102323631Y-68313553D01*
X102556903Y-68350500D01*
X102556908Y-68350500D01*
X112168097Y-68350500D01*
X112401368Y-68313553D01*
X112625992Y-68240568D01*
X112836434Y-68133343D01*
X113027510Y-67994517D01*
X113185208Y-67836819D01*
X113246531Y-67803334D01*
X113272889Y-67800500D01*
X128481908Y-67800500D01*
X128987770Y-67800500D01*
X129054809Y-67820185D01*
X129075451Y-67836819D01*
X130838181Y-69599549D01*
X130871666Y-69660872D01*
X130874500Y-69687230D01*
X130874500Y-73071042D01*
X130854815Y-73138081D01*
X130835144Y-73161659D01*
X130826114Y-73170093D01*
X130806344Y-73182288D01*
X130711176Y-73277455D01*
X130709644Y-73278887D01*
X130680226Y-73293672D01*
X130651358Y-73309436D01*
X130649174Y-73309279D01*
X130647216Y-73310264D01*
X130614492Y-73306799D01*
X130581666Y-73304452D01*
X130579565Y-73303101D01*
X130577734Y-73302908D01*
X130571608Y-73297988D01*
X130537319Y-73275951D01*
X130443657Y-73182289D01*
X130443656Y-73182288D01*
X130294334Y-73090186D01*
X130127797Y-73035001D01*
X130127795Y-73035000D01*
X130025016Y-73024500D01*
X130025009Y-73024500D01*
X129537230Y-73024500D01*
X129470191Y-73004815D01*
X129449549Y-72988181D01*
X127903421Y-71442052D01*
X127903414Y-71442046D01*
X127829729Y-71392812D01*
X127829729Y-71392813D01*
X127780491Y-71359913D01*
X127643917Y-71303343D01*
X127643907Y-71303340D01*
X127498920Y-71274500D01*
X127498918Y-71274500D01*
X118342783Y-71274500D01*
X118342781Y-71274500D01*
X118197793Y-71303340D01*
X118197783Y-71303343D01*
X118061212Y-71359912D01*
X118061199Y-71359919D01*
X117938285Y-71442048D01*
X117938281Y-71442051D01*
X110666333Y-78713998D01*
X110652833Y-78721369D01*
X110642404Y-78732673D01*
X110622793Y-78737772D01*
X110605010Y-78747483D01*
X110589669Y-78746385D01*
X110574783Y-78750257D01*
X110555528Y-78743944D01*
X110535318Y-78742499D01*
X110522028Y-78732961D01*
X110508391Y-78728490D01*
X110490412Y-78710269D01*
X110482451Y-78704556D01*
X110478776Y-78700038D01*
X110429071Y-78625648D01*
X110371251Y-78567828D01*
X110367231Y-78562885D01*
X110356078Y-78536300D01*
X110342266Y-78511004D01*
X110342732Y-78504484D01*
X110340203Y-78498455D01*
X110345193Y-78470065D01*
X110347250Y-78441312D01*
X110351377Y-78434890D01*
X110352300Y-78429641D01*
X110360376Y-78420887D01*
X110375752Y-78396964D01*
X110428680Y-78344036D01*
X110428683Y-78344032D01*
X110513493Y-78217106D01*
X110513500Y-78217093D01*
X110562001Y-78100000D01*
X108391401Y-78100000D01*
X108439901Y-78217093D01*
X108439905Y-78217100D01*
X108466304Y-78256608D01*
X108487182Y-78323286D01*
X108468698Y-78390666D01*
X108416720Y-78437356D01*
X108363202Y-78449500D01*
X107253958Y-78449500D01*
X107186919Y-78429815D01*
X107163341Y-78410144D01*
X107154906Y-78401114D01*
X107142712Y-78381344D01*
X107047544Y-78286176D01*
X107046113Y-78284644D01*
X107031327Y-78255226D01*
X107015564Y-78226358D01*
X107015720Y-78224174D01*
X107014736Y-78222216D01*
X107018200Y-78189492D01*
X107020548Y-78156666D01*
X107021898Y-78154565D01*
X107022092Y-78152734D01*
X107027011Y-78146608D01*
X107049049Y-78112319D01*
X107085163Y-78076205D01*
X107142712Y-78018656D01*
X107234814Y-77869334D01*
X107289999Y-77702797D01*
X107297901Y-77625450D01*
X107300381Y-77601179D01*
X107300381Y-77601178D01*
X107300498Y-77600026D01*
X107300499Y-77600019D01*
X107300500Y-77600009D01*
X107300500Y-77599999D01*
X108391400Y-77599999D01*
X108391401Y-77600000D01*
X109226701Y-77600000D01*
X109726701Y-77600000D01*
X110562001Y-77600000D01*
X110562001Y-77599999D01*
X110513500Y-77482906D01*
X110513493Y-77482893D01*
X110428683Y-77355967D01*
X110428680Y-77355963D01*
X110320738Y-77248021D01*
X110320734Y-77248018D01*
X110193808Y-77163208D01*
X110193795Y-77163201D01*
X110052765Y-77104785D01*
X110052755Y-77104782D01*
X109903035Y-77075001D01*
X109726701Y-77075001D01*
X109726701Y-77600000D01*
X109226701Y-77600000D01*
X109226701Y-77075001D01*
X109050367Y-77075001D01*
X108900646Y-77104782D01*
X108900636Y-77104785D01*
X108759606Y-77163201D01*
X108759593Y-77163208D01*
X108632667Y-77248018D01*
X108632663Y-77248021D01*
X108524721Y-77355963D01*
X108524718Y-77355967D01*
X108439908Y-77482893D01*
X108439901Y-77482906D01*
X108391400Y-77599999D01*
X107300500Y-77599999D01*
X107300499Y-77262228D01*
X107320183Y-77195190D01*
X107336813Y-77174553D01*
X109615295Y-74896070D01*
X109655519Y-74869193D01*
X109679179Y-74859394D01*
X109810289Y-74771789D01*
X109921789Y-74660289D01*
X110009394Y-74529179D01*
X110069737Y-74383497D01*
X110100500Y-74228842D01*
X110100500Y-74071158D01*
X110100500Y-74071155D01*
X110100499Y-74071153D01*
X110069738Y-73916510D01*
X110069737Y-73916503D01*
X110031835Y-73824998D01*
X110009397Y-73770827D01*
X110009390Y-73770814D01*
X109921789Y-73639711D01*
X109921786Y-73639707D01*
X109810292Y-73528213D01*
X109810288Y-73528210D01*
X109679185Y-73440609D01*
X109679172Y-73440602D01*
X109533501Y-73380264D01*
X109533489Y-73380261D01*
X109378845Y-73349500D01*
X109378842Y-73349500D01*
X109221158Y-73349500D01*
X109221155Y-73349500D01*
X109066510Y-73380261D01*
X109066498Y-73380264D01*
X108920827Y-73440602D01*
X108920814Y-73440609D01*
X108789711Y-73528210D01*
X108789707Y-73528213D01*
X108678213Y-73639707D01*
X108678207Y-73639715D01*
X108590607Y-73770818D01*
X108590605Y-73770822D01*
X108580805Y-73794480D01*
X108553927Y-73834704D01*
X106325449Y-76063181D01*
X106264126Y-76096666D01*
X106237768Y-76099500D01*
X105599998Y-76099500D01*
X105599980Y-76099501D01*
X105497203Y-76110000D01*
X105497200Y-76110001D01*
X105330668Y-76165185D01*
X105330663Y-76165187D01*
X105181342Y-76257289D01*
X105057289Y-76381342D01*
X104965187Y-76530663D01*
X104965186Y-76530666D01*
X104910001Y-76697203D01*
X104910001Y-76697204D01*
X104910000Y-76697204D01*
X104899500Y-76799983D01*
X104899500Y-76799996D01*
X104899501Y-77600000D01*
X104899501Y-77600019D01*
X104910000Y-77702796D01*
X104910001Y-77702799D01*
X104965185Y-77869331D01*
X104965187Y-77869336D01*
X105057289Y-78018657D01*
X105150951Y-78112319D01*
X105184436Y-78173642D01*
X105179452Y-78243334D01*
X105150951Y-78287681D01*
X105057289Y-78381342D01*
X104965187Y-78530663D01*
X104965185Y-78530668D01*
X104942970Y-78597710D01*
X104910001Y-78697203D01*
X104910001Y-78697204D01*
X104910000Y-78697204D01*
X104899500Y-78799983D01*
X104899500Y-79600001D01*
X104899501Y-79600019D01*
X104910000Y-79702796D01*
X104910001Y-79702799D01*
X104965185Y-79869331D01*
X104965187Y-79869336D01*
X104984408Y-79900498D01*
X105057288Y-80018656D01*
X105181344Y-80142712D01*
X105330666Y-80234814D01*
X105497203Y-80289999D01*
X105599991Y-80300500D01*
X106600008Y-80300499D01*
X106600016Y-80300498D01*
X106600019Y-80300498D01*
X106656302Y-80294748D01*
X106702797Y-80289999D01*
X106869334Y-80234814D01*
X107018656Y-80142712D01*
X107142712Y-80018656D01*
X107148420Y-80009402D01*
X107200368Y-79962678D01*
X107253958Y-79950500D01*
X108283774Y-79950500D01*
X108350813Y-79970185D01*
X108396568Y-80022989D01*
X108406512Y-80092147D01*
X108398335Y-80121953D01*
X108381003Y-80163794D01*
X108381001Y-80163802D01*
X108351201Y-80313615D01*
X108351201Y-80466384D01*
X108381001Y-80616197D01*
X108381003Y-80616205D01*
X108439460Y-80757332D01*
X108439465Y-80757342D01*
X108524330Y-80884351D01*
X108524333Y-80884355D01*
X108577297Y-80937319D01*
X108610782Y-80998642D01*
X108605798Y-81068334D01*
X108577297Y-81112681D01*
X108524333Y-81165644D01*
X108524330Y-81165648D01*
X108439465Y-81292657D01*
X108439460Y-81292667D01*
X108381003Y-81433794D01*
X108381001Y-81433802D01*
X108351201Y-81583615D01*
X108351201Y-81672770D01*
X108331516Y-81739809D01*
X108314882Y-81760451D01*
X107114651Y-82960682D01*
X107053328Y-82994167D01*
X107026970Y-82997001D01*
X106119987Y-82997001D01*
X106107466Y-82994053D01*
X106098176Y-82995068D01*
X106079050Y-82987363D01*
X106064669Y-82983978D01*
X106057633Y-82980470D01*
X106016679Y-82953106D01*
X105934174Y-82918931D01*
X105930298Y-82916999D01*
X105928722Y-82915536D01*
X105916728Y-82909126D01*
X105880494Y-82884916D01*
X105880489Y-82884914D01*
X105743912Y-82828342D01*
X105743906Y-82828340D01*
X105598919Y-82799500D01*
X105598917Y-82799500D01*
X105451083Y-82799500D01*
X105451081Y-82799500D01*
X105306093Y-82828340D01*
X105306087Y-82828342D01*
X105169509Y-82884914D01*
X105169502Y-82884918D01*
X105121489Y-82916999D01*
X105046584Y-82967048D01*
X105046582Y-82967049D01*
X105046579Y-82967052D01*
X105046578Y-82967052D01*
X104942052Y-83071578D01*
X104942052Y-83071579D01*
X104942049Y-83071582D01*
X104942048Y-83071584D01*
X104901400Y-83132418D01*
X104859918Y-83194502D01*
X104859914Y-83194509D01*
X104803342Y-83331087D01*
X104803340Y-83331093D01*
X104774500Y-83476080D01*
X104774500Y-83476083D01*
X104774500Y-83623917D01*
X104774500Y-83623919D01*
X104774499Y-83623919D01*
X104803340Y-83768906D01*
X104803342Y-83768912D01*
X104859915Y-83905492D01*
X104884126Y-83941728D01*
X104895583Y-83963163D01*
X104928104Y-84041675D01*
X104928109Y-84041685D01*
X105015710Y-84172788D01*
X105015713Y-84172792D01*
X105127207Y-84284286D01*
X105127211Y-84284289D01*
X105258314Y-84371890D01*
X105258327Y-84371897D01*
X105403998Y-84432235D01*
X105404003Y-84432237D01*
X105412122Y-84433852D01*
X105421513Y-84436103D01*
X105428590Y-84438094D01*
X105503589Y-84469160D01*
X105619742Y-84492264D01*
X105624493Y-84493209D01*
X105648582Y-84498001D01*
X105648583Y-84498001D01*
X105648584Y-84498001D01*
X105796419Y-84498001D01*
X106514700Y-84498001D01*
X106581739Y-84517686D01*
X106627494Y-84570490D01*
X106638700Y-84622001D01*
X106638700Y-85317491D01*
X106619015Y-85384530D01*
X106579798Y-85423029D01*
X106508044Y-85467287D01*
X106383989Y-85591342D01*
X106291887Y-85740663D01*
X106291885Y-85740668D01*
X106275776Y-85789283D01*
X106236701Y-85907203D01*
X106236701Y-85907204D01*
X106236700Y-85907204D01*
X106226200Y-86009983D01*
X106226200Y-87232733D01*
X106206515Y-87299772D01*
X106205302Y-87301624D01*
X106161614Y-87367007D01*
X106105043Y-87503582D01*
X106105040Y-87503592D01*
X106076200Y-87648579D01*
X106076200Y-90006042D01*
X106056515Y-90073081D01*
X106036844Y-90096659D01*
X106027814Y-90105093D01*
X106008044Y-90117288D01*
X105912876Y-90212455D01*
X105911344Y-90213887D01*
X105881926Y-90228672D01*
X105853058Y-90244436D01*
X105850874Y-90244279D01*
X105848916Y-90245264D01*
X105816192Y-90241799D01*
X105783366Y-90239452D01*
X105781265Y-90238101D01*
X105779434Y-90237908D01*
X105773308Y-90232988D01*
X105739019Y-90210951D01*
X105645357Y-90117289D01*
X105645356Y-90117288D01*
X105551880Y-90059632D01*
X105496036Y-90025187D01*
X105496031Y-90025185D01*
X105438261Y-90006042D01*
X105329497Y-89970001D01*
X105329495Y-89970000D01*
X105226710Y-89959500D01*
X104426698Y-89959500D01*
X104426680Y-89959501D01*
X104323903Y-89970000D01*
X104323900Y-89970001D01*
X104157368Y-90025185D01*
X104157363Y-90025187D01*
X104008042Y-90117289D01*
X103883989Y-90241342D01*
X103882081Y-90244436D01*
X103839986Y-90312684D01*
X103816601Y-90350597D01*
X103764653Y-90397321D01*
X103711062Y-90409500D01*
X102784729Y-90409500D01*
X102717690Y-90389815D01*
X102697048Y-90373181D01*
X102064318Y-89740450D01*
X102030833Y-89679127D01*
X102027999Y-89652769D01*
X102027999Y-89152498D01*
X102027998Y-89152481D01*
X102017499Y-89049703D01*
X102017498Y-89049700D01*
X102004315Y-89009916D01*
X101962314Y-88883166D01*
X101870212Y-88733844D01*
X101746156Y-88609788D01*
X101613225Y-88527796D01*
X101596836Y-88517687D01*
X101596831Y-88517685D01*
X101584084Y-88513461D01*
X101430297Y-88462501D01*
X101430295Y-88462500D01*
X101327510Y-88452000D01*
X100552498Y-88452000D01*
X100552480Y-88452001D01*
X100449703Y-88462500D01*
X100449700Y-88462501D01*
X100283168Y-88517685D01*
X100283163Y-88517687D01*
X100133842Y-88609789D01*
X100009788Y-88733843D01*
X100009783Y-88733849D01*
X100007741Y-88737161D01*
X100005747Y-88738953D01*
X100005307Y-88739511D01*
X100005211Y-88739435D01*
X99955791Y-88783883D01*
X99886828Y-88795102D01*
X99822747Y-88767255D01*
X99796668Y-88737156D01*
X99794819Y-88734159D01*
X99794816Y-88734155D01*
X99670845Y-88610184D01*
X99521624Y-88518143D01*
X99521619Y-88518141D01*
X99355197Y-88462994D01*
X99355190Y-88462993D01*
X99252486Y-88452500D01*
X99115000Y-88452500D01*
X99115000Y-90902499D01*
X99252472Y-90902499D01*
X99252486Y-90902498D01*
X99355197Y-90892005D01*
X99521619Y-90836858D01*
X99521624Y-90836856D01*
X99670845Y-90744815D01*
X99794818Y-90620842D01*
X99796665Y-90617848D01*
X99798469Y-90616224D01*
X99799298Y-90615177D01*
X99799476Y-90615318D01*
X99848610Y-90571121D01*
X99917573Y-90559896D01*
X99981656Y-90587736D01*
X100007743Y-90617841D01*
X100009788Y-90621156D01*
X100133844Y-90745212D01*
X100283166Y-90837314D01*
X100449703Y-90892499D01*
X100552491Y-90903000D01*
X101052769Y-90902999D01*
X101119808Y-90922683D01*
X101140450Y-90939318D01*
X101944085Y-91742952D01*
X101944088Y-91742955D01*
X101956693Y-91751376D01*
X101973786Y-91762797D01*
X102067005Y-91825084D01*
X102123580Y-91848518D01*
X102203588Y-91881659D01*
X102319741Y-91904763D01*
X102338968Y-91908587D01*
X102348581Y-91910500D01*
X102348582Y-91910500D01*
X102348583Y-91910500D01*
X102496418Y-91910500D01*
X103711062Y-91910500D01*
X103778101Y-91930185D01*
X103816599Y-91969401D01*
X103883988Y-92078656D01*
X104008044Y-92202712D01*
X104017291Y-92208416D01*
X104064018Y-92260360D01*
X104076200Y-92313957D01*
X104076200Y-92975618D01*
X104076200Y-92975620D01*
X104076199Y-92975620D01*
X104105040Y-93120607D01*
X104105043Y-93120617D01*
X104161613Y-93257190D01*
X104161614Y-93257192D01*
X104161615Y-93257194D01*
X104161616Y-93257195D01*
X104189494Y-93298917D01*
X104243748Y-93380116D01*
X104326623Y-93462991D01*
X104403927Y-93540294D01*
X104430806Y-93580521D01*
X104440606Y-93604180D01*
X104440607Y-93604182D01*
X104528210Y-93735288D01*
X104528213Y-93735292D01*
X104639707Y-93846786D01*
X104639711Y-93846789D01*
X104770814Y-93934390D01*
X104770827Y-93934397D01*
X104916498Y-93994735D01*
X104916503Y-93994737D01*
X104951841Y-94001766D01*
X104975095Y-94008820D01*
X105006088Y-94021658D01*
X105006092Y-94021658D01*
X105006093Y-94021659D01*
X105151080Y-94050500D01*
X105151083Y-94050500D01*
X105298919Y-94050500D01*
X105396461Y-94031096D01*
X105443912Y-94021658D01*
X105580494Y-93965084D01*
X105703416Y-93882952D01*
X105807952Y-93778416D01*
X105890084Y-93655494D01*
X105946658Y-93518912D01*
X105975500Y-93373917D01*
X105975500Y-93226083D01*
X105975500Y-93226080D01*
X105946659Y-93081093D01*
X105946658Y-93081092D01*
X105946658Y-93081088D01*
X105933820Y-93050095D01*
X105926766Y-93026841D01*
X105919737Y-92991503D01*
X105866021Y-92861820D01*
X105859397Y-92845827D01*
X105859390Y-92845814D01*
X105771789Y-92714711D01*
X105771786Y-92714707D01*
X105660290Y-92603211D01*
X105632307Y-92584513D01*
X105627217Y-92578422D01*
X105619997Y-92575125D01*
X105605133Y-92551997D01*
X105587503Y-92530900D01*
X105585551Y-92521526D01*
X105582223Y-92516347D01*
X105577200Y-92481412D01*
X105577200Y-92313957D01*
X105596885Y-92246918D01*
X105636107Y-92208416D01*
X105645356Y-92202712D01*
X105739019Y-92109049D01*
X105800342Y-92075564D01*
X105870034Y-92080548D01*
X105914381Y-92109049D01*
X106008044Y-92202712D01*
X106157366Y-92294814D01*
X106323903Y-92349999D01*
X106426691Y-92360500D01*
X107226708Y-92360499D01*
X107226716Y-92360498D01*
X107226719Y-92360498D01*
X107283002Y-92354748D01*
X107329497Y-92349999D01*
X107496034Y-92294814D01*
X107645356Y-92202712D01*
X107769412Y-92078656D01*
X107861514Y-91929334D01*
X107916699Y-91762797D01*
X107927200Y-91660009D01*
X107927199Y-90659992D01*
X107926778Y-90655875D01*
X107916699Y-90557203D01*
X107916698Y-90557200D01*
X107861514Y-90390666D01*
X107769412Y-90241344D01*
X107645356Y-90117288D01*
X107645355Y-90117287D01*
X107636102Y-90111580D01*
X107589378Y-90059632D01*
X107577200Y-90006042D01*
X107577200Y-89134499D01*
X107596885Y-89067460D01*
X107649689Y-89021705D01*
X107701200Y-89010499D01*
X107851702Y-89010499D01*
X107851708Y-89010499D01*
X107954497Y-88999999D01*
X108121034Y-88944814D01*
X108270356Y-88852712D01*
X108394412Y-88728656D01*
X108486514Y-88579334D01*
X108486516Y-88579326D01*
X108489564Y-88572791D01*
X108492348Y-88574089D01*
X108524249Y-88527995D01*
X108588759Y-88501160D01*
X108657538Y-88513461D01*
X108708747Y-88560994D01*
X108726201Y-88624429D01*
X108726201Y-89995789D01*
X108716763Y-90043237D01*
X108709973Y-90059632D01*
X108706963Y-90066899D01*
X108706961Y-90066904D01*
X108676201Y-90221546D01*
X108676201Y-90379239D01*
X108706962Y-90533882D01*
X108706965Y-90533894D01*
X108767303Y-90679565D01*
X108767310Y-90679578D01*
X108854911Y-90810681D01*
X108854914Y-90810685D01*
X108966408Y-90922179D01*
X108966412Y-90922182D01*
X109097515Y-91009783D01*
X109097528Y-91009790D01*
X109243199Y-91070128D01*
X109243204Y-91070130D01*
X109397854Y-91100892D01*
X109397857Y-91100893D01*
X109397859Y-91100893D01*
X109555545Y-91100893D01*
X109555546Y-91100892D01*
X109710198Y-91070130D01*
X109855880Y-91009787D01*
X109986990Y-90922182D01*
X110098490Y-90810682D01*
X110186095Y-90679572D01*
X110195909Y-90655880D01*
X110210291Y-90621157D01*
X110246438Y-90533890D01*
X110277201Y-90379235D01*
X110277201Y-90221551D01*
X110277201Y-90221548D01*
X110277200Y-90221546D01*
X110246440Y-90066904D01*
X110246439Y-90066901D01*
X110246438Y-90066896D01*
X110236638Y-90043237D01*
X110227201Y-89995789D01*
X110227201Y-82391358D01*
X110246886Y-82324319D01*
X110282308Y-82288257D01*
X110321054Y-82262369D01*
X110429071Y-82154352D01*
X110513940Y-82027336D01*
X110572399Y-81886205D01*
X110602201Y-81736380D01*
X110602201Y-81583620D01*
X110572399Y-81433795D01*
X110513940Y-81292664D01*
X110513938Y-81292661D01*
X110513936Y-81292657D01*
X110440136Y-81182207D01*
X110419258Y-81115529D01*
X110437743Y-81048149D01*
X110474347Y-81010214D01*
X110530117Y-80972952D01*
X113439989Y-78063078D01*
X113501310Y-78029595D01*
X113571002Y-78034579D01*
X113626935Y-78076451D01*
X113642229Y-78103308D01*
X113689460Y-78217332D01*
X113689465Y-78217342D01*
X113774330Y-78344351D01*
X113774333Y-78344355D01*
X113827297Y-78397319D01*
X113860782Y-78458642D01*
X113855798Y-78528334D01*
X113827297Y-78572681D01*
X113774333Y-78625644D01*
X113774330Y-78625648D01*
X113689465Y-78752657D01*
X113689460Y-78752667D01*
X113631003Y-78893794D01*
X113631001Y-78893802D01*
X113601201Y-79043615D01*
X113601201Y-79196384D01*
X113631001Y-79346197D01*
X113631003Y-79346205D01*
X113689460Y-79487332D01*
X113689465Y-79487342D01*
X113774330Y-79614351D01*
X113774333Y-79614355D01*
X113827297Y-79667319D01*
X113860782Y-79728642D01*
X113855798Y-79798334D01*
X113827297Y-79842681D01*
X113774333Y-79895644D01*
X113774330Y-79895648D01*
X113689465Y-80022657D01*
X113689460Y-80022667D01*
X113631003Y-80163794D01*
X113631001Y-80163802D01*
X113601201Y-80313615D01*
X113601201Y-80466384D01*
X113631001Y-80616197D01*
X113631003Y-80616205D01*
X113689460Y-80757332D01*
X113689465Y-80757342D01*
X113774330Y-80884351D01*
X113774333Y-80884355D01*
X113827297Y-80937319D01*
X113860782Y-80998642D01*
X113855798Y-81068334D01*
X113827297Y-81112681D01*
X113774333Y-81165644D01*
X113774330Y-81165648D01*
X113689465Y-81292657D01*
X113689460Y-81292667D01*
X113631003Y-81433794D01*
X113631001Y-81433802D01*
X113601201Y-81583615D01*
X113601201Y-81736384D01*
X113631001Y-81886197D01*
X113631003Y-81886205D01*
X113689460Y-82027332D01*
X113689465Y-82027342D01*
X113774330Y-82154351D01*
X113774333Y-82154355D01*
X113882342Y-82262364D01*
X113882345Y-82262366D01*
X113882348Y-82262369D01*
X113921092Y-82288257D01*
X113965896Y-82341867D01*
X113976201Y-82391358D01*
X113976201Y-85375619D01*
X113976201Y-85375621D01*
X113976200Y-85375621D01*
X114005041Y-85520608D01*
X114005044Y-85520618D01*
X114061615Y-85657193D01*
X114094513Y-85706428D01*
X114094514Y-85706431D01*
X114143747Y-85780115D01*
X114143753Y-85780122D01*
X114663181Y-86299549D01*
X114696666Y-86360872D01*
X114699500Y-86387230D01*
X114699500Y-86875001D01*
X114699501Y-86875019D01*
X114710000Y-86977796D01*
X114710001Y-86977799D01*
X114765185Y-87144331D01*
X114765187Y-87144336D01*
X114782163Y-87171858D01*
X114857288Y-87293656D01*
X114981344Y-87417712D01*
X114990591Y-87423416D01*
X115037318Y-87475360D01*
X115049500Y-87528957D01*
X115049500Y-89405821D01*
X115029815Y-89472860D01*
X114990599Y-89511358D01*
X114956346Y-89532485D01*
X114832289Y-89656542D01*
X114740187Y-89805863D01*
X114740186Y-89805866D01*
X114685001Y-89972403D01*
X114685001Y-89972404D01*
X114685000Y-89972404D01*
X114674500Y-90075183D01*
X114674500Y-91125201D01*
X114674501Y-91125219D01*
X114685000Y-91227996D01*
X114685001Y-91227999D01*
X114725000Y-91348705D01*
X114740186Y-91394534D01*
X114832288Y-91543856D01*
X114956344Y-91667912D01*
X115105666Y-91760014D01*
X115272203Y-91815199D01*
X115374991Y-91825700D01*
X116150008Y-91825699D01*
X116150016Y-91825698D01*
X116150019Y-91825698D01*
X116206302Y-91819948D01*
X116252797Y-91815199D01*
X116419334Y-91760014D01*
X116568656Y-91667912D01*
X116692712Y-91543856D01*
X116694461Y-91541019D01*
X116696169Y-91539483D01*
X116697193Y-91538189D01*
X116697414Y-91538363D01*
X116746406Y-91494296D01*
X116815368Y-91483072D01*
X116879451Y-91510913D01*
X116888302Y-91519060D01*
X116898163Y-91529062D01*
X116907288Y-91543856D01*
X117031344Y-91667912D01*
X117040811Y-91673751D01*
X117051302Y-91684392D01*
X117061044Y-91702538D01*
X117074820Y-91717854D01*
X117078897Y-91735793D01*
X117084350Y-91745951D01*
X117083541Y-91756229D01*
X117087000Y-91771448D01*
X117087000Y-92425670D01*
X117067315Y-92492709D01*
X117050681Y-92513351D01*
X115975450Y-93588581D01*
X115914127Y-93622066D01*
X115887769Y-93624900D01*
X115399998Y-93624900D01*
X115399980Y-93624901D01*
X115297203Y-93635400D01*
X115297200Y-93635401D01*
X115130668Y-93690585D01*
X115130663Y-93690587D01*
X114981342Y-93782689D01*
X114857289Y-93906742D01*
X114765187Y-94056063D01*
X114765185Y-94056068D01*
X114758945Y-94074899D01*
X114710001Y-94222603D01*
X114710001Y-94222604D01*
X114710000Y-94222604D01*
X114699500Y-94325383D01*
X114699500Y-95325401D01*
X114699501Y-95325419D01*
X114710000Y-95428196D01*
X114710001Y-95428199D01*
X114731540Y-95493197D01*
X114765186Y-95594734D01*
X114857288Y-95744056D01*
X114981344Y-95868112D01*
X115130666Y-95960214D01*
X115297203Y-96015399D01*
X115399991Y-96025900D01*
X116200008Y-96025899D01*
X116200016Y-96025898D01*
X116200019Y-96025898D01*
X116256302Y-96020148D01*
X116302797Y-96015399D01*
X116469334Y-95960214D01*
X116618656Y-95868112D01*
X116712319Y-95774449D01*
X116773642Y-95740964D01*
X116843334Y-95745948D01*
X116887681Y-95774449D01*
X116981344Y-95868112D01*
X117130666Y-95960214D01*
X117297203Y-96015399D01*
X117399991Y-96025900D01*
X118200008Y-96025899D01*
X118200016Y-96025898D01*
X118200019Y-96025898D01*
X118256302Y-96020148D01*
X118302797Y-96015399D01*
X118469334Y-95960214D01*
X118618656Y-95868112D01*
X118742712Y-95744056D01*
X118810099Y-95634802D01*
X118862047Y-95588079D01*
X118915638Y-95575900D01*
X119621165Y-95575900D01*
X119688204Y-95595585D01*
X119733959Y-95648389D01*
X119738033Y-95658762D01*
X119738485Y-95659733D01*
X119738486Y-95659734D01*
X119830588Y-95809056D01*
X119954644Y-95933112D01*
X119963891Y-95938816D01*
X120010618Y-95990760D01*
X120022800Y-96044357D01*
X120022800Y-96272218D01*
X120022800Y-96272220D01*
X120022799Y-96272220D01*
X120051640Y-96417207D01*
X120051643Y-96417217D01*
X120108212Y-96553788D01*
X120108217Y-96553798D01*
X120110082Y-96556588D01*
X120110088Y-96556596D01*
X120190351Y-96676720D01*
X120190352Y-96676721D01*
X122746580Y-99232948D01*
X122746584Y-99232951D01*
X122869498Y-99315080D01*
X122869511Y-99315087D01*
X122947023Y-99347193D01*
X123006087Y-99371658D01*
X123006091Y-99371658D01*
X123006092Y-99371659D01*
X123151079Y-99400500D01*
X123151082Y-99400500D01*
X155948920Y-99400500D01*
X156046462Y-99381096D01*
X156093913Y-99371658D01*
X156210450Y-99323386D01*
X156279917Y-99315918D01*
X156342397Y-99347193D01*
X156378049Y-99407282D01*
X156381897Y-99436978D01*
X156393344Y-100899530D01*
X156374185Y-100966721D01*
X156321741Y-101012888D01*
X156269348Y-101024500D01*
X78974500Y-101024500D01*
X78907461Y-101004815D01*
X78861706Y-100952011D01*
X78850500Y-100900500D01*
X78850500Y-90202486D01*
X97777501Y-90202486D01*
X97787994Y-90305197D01*
X97843141Y-90471619D01*
X97843143Y-90471624D01*
X97935184Y-90620845D01*
X98059154Y-90744815D01*
X98208375Y-90836856D01*
X98208380Y-90836858D01*
X98374802Y-90892005D01*
X98374809Y-90892006D01*
X98477519Y-90902499D01*
X98614999Y-90902499D01*
X98615000Y-90902498D01*
X98615000Y-89927500D01*
X97777501Y-89927500D01*
X97777501Y-90202486D01*
X78850500Y-90202486D01*
X78850500Y-89152513D01*
X97777500Y-89152513D01*
X97777500Y-89427500D01*
X98615000Y-89427500D01*
X98615000Y-88452500D01*
X98477527Y-88452500D01*
X98477512Y-88452501D01*
X98374802Y-88462994D01*
X98208380Y-88518141D01*
X98208375Y-88518143D01*
X98059154Y-88610184D01*
X97935184Y-88734154D01*
X97843143Y-88883375D01*
X97843141Y-88883380D01*
X97787994Y-89049802D01*
X97787993Y-89049809D01*
X97777500Y-89152513D01*
X78850500Y-89152513D01*
X78850500Y-88309986D01*
X103101701Y-88309986D01*
X103112194Y-88412697D01*
X103167341Y-88579119D01*
X103167343Y-88579124D01*
X103259384Y-88728345D01*
X103383354Y-88852315D01*
X103532575Y-88944356D01*
X103532580Y-88944358D01*
X103699002Y-88999505D01*
X103699009Y-88999506D01*
X103801719Y-89009999D01*
X104014199Y-89009999D01*
X104514200Y-89009999D01*
X104726672Y-89009999D01*
X104726686Y-89009998D01*
X104829397Y-88999505D01*
X104995819Y-88944358D01*
X104995824Y-88944356D01*
X105145045Y-88852315D01*
X105269015Y-88728345D01*
X105361056Y-88579124D01*
X105361058Y-88579119D01*
X105416205Y-88412697D01*
X105416206Y-88412690D01*
X105426699Y-88309986D01*
X105426700Y-88309973D01*
X105426700Y-87410000D01*
X104514200Y-87410000D01*
X104514200Y-89009999D01*
X104014199Y-89009999D01*
X104014200Y-89009998D01*
X104014200Y-87410000D01*
X103101701Y-87410000D01*
X103101701Y-88309986D01*
X78850500Y-88309986D01*
X78850500Y-86537486D01*
X97777501Y-86537486D01*
X97787994Y-86640197D01*
X97843141Y-86806619D01*
X97843143Y-86806624D01*
X97935184Y-86955845D01*
X98059154Y-87079815D01*
X98208375Y-87171856D01*
X98208380Y-87171858D01*
X98374802Y-87227005D01*
X98374809Y-87227006D01*
X98477519Y-87237499D01*
X98614999Y-87237499D01*
X98615000Y-87237498D01*
X98615000Y-86262500D01*
X97777501Y-86262500D01*
X97777501Y-86537486D01*
X78850500Y-86537486D01*
X78850500Y-85487513D01*
X97777500Y-85487513D01*
X97777500Y-85762500D01*
X98615000Y-85762500D01*
X98615000Y-84787500D01*
X98477527Y-84787500D01*
X98477512Y-84787501D01*
X98374802Y-84797994D01*
X98208380Y-84853141D01*
X98208375Y-84853143D01*
X98059154Y-84945184D01*
X97935184Y-85069154D01*
X97843143Y-85218375D01*
X97843141Y-85218380D01*
X97787994Y-85384802D01*
X97787993Y-85384809D01*
X97777500Y-85487513D01*
X78850500Y-85487513D01*
X78850500Y-78272483D01*
X97802000Y-78272483D01*
X97802000Y-79272501D01*
X97802001Y-79272519D01*
X97812500Y-79375296D01*
X97812501Y-79375299D01*
X97843661Y-79469331D01*
X97867686Y-79541834D01*
X97959788Y-79691156D01*
X98083844Y-79815212D01*
X98233166Y-79907314D01*
X98399703Y-79962499D01*
X98502491Y-79973000D01*
X99302508Y-79972999D01*
X99302516Y-79972998D01*
X99302519Y-79972998D01*
X99358802Y-79967248D01*
X99405297Y-79962499D01*
X99571834Y-79907314D01*
X99721156Y-79815212D01*
X99814819Y-79721549D01*
X99820893Y-79718231D01*
X99824851Y-79712552D01*
X99851164Y-79701702D01*
X99876142Y-79688064D01*
X99883046Y-79688557D01*
X99889446Y-79685919D01*
X99917444Y-79691017D01*
X99945834Y-79693048D01*
X99953022Y-79697496D01*
X99958185Y-79698437D01*
X99979971Y-79714174D01*
X99987144Y-79718613D01*
X99988676Y-79720044D01*
X100083844Y-79815212D01*
X100103616Y-79827407D01*
X100112644Y-79835840D01*
X100124387Y-79855705D01*
X100139818Y-79872860D01*
X100143123Y-79887401D01*
X100148198Y-79895987D01*
X100147757Y-79907789D01*
X100152000Y-79926457D01*
X100152000Y-81223542D01*
X100132315Y-81290581D01*
X100093098Y-81329080D01*
X100083844Y-81334787D01*
X100083843Y-81334788D01*
X99990181Y-81428451D01*
X99928858Y-81461936D01*
X99859166Y-81456952D01*
X99814819Y-81428451D01*
X99721157Y-81334789D01*
X99721156Y-81334788D01*
X99571834Y-81242686D01*
X99405297Y-81187501D01*
X99405295Y-81187500D01*
X99302510Y-81177000D01*
X98502498Y-81177000D01*
X98502480Y-81177001D01*
X98399703Y-81187500D01*
X98399700Y-81187501D01*
X98233168Y-81242685D01*
X98233163Y-81242687D01*
X98083842Y-81334789D01*
X97959789Y-81458842D01*
X97867687Y-81608163D01*
X97867686Y-81608166D01*
X97812501Y-81774703D01*
X97812501Y-81774704D01*
X97812500Y-81774704D01*
X97802000Y-81877483D01*
X97802000Y-82877501D01*
X97802001Y-82877519D01*
X97812500Y-82980296D01*
X97812501Y-82980299D01*
X97867685Y-83146831D01*
X97867686Y-83146834D01*
X97959788Y-83296156D01*
X98031084Y-83367452D01*
X98056301Y-83392669D01*
X98089785Y-83453993D01*
X98090237Y-83504540D01*
X98074501Y-83583656D01*
X98074500Y-83583659D01*
X98074500Y-83741346D01*
X98105261Y-83895989D01*
X98105264Y-83896001D01*
X98165602Y-84041672D01*
X98165609Y-84041685D01*
X98253210Y-84172788D01*
X98253213Y-84172792D01*
X98364707Y-84284286D01*
X98364711Y-84284289D01*
X98495814Y-84371890D01*
X98495827Y-84371897D01*
X98641498Y-84432235D01*
X98641503Y-84432237D01*
X98796153Y-84462999D01*
X98796156Y-84463000D01*
X98796158Y-84463000D01*
X98953844Y-84463000D01*
X98953845Y-84462999D01*
X99108497Y-84432237D01*
X99254179Y-84371894D01*
X99385289Y-84284289D01*
X99496789Y-84172789D01*
X99584394Y-84041679D01*
X99644737Y-83895997D01*
X99675500Y-83741342D01*
X99675500Y-83583658D01*
X99668339Y-83547658D01*
X99674566Y-83478067D01*
X99703592Y-83434487D01*
X99713319Y-83425045D01*
X99721156Y-83420212D01*
X99815489Y-83325878D01*
X99816136Y-83325251D01*
X99846248Y-83309386D01*
X99876141Y-83293064D01*
X99877100Y-83293132D01*
X99877952Y-83292684D01*
X99911893Y-83295620D01*
X99945833Y-83298048D01*
X99946749Y-83298636D01*
X99947561Y-83298707D01*
X99951048Y-83301399D01*
X99990181Y-83326549D01*
X100083844Y-83420212D01*
X100130596Y-83449048D01*
X100177320Y-83500994D01*
X100189500Y-83554587D01*
X100189500Y-84841252D01*
X100169815Y-84908291D01*
X100153848Y-84928261D01*
X100143339Y-84938930D01*
X100133844Y-84944788D01*
X100009788Y-85068844D01*
X100000390Y-85084080D01*
X99990554Y-85094068D01*
X99971770Y-85104511D01*
X99955791Y-85118883D01*
X99941840Y-85121152D01*
X99929489Y-85128020D01*
X99908042Y-85126650D01*
X99886828Y-85130102D01*
X99873864Y-85124468D01*
X99859761Y-85123568D01*
X99842459Y-85110821D01*
X99822747Y-85102255D01*
X99808476Y-85085784D01*
X99803509Y-85082125D01*
X99802094Y-85078418D01*
X99796668Y-85072156D01*
X99794819Y-85069159D01*
X99794816Y-85069155D01*
X99670845Y-84945184D01*
X99521624Y-84853143D01*
X99521619Y-84853141D01*
X99355197Y-84797994D01*
X99355190Y-84797993D01*
X99252486Y-84787500D01*
X99115000Y-84787500D01*
X99115000Y-87237499D01*
X99252472Y-87237499D01*
X99252486Y-87237498D01*
X99355197Y-87227005D01*
X99521619Y-87171858D01*
X99521624Y-87171856D01*
X99670845Y-87079815D01*
X99794818Y-86955842D01*
X99796665Y-86952848D01*
X99798469Y-86951224D01*
X99799298Y-86950177D01*
X99799476Y-86950318D01*
X99848610Y-86906121D01*
X99917573Y-86894896D01*
X99981656Y-86922736D01*
X100007743Y-86952841D01*
X100009788Y-86956156D01*
X100133844Y-87080212D01*
X100283166Y-87172314D01*
X100449703Y-87227499D01*
X100552491Y-87238000D01*
X101327508Y-87237999D01*
X101343273Y-87236388D01*
X101354126Y-87235280D01*
X101354126Y-87235279D01*
X101430297Y-87227499D01*
X101596834Y-87172314D01*
X101746156Y-87080212D01*
X101870212Y-86956156D01*
X101962314Y-86806834D01*
X102017499Y-86640297D01*
X102028000Y-86537509D01*
X102027999Y-86010013D01*
X103101700Y-86010013D01*
X103101700Y-86910000D01*
X104014200Y-86910000D01*
X104514200Y-86910000D01*
X105426699Y-86910000D01*
X105426699Y-86010028D01*
X105426698Y-86010013D01*
X105416205Y-85907302D01*
X105361058Y-85740880D01*
X105361056Y-85740875D01*
X105269015Y-85591654D01*
X105145045Y-85467684D01*
X104995824Y-85375643D01*
X104995819Y-85375641D01*
X104829397Y-85320494D01*
X104829390Y-85320493D01*
X104726686Y-85310000D01*
X104514200Y-85310000D01*
X104514200Y-86910000D01*
X104014200Y-86910000D01*
X104014200Y-85310000D01*
X103801729Y-85310000D01*
X103801712Y-85310001D01*
X103699002Y-85320494D01*
X103532580Y-85375641D01*
X103532575Y-85375643D01*
X103383354Y-85467684D01*
X103259384Y-85591654D01*
X103167343Y-85740875D01*
X103167341Y-85740880D01*
X103112194Y-85907302D01*
X103112193Y-85907309D01*
X103101700Y-86010013D01*
X102027999Y-86010013D01*
X102027999Y-85487492D01*
X102022012Y-85428887D01*
X102017499Y-85384703D01*
X102017498Y-85384700D01*
X102014496Y-85375641D01*
X101962314Y-85218166D01*
X101870212Y-85068844D01*
X101746156Y-84944788D01*
X101740489Y-84940307D01*
X101741930Y-84938484D01*
X101702675Y-84894835D01*
X101690500Y-84841252D01*
X101690500Y-83502230D01*
X101710185Y-83435191D01*
X101726819Y-83414549D01*
X101773916Y-83367452D01*
X101845212Y-83296156D01*
X101937314Y-83146834D01*
X101992499Y-82980297D01*
X102003000Y-82877509D01*
X102002999Y-81877492D01*
X101992499Y-81774703D01*
X101937314Y-81608166D01*
X101845212Y-81458844D01*
X101721156Y-81334788D01*
X101721155Y-81334787D01*
X101711902Y-81329080D01*
X101665178Y-81277132D01*
X101653000Y-81223542D01*
X101653000Y-79926457D01*
X101672685Y-79859418D01*
X101711907Y-79820916D01*
X101721156Y-79815212D01*
X101845212Y-79691156D01*
X101937314Y-79541834D01*
X101992499Y-79375297D01*
X102003000Y-79272509D01*
X102002999Y-78272492D01*
X102001376Y-78256608D01*
X101992499Y-78169703D01*
X101992498Y-78169700D01*
X101970498Y-78103308D01*
X101937314Y-78003166D01*
X101845212Y-77853844D01*
X101721156Y-77729788D01*
X101571834Y-77637686D01*
X101405297Y-77582501D01*
X101405295Y-77582500D01*
X101302510Y-77572000D01*
X100502498Y-77572000D01*
X100502480Y-77572001D01*
X100399703Y-77582500D01*
X100399700Y-77582501D01*
X100233168Y-77637685D01*
X100233163Y-77637687D01*
X100083842Y-77729789D01*
X100039681Y-77773951D01*
X99978358Y-77807436D01*
X99908666Y-77802452D01*
X99852733Y-77760580D01*
X99828316Y-77695116D01*
X99828000Y-77686270D01*
X99828000Y-76901457D01*
X99847685Y-76834418D01*
X99867347Y-76810849D01*
X99876380Y-76802409D01*
X99896156Y-76790212D01*
X99991678Y-76694689D01*
X99993200Y-76693268D01*
X100022592Y-76678491D01*
X100051494Y-76662710D01*
X100053673Y-76662865D01*
X100055625Y-76661885D01*
X100088348Y-76665345D01*
X100121186Y-76667694D01*
X100123280Y-76669039D01*
X100125107Y-76669233D01*
X100131224Y-76674145D01*
X100165534Y-76696195D01*
X100259154Y-76789815D01*
X100408375Y-76881856D01*
X100408380Y-76881858D01*
X100574802Y-76937005D01*
X100574809Y-76937006D01*
X100677519Y-76947499D01*
X100827499Y-76947499D01*
X101327500Y-76947499D01*
X101477472Y-76947499D01*
X101477486Y-76947498D01*
X101580197Y-76937005D01*
X101746619Y-76881858D01*
X101746624Y-76881856D01*
X101895845Y-76789815D01*
X102019815Y-76665845D01*
X102111856Y-76516624D01*
X102111858Y-76516619D01*
X102167005Y-76350197D01*
X102167006Y-76350190D01*
X102177499Y-76247486D01*
X102177500Y-76247473D01*
X102177500Y-75997500D01*
X101327500Y-75997500D01*
X101327500Y-76947499D01*
X100827499Y-76947499D01*
X100827500Y-76947498D01*
X100827500Y-75497500D01*
X101327500Y-75497500D01*
X102177499Y-75497500D01*
X102177499Y-75247528D01*
X102177498Y-75247513D01*
X102167005Y-75144802D01*
X102111858Y-74978380D01*
X102111856Y-74978375D01*
X102019815Y-74829154D01*
X101895845Y-74705184D01*
X101746624Y-74613143D01*
X101746619Y-74613141D01*
X101580197Y-74557994D01*
X101580190Y-74557993D01*
X101477486Y-74547500D01*
X101327500Y-74547500D01*
X101327500Y-75497500D01*
X100827500Y-75497500D01*
X100827500Y-74547500D01*
X100677527Y-74547500D01*
X100677512Y-74547501D01*
X100574802Y-74557994D01*
X100408380Y-74613141D01*
X100408375Y-74613143D01*
X100259157Y-74705182D01*
X100165534Y-74798805D01*
X100159452Y-74802125D01*
X100155492Y-74807809D01*
X100129184Y-74818652D01*
X100104210Y-74832289D01*
X100097299Y-74831794D01*
X100090894Y-74834435D01*
X100062901Y-74829334D01*
X100034519Y-74827305D01*
X100027326Y-74822852D01*
X100022156Y-74821911D01*
X100000343Y-74806152D01*
X99993200Y-74801731D01*
X99991663Y-74800295D01*
X99896156Y-74704788D01*
X99876382Y-74692591D01*
X99867347Y-74684150D01*
X99855608Y-74664288D01*
X99840178Y-74647132D01*
X99836872Y-74632584D01*
X99831799Y-74624000D01*
X99832240Y-74612203D01*
X99828000Y-74593542D01*
X99828000Y-74184728D01*
X99847685Y-74117689D01*
X99864314Y-74097052D01*
X101540295Y-72421070D01*
X101580519Y-72394193D01*
X101604179Y-72384394D01*
X101735289Y-72296789D01*
X101846789Y-72185289D01*
X101934394Y-72054179D01*
X101994737Y-71908497D01*
X102025500Y-71753842D01*
X102025500Y-71596158D01*
X102025500Y-71596155D01*
X102025499Y-71596153D01*
X101994846Y-71442051D01*
X101994737Y-71441503D01*
X101988587Y-71426655D01*
X101934397Y-71295827D01*
X101934390Y-71295814D01*
X101846789Y-71164711D01*
X101846786Y-71164707D01*
X101735292Y-71053213D01*
X101735288Y-71053210D01*
X101604185Y-70965609D01*
X101604172Y-70965602D01*
X101458501Y-70905264D01*
X101458489Y-70905261D01*
X101303845Y-70874500D01*
X101303842Y-70874500D01*
X101146158Y-70874500D01*
X101146155Y-70874500D01*
X100991510Y-70905261D01*
X100991498Y-70905264D01*
X100845827Y-70965602D01*
X100845814Y-70965609D01*
X100714711Y-71053210D01*
X100714707Y-71053213D01*
X100603213Y-71164707D01*
X100603207Y-71164715D01*
X100515607Y-71295818D01*
X100515605Y-71295822D01*
X100505805Y-71319480D01*
X100478927Y-71359704D01*
X98494549Y-73344082D01*
X98470374Y-73380264D01*
X98470373Y-73380265D01*
X98412419Y-73466998D01*
X98412412Y-73467011D01*
X98355843Y-73603582D01*
X98355840Y-73603592D01*
X98327000Y-73748579D01*
X98327000Y-74593542D01*
X98307315Y-74660581D01*
X98268098Y-74699080D01*
X98258844Y-74704787D01*
X98134789Y-74828842D01*
X98042687Y-74978163D01*
X98042685Y-74978168D01*
X98037329Y-74994331D01*
X97987501Y-75144703D01*
X97987501Y-75144704D01*
X97987500Y-75144704D01*
X97977000Y-75247483D01*
X97977000Y-76247501D01*
X97977001Y-76247519D01*
X97987500Y-76350296D01*
X97987501Y-76350299D01*
X98042685Y-76516831D01*
X98042687Y-76516836D01*
X98051219Y-76530668D01*
X98134788Y-76666156D01*
X98258844Y-76790212D01*
X98268091Y-76795916D01*
X98314818Y-76847860D01*
X98327000Y-76901457D01*
X98327000Y-77517051D01*
X98307315Y-77584090D01*
X98254511Y-77629845D01*
X98242007Y-77634756D01*
X98233167Y-77637685D01*
X98083842Y-77729789D01*
X97959789Y-77853842D01*
X97867687Y-78003163D01*
X97867685Y-78003168D01*
X97847832Y-78063080D01*
X97812501Y-78169703D01*
X97812501Y-78169704D01*
X97812500Y-78169704D01*
X97802000Y-78272483D01*
X78850500Y-78272483D01*
X78850500Y-72424000D01*
X78870185Y-72356961D01*
X78922989Y-72311206D01*
X78974500Y-72300000D01*
X90100000Y-72300000D01*
X90100000Y-68474500D01*
X90119685Y-68407461D01*
X90172489Y-68361706D01*
X90224000Y-68350500D01*
X93893097Y-68350500D01*
X94126368Y-68313553D01*
X94350992Y-68240568D01*
X94561433Y-68133343D01*
X94752510Y-67994517D01*
X94919517Y-67827510D01*
X95058343Y-67636433D01*
X95165568Y-67425992D01*
X95238553Y-67201368D01*
X95251743Y-67118092D01*
X95275500Y-66968097D01*
X95275500Y-66731902D01*
X95238553Y-66498631D01*
X95165566Y-66274003D01*
X95058342Y-66063566D01*
X94919517Y-65872490D01*
X94752510Y-65705483D01*
X94561433Y-65566657D01*
X94502141Y-65536446D01*
X94350996Y-65459433D01*
X94126368Y-65386446D01*
X93893097Y-65349500D01*
X93893092Y-65349500D01*
X90224000Y-65349500D01*
X90156961Y-65329815D01*
X90111206Y-65277011D01*
X90100000Y-65225500D01*
X90100000Y-63374500D01*
X90119685Y-63307461D01*
X90172489Y-63261706D01*
X90224000Y-63250500D01*
X93893097Y-63250500D01*
X94126368Y-63213553D01*
X94350992Y-63140568D01*
X94561433Y-63033343D01*
X94752510Y-62894517D01*
X94919517Y-62727510D01*
X95058343Y-62536433D01*
X95103481Y-62447844D01*
X101425000Y-62447844D01*
X101431401Y-62507372D01*
X101431403Y-62507379D01*
X101481645Y-62642086D01*
X101481649Y-62642093D01*
X101567809Y-62757187D01*
X101567812Y-62757190D01*
X101682906Y-62843350D01*
X101682913Y-62843354D01*
X101817620Y-62893596D01*
X101817627Y-62893598D01*
X101877155Y-62899999D01*
X101877172Y-62900000D01*
X102425000Y-62900000D01*
X102925000Y-62900000D01*
X103472828Y-62900000D01*
X103472844Y-62899999D01*
X103532372Y-62893598D01*
X103532379Y-62893596D01*
X103667086Y-62843354D01*
X103667093Y-62843350D01*
X103782187Y-62757190D01*
X103782190Y-62757187D01*
X103868350Y-62642093D01*
X103868354Y-62642086D01*
X103918596Y-62507379D01*
X103918598Y-62507372D01*
X103924999Y-62447844D01*
X103925000Y-62447827D01*
X103925000Y-62000000D01*
X102925000Y-62000000D01*
X102925000Y-62900000D01*
X102425000Y-62900000D01*
X102425000Y-62000000D01*
X101425000Y-62000000D01*
X101425000Y-62447844D01*
X95103481Y-62447844D01*
X95165568Y-62325992D01*
X95238553Y-62101368D01*
X95265816Y-61929240D01*
X95275500Y-61868097D01*
X95275500Y-61631902D01*
X95238553Y-61398631D01*
X95165566Y-61174003D01*
X95130481Y-61105146D01*
X95103481Y-61052155D01*
X101425000Y-61052155D01*
X101425000Y-61500000D01*
X102425000Y-61500000D01*
X102925000Y-61500000D01*
X103925000Y-61500000D01*
X103925000Y-61197682D01*
X111300000Y-61197682D01*
X111300000Y-61402317D01*
X111332009Y-61604417D01*
X111395244Y-61799031D01*
X111488141Y-61981350D01*
X111488147Y-61981359D01*
X111520523Y-62025921D01*
X111520524Y-62025922D01*
X112200000Y-61346446D01*
X112200000Y-61352661D01*
X112227259Y-61454394D01*
X112279920Y-61545606D01*
X112354394Y-61620080D01*
X112445606Y-61672741D01*
X112547339Y-61700000D01*
X112553553Y-61700000D01*
X111874076Y-62379474D01*
X111918650Y-62411859D01*
X112100968Y-62504755D01*
X112295582Y-62567990D01*
X112497683Y-62600000D01*
X112702317Y-62600000D01*
X112904417Y-62567990D01*
X113099031Y-62504755D01*
X113281349Y-62411859D01*
X113325921Y-62379474D01*
X112646447Y-61700000D01*
X112652661Y-61700000D01*
X112754394Y-61672741D01*
X112845606Y-61620080D01*
X112920080Y-61545606D01*
X112972741Y-61454394D01*
X113000000Y-61352661D01*
X113000000Y-61346447D01*
X113679474Y-62025921D01*
X113711859Y-61981349D01*
X113804755Y-61799031D01*
X113867990Y-61604417D01*
X113900000Y-61402317D01*
X113900000Y-61197682D01*
X127300000Y-61197682D01*
X127300000Y-61402317D01*
X127332009Y-61604417D01*
X127395244Y-61799031D01*
X127488141Y-61981350D01*
X127488147Y-61981359D01*
X127520523Y-62025921D01*
X127520524Y-62025922D01*
X128200000Y-61346446D01*
X128200000Y-61352661D01*
X128227259Y-61454394D01*
X128279920Y-61545606D01*
X128354394Y-61620080D01*
X128445606Y-61672741D01*
X128547339Y-61700000D01*
X128553553Y-61700000D01*
X127874076Y-62379474D01*
X127918650Y-62411859D01*
X128100968Y-62504755D01*
X128295582Y-62567990D01*
X128497683Y-62600000D01*
X128702317Y-62600000D01*
X128904417Y-62567990D01*
X129099031Y-62504755D01*
X129281349Y-62411859D01*
X129325921Y-62379474D01*
X128646447Y-61700000D01*
X128652661Y-61700000D01*
X128754394Y-61672741D01*
X128845606Y-61620080D01*
X128920080Y-61545606D01*
X128972741Y-61454394D01*
X129000000Y-61352661D01*
X129000000Y-61346447D01*
X129679474Y-62025921D01*
X129711859Y-61981349D01*
X129804755Y-61799031D01*
X129867990Y-61604417D01*
X129900000Y-61402317D01*
X129900000Y-61197682D01*
X141300000Y-61197682D01*
X141300000Y-61402317D01*
X141332009Y-61604417D01*
X141395244Y-61799031D01*
X141488141Y-61981350D01*
X141488147Y-61981359D01*
X141520523Y-62025921D01*
X141520524Y-62025922D01*
X142200000Y-61346446D01*
X142200000Y-61352661D01*
X142227259Y-61454394D01*
X142279920Y-61545606D01*
X142354394Y-61620080D01*
X142445606Y-61672741D01*
X142547339Y-61700000D01*
X142553553Y-61700000D01*
X141874076Y-62379474D01*
X141918650Y-62411859D01*
X142100968Y-62504755D01*
X142295582Y-62567990D01*
X142497683Y-62600000D01*
X142702317Y-62600000D01*
X142904417Y-62567990D01*
X143099031Y-62504755D01*
X143281349Y-62411859D01*
X143325921Y-62379474D01*
X142646447Y-61700000D01*
X142652661Y-61700000D01*
X142754394Y-61672741D01*
X142845606Y-61620080D01*
X142920080Y-61545606D01*
X142972741Y-61454394D01*
X143000000Y-61352661D01*
X143000000Y-61346447D01*
X143679474Y-62025921D01*
X143711859Y-61981349D01*
X143804755Y-61799031D01*
X143867990Y-61604417D01*
X143896147Y-61426647D01*
X152749500Y-61426647D01*
X152749500Y-62573337D01*
X152749501Y-62573355D01*
X152759650Y-62672707D01*
X152759651Y-62672710D01*
X152812996Y-62833694D01*
X152813001Y-62833705D01*
X152902029Y-62978040D01*
X152902032Y-62978044D01*
X153021955Y-63097967D01*
X153021959Y-63097970D01*
X153166294Y-63186998D01*
X153166297Y-63186999D01*
X153166303Y-63187003D01*
X153327292Y-63240349D01*
X153426655Y-63250500D01*
X154573344Y-63250499D01*
X154573352Y-63250498D01*
X154573355Y-63250498D01*
X154627760Y-63244940D01*
X154672708Y-63240349D01*
X154833697Y-63187003D01*
X154978044Y-63097968D01*
X155097968Y-62978044D01*
X155187003Y-62833697D01*
X155240349Y-62672708D01*
X155250500Y-62573345D01*
X155250499Y-61426656D01*
X155247636Y-61398632D01*
X155240349Y-61327292D01*
X155240348Y-61327289D01*
X155213855Y-61247339D01*
X155187003Y-61166303D01*
X155186999Y-61166297D01*
X155186998Y-61166294D01*
X155097970Y-61021959D01*
X155097967Y-61021955D01*
X154978044Y-60902032D01*
X154978040Y-60902029D01*
X154833705Y-60813001D01*
X154833699Y-60812998D01*
X154833697Y-60812997D01*
X154797396Y-60800968D01*
X154672709Y-60759651D01*
X154573346Y-60749500D01*
X153426662Y-60749500D01*
X153426644Y-60749501D01*
X153327292Y-60759650D01*
X153327289Y-60759651D01*
X153166305Y-60812996D01*
X153166294Y-60813001D01*
X153021959Y-60902029D01*
X153021955Y-60902032D01*
X152902032Y-61021955D01*
X152902029Y-61021959D01*
X152813001Y-61166294D01*
X152812996Y-61166305D01*
X152759651Y-61327290D01*
X152749500Y-61426647D01*
X143896147Y-61426647D01*
X143899718Y-61404100D01*
X143900000Y-61402318D01*
X143900000Y-61197682D01*
X143867990Y-60995582D01*
X143804755Y-60800968D01*
X143711859Y-60618650D01*
X143679474Y-60574077D01*
X143679474Y-60574076D01*
X143000000Y-61253551D01*
X143000000Y-61247339D01*
X142972741Y-61145606D01*
X142920080Y-61054394D01*
X142845606Y-60979920D01*
X142754394Y-60927259D01*
X142652661Y-60900000D01*
X142646446Y-60900000D01*
X143325922Y-60220524D01*
X143325921Y-60220523D01*
X143281359Y-60188147D01*
X143281350Y-60188141D01*
X143099031Y-60095244D01*
X142904417Y-60032009D01*
X142702317Y-60000000D01*
X142497683Y-60000000D01*
X142295582Y-60032009D01*
X142100968Y-60095244D01*
X141918644Y-60188143D01*
X141874077Y-60220523D01*
X141874077Y-60220524D01*
X142553554Y-60900000D01*
X142547339Y-60900000D01*
X142445606Y-60927259D01*
X142354394Y-60979920D01*
X142279920Y-61054394D01*
X142227259Y-61145606D01*
X142200000Y-61247339D01*
X142200000Y-61253553D01*
X141520524Y-60574077D01*
X141520523Y-60574077D01*
X141488143Y-60618644D01*
X141395244Y-60800968D01*
X141332009Y-60995582D01*
X141300000Y-61197682D01*
X129900000Y-61197682D01*
X129867990Y-60995582D01*
X129804755Y-60800968D01*
X129711859Y-60618650D01*
X129679474Y-60574077D01*
X129679474Y-60574076D01*
X129000000Y-61253551D01*
X129000000Y-61247339D01*
X128972741Y-61145606D01*
X128920080Y-61054394D01*
X128845606Y-60979920D01*
X128754394Y-60927259D01*
X128652661Y-60900000D01*
X128646446Y-60900000D01*
X129325922Y-60220524D01*
X129325921Y-60220523D01*
X129281359Y-60188147D01*
X129281350Y-60188141D01*
X129099031Y-60095244D01*
X128904417Y-60032009D01*
X128702317Y-60000000D01*
X128497683Y-60000000D01*
X128295582Y-60032009D01*
X128100968Y-60095244D01*
X127918644Y-60188143D01*
X127874077Y-60220523D01*
X127874077Y-60220524D01*
X128553554Y-60900000D01*
X128547339Y-60900000D01*
X128445606Y-60927259D01*
X128354394Y-60979920D01*
X128279920Y-61054394D01*
X128227259Y-61145606D01*
X128200000Y-61247339D01*
X128200000Y-61253553D01*
X127520524Y-60574077D01*
X127520523Y-60574077D01*
X127488143Y-60618644D01*
X127395244Y-60800968D01*
X127332009Y-60995582D01*
X127300000Y-61197682D01*
X113900000Y-61197682D01*
X113867990Y-60995582D01*
X113804755Y-60800968D01*
X113711859Y-60618650D01*
X113679474Y-60574077D01*
X113679474Y-60574076D01*
X113000000Y-61253551D01*
X113000000Y-61247339D01*
X112972741Y-61145606D01*
X112920080Y-61054394D01*
X112845606Y-60979920D01*
X112754394Y-60927259D01*
X112652661Y-60900000D01*
X112646446Y-60900000D01*
X113325922Y-60220524D01*
X113325921Y-60220523D01*
X113281359Y-60188147D01*
X113281350Y-60188141D01*
X113099031Y-60095244D01*
X112904417Y-60032009D01*
X112702317Y-60000000D01*
X112497683Y-60000000D01*
X112295582Y-60032009D01*
X112100968Y-60095244D01*
X111918644Y-60188143D01*
X111874077Y-60220523D01*
X111874077Y-60220524D01*
X112553554Y-60900000D01*
X112547339Y-60900000D01*
X112445606Y-60927259D01*
X112354394Y-60979920D01*
X112279920Y-61054394D01*
X112227259Y-61145606D01*
X112200000Y-61247339D01*
X112200000Y-61253553D01*
X111520524Y-60574077D01*
X111520523Y-60574077D01*
X111488143Y-60618644D01*
X111395244Y-60800968D01*
X111332009Y-60995582D01*
X111300000Y-61197682D01*
X103925000Y-61197682D01*
X103925000Y-61052172D01*
X103924999Y-61052155D01*
X103918598Y-60992627D01*
X103918596Y-60992620D01*
X103868354Y-60857913D01*
X103868350Y-60857906D01*
X103782190Y-60742812D01*
X103782187Y-60742809D01*
X103667093Y-60656649D01*
X103667086Y-60656645D01*
X103532379Y-60606403D01*
X103532372Y-60606401D01*
X103472844Y-60600000D01*
X102925000Y-60600000D01*
X102925000Y-61500000D01*
X102425000Y-61500000D01*
X102425000Y-60600000D01*
X101877155Y-60600000D01*
X101817627Y-60606401D01*
X101817620Y-60606403D01*
X101682913Y-60656645D01*
X101682906Y-60656649D01*
X101567812Y-60742809D01*
X101567809Y-60742812D01*
X101481649Y-60857906D01*
X101481645Y-60857913D01*
X101431403Y-60992620D01*
X101431401Y-60992627D01*
X101425000Y-61052155D01*
X95103481Y-61052155D01*
X95058343Y-60963567D01*
X94919517Y-60772490D01*
X94752510Y-60605483D01*
X94561433Y-60466657D01*
X94387960Y-60378268D01*
X94350996Y-60359433D01*
X94126368Y-60286446D01*
X93893097Y-60249500D01*
X93893092Y-60249500D01*
X90224000Y-60249500D01*
X90156961Y-60229815D01*
X90111206Y-60177011D01*
X90100000Y-60125500D01*
X90100000Y-55300000D01*
X78974500Y-55300000D01*
X78907461Y-55280315D01*
X78861706Y-55227511D01*
X78850500Y-55176000D01*
X78850500Y-53446153D01*
X127149500Y-53446153D01*
X127149500Y-53603846D01*
X127180261Y-53758489D01*
X127180264Y-53758501D01*
X127240602Y-53904172D01*
X127240609Y-53904185D01*
X127328210Y-54035288D01*
X127328213Y-54035292D01*
X127439707Y-54146786D01*
X127439711Y-54146789D01*
X127570814Y-54234390D01*
X127570827Y-54234397D01*
X127655198Y-54269344D01*
X127716503Y-54294737D01*
X127871153Y-54325499D01*
X127871156Y-54325500D01*
X127871158Y-54325500D01*
X127893733Y-54325500D01*
X127917924Y-54327882D01*
X127931082Y-54330500D01*
X127931083Y-54330500D01*
X128078918Y-54330500D01*
X139071042Y-54330500D01*
X139138081Y-54350185D01*
X139176580Y-54389402D01*
X139182288Y-54398656D01*
X139306344Y-54522712D01*
X139455666Y-54614814D01*
X139622203Y-54669999D01*
X139724991Y-54680500D01*
X141525008Y-54680499D01*
X141627797Y-54669999D01*
X141794334Y-54614814D01*
X141943656Y-54522712D01*
X142067712Y-54398656D01*
X142159814Y-54249334D01*
X142214999Y-54082797D01*
X142225500Y-53980009D01*
X142225499Y-53179992D01*
X142222008Y-53145821D01*
X142214999Y-53077203D01*
X142214998Y-53077200D01*
X142194290Y-53014707D01*
X142159814Y-52910666D01*
X142067712Y-52761344D01*
X141943656Y-52637288D01*
X141794334Y-52545186D01*
X141627797Y-52490001D01*
X141627795Y-52490000D01*
X141525010Y-52479500D01*
X139724998Y-52479500D01*
X139724981Y-52479501D01*
X139622203Y-52490000D01*
X139622200Y-52490001D01*
X139455668Y-52545185D01*
X139455663Y-52545187D01*
X139306342Y-52637289D01*
X139182287Y-52761344D01*
X139176580Y-52770598D01*
X139124632Y-52817322D01*
X139071042Y-52829500D01*
X128386233Y-52829500D01*
X128335301Y-52816743D01*
X128334807Y-52817937D01*
X128183501Y-52755264D01*
X128183489Y-52755261D01*
X128028845Y-52724500D01*
X128028842Y-52724500D01*
X127871158Y-52724500D01*
X127871155Y-52724500D01*
X127716510Y-52755261D01*
X127716498Y-52755264D01*
X127570827Y-52815602D01*
X127570814Y-52815609D01*
X127439711Y-52903210D01*
X127439707Y-52903213D01*
X127328213Y-53014707D01*
X127328210Y-53014711D01*
X127240609Y-53145814D01*
X127240602Y-53145827D01*
X127180264Y-53291498D01*
X127180261Y-53291510D01*
X127149500Y-53446153D01*
X78850500Y-53446153D01*
X78850500Y-49058653D01*
X135887000Y-49058653D01*
X135887000Y-49216346D01*
X135917761Y-49370989D01*
X135917764Y-49371001D01*
X135978102Y-49516672D01*
X135978109Y-49516685D01*
X136065710Y-49647788D01*
X136065713Y-49647792D01*
X136177207Y-49759286D01*
X136177211Y-49759289D01*
X136308314Y-49846890D01*
X136308327Y-49846897D01*
X136407560Y-49888000D01*
X136454003Y-49907237D01*
X136608653Y-49937999D01*
X136608656Y-49938000D01*
X136608658Y-49938000D01*
X136766344Y-49938000D01*
X136766345Y-49937999D01*
X136842652Y-49922820D01*
X136920988Y-49907239D01*
X136920989Y-49907238D01*
X136920997Y-49907237D01*
X136944655Y-49897437D01*
X136992104Y-49888000D01*
X139180270Y-49888000D01*
X139247309Y-49907685D01*
X139267951Y-49924319D01*
X139306344Y-49962712D01*
X139455666Y-50054814D01*
X139622203Y-50109999D01*
X139724991Y-50120500D01*
X141525008Y-50120499D01*
X141627797Y-50109999D01*
X141794334Y-50054814D01*
X141943656Y-49962712D01*
X142067712Y-49838656D01*
X142159814Y-49689334D01*
X142214999Y-49522797D01*
X142225500Y-49420009D01*
X142225499Y-48619992D01*
X142223455Y-48599980D01*
X143224500Y-48599980D01*
X143224500Y-54000019D01*
X143235001Y-54102801D01*
X143290184Y-54269333D01*
X143290189Y-54269344D01*
X143382285Y-54418653D01*
X143382288Y-54418657D01*
X143506342Y-54542711D01*
X143506346Y-54542714D01*
X143655655Y-54634810D01*
X143655658Y-54634811D01*
X143655664Y-54634815D01*
X143822200Y-54689999D01*
X143924988Y-54700500D01*
X149212770Y-54700500D01*
X149279809Y-54720185D01*
X149300451Y-54736819D01*
X151816427Y-57252795D01*
X151843307Y-57293023D01*
X151853104Y-57316675D01*
X151853109Y-57316685D01*
X151940710Y-57447788D01*
X151940713Y-57447792D01*
X152052207Y-57559286D01*
X152052211Y-57559289D01*
X152183314Y-57646890D01*
X152183327Y-57646897D01*
X152245644Y-57672709D01*
X152329003Y-57707237D01*
X152406866Y-57722725D01*
X152483646Y-57737998D01*
X152483649Y-57737998D01*
X152483658Y-57738000D01*
X152483666Y-57738000D01*
X152484194Y-57738052D01*
X152490269Y-57738403D01*
X152551082Y-57750500D01*
X152699465Y-57750500D01*
X152703045Y-57750707D01*
X152732709Y-57761312D01*
X152762926Y-57770185D01*
X152765349Y-57772981D01*
X152768836Y-57774228D01*
X152788060Y-57799191D01*
X152808681Y-57822989D01*
X152811069Y-57829069D01*
X152811467Y-57829586D01*
X152811521Y-57830219D01*
X152812295Y-57832192D01*
X152812999Y-57833702D01*
X152902031Y-57978043D01*
X153021955Y-58097967D01*
X153021959Y-58097970D01*
X153166294Y-58186998D01*
X153166297Y-58186999D01*
X153166303Y-58187003D01*
X153327292Y-58240349D01*
X153426655Y-58250500D01*
X154573344Y-58250499D01*
X154573352Y-58250498D01*
X154573355Y-58250498D01*
X154627760Y-58244940D01*
X154672708Y-58240349D01*
X154833697Y-58187003D01*
X154978044Y-58097968D01*
X155097968Y-57978044D01*
X155187003Y-57833697D01*
X155240349Y-57672708D01*
X155250500Y-57573345D01*
X155250499Y-56426656D01*
X155240349Y-56327292D01*
X155187003Y-56166303D01*
X155186999Y-56166297D01*
X155186998Y-56166294D01*
X155097970Y-56021959D01*
X155097967Y-56021955D01*
X154978044Y-55902032D01*
X154978040Y-55902029D01*
X154833705Y-55813001D01*
X154833699Y-55812998D01*
X154833697Y-55812997D01*
X154833694Y-55812996D01*
X154672709Y-55759651D01*
X154573346Y-55749500D01*
X153426662Y-55749500D01*
X153426644Y-55749501D01*
X153327292Y-55759650D01*
X153327289Y-55759651D01*
X153166305Y-55812996D01*
X153166294Y-55813001D01*
X153021959Y-55902029D01*
X152896925Y-56027063D01*
X152895765Y-56025903D01*
X152845875Y-56061217D01*
X152776076Y-56064343D01*
X152717971Y-56031603D01*
X150661819Y-53975451D01*
X150628334Y-53914128D01*
X150625500Y-53887770D01*
X150625500Y-48599993D01*
X150625499Y-48599980D01*
X150614999Y-48497200D01*
X150559815Y-48330664D01*
X150559811Y-48330658D01*
X150559810Y-48330655D01*
X150467714Y-48181346D01*
X150467711Y-48181342D01*
X150343657Y-48057288D01*
X150343653Y-48057285D01*
X150194344Y-47965189D01*
X150194338Y-47965186D01*
X150194336Y-47965185D01*
X150088154Y-47930000D01*
X150027801Y-47910001D01*
X149925019Y-47899500D01*
X149925012Y-47899500D01*
X143924988Y-47899500D01*
X143924980Y-47899500D01*
X143822198Y-47910001D01*
X143655666Y-47965184D01*
X143655655Y-47965189D01*
X143506346Y-48057285D01*
X143506342Y-48057288D01*
X143382288Y-48181342D01*
X143382285Y-48181346D01*
X143290189Y-48330655D01*
X143290184Y-48330666D01*
X143235001Y-48497198D01*
X143224500Y-48599980D01*
X142223455Y-48599980D01*
X142214999Y-48517203D01*
X142159814Y-48350666D01*
X142067712Y-48201344D01*
X141943656Y-48077288D01*
X141794334Y-47985186D01*
X141627797Y-47930001D01*
X141627795Y-47930000D01*
X141525010Y-47919500D01*
X139724998Y-47919500D01*
X139724981Y-47919501D01*
X139622203Y-47930000D01*
X139622200Y-47930001D01*
X139455668Y-47985185D01*
X139455663Y-47985187D01*
X139306342Y-48077289D01*
X139182289Y-48201342D01*
X139104107Y-48328097D01*
X139052159Y-48374821D01*
X138998568Y-48387000D01*
X136992104Y-48387000D01*
X136944655Y-48377562D01*
X136920997Y-48367763D01*
X136920993Y-48367762D01*
X136920988Y-48367760D01*
X136766345Y-48337000D01*
X136766342Y-48337000D01*
X136608658Y-48337000D01*
X136608655Y-48337000D01*
X136454010Y-48367761D01*
X136453998Y-48367764D01*
X136308327Y-48428102D01*
X136308314Y-48428109D01*
X136177211Y-48515710D01*
X136177207Y-48515713D01*
X136065713Y-48627207D01*
X136065710Y-48627211D01*
X135978109Y-48758314D01*
X135978102Y-48758327D01*
X135917764Y-48903998D01*
X135917761Y-48904010D01*
X135887000Y-49058653D01*
X78850500Y-49058653D01*
X78850500Y-44574500D01*
X78870185Y-44507461D01*
X78922989Y-44461706D01*
X78974500Y-44450500D01*
X155828536Y-44450500D01*
X155895575Y-44470185D01*
G37*
%TD.AperFunction*%
%TA.AperFunction,Conductor*%
G36*
X127129809Y-72795185D02*
G01*
X127150451Y-72811819D01*
X128488181Y-74149549D01*
X128521666Y-74210872D01*
X128524500Y-74237230D01*
X128524500Y-74725001D01*
X128524501Y-74725019D01*
X128535000Y-74827796D01*
X128535001Y-74827799D01*
X128561348Y-74907307D01*
X128590186Y-74994334D01*
X128682288Y-75143656D01*
X128806344Y-75267712D01*
X128955666Y-75359814D01*
X129122203Y-75414999D01*
X129224991Y-75425500D01*
X129712769Y-75425499D01*
X129779808Y-75445183D01*
X129800450Y-75461818D01*
X130538181Y-76199549D01*
X130571666Y-76260872D01*
X130574500Y-76287230D01*
X130574500Y-84491267D01*
X130554815Y-84558306D01*
X130502011Y-84604061D01*
X130489506Y-84608972D01*
X130455671Y-84620184D01*
X130455663Y-84620187D01*
X130306342Y-84712289D01*
X130182289Y-84836342D01*
X130090187Y-84985663D01*
X130090186Y-84985666D01*
X130035001Y-85152203D01*
X130035001Y-85152204D01*
X130035000Y-85152204D01*
X130024500Y-85254983D01*
X130024500Y-88355001D01*
X130024501Y-88355018D01*
X130035000Y-88457796D01*
X130035001Y-88457799D01*
X130090185Y-88624331D01*
X130090187Y-88624336D01*
X130125069Y-88680888D01*
X130182288Y-88773656D01*
X130306344Y-88897712D01*
X130455666Y-88989814D01*
X130622203Y-89044999D01*
X130724991Y-89055500D01*
X131925008Y-89055499D01*
X132027797Y-89044999D01*
X132194334Y-88989814D01*
X132343656Y-88897712D01*
X132467712Y-88773656D01*
X132559814Y-88624334D01*
X132614999Y-88457797D01*
X132625500Y-88355009D01*
X132625500Y-87679500D01*
X132645185Y-87612461D01*
X132697989Y-87566706D01*
X132749500Y-87555500D01*
X138600501Y-87555500D01*
X138667540Y-87575185D01*
X138713295Y-87627989D01*
X138724501Y-87679500D01*
X138724501Y-88425018D01*
X138735000Y-88527796D01*
X138735001Y-88527799D01*
X138790185Y-88694331D01*
X138790187Y-88694336D01*
X138798161Y-88707264D01*
X138882288Y-88843656D01*
X139006344Y-88967712D01*
X139155666Y-89059814D01*
X139322203Y-89114999D01*
X139424991Y-89125500D01*
X140625008Y-89125499D01*
X140727797Y-89114999D01*
X140894334Y-89059814D01*
X141043656Y-88967712D01*
X141167712Y-88843656D01*
X141259814Y-88694334D01*
X141314999Y-88527797D01*
X141325500Y-88425009D01*
X141325500Y-87749500D01*
X141345185Y-87682461D01*
X141397989Y-87636706D01*
X141449500Y-87625500D01*
X143419470Y-87625500D01*
X143486509Y-87645185D01*
X143507151Y-87661819D01*
X148115681Y-92270349D01*
X148149166Y-92331672D01*
X148152000Y-92358030D01*
X148152000Y-93558301D01*
X148152001Y-93558318D01*
X148162500Y-93661096D01*
X148162501Y-93661099D01*
X148217685Y-93827631D01*
X148217687Y-93827636D01*
X148251803Y-93882947D01*
X148309788Y-93976956D01*
X148433844Y-94101012D01*
X148505596Y-94145268D01*
X148552321Y-94197215D01*
X148564500Y-94250807D01*
X148564500Y-96105193D01*
X148544815Y-96172232D01*
X148514812Y-96204459D01*
X148497457Y-96217450D01*
X148497451Y-96217457D01*
X148411206Y-96332664D01*
X148411202Y-96332671D01*
X148360908Y-96467517D01*
X148354501Y-96527116D01*
X148354501Y-96527123D01*
X148354500Y-96527135D01*
X148354501Y-97775500D01*
X148334816Y-97842539D01*
X148282013Y-97888294D01*
X148230501Y-97899500D01*
X123587229Y-97899500D01*
X123520190Y-97879815D01*
X123499548Y-97863181D01*
X122561367Y-96925000D01*
X121668396Y-96032028D01*
X121664059Y-96024085D01*
X121656812Y-96018660D01*
X121647577Y-95993900D01*
X121634913Y-95970708D01*
X121635558Y-95961678D01*
X121632395Y-95953196D01*
X121638011Y-95927375D01*
X121639897Y-95901016D01*
X121645715Y-95891962D01*
X121647247Y-95884923D01*
X121668395Y-95856672D01*
X121685974Y-95839093D01*
X121747295Y-95805610D01*
X121816987Y-95810594D01*
X121861334Y-95839095D01*
X121954954Y-95932715D01*
X122104175Y-96024756D01*
X122104180Y-96024758D01*
X122270602Y-96079905D01*
X122270609Y-96079906D01*
X122373319Y-96090399D01*
X122523299Y-96090399D01*
X123023300Y-96090399D01*
X123173272Y-96090399D01*
X123173286Y-96090398D01*
X123275997Y-96079905D01*
X123442419Y-96024758D01*
X123442424Y-96024756D01*
X123591645Y-95932715D01*
X123715615Y-95808745D01*
X123807656Y-95659524D01*
X123807658Y-95659519D01*
X123862805Y-95493097D01*
X123862806Y-95493090D01*
X123873299Y-95390386D01*
X123873300Y-95390373D01*
X123873300Y-95140400D01*
X123023300Y-95140400D01*
X123023300Y-96090399D01*
X122523299Y-96090399D01*
X122523300Y-96090398D01*
X122523300Y-94640400D01*
X123023300Y-94640400D01*
X123873299Y-94640400D01*
X123873299Y-94390428D01*
X123873298Y-94390413D01*
X123862805Y-94287702D01*
X123807658Y-94121280D01*
X123807653Y-94121270D01*
X123715615Y-93972054D01*
X123698547Y-93954986D01*
X130025001Y-93954986D01*
X130035494Y-94057697D01*
X130090641Y-94224119D01*
X130090643Y-94224124D01*
X130182684Y-94373345D01*
X130306654Y-94497315D01*
X130455875Y-94589356D01*
X130455880Y-94589358D01*
X130622302Y-94644505D01*
X130622309Y-94644506D01*
X130725019Y-94654999D01*
X131074999Y-94654999D01*
X131575000Y-94654999D01*
X131924972Y-94654999D01*
X131924986Y-94654998D01*
X132027697Y-94644505D01*
X132194119Y-94589358D01*
X132194124Y-94589356D01*
X132343345Y-94497315D01*
X132467315Y-94373345D01*
X132559356Y-94224124D01*
X132559358Y-94224119D01*
X132614505Y-94057697D01*
X132614506Y-94057690D01*
X132617847Y-94024986D01*
X138725001Y-94024986D01*
X138735494Y-94127697D01*
X138790641Y-94294119D01*
X138790643Y-94294124D01*
X138882684Y-94443345D01*
X139006654Y-94567315D01*
X139155875Y-94659356D01*
X139155880Y-94659358D01*
X139322302Y-94714505D01*
X139322309Y-94714506D01*
X139425019Y-94724999D01*
X139774999Y-94724999D01*
X140275000Y-94724999D01*
X140624972Y-94724999D01*
X140624986Y-94724998D01*
X140727697Y-94714505D01*
X140894119Y-94659358D01*
X140894124Y-94659356D01*
X141043345Y-94567315D01*
X141167315Y-94443345D01*
X141259356Y-94294124D01*
X141259358Y-94294119D01*
X141314505Y-94127697D01*
X141314506Y-94127690D01*
X141324999Y-94024986D01*
X141325000Y-94024973D01*
X141325000Y-92725000D01*
X140275000Y-92725000D01*
X140275000Y-94724999D01*
X139774999Y-94724999D01*
X139775000Y-94724998D01*
X139775000Y-92725000D01*
X138725001Y-92725000D01*
X138725001Y-94024986D01*
X132617847Y-94024986D01*
X132624999Y-93954986D01*
X132625000Y-93954973D01*
X132625000Y-92655000D01*
X131575000Y-92655000D01*
X131575000Y-94654999D01*
X131074999Y-94654999D01*
X131075000Y-94654998D01*
X131075000Y-92655000D01*
X130025001Y-92655000D01*
X130025001Y-93954986D01*
X123698547Y-93954986D01*
X123591645Y-93848084D01*
X123442424Y-93756043D01*
X123442419Y-93756041D01*
X123275997Y-93700894D01*
X123275990Y-93700893D01*
X123173286Y-93690400D01*
X123023300Y-93690400D01*
X123023300Y-94640400D01*
X122523300Y-94640400D01*
X122523300Y-93690400D01*
X122373327Y-93690400D01*
X122373312Y-93690401D01*
X122270602Y-93700894D01*
X122104180Y-93756041D01*
X122104175Y-93756043D01*
X121954957Y-93848082D01*
X121861334Y-93941705D01*
X121800010Y-93975189D01*
X121730319Y-93970205D01*
X121685972Y-93941704D01*
X121591957Y-93847689D01*
X121591956Y-93847688D01*
X121442634Y-93755586D01*
X121276097Y-93700401D01*
X121276095Y-93700400D01*
X121173310Y-93689900D01*
X120373298Y-93689900D01*
X120373280Y-93689901D01*
X120270503Y-93700400D01*
X120270500Y-93700401D01*
X120103968Y-93755585D01*
X120103963Y-93755587D01*
X119954642Y-93847689D01*
X119830589Y-93971742D01*
X119820728Y-93987728D01*
X119816407Y-93994736D01*
X119803293Y-94015997D01*
X119751345Y-94062721D01*
X119697754Y-94074900D01*
X118915638Y-94074900D01*
X118848599Y-94055215D01*
X118810099Y-94015997D01*
X118805673Y-94008821D01*
X118742712Y-93906744D01*
X118618656Y-93782688D01*
X118486046Y-93700894D01*
X118469336Y-93690587D01*
X118469331Y-93690585D01*
X118304774Y-93636056D01*
X118247329Y-93596283D01*
X118220506Y-93531767D01*
X118232821Y-93462991D01*
X118256093Y-93430673D01*
X118420451Y-93266316D01*
X118429535Y-93252720D01*
X118447334Y-93226084D01*
X118502583Y-93143396D01*
X118502585Y-93143393D01*
X118550865Y-93026834D01*
X118559158Y-93006813D01*
X118588000Y-92861818D01*
X118588000Y-91771448D01*
X118607685Y-91704409D01*
X118638996Y-91673671D01*
X118637987Y-91672395D01*
X118643654Y-91667913D01*
X118643653Y-91667913D01*
X118643656Y-91667912D01*
X118767712Y-91543856D01*
X118859814Y-91394534D01*
X118914999Y-91227997D01*
X118925500Y-91125209D01*
X118925499Y-90855013D01*
X130025000Y-90855013D01*
X130025000Y-92155000D01*
X131075000Y-92155000D01*
X131575000Y-92155000D01*
X132624999Y-92155000D01*
X132624999Y-90925013D01*
X138725000Y-90925013D01*
X138725000Y-92225000D01*
X139775000Y-92225000D01*
X140275000Y-92225000D01*
X141324999Y-92225000D01*
X141324999Y-90925028D01*
X141324998Y-90925013D01*
X141314505Y-90822302D01*
X141259358Y-90655880D01*
X141259356Y-90655875D01*
X141167315Y-90506654D01*
X141043345Y-90382684D01*
X140894124Y-90290643D01*
X140894119Y-90290641D01*
X140727697Y-90235494D01*
X140727690Y-90235493D01*
X140624986Y-90225000D01*
X140275000Y-90225000D01*
X140275000Y-92225000D01*
X139775000Y-92225000D01*
X139775000Y-90225000D01*
X139425028Y-90225000D01*
X139425012Y-90225001D01*
X139322302Y-90235494D01*
X139155880Y-90290641D01*
X139155875Y-90290643D01*
X139006654Y-90382684D01*
X138882684Y-90506654D01*
X138790643Y-90655875D01*
X138790641Y-90655880D01*
X138735494Y-90822302D01*
X138735493Y-90822309D01*
X138725000Y-90925013D01*
X132624999Y-90925013D01*
X132624999Y-90855028D01*
X132624998Y-90855013D01*
X132614505Y-90752302D01*
X132559358Y-90585880D01*
X132559356Y-90585875D01*
X132467315Y-90436654D01*
X132343345Y-90312684D01*
X132194124Y-90220643D01*
X132194119Y-90220641D01*
X132027697Y-90165494D01*
X132027690Y-90165493D01*
X131924986Y-90155000D01*
X131575000Y-90155000D01*
X131575000Y-92155000D01*
X131075000Y-92155000D01*
X131075000Y-90155000D01*
X130725028Y-90155000D01*
X130725012Y-90155001D01*
X130622302Y-90165494D01*
X130455880Y-90220641D01*
X130455875Y-90220643D01*
X130306654Y-90312684D01*
X130182684Y-90436654D01*
X130090643Y-90585875D01*
X130090641Y-90585880D01*
X130035494Y-90752302D01*
X130035493Y-90752309D01*
X130025000Y-90855013D01*
X118925499Y-90855013D01*
X118925499Y-90599742D01*
X118925499Y-90075198D01*
X118925498Y-90075180D01*
X118914999Y-89972403D01*
X118914998Y-89972400D01*
X118910723Y-89959500D01*
X118859814Y-89805866D01*
X118767712Y-89656544D01*
X118643656Y-89532488D01*
X118643653Y-89532485D01*
X118609401Y-89511358D01*
X118562678Y-89459410D01*
X118550500Y-89405821D01*
X118550500Y-87528957D01*
X118570185Y-87461918D01*
X118609407Y-87423416D01*
X118618656Y-87417712D01*
X118742712Y-87293656D01*
X118834814Y-87144334D01*
X118889999Y-86977797D01*
X118900500Y-86875009D01*
X118900499Y-85874992D01*
X118889999Y-85772203D01*
X118834814Y-85605666D01*
X118742712Y-85456344D01*
X118618656Y-85332288D01*
X118618655Y-85332287D01*
X118609402Y-85326580D01*
X118562678Y-85274632D01*
X118550500Y-85221042D01*
X118550500Y-82814378D01*
X118521659Y-82669391D01*
X118521658Y-82669390D01*
X118521658Y-82669386D01*
X118521656Y-82669381D01*
X118465087Y-82532810D01*
X118465080Y-82532797D01*
X118382952Y-82409884D01*
X118364426Y-82391358D01*
X118278416Y-82305348D01*
X117196610Y-81223542D01*
X116055250Y-80082181D01*
X116021765Y-80020858D01*
X116026749Y-79951166D01*
X116068621Y-79895233D01*
X116134085Y-79870816D01*
X116142931Y-79870500D01*
X121883920Y-79870500D01*
X121981462Y-79851096D01*
X122028913Y-79841658D01*
X122165495Y-79785084D01*
X122214729Y-79752186D01*
X122228909Y-79742712D01*
X122239071Y-79735921D01*
X122288416Y-79702952D01*
X123199548Y-78791817D01*
X123260871Y-78758333D01*
X123287229Y-78755499D01*
X123787502Y-78755499D01*
X123787508Y-78755499D01*
X123890297Y-78744999D01*
X124056834Y-78689814D01*
X124206156Y-78597712D01*
X124330212Y-78473656D01*
X124331961Y-78470819D01*
X124333669Y-78469283D01*
X124334693Y-78467989D01*
X124334914Y-78468163D01*
X124383906Y-78424096D01*
X124452868Y-78412872D01*
X124516951Y-78440713D01*
X124543037Y-78470817D01*
X124544788Y-78473656D01*
X124668844Y-78597712D01*
X124818166Y-78689814D01*
X124984703Y-78744999D01*
X125087491Y-78755500D01*
X125862508Y-78755499D01*
X125862516Y-78755498D01*
X125862519Y-78755498D01*
X125940980Y-78747483D01*
X125965297Y-78744999D01*
X126131834Y-78689814D01*
X126281156Y-78597712D01*
X126405212Y-78473656D01*
X126497314Y-78324334D01*
X126552499Y-78157797D01*
X126563000Y-78055009D01*
X126562999Y-77004992D01*
X126552499Y-76902203D01*
X126497314Y-76735666D01*
X126405212Y-76586344D01*
X126281156Y-76462288D01*
X126275489Y-76457807D01*
X126276930Y-76455984D01*
X126237675Y-76412335D01*
X126225500Y-76358752D01*
X126225500Y-75278957D01*
X126245185Y-75211918D01*
X126284407Y-75173416D01*
X126293656Y-75167712D01*
X126417712Y-75043656D01*
X126509814Y-74894334D01*
X126564999Y-74727797D01*
X126575500Y-74625009D01*
X126575499Y-73624992D01*
X126573312Y-73603587D01*
X126564999Y-73522203D01*
X126564998Y-73522200D01*
X126542951Y-73455666D01*
X126509814Y-73355666D01*
X126417712Y-73206344D01*
X126293656Y-73082288D01*
X126168413Y-73005038D01*
X126121690Y-72953091D01*
X126110467Y-72884129D01*
X126138311Y-72820046D01*
X126196379Y-72781190D01*
X126233511Y-72775500D01*
X127062770Y-72775500D01*
X127129809Y-72795185D01*
G37*
%TD.AperFunction*%
%TD*%
%TA.AperFunction,Conductor*%
%TO.N,GNDS*%
G36*
X218923331Y-44470185D02*
G01*
X218969086Y-44522989D01*
X218980253Y-44571381D01*
X219024461Y-46328635D01*
X219024500Y-46331754D01*
X219024500Y-100900500D01*
X219004815Y-100967539D01*
X218952011Y-101013294D01*
X218900500Y-101024500D01*
X172022886Y-101024500D01*
X171955847Y-101004815D01*
X171910092Y-100952011D01*
X171898886Y-100900705D01*
X171889943Y-95486695D01*
X171885983Y-93089704D01*
X171905557Y-93022633D01*
X171958285Y-92976791D01*
X172009983Y-92965500D01*
X181215270Y-92965500D01*
X181282309Y-92985185D01*
X181302951Y-93001819D01*
X181600681Y-93299549D01*
X181634166Y-93360872D01*
X181637000Y-93387230D01*
X181637000Y-93875001D01*
X181637001Y-93875019D01*
X181647500Y-93977796D01*
X181647501Y-93977799D01*
X181686887Y-94096656D01*
X181702686Y-94144334D01*
X181794788Y-94293656D01*
X181918844Y-94417712D01*
X182068166Y-94509814D01*
X182234703Y-94564999D01*
X182337491Y-94575500D01*
X183137508Y-94575499D01*
X183137516Y-94575498D01*
X183137519Y-94575498D01*
X183193802Y-94569748D01*
X183240297Y-94564999D01*
X183406834Y-94509814D01*
X183556156Y-94417712D01*
X183649819Y-94324049D01*
X183711142Y-94290564D01*
X183780834Y-94295548D01*
X183825181Y-94324049D01*
X183918844Y-94417712D01*
X184068166Y-94509814D01*
X184234703Y-94564999D01*
X184337491Y-94575500D01*
X185137508Y-94575499D01*
X185137516Y-94575498D01*
X185137519Y-94575498D01*
X185193802Y-94569748D01*
X185240297Y-94564999D01*
X185406834Y-94509814D01*
X185556156Y-94417712D01*
X185680212Y-94293656D01*
X185747599Y-94184402D01*
X185799547Y-94137679D01*
X185853138Y-94125500D01*
X191661420Y-94125500D01*
X191758962Y-94106096D01*
X191806413Y-94096658D01*
X191942995Y-94040084D01*
X191992229Y-94007186D01*
X192065916Y-93957952D01*
X192974548Y-93049317D01*
X193035871Y-93015833D01*
X193062229Y-93012999D01*
X193666097Y-93012999D01*
X193732882Y-93006931D01*
X193732885Y-93006930D01*
X193732887Y-93006930D01*
X193886602Y-92959031D01*
X194024388Y-92875736D01*
X194138236Y-92761888D01*
X194221531Y-92624102D01*
X194269430Y-92470387D01*
X194275500Y-92403591D01*
X194275499Y-91971410D01*
X194275499Y-91971409D01*
X194275499Y-91971401D01*
X194269431Y-91904617D01*
X194269428Y-91904606D01*
X194221532Y-91750901D01*
X194221531Y-91750900D01*
X194221531Y-91750898D01*
X194138236Y-91613112D01*
X194138234Y-91613110D01*
X194138233Y-91613108D01*
X194024391Y-91499266D01*
X194014593Y-91493343D01*
X193886602Y-91415969D01*
X193732887Y-91368070D01*
X193732885Y-91368069D01*
X193732883Y-91368069D01*
X193686117Y-91363819D01*
X193666091Y-91362000D01*
X193666088Y-91362000D01*
X191883901Y-91362000D01*
X191817117Y-91368068D01*
X191817106Y-91368071D01*
X191663401Y-91415967D01*
X191525608Y-91499266D01*
X191411766Y-91613108D01*
X191328469Y-91750897D01*
X191280569Y-91904616D01*
X191274500Y-91971411D01*
X191274500Y-92403598D01*
X191280568Y-92470380D01*
X191281748Y-92476310D01*
X191275519Y-92545902D01*
X191232656Y-92601079D01*
X191166765Y-92624322D01*
X191160130Y-92624500D01*
X186174500Y-92624500D01*
X186107461Y-92604815D01*
X186061706Y-92552011D01*
X186050500Y-92500500D01*
X186050500Y-91021411D01*
X194694500Y-91021411D01*
X194694500Y-91453598D01*
X194700568Y-91520382D01*
X194700571Y-91520393D01*
X194748467Y-91674098D01*
X194748468Y-91674100D01*
X194748469Y-91674102D01*
X194794894Y-91750898D01*
X194831766Y-91811891D01*
X194945608Y-91925733D01*
X194945610Y-91925734D01*
X194945612Y-91925736D01*
X195083398Y-92009031D01*
X195237113Y-92056930D01*
X195303909Y-92063000D01*
X197086090Y-92062999D01*
X197086097Y-92062999D01*
X197152882Y-92056931D01*
X197152885Y-92056930D01*
X197152887Y-92056930D01*
X197306602Y-92009031D01*
X197311811Y-92005881D01*
X197375959Y-91988000D01*
X199158919Y-91988000D01*
X199183184Y-91983173D01*
X199255143Y-91968859D01*
X199324733Y-91975086D01*
X199379911Y-92017948D01*
X199400951Y-92066284D01*
X199425840Y-92191407D01*
X199425843Y-92191417D01*
X199482414Y-92327992D01*
X199482415Y-92327994D01*
X199482416Y-92327995D01*
X199507789Y-92365969D01*
X199515312Y-92377227D01*
X199515313Y-92377230D01*
X199564546Y-92450914D01*
X199564552Y-92450921D01*
X200068901Y-92955269D01*
X200102386Y-93016592D01*
X200097402Y-93086283D01*
X200055531Y-93142217D01*
X200020225Y-93160656D01*
X199855666Y-93215186D01*
X199855663Y-93215187D01*
X199706342Y-93307289D01*
X199582289Y-93431342D01*
X199582288Y-93431344D01*
X199523281Y-93527011D01*
X199514901Y-93540597D01*
X199462953Y-93587321D01*
X199409362Y-93599500D01*
X197802137Y-93599500D01*
X197735098Y-93579815D01*
X197689343Y-93527011D01*
X197679399Y-93457853D01*
X197683751Y-93438610D01*
X197689430Y-93420387D01*
X197695500Y-93353591D01*
X197695499Y-92921410D01*
X197695499Y-92921409D01*
X197695499Y-92921401D01*
X197689431Y-92854617D01*
X197689428Y-92854606D01*
X197641532Y-92700901D01*
X197641531Y-92700900D01*
X197641531Y-92700898D01*
X197558236Y-92563112D01*
X197558234Y-92563110D01*
X197558233Y-92563108D01*
X197444391Y-92449266D01*
X197368847Y-92403598D01*
X197306602Y-92365969D01*
X197152887Y-92318070D01*
X197152885Y-92318069D01*
X197152883Y-92318069D01*
X197106117Y-92313819D01*
X197086091Y-92312000D01*
X197086088Y-92312000D01*
X195303901Y-92312000D01*
X195237117Y-92318068D01*
X195237106Y-92318071D01*
X195083401Y-92365967D01*
X194945608Y-92449266D01*
X194831766Y-92563108D01*
X194748469Y-92700897D01*
X194700569Y-92854616D01*
X194694500Y-92921411D01*
X194694500Y-93353598D01*
X194700568Y-93420382D01*
X194700571Y-93420393D01*
X194748467Y-93574098D01*
X194748468Y-93574100D01*
X194748469Y-93574102D01*
X194763823Y-93599500D01*
X194831766Y-93711891D01*
X194945608Y-93825733D01*
X194945610Y-93825734D01*
X194945612Y-93825736D01*
X195083398Y-93909031D01*
X195237113Y-93956930D01*
X195303909Y-93963000D01*
X195907769Y-93962999D01*
X195974808Y-93982683D01*
X195995450Y-93999318D01*
X196929086Y-94932954D01*
X196958558Y-94952645D01*
X197002770Y-94982186D01*
X197052005Y-95015084D01*
X197052006Y-95015084D01*
X197052007Y-95015085D01*
X197052009Y-95015086D01*
X197188582Y-95071656D01*
X197188587Y-95071658D01*
X197188591Y-95071658D01*
X197188592Y-95071659D01*
X197333579Y-95100500D01*
X197333582Y-95100500D01*
X197333583Y-95100500D01*
X197481417Y-95100500D01*
X199409362Y-95100500D01*
X199419152Y-95103374D01*
X199429278Y-95102110D01*
X199452109Y-95113052D01*
X199476401Y-95120185D01*
X199484760Y-95128700D01*
X199492286Y-95132307D01*
X199514899Y-95159401D01*
X199581039Y-95266631D01*
X199599500Y-95331727D01*
X199599500Y-95545396D01*
X199590062Y-95592844D01*
X199580263Y-95616503D01*
X199580262Y-95616506D01*
X199580260Y-95616511D01*
X199549500Y-95771153D01*
X199549500Y-95928846D01*
X199580261Y-96083489D01*
X199580264Y-96083501D01*
X199640602Y-96229171D01*
X199640610Y-96229186D01*
X199654338Y-96249731D01*
X199667232Y-96269028D01*
X199678690Y-96290464D01*
X199684914Y-96305492D01*
X199767050Y-96428418D01*
X199871580Y-96532948D01*
X199871584Y-96532951D01*
X199994498Y-96615080D01*
X199994511Y-96615087D01*
X200131082Y-96671656D01*
X200131087Y-96671658D01*
X200131091Y-96671658D01*
X200131092Y-96671659D01*
X200276079Y-96700500D01*
X200276082Y-96700500D01*
X200423920Y-96700500D01*
X200521462Y-96681096D01*
X200568913Y-96671658D01*
X200705495Y-96615084D01*
X200828416Y-96532951D01*
X200932951Y-96428416D01*
X201015084Y-96305495D01*
X201021310Y-96290464D01*
X201032768Y-96269027D01*
X201036534Y-96263389D01*
X201059394Y-96229179D01*
X201119737Y-96083497D01*
X201150500Y-95928842D01*
X201150500Y-95771158D01*
X201150500Y-95771155D01*
X201121083Y-95623271D01*
X201127310Y-95553679D01*
X201170173Y-95498502D01*
X201190299Y-95486695D01*
X201194323Y-95484817D01*
X201194334Y-95484814D01*
X201343656Y-95392712D01*
X201437319Y-95299049D01*
X201498642Y-95265564D01*
X201568334Y-95270548D01*
X201612681Y-95299049D01*
X201706344Y-95392712D01*
X201855666Y-95484814D01*
X202022203Y-95539999D01*
X202124991Y-95550500D01*
X202925008Y-95550499D01*
X202925016Y-95550498D01*
X202925019Y-95550498D01*
X202981302Y-95544748D01*
X203027797Y-95539999D01*
X203194334Y-95484814D01*
X203343656Y-95392712D01*
X203467712Y-95268656D01*
X203559814Y-95119334D01*
X203614999Y-94952797D01*
X203625500Y-94850009D01*
X203625499Y-93849992D01*
X203614999Y-93747203D01*
X203559814Y-93580666D01*
X203467712Y-93431344D01*
X203343656Y-93307288D01*
X203194334Y-93215186D01*
X203027797Y-93160001D01*
X203027795Y-93160000D01*
X202925016Y-93149500D01*
X202925009Y-93149500D01*
X202437230Y-93149500D01*
X202370191Y-93129815D01*
X202349549Y-93113181D01*
X200934319Y-91697951D01*
X200900834Y-91636628D01*
X200898000Y-91610270D01*
X200898000Y-91339141D01*
X200917685Y-91272102D01*
X200970489Y-91226347D01*
X200978649Y-91222966D01*
X200989831Y-91218796D01*
X200990422Y-91218354D01*
X201027947Y-91190261D01*
X201105046Y-91132546D01*
X201191296Y-91017331D01*
X201241591Y-90882483D01*
X201248000Y-90822873D01*
X201248000Y-90822844D01*
X201847500Y-90822844D01*
X201853901Y-90882372D01*
X201853903Y-90882379D01*
X201904145Y-91017086D01*
X201904149Y-91017093D01*
X201990309Y-91132187D01*
X201990312Y-91132190D01*
X202105406Y-91218350D01*
X202105413Y-91218354D01*
X202240120Y-91268596D01*
X202240127Y-91268598D01*
X202299655Y-91274999D01*
X202299672Y-91275000D01*
X202697500Y-91275000D01*
X203197500Y-91275000D01*
X203595328Y-91275000D01*
X203595344Y-91274999D01*
X203654872Y-91268598D01*
X203654879Y-91268596D01*
X203789586Y-91218354D01*
X203789593Y-91218350D01*
X203904687Y-91132190D01*
X203904690Y-91132187D01*
X203990850Y-91017093D01*
X203990854Y-91017086D01*
X204041096Y-90882379D01*
X204041098Y-90882372D01*
X204047499Y-90822844D01*
X204047500Y-90822827D01*
X204047500Y-90425000D01*
X203197500Y-90425000D01*
X203197500Y-91275000D01*
X202697500Y-91275000D01*
X202697500Y-90425000D01*
X201847500Y-90425000D01*
X201847500Y-90822844D01*
X201248000Y-90822844D01*
X201247999Y-90162769D01*
X201247999Y-89527155D01*
X201847500Y-89527155D01*
X201847500Y-89925000D01*
X202697500Y-89925000D01*
X203197500Y-89925000D01*
X204047500Y-89925000D01*
X204047500Y-89527172D01*
X204047499Y-89527155D01*
X204041098Y-89467627D01*
X204041096Y-89467620D01*
X203990854Y-89332913D01*
X203990850Y-89332906D01*
X203904690Y-89217812D01*
X203904687Y-89217809D01*
X203789593Y-89131649D01*
X203789586Y-89131645D01*
X203654879Y-89081403D01*
X203654872Y-89081401D01*
X203595344Y-89075000D01*
X203197500Y-89075000D01*
X203197500Y-89925000D01*
X202697500Y-89925000D01*
X202697500Y-89075000D01*
X202299655Y-89075000D01*
X202240127Y-89081401D01*
X202240120Y-89081403D01*
X202105413Y-89131645D01*
X202105406Y-89131649D01*
X201990312Y-89217809D01*
X201990309Y-89217812D01*
X201904149Y-89332906D01*
X201904145Y-89332913D01*
X201853903Y-89467620D01*
X201853901Y-89467627D01*
X201847500Y-89527155D01*
X201247999Y-89527155D01*
X201247999Y-89527129D01*
X201247998Y-89527123D01*
X201247997Y-89527116D01*
X201241591Y-89467517D01*
X201237328Y-89456088D01*
X201191297Y-89332671D01*
X201191293Y-89332664D01*
X201105047Y-89217455D01*
X201105044Y-89217452D01*
X200989835Y-89131206D01*
X200989828Y-89131202D01*
X200854982Y-89080908D01*
X200854983Y-89080908D01*
X200795383Y-89074501D01*
X200795381Y-89074500D01*
X200795373Y-89074500D01*
X200795364Y-89074500D01*
X199499629Y-89074500D01*
X199499623Y-89074501D01*
X199440016Y-89080908D01*
X199305171Y-89131202D01*
X199305164Y-89131206D01*
X199189955Y-89217452D01*
X199189952Y-89217455D01*
X199103706Y-89332664D01*
X199103702Y-89332671D01*
X199053408Y-89467517D01*
X199047001Y-89527116D01*
X199047001Y-89527123D01*
X199047000Y-89527135D01*
X199047000Y-90162769D01*
X199027315Y-90229808D01*
X199010681Y-90250450D01*
X198810451Y-90450681D01*
X198749128Y-90484166D01*
X198722770Y-90487000D01*
X197375959Y-90487000D01*
X197311811Y-90469118D01*
X197306602Y-90465969D01*
X197152887Y-90418070D01*
X197152885Y-90418069D01*
X197152883Y-90418069D01*
X197106117Y-90413819D01*
X197086091Y-90412000D01*
X197086088Y-90412000D01*
X195303901Y-90412000D01*
X195237117Y-90418068D01*
X195237106Y-90418071D01*
X195083401Y-90465967D01*
X194945608Y-90549266D01*
X194831766Y-90663108D01*
X194748469Y-90800897D01*
X194700569Y-90954616D01*
X194694500Y-91021411D01*
X186050500Y-91021411D01*
X186050500Y-90334207D01*
X186070185Y-90267168D01*
X186109403Y-90228668D01*
X186181156Y-90184412D01*
X186305212Y-90060356D01*
X186397314Y-89911034D01*
X186452499Y-89744497D01*
X186463000Y-89641709D01*
X186462999Y-87341692D01*
X186462700Y-87338769D01*
X186452499Y-87238903D01*
X186452498Y-87238900D01*
X186422619Y-87148732D01*
X186397314Y-87072366D01*
X186305212Y-86923044D01*
X186181156Y-86798988D01*
X186031834Y-86706886D01*
X185865297Y-86651701D01*
X185865295Y-86651700D01*
X185762510Y-86641200D01*
X184837498Y-86641200D01*
X184837480Y-86641201D01*
X184734703Y-86651700D01*
X184734700Y-86651701D01*
X184568168Y-86706885D01*
X184568163Y-86706887D01*
X184418842Y-86798989D01*
X184294789Y-86923042D01*
X184202687Y-87072363D01*
X184202685Y-87072368D01*
X184202615Y-87072580D01*
X184147501Y-87238903D01*
X184147501Y-87238904D01*
X184147500Y-87238904D01*
X184137000Y-87341683D01*
X184137000Y-89641701D01*
X184137001Y-89641718D01*
X184147500Y-89744496D01*
X184147501Y-89744499D01*
X184197012Y-89893912D01*
X184202686Y-89911034D01*
X184294788Y-90060356D01*
X184418844Y-90184412D01*
X184490596Y-90228668D01*
X184537321Y-90280615D01*
X184549500Y-90334207D01*
X184549500Y-92050500D01*
X184529815Y-92117539D01*
X184477011Y-92163294D01*
X184425501Y-92174500D01*
X184337499Y-92174500D01*
X184337480Y-92174501D01*
X184234703Y-92185000D01*
X184234700Y-92185001D01*
X184068168Y-92240185D01*
X184068163Y-92240187D01*
X183918842Y-92332289D01*
X183825181Y-92425951D01*
X183763858Y-92459436D01*
X183694166Y-92454452D01*
X183649819Y-92425951D01*
X183556157Y-92332289D01*
X183556156Y-92332288D01*
X183406834Y-92240186D01*
X183240297Y-92185001D01*
X183240295Y-92185000D01*
X183137516Y-92174500D01*
X183137509Y-92174500D01*
X182649730Y-92174500D01*
X182582691Y-92154815D01*
X182562049Y-92138181D01*
X182055921Y-91632052D01*
X182055914Y-91632046D01*
X181982229Y-91582812D01*
X181982229Y-91582813D01*
X181932991Y-91549913D01*
X181796417Y-91493343D01*
X181796407Y-91493340D01*
X181651420Y-91464500D01*
X181651418Y-91464500D01*
X172007095Y-91464500D01*
X171940056Y-91444815D01*
X171894301Y-91392011D01*
X171883095Y-91340705D01*
X171880288Y-89641686D01*
X181012501Y-89641686D01*
X181022994Y-89744397D01*
X181078141Y-89910819D01*
X181078143Y-89910824D01*
X181170184Y-90060045D01*
X181294154Y-90184015D01*
X181443375Y-90276056D01*
X181443380Y-90276058D01*
X181609802Y-90331205D01*
X181609809Y-90331206D01*
X181712519Y-90341699D01*
X181924999Y-90341699D01*
X182425000Y-90341699D01*
X182637472Y-90341699D01*
X182637486Y-90341698D01*
X182740197Y-90331205D01*
X182906619Y-90276058D01*
X182906624Y-90276056D01*
X183055845Y-90184015D01*
X183179815Y-90060045D01*
X183271856Y-89910824D01*
X183271858Y-89910819D01*
X183327005Y-89744397D01*
X183327006Y-89744390D01*
X183337499Y-89641686D01*
X183337500Y-89641673D01*
X183337500Y-88741700D01*
X182425000Y-88741700D01*
X182425000Y-90341699D01*
X181924999Y-90341699D01*
X181925000Y-90341698D01*
X181925000Y-88741700D01*
X181012501Y-88741700D01*
X181012501Y-89641686D01*
X171880288Y-89641686D01*
X171878717Y-88690543D01*
X171876489Y-87341713D01*
X181012500Y-87341713D01*
X181012500Y-88241700D01*
X181925000Y-88241700D01*
X182425000Y-88241700D01*
X183337499Y-88241700D01*
X183337499Y-87341728D01*
X183337498Y-87341713D01*
X183327005Y-87239002D01*
X183271858Y-87072580D01*
X183271856Y-87072575D01*
X183179815Y-86923354D01*
X183055845Y-86799384D01*
X182906624Y-86707343D01*
X182906619Y-86707341D01*
X182740197Y-86652194D01*
X182740190Y-86652193D01*
X182637486Y-86641700D01*
X182425000Y-86641700D01*
X182425000Y-88241700D01*
X181925000Y-88241700D01*
X181925000Y-86641700D01*
X181712529Y-86641700D01*
X181712512Y-86641701D01*
X181609802Y-86652194D01*
X181443380Y-86707341D01*
X181443375Y-86707343D01*
X181294154Y-86799384D01*
X181170184Y-86923354D01*
X181078143Y-87072575D01*
X181078141Y-87072580D01*
X181022994Y-87239002D01*
X181022993Y-87239009D01*
X181012500Y-87341713D01*
X171876489Y-87341713D01*
X171876484Y-87338769D01*
X171876315Y-87236618D01*
X171895889Y-87169546D01*
X171912627Y-87148739D01*
X174816248Y-84245118D01*
X174877571Y-84211634D01*
X174903929Y-84208800D01*
X179245396Y-84208800D01*
X179292844Y-84218237D01*
X179316503Y-84228037D01*
X179316508Y-84228038D01*
X179316511Y-84228039D01*
X179471153Y-84258799D01*
X179471156Y-84258800D01*
X179471158Y-84258800D01*
X179628844Y-84258800D01*
X179628845Y-84258799D01*
X179705152Y-84243620D01*
X179783488Y-84228039D01*
X179783489Y-84228038D01*
X179783497Y-84228037D01*
X179807155Y-84218237D01*
X179854604Y-84208800D01*
X181195859Y-84208800D01*
X181262898Y-84228485D01*
X181308653Y-84281289D01*
X181312030Y-84289440D01*
X181316204Y-84300631D01*
X181316205Y-84300632D01*
X181316206Y-84300635D01*
X181402452Y-84415844D01*
X181402455Y-84415847D01*
X181517664Y-84502093D01*
X181517671Y-84502097D01*
X181652517Y-84552391D01*
X181652516Y-84552391D01*
X181659444Y-84553135D01*
X181712127Y-84558800D01*
X183007872Y-84558799D01*
X183067483Y-84552391D01*
X183202331Y-84502096D01*
X183317546Y-84415846D01*
X183403796Y-84300631D01*
X183454091Y-84165783D01*
X183460500Y-84106173D01*
X183460499Y-82810435D01*
X184059500Y-82810435D01*
X184059500Y-84106170D01*
X184059501Y-84106176D01*
X184065908Y-84165783D01*
X184116202Y-84300628D01*
X184116206Y-84300635D01*
X184202452Y-84415844D01*
X184202455Y-84415847D01*
X184317664Y-84502093D01*
X184317671Y-84502097D01*
X184352762Y-84515185D01*
X184452517Y-84552391D01*
X184512127Y-84558800D01*
X185147769Y-84558799D01*
X185214808Y-84578483D01*
X185235450Y-84595118D01*
X186873286Y-86232954D01*
X186902758Y-86252645D01*
X186946970Y-86282186D01*
X186996205Y-86315084D01*
X186996206Y-86315084D01*
X186996207Y-86315085D01*
X186996209Y-86315086D01*
X187132782Y-86371656D01*
X187132787Y-86371658D01*
X187132791Y-86371658D01*
X187132792Y-86371659D01*
X187277779Y-86400500D01*
X187277782Y-86400500D01*
X187277783Y-86400500D01*
X187425618Y-86400500D01*
X199409362Y-86400500D01*
X199476401Y-86420185D01*
X199514899Y-86459401D01*
X199582288Y-86568656D01*
X199706344Y-86692712D01*
X199855666Y-86784814D01*
X200022203Y-86839999D01*
X200124991Y-86850500D01*
X200925008Y-86850499D01*
X200925016Y-86850498D01*
X200925019Y-86850498D01*
X200981302Y-86844748D01*
X201027797Y-86839999D01*
X201194334Y-86784814D01*
X201343656Y-86692712D01*
X201437319Y-86599049D01*
X201498642Y-86565564D01*
X201568334Y-86570548D01*
X201612681Y-86599049D01*
X201706344Y-86692712D01*
X201855666Y-86784814D01*
X202022203Y-86839999D01*
X202124991Y-86850500D01*
X202925008Y-86850499D01*
X202925016Y-86850498D01*
X202925019Y-86850498D01*
X202981302Y-86844748D01*
X203027797Y-86839999D01*
X203194334Y-86784814D01*
X203343656Y-86692712D01*
X203467712Y-86568656D01*
X203559814Y-86419334D01*
X203614999Y-86252797D01*
X203625500Y-86150009D01*
X203625500Y-86124986D01*
X208637501Y-86124986D01*
X208647994Y-86227697D01*
X208703141Y-86394119D01*
X208703143Y-86394124D01*
X208795184Y-86543345D01*
X208919154Y-86667315D01*
X209068375Y-86759356D01*
X209068380Y-86759358D01*
X209234802Y-86814505D01*
X209234809Y-86814506D01*
X209337519Y-86824999D01*
X209487499Y-86824999D01*
X209487500Y-86824998D01*
X209487500Y-85875000D01*
X208637501Y-85875000D01*
X208637501Y-86124986D01*
X203625500Y-86124986D01*
X203625499Y-85662228D01*
X203645184Y-85595190D01*
X203661818Y-85574548D01*
X203794618Y-85441748D01*
X203855940Y-85408264D01*
X203925632Y-85413248D01*
X203929747Y-85414867D01*
X203941503Y-85419737D01*
X203941507Y-85419737D01*
X203941511Y-85419739D01*
X204096153Y-85450499D01*
X204096156Y-85450500D01*
X204096158Y-85450500D01*
X204253844Y-85450500D01*
X204253845Y-85450499D01*
X204408497Y-85419737D01*
X204554179Y-85359394D01*
X204685289Y-85271789D01*
X204796789Y-85160289D01*
X204820359Y-85125013D01*
X208637500Y-85125013D01*
X208637500Y-85375000D01*
X209487500Y-85375000D01*
X209487500Y-84425000D01*
X209337527Y-84425000D01*
X209337512Y-84425001D01*
X209234802Y-84435494D01*
X209068380Y-84490641D01*
X209068375Y-84490643D01*
X208919154Y-84582684D01*
X208795184Y-84706654D01*
X208703143Y-84855875D01*
X208703141Y-84855880D01*
X208647994Y-85022302D01*
X208647993Y-85022309D01*
X208637500Y-85125013D01*
X204820359Y-85125013D01*
X204832851Y-85106317D01*
X204868496Y-85052973D01*
X204884390Y-85029185D01*
X204884390Y-85029184D01*
X204884394Y-85029179D01*
X204944737Y-84883497D01*
X204975500Y-84728842D01*
X204975500Y-84571158D01*
X204975500Y-84571155D01*
X204975499Y-84571153D01*
X204969352Y-84540249D01*
X204944737Y-84416503D01*
X204943361Y-84413181D01*
X204884397Y-84270827D01*
X204884390Y-84270814D01*
X204796789Y-84139711D01*
X204796786Y-84139707D01*
X204685292Y-84028213D01*
X204685288Y-84028210D01*
X204554185Y-83940609D01*
X204554172Y-83940602D01*
X204408501Y-83880264D01*
X204408489Y-83880261D01*
X204253845Y-83849500D01*
X204253842Y-83849500D01*
X204096158Y-83849500D01*
X204096155Y-83849500D01*
X203941511Y-83880260D01*
X203941506Y-83880262D01*
X203941504Y-83880262D01*
X203941503Y-83880263D01*
X203917844Y-83890062D01*
X203870396Y-83899500D01*
X203451076Y-83899500D01*
X203422242Y-83905234D01*
X203422243Y-83905235D01*
X203306093Y-83928339D01*
X203306083Y-83928342D01*
X203226081Y-83961479D01*
X203226082Y-83961480D01*
X203226080Y-83961481D01*
X203169505Y-83984916D01*
X203104711Y-84028210D01*
X203094901Y-84034765D01*
X203046585Y-84067047D01*
X203046582Y-84067050D01*
X202700450Y-84413181D01*
X202639127Y-84446666D01*
X202612769Y-84449500D01*
X202124998Y-84449500D01*
X202124980Y-84449501D01*
X202022203Y-84460000D01*
X202022200Y-84460001D01*
X201855668Y-84515185D01*
X201855663Y-84515187D01*
X201706342Y-84607289D01*
X201612681Y-84700951D01*
X201551358Y-84734436D01*
X201481666Y-84729452D01*
X201437319Y-84700951D01*
X201343657Y-84607289D01*
X201343656Y-84607288D01*
X201231453Y-84538081D01*
X201194336Y-84515187D01*
X201194331Y-84515185D01*
X201154822Y-84502093D01*
X201027797Y-84460001D01*
X201027795Y-84460000D01*
X200925010Y-84449500D01*
X200124998Y-84449500D01*
X200124980Y-84449501D01*
X200022203Y-84460000D01*
X200022200Y-84460001D01*
X199855668Y-84515185D01*
X199855663Y-84515187D01*
X199706342Y-84607289D01*
X199582289Y-84731342D01*
X199514901Y-84840597D01*
X199462953Y-84887321D01*
X199409362Y-84899500D01*
X187713930Y-84899500D01*
X187646891Y-84879815D01*
X187626249Y-84863181D01*
X186296818Y-83533750D01*
X186263333Y-83472427D01*
X186260499Y-83446069D01*
X186260499Y-82810429D01*
X186260498Y-82810423D01*
X186260497Y-82810416D01*
X186254091Y-82750817D01*
X186248321Y-82735348D01*
X186203797Y-82615971D01*
X186203793Y-82615964D01*
X186117548Y-82500757D01*
X186117546Y-82500754D01*
X186117544Y-82500752D01*
X186117542Y-82500750D01*
X186100188Y-82487759D01*
X186058317Y-82431824D01*
X186050500Y-82388493D01*
X186050500Y-80367507D01*
X186070185Y-80300468D01*
X186109403Y-80261968D01*
X186181156Y-80217712D01*
X186305212Y-80093656D01*
X186397314Y-79944334D01*
X186452499Y-79777797D01*
X186463000Y-79675009D01*
X186462999Y-77374992D01*
X186462679Y-77371864D01*
X186452499Y-77272203D01*
X186452498Y-77272200D01*
X186431825Y-77209814D01*
X186397314Y-77105666D01*
X186305212Y-76956344D01*
X186181156Y-76832288D01*
X186031834Y-76740186D01*
X185865297Y-76685001D01*
X185865295Y-76685000D01*
X185762510Y-76674500D01*
X184837498Y-76674500D01*
X184837480Y-76674501D01*
X184734703Y-76685000D01*
X184734700Y-76685001D01*
X184568168Y-76740185D01*
X184568163Y-76740187D01*
X184418842Y-76832289D01*
X184294789Y-76956342D01*
X184202687Y-77105663D01*
X184202685Y-77105668D01*
X184202615Y-77105880D01*
X184147501Y-77272203D01*
X184147501Y-77272204D01*
X184147500Y-77272204D01*
X184137000Y-77374983D01*
X184137000Y-79675001D01*
X184137001Y-79675018D01*
X184147500Y-79777796D01*
X184147501Y-79777799D01*
X184202615Y-79944119D01*
X184202686Y-79944334D01*
X184294788Y-80093656D01*
X184418844Y-80217712D01*
X184490596Y-80261968D01*
X184537321Y-80313915D01*
X184549500Y-80367507D01*
X184549500Y-82243177D01*
X184529815Y-82310216D01*
X184477011Y-82355971D01*
X184454028Y-82363851D01*
X184452521Y-82364207D01*
X184317671Y-82414502D01*
X184317664Y-82414506D01*
X184202455Y-82500752D01*
X184202452Y-82500755D01*
X184116206Y-82615964D01*
X184116202Y-82615971D01*
X184065908Y-82750817D01*
X184061350Y-82793216D01*
X184059501Y-82810423D01*
X184059500Y-82810435D01*
X183460499Y-82810435D01*
X183460499Y-82810428D01*
X183454091Y-82750817D01*
X183448321Y-82735348D01*
X183403797Y-82615971D01*
X183403793Y-82615964D01*
X183317547Y-82500755D01*
X183317544Y-82500752D01*
X183202335Y-82414506D01*
X183202328Y-82414502D01*
X183067482Y-82364208D01*
X183067483Y-82364208D01*
X183007883Y-82357801D01*
X183007881Y-82357800D01*
X183007873Y-82357800D01*
X183007864Y-82357800D01*
X181712129Y-82357800D01*
X181712123Y-82357801D01*
X181652516Y-82364208D01*
X181517671Y-82414502D01*
X181517664Y-82414506D01*
X181402455Y-82500752D01*
X181402452Y-82500755D01*
X181316206Y-82615964D01*
X181316204Y-82615968D01*
X181316204Y-82615969D01*
X181312039Y-82627134D01*
X181270171Y-82683066D01*
X181204707Y-82707484D01*
X181195859Y-82707800D01*
X179854604Y-82707800D01*
X179807155Y-82698362D01*
X179783497Y-82688563D01*
X179783493Y-82688562D01*
X179783488Y-82688560D01*
X179628845Y-82657800D01*
X179628842Y-82657800D01*
X179471158Y-82657800D01*
X179471155Y-82657800D01*
X179316511Y-82688560D01*
X179316506Y-82688562D01*
X179316504Y-82688562D01*
X179316503Y-82688563D01*
X179292844Y-82698362D01*
X179245396Y-82707800D01*
X174467780Y-82707800D01*
X174329292Y-82735348D01*
X174329287Y-82735349D01*
X174322789Y-82736641D01*
X174322784Y-82736642D01*
X174186211Y-82793212D01*
X174186198Y-82793219D01*
X174063284Y-82875348D01*
X174063280Y-82875351D01*
X172083916Y-84854715D01*
X172022593Y-84888200D01*
X171952901Y-84883216D01*
X171896968Y-84841344D01*
X171872551Y-84775880D01*
X171872236Y-84767266D01*
X171863825Y-79674986D01*
X181012501Y-79674986D01*
X181022994Y-79777697D01*
X181078141Y-79944119D01*
X181078143Y-79944124D01*
X181170184Y-80093345D01*
X181294154Y-80217315D01*
X181443375Y-80309356D01*
X181443380Y-80309358D01*
X181609802Y-80364505D01*
X181609809Y-80364506D01*
X181712519Y-80374999D01*
X181924999Y-80374999D01*
X182425000Y-80374999D01*
X182637472Y-80374999D01*
X182637486Y-80374998D01*
X182740197Y-80364505D01*
X182906619Y-80309358D01*
X182906624Y-80309356D01*
X183055845Y-80217315D01*
X183179815Y-80093345D01*
X183271856Y-79944124D01*
X183271858Y-79944119D01*
X183327005Y-79777697D01*
X183327006Y-79777690D01*
X183337499Y-79674986D01*
X183337500Y-79674973D01*
X183337500Y-78775000D01*
X182425000Y-78775000D01*
X182425000Y-80374999D01*
X181924999Y-80374999D01*
X181925000Y-80374998D01*
X181925000Y-78775000D01*
X181012501Y-78775000D01*
X181012501Y-79674986D01*
X171863825Y-79674986D01*
X171858459Y-76426647D01*
X173249500Y-76426647D01*
X173249500Y-77573337D01*
X173249501Y-77573355D01*
X173259650Y-77672707D01*
X173259651Y-77672710D01*
X173312996Y-77833694D01*
X173313001Y-77833705D01*
X173402029Y-77978040D01*
X173402032Y-77978044D01*
X173521955Y-78097967D01*
X173521959Y-78097970D01*
X173666294Y-78186998D01*
X173666297Y-78186999D01*
X173666303Y-78187003D01*
X173827292Y-78240349D01*
X173926655Y-78250500D01*
X175073344Y-78250499D01*
X175073352Y-78250498D01*
X175073355Y-78250498D01*
X175127760Y-78244940D01*
X175172708Y-78240349D01*
X175333697Y-78187003D01*
X175478044Y-78097968D01*
X175597968Y-77978044D01*
X175687003Y-77833697D01*
X175740349Y-77672708D01*
X175750500Y-77573345D01*
X175750500Y-77375013D01*
X181012500Y-77375013D01*
X181012500Y-78275000D01*
X181925000Y-78275000D01*
X182425000Y-78275000D01*
X183337499Y-78275000D01*
X183337499Y-77375028D01*
X183337498Y-77375013D01*
X183327005Y-77272302D01*
X183271858Y-77105880D01*
X183271856Y-77105875D01*
X183179815Y-76956654D01*
X183055845Y-76832684D01*
X182906624Y-76740643D01*
X182906619Y-76740641D01*
X182740197Y-76685494D01*
X182740190Y-76685493D01*
X182637486Y-76675000D01*
X182425000Y-76675000D01*
X182425000Y-78275000D01*
X181925000Y-78275000D01*
X181925000Y-76675000D01*
X181712529Y-76675000D01*
X181712512Y-76675001D01*
X181609802Y-76685494D01*
X181443380Y-76740641D01*
X181443375Y-76740643D01*
X181294154Y-76832684D01*
X181170184Y-76956654D01*
X181078143Y-77105875D01*
X181078141Y-77105880D01*
X181022994Y-77272302D01*
X181022993Y-77272309D01*
X181012500Y-77375013D01*
X175750500Y-77375013D01*
X175750499Y-76993658D01*
X175750499Y-76426662D01*
X175750498Y-76426644D01*
X175740349Y-76327292D01*
X175740348Y-76327289D01*
X175687003Y-76166303D01*
X175686999Y-76166297D01*
X175686998Y-76166294D01*
X175597970Y-76021959D01*
X175597967Y-76021955D01*
X175478044Y-75902032D01*
X175478040Y-75902029D01*
X175333705Y-75813001D01*
X175333699Y-75812998D01*
X175333697Y-75812997D01*
X175333694Y-75812996D01*
X175172709Y-75759651D01*
X175073346Y-75749500D01*
X173926662Y-75749500D01*
X173926644Y-75749501D01*
X173827292Y-75759650D01*
X173827289Y-75759651D01*
X173666305Y-75812996D01*
X173666294Y-75813001D01*
X173521959Y-75902029D01*
X173521955Y-75902032D01*
X173402032Y-76021955D01*
X173402029Y-76021959D01*
X173313001Y-76166294D01*
X173312996Y-76166305D01*
X173259651Y-76327290D01*
X173249500Y-76426647D01*
X171858459Y-76426647D01*
X171856970Y-75524983D01*
X188337000Y-75524983D01*
X188337000Y-76575001D01*
X188337001Y-76575019D01*
X188347500Y-76677796D01*
X188347501Y-76677799D01*
X188368175Y-76740187D01*
X188402686Y-76844334D01*
X188494788Y-76993656D01*
X188618844Y-77117712D01*
X188768166Y-77209814D01*
X188934703Y-77264999D01*
X189037491Y-77275500D01*
X189812508Y-77275499D01*
X189812516Y-77275498D01*
X189812519Y-77275498D01*
X189868802Y-77269748D01*
X189915297Y-77264999D01*
X190081834Y-77209814D01*
X190231156Y-77117712D01*
X190355212Y-76993656D01*
X190356961Y-76990819D01*
X190358669Y-76989283D01*
X190359693Y-76987989D01*
X190359914Y-76988163D01*
X190408906Y-76944096D01*
X190477868Y-76932872D01*
X190541951Y-76960713D01*
X190568037Y-76990817D01*
X190569788Y-76993656D01*
X190693844Y-77117712D01*
X190843166Y-77209814D01*
X191009703Y-77264999D01*
X191112491Y-77275500D01*
X191887508Y-77275499D01*
X191887516Y-77275498D01*
X191887519Y-77275498D01*
X191943802Y-77269748D01*
X191990297Y-77264999D01*
X192156834Y-77209814D01*
X192306156Y-77117712D01*
X192430212Y-76993656D01*
X192522314Y-76844334D01*
X192545953Y-76772995D01*
X192585726Y-76715551D01*
X192650242Y-76688728D01*
X192663659Y-76688000D01*
X194592672Y-76688000D01*
X194627267Y-76692924D01*
X194772426Y-76735097D01*
X194772429Y-76735097D01*
X194772431Y-76735098D01*
X194809306Y-76738000D01*
X195150270Y-76738000D01*
X195217309Y-76757685D01*
X195237951Y-76774319D01*
X198771586Y-80307954D01*
X198801058Y-80327645D01*
X198845270Y-80357186D01*
X198894505Y-80390084D01*
X198894506Y-80390084D01*
X198894507Y-80390085D01*
X198894509Y-80390086D01*
X199031082Y-80446656D01*
X199031087Y-80446658D01*
X199031091Y-80446658D01*
X199031092Y-80446659D01*
X199176079Y-80475500D01*
X199176082Y-80475500D01*
X199176083Y-80475500D01*
X199323918Y-80475500D01*
X208621862Y-80475500D01*
X208688901Y-80495185D01*
X208727399Y-80534401D01*
X208794788Y-80643656D01*
X208918844Y-80767712D01*
X208928091Y-80773416D01*
X208974818Y-80825360D01*
X208987000Y-80878957D01*
X208987000Y-81521042D01*
X208967315Y-81588081D01*
X208928098Y-81626580D01*
X208918844Y-81632287D01*
X208794789Y-81756342D01*
X208702687Y-81905663D01*
X208702686Y-81905666D01*
X208647501Y-82072203D01*
X208647501Y-82072204D01*
X208647500Y-82072204D01*
X208637000Y-82174983D01*
X208637000Y-83175001D01*
X208637001Y-83175019D01*
X208647500Y-83277796D01*
X208647501Y-83277799D01*
X208702685Y-83444331D01*
X208702686Y-83444334D01*
X208794788Y-83593656D01*
X208918844Y-83717712D01*
X209068166Y-83809814D01*
X209234703Y-83864999D01*
X209337491Y-83875500D01*
X210137508Y-83875499D01*
X210137516Y-83875498D01*
X210137519Y-83875498D01*
X210193802Y-83869748D01*
X210240297Y-83864999D01*
X210406834Y-83809814D01*
X210556156Y-83717712D01*
X210649819Y-83624049D01*
X210655893Y-83620731D01*
X210659851Y-83615052D01*
X210686164Y-83604202D01*
X210711142Y-83590564D01*
X210718046Y-83591057D01*
X210724446Y-83588419D01*
X210752444Y-83593517D01*
X210780834Y-83595548D01*
X210788022Y-83599996D01*
X210793185Y-83600937D01*
X210814971Y-83616674D01*
X210822144Y-83621113D01*
X210823676Y-83622544D01*
X210918844Y-83717712D01*
X210938616Y-83729907D01*
X210947644Y-83738340D01*
X210959387Y-83758205D01*
X210974818Y-83775360D01*
X210978123Y-83789901D01*
X210983198Y-83798487D01*
X210982757Y-83810289D01*
X210987000Y-83828957D01*
X210987000Y-84471042D01*
X210967315Y-84538081D01*
X210928098Y-84576580D01*
X210918846Y-84582286D01*
X210824827Y-84676305D01*
X210763503Y-84709789D01*
X210693812Y-84704805D01*
X210649465Y-84676304D01*
X210555845Y-84582684D01*
X210406624Y-84490643D01*
X210406619Y-84490641D01*
X210240197Y-84435494D01*
X210240190Y-84435493D01*
X210137486Y-84425000D01*
X209987500Y-84425000D01*
X209987500Y-86824999D01*
X210137472Y-86824999D01*
X210137486Y-86824998D01*
X210240197Y-86814505D01*
X210406619Y-86759358D01*
X210406624Y-86759356D01*
X210555842Y-86667317D01*
X210649464Y-86573695D01*
X210710787Y-86540210D01*
X210780479Y-86545194D01*
X210824827Y-86573695D01*
X210918844Y-86667712D01*
X211068166Y-86759814D01*
X211234703Y-86814999D01*
X211337491Y-86825500D01*
X212137508Y-86825499D01*
X212137516Y-86825498D01*
X212137519Y-86825498D01*
X212193802Y-86819748D01*
X212240297Y-86814999D01*
X212406834Y-86759814D01*
X212556156Y-86667712D01*
X212680212Y-86543656D01*
X212772314Y-86394334D01*
X212827499Y-86227797D01*
X212838000Y-86125009D01*
X212837999Y-85124992D01*
X212827499Y-85022203D01*
X212772314Y-84855666D01*
X212680212Y-84706344D01*
X212556156Y-84582288D01*
X212556155Y-84582287D01*
X212546902Y-84576580D01*
X212500178Y-84524632D01*
X212488000Y-84471042D01*
X212488000Y-83828957D01*
X212507685Y-83761918D01*
X212546907Y-83723416D01*
X212556156Y-83717712D01*
X212680212Y-83593656D01*
X212772314Y-83444334D01*
X212827499Y-83277797D01*
X212838000Y-83175009D01*
X212837999Y-82174992D01*
X212827499Y-82072203D01*
X212772314Y-81905666D01*
X212680212Y-81756344D01*
X212556156Y-81632288D01*
X212439107Y-81560092D01*
X212406836Y-81540187D01*
X212406831Y-81540185D01*
X212349061Y-81521042D01*
X212240297Y-81485001D01*
X212240295Y-81485000D01*
X212137510Y-81474500D01*
X211337498Y-81474500D01*
X211337480Y-81474501D01*
X211234703Y-81485000D01*
X211234700Y-81485001D01*
X211068168Y-81540185D01*
X211068163Y-81540187D01*
X210918842Y-81632289D01*
X210825181Y-81725951D01*
X210819105Y-81729268D01*
X210815148Y-81734949D01*
X210788832Y-81745798D01*
X210763858Y-81759436D01*
X210756954Y-81758942D01*
X210750554Y-81761581D01*
X210722555Y-81756482D01*
X210694166Y-81754452D01*
X210686977Y-81750003D01*
X210681814Y-81749063D01*
X210660026Y-81733324D01*
X210652856Y-81728887D01*
X210651323Y-81727455D01*
X210556156Y-81632288D01*
X210536385Y-81620093D01*
X210527356Y-81611659D01*
X210515612Y-81591791D01*
X210500178Y-81574632D01*
X210496873Y-81560092D01*
X210491802Y-81551512D01*
X210492242Y-81539712D01*
X210488000Y-81521042D01*
X210488000Y-80878957D01*
X210507685Y-80811918D01*
X210546907Y-80773416D01*
X210556156Y-80767712D01*
X210649819Y-80674049D01*
X210711142Y-80640564D01*
X210780834Y-80645548D01*
X210825181Y-80674049D01*
X210918844Y-80767712D01*
X211068166Y-80859814D01*
X211234703Y-80914999D01*
X211337491Y-80925500D01*
X212137508Y-80925499D01*
X212137516Y-80925498D01*
X212137519Y-80925498D01*
X212193802Y-80919748D01*
X212240297Y-80914999D01*
X212406834Y-80859814D01*
X212556156Y-80767712D01*
X212680212Y-80643656D01*
X212747599Y-80534402D01*
X212799547Y-80487679D01*
X212853138Y-80475500D01*
X213335040Y-80475500D01*
X213382492Y-80484939D01*
X213466498Y-80519735D01*
X213466503Y-80519737D01*
X213621153Y-80550499D01*
X213621156Y-80550500D01*
X213621158Y-80550500D01*
X213823919Y-80550500D01*
X213823920Y-80550499D01*
X213968913Y-80521659D01*
X214105495Y-80465084D01*
X214228416Y-80382952D01*
X214332952Y-80278416D01*
X214415084Y-80155495D01*
X214471659Y-80018913D01*
X214500500Y-79873918D01*
X214500500Y-79726083D01*
X214500500Y-79671158D01*
X214500500Y-79671155D01*
X214500499Y-79671153D01*
X214469738Y-79516510D01*
X214469737Y-79516503D01*
X214469735Y-79516498D01*
X214409397Y-79370827D01*
X214409390Y-79370814D01*
X214321789Y-79239711D01*
X214321786Y-79239707D01*
X214210292Y-79128213D01*
X214210288Y-79128210D01*
X214079185Y-79040609D01*
X214079172Y-79040602D01*
X213933501Y-78980264D01*
X213933489Y-78980261D01*
X213778845Y-78949500D01*
X213778842Y-78949500D01*
X213621158Y-78949500D01*
X213621156Y-78949500D01*
X213542645Y-78965117D01*
X213507454Y-78972117D01*
X213483264Y-78974500D01*
X212853138Y-78974500D01*
X212786099Y-78954815D01*
X212747599Y-78915597D01*
X212680212Y-78806344D01*
X212556156Y-78682288D01*
X212406834Y-78590186D01*
X212240297Y-78535001D01*
X212240295Y-78535000D01*
X212137510Y-78524500D01*
X211337498Y-78524500D01*
X211337480Y-78524501D01*
X211234703Y-78535000D01*
X211234700Y-78535001D01*
X211068168Y-78590185D01*
X211068163Y-78590187D01*
X210918842Y-78682289D01*
X210825181Y-78775951D01*
X210763858Y-78809436D01*
X210694166Y-78804452D01*
X210649819Y-78775951D01*
X210556157Y-78682289D01*
X210556156Y-78682288D01*
X210406834Y-78590186D01*
X210240297Y-78535001D01*
X210240295Y-78535000D01*
X210137510Y-78524500D01*
X209337498Y-78524500D01*
X209337480Y-78524501D01*
X209234703Y-78535000D01*
X209234700Y-78535001D01*
X209068168Y-78590185D01*
X209068163Y-78590187D01*
X208918842Y-78682289D01*
X208794789Y-78806342D01*
X208727401Y-78915597D01*
X208675453Y-78962321D01*
X208621862Y-78974500D01*
X199612230Y-78974500D01*
X199545191Y-78954815D01*
X199524549Y-78938181D01*
X196736819Y-76150451D01*
X196722115Y-76123523D01*
X196705523Y-76097705D01*
X196704631Y-76091504D01*
X196703334Y-76089128D01*
X196700500Y-76062770D01*
X196700500Y-75911500D01*
X196720185Y-75844461D01*
X196772989Y-75798706D01*
X196824500Y-75787500D01*
X197087500Y-75787500D01*
X197587500Y-75787500D01*
X197990634Y-75787500D01*
X197990649Y-75787499D01*
X198027489Y-75784600D01*
X198027495Y-75784599D01*
X198185193Y-75738783D01*
X198185196Y-75738782D01*
X198326552Y-75655185D01*
X198326561Y-75655178D01*
X198442678Y-75539061D01*
X198442685Y-75539052D01*
X198526281Y-75397698D01*
X198572100Y-75239986D01*
X198572295Y-75237501D01*
X198572295Y-75237500D01*
X197587500Y-75237500D01*
X197587500Y-75787500D01*
X197087500Y-75787500D01*
X197087500Y-75237500D01*
X196431815Y-75237500D01*
X196368694Y-75220232D01*
X196310396Y-75185755D01*
X196310393Y-75185754D01*
X196152573Y-75139902D01*
X196152567Y-75139901D01*
X196115701Y-75137000D01*
X196115694Y-75137000D01*
X194809306Y-75137000D01*
X194809298Y-75137000D01*
X194772432Y-75139901D01*
X194772426Y-75139902D01*
X194627267Y-75182076D01*
X194592672Y-75187000D01*
X192549168Y-75187000D01*
X192482129Y-75167315D01*
X192443630Y-75128097D01*
X192430214Y-75106347D01*
X192430211Y-75106343D01*
X192306157Y-74982289D01*
X192306156Y-74982288D01*
X192156834Y-74890186D01*
X192017219Y-74843922D01*
X191959775Y-74804149D01*
X191932952Y-74739633D01*
X191945267Y-74670857D01*
X191968540Y-74638537D01*
X192046789Y-74560289D01*
X192134394Y-74429179D01*
X192194737Y-74283497D01*
X192225500Y-74128842D01*
X192225500Y-73971158D01*
X192225500Y-73971155D01*
X192225499Y-73971153D01*
X192194739Y-73816511D01*
X192194738Y-73816508D01*
X192194737Y-73816503D01*
X192184937Y-73792844D01*
X192175500Y-73745396D01*
X192175500Y-73245908D01*
X192195185Y-73178869D01*
X192239271Y-73140363D01*
X192238187Y-73138605D01*
X192244332Y-73134814D01*
X192244334Y-73134814D01*
X192393656Y-73042712D01*
X192517712Y-72918656D01*
X192585099Y-72809402D01*
X192637047Y-72762679D01*
X192690638Y-72750500D01*
X193062770Y-72750500D01*
X193129809Y-72770185D01*
X193150451Y-72786819D01*
X194188181Y-73824548D01*
X194221666Y-73885871D01*
X194224500Y-73912229D01*
X194224500Y-74253201D01*
X194227401Y-74290067D01*
X194227402Y-74290073D01*
X194273254Y-74447893D01*
X194273255Y-74447896D01*
X194356917Y-74589362D01*
X194356923Y-74589370D01*
X194473129Y-74705576D01*
X194473133Y-74705579D01*
X194473135Y-74705581D01*
X194614602Y-74789244D01*
X194656224Y-74801336D01*
X194772426Y-74835097D01*
X194772429Y-74835097D01*
X194772431Y-74835098D01*
X194809306Y-74838000D01*
X194809314Y-74838000D01*
X196115686Y-74838000D01*
X196115694Y-74838000D01*
X196152569Y-74835098D01*
X196152571Y-74835097D01*
X196152573Y-74835097D01*
X196249681Y-74806884D01*
X196310398Y-74789244D01*
X196368694Y-74754768D01*
X196431815Y-74737500D01*
X197087500Y-74737500D01*
X197587500Y-74737500D01*
X198572295Y-74737500D01*
X198572295Y-74737498D01*
X198572100Y-74735013D01*
X198526281Y-74577301D01*
X198442685Y-74435947D01*
X198442678Y-74435938D01*
X198326561Y-74319821D01*
X198326552Y-74319814D01*
X198185196Y-74236217D01*
X198185193Y-74236216D01*
X198027495Y-74190400D01*
X198027489Y-74190399D01*
X197990649Y-74187500D01*
X197587500Y-74187500D01*
X197587500Y-74737500D01*
X197087500Y-74737500D01*
X197087500Y-74187500D01*
X196824500Y-74187500D01*
X196757461Y-74167815D01*
X196711706Y-74115011D01*
X196700500Y-74063500D01*
X196700500Y-73821813D01*
X196700499Y-73821798D01*
X196700082Y-73816503D01*
X196697598Y-73784931D01*
X196651744Y-73627102D01*
X196568081Y-73485635D01*
X196568079Y-73485633D01*
X196568076Y-73485629D01*
X196451870Y-73369423D01*
X196451862Y-73369417D01*
X196310396Y-73285755D01*
X196310393Y-73285754D01*
X196152573Y-73239902D01*
X196152567Y-73239901D01*
X196115701Y-73237000D01*
X196115694Y-73237000D01*
X195774729Y-73237000D01*
X195707690Y-73217315D01*
X195687048Y-73200681D01*
X193903421Y-71417052D01*
X193903414Y-71417046D01*
X193829729Y-71367812D01*
X193829729Y-71367813D01*
X193780491Y-71334913D01*
X193643917Y-71278343D01*
X193643907Y-71278340D01*
X193498920Y-71249500D01*
X193498918Y-71249500D01*
X192690638Y-71249500D01*
X192623599Y-71229815D01*
X192585099Y-71190597D01*
X192517712Y-71081344D01*
X192393656Y-70957288D01*
X192244334Y-70865186D01*
X192077797Y-70810001D01*
X192077795Y-70810000D01*
X191975010Y-70799500D01*
X191174998Y-70799500D01*
X191174980Y-70799501D01*
X191072203Y-70810000D01*
X191072200Y-70810001D01*
X190905668Y-70865185D01*
X190905663Y-70865187D01*
X190756342Y-70957289D01*
X190662681Y-71050951D01*
X190601358Y-71084436D01*
X190531666Y-71079452D01*
X190487319Y-71050951D01*
X190393657Y-70957289D01*
X190393656Y-70957288D01*
X190244334Y-70865186D01*
X190077797Y-70810001D01*
X190077795Y-70810000D01*
X189975010Y-70799500D01*
X189174998Y-70799500D01*
X189174980Y-70799501D01*
X189072203Y-70810000D01*
X189072200Y-70810001D01*
X188905668Y-70865185D01*
X188905663Y-70865187D01*
X188756342Y-70957289D01*
X188632289Y-71081342D01*
X188540187Y-71230663D01*
X188540186Y-71230666D01*
X188485001Y-71397203D01*
X188485001Y-71397204D01*
X188485000Y-71397204D01*
X188474500Y-71499983D01*
X188474500Y-72500001D01*
X188474501Y-72500019D01*
X188485000Y-72602796D01*
X188485001Y-72602799D01*
X188540185Y-72769331D01*
X188540187Y-72769336D01*
X188632289Y-72918657D01*
X188638181Y-72924549D01*
X188671666Y-72985872D01*
X188674500Y-73012230D01*
X188674500Y-74878752D01*
X188654815Y-74945791D01*
X188623502Y-74976531D01*
X188624511Y-74977807D01*
X188618843Y-74982288D01*
X188494789Y-75106342D01*
X188402687Y-75255663D01*
X188402685Y-75255668D01*
X188387500Y-75301494D01*
X188347501Y-75422203D01*
X188347501Y-75422204D01*
X188347500Y-75422204D01*
X188337000Y-75524983D01*
X171856970Y-75524983D01*
X171850200Y-71426677D01*
X173250000Y-71426677D01*
X173250000Y-72573307D01*
X173250001Y-72573323D01*
X173260144Y-72672608D01*
X173313330Y-72833116D01*
X173313331Y-72833116D01*
X174125000Y-72021447D01*
X174125000Y-72049370D01*
X174150556Y-72144745D01*
X174199925Y-72230255D01*
X174269745Y-72300075D01*
X174355255Y-72349444D01*
X174450630Y-72375000D01*
X174478552Y-72375000D01*
X173666882Y-73186667D01*
X173827392Y-73239855D01*
X173827399Y-73239856D01*
X173926683Y-73249999D01*
X175073307Y-73249999D01*
X175073323Y-73249998D01*
X175172607Y-73239855D01*
X175333115Y-73186668D01*
X175333116Y-73186667D01*
X174521448Y-72375000D01*
X174549370Y-72375000D01*
X174644745Y-72349444D01*
X174730255Y-72300075D01*
X174800075Y-72230255D01*
X174849444Y-72144745D01*
X174875000Y-72049370D01*
X174875000Y-72021449D01*
X175686667Y-72833116D01*
X175739855Y-72672607D01*
X175739856Y-72672600D01*
X175749999Y-72573322D01*
X175749999Y-71426692D01*
X175749998Y-71426676D01*
X175739855Y-71327392D01*
X175686667Y-71166882D01*
X174875000Y-71978550D01*
X174875000Y-71950630D01*
X174849444Y-71855255D01*
X174800075Y-71769745D01*
X174730255Y-71699925D01*
X174644745Y-71650556D01*
X174549370Y-71625000D01*
X174521449Y-71625000D01*
X175333116Y-70813331D01*
X175333116Y-70813330D01*
X175172608Y-70760144D01*
X175073316Y-70750000D01*
X173926692Y-70750000D01*
X173926676Y-70750001D01*
X173827393Y-70760144D01*
X173827387Y-70760145D01*
X173666882Y-70813330D01*
X173666882Y-70813331D01*
X174478552Y-71625000D01*
X174450630Y-71625000D01*
X174355255Y-71650556D01*
X174269745Y-71699925D01*
X174199925Y-71769745D01*
X174150556Y-71855255D01*
X174125000Y-71950630D01*
X174125000Y-71978551D01*
X173313331Y-71166882D01*
X173313330Y-71166882D01*
X173260144Y-71327391D01*
X173250000Y-71426677D01*
X171850200Y-71426677D01*
X171841940Y-66426647D01*
X173249500Y-66426647D01*
X173249500Y-67573337D01*
X173249501Y-67573355D01*
X173259650Y-67672707D01*
X173259651Y-67672710D01*
X173312996Y-67833694D01*
X173313001Y-67833705D01*
X173402029Y-67978040D01*
X173402032Y-67978044D01*
X173521955Y-68097967D01*
X173521959Y-68097970D01*
X173666294Y-68186998D01*
X173666297Y-68186999D01*
X173666303Y-68187003D01*
X173827292Y-68240349D01*
X173926655Y-68250500D01*
X175073344Y-68250499D01*
X175073352Y-68250498D01*
X175073355Y-68250498D01*
X175127760Y-68244940D01*
X175172708Y-68240349D01*
X175333697Y-68187003D01*
X175478044Y-68097968D01*
X175597968Y-67978044D01*
X175687003Y-67833697D01*
X175740349Y-67672708D01*
X175750500Y-67573345D01*
X175750499Y-66449986D01*
X189125001Y-66449986D01*
X189135494Y-66552697D01*
X189190641Y-66719119D01*
X189190643Y-66719124D01*
X189282684Y-66868345D01*
X189406654Y-66992315D01*
X189555875Y-67084356D01*
X189555880Y-67084358D01*
X189722302Y-67139505D01*
X189722309Y-67139506D01*
X189825019Y-67149999D01*
X190174999Y-67149999D01*
X190675000Y-67149999D01*
X191024972Y-67149999D01*
X191024986Y-67149998D01*
X191127697Y-67139505D01*
X191294119Y-67084358D01*
X191294124Y-67084356D01*
X191443345Y-66992315D01*
X191567315Y-66868345D01*
X191659356Y-66719124D01*
X191659358Y-66719119D01*
X191714505Y-66552697D01*
X191714506Y-66552690D01*
X191724999Y-66449986D01*
X199375001Y-66449986D01*
X199385494Y-66552697D01*
X199440641Y-66719119D01*
X199440643Y-66719124D01*
X199532684Y-66868345D01*
X199656654Y-66992315D01*
X199805875Y-67084356D01*
X199805880Y-67084358D01*
X199972302Y-67139505D01*
X199972309Y-67139506D01*
X200075019Y-67149999D01*
X200424999Y-67149999D01*
X200925000Y-67149999D01*
X201274972Y-67149999D01*
X201274986Y-67149998D01*
X201377697Y-67139505D01*
X201544119Y-67084358D01*
X201544124Y-67084356D01*
X201693345Y-66992315D01*
X201817315Y-66868345D01*
X201909356Y-66719124D01*
X201909358Y-66719119D01*
X201964505Y-66552697D01*
X201964506Y-66552690D01*
X201974999Y-66449986D01*
X201975000Y-66449973D01*
X201975000Y-65150000D01*
X200925000Y-65150000D01*
X200925000Y-67149999D01*
X200424999Y-67149999D01*
X200425000Y-67149998D01*
X200425000Y-65150000D01*
X199375001Y-65150000D01*
X199375001Y-66449986D01*
X191724999Y-66449986D01*
X191725000Y-66449973D01*
X191725000Y-65150000D01*
X190675000Y-65150000D01*
X190675000Y-67149999D01*
X190174999Y-67149999D01*
X190175000Y-67149998D01*
X190175000Y-65150000D01*
X189125001Y-65150000D01*
X189125001Y-66449986D01*
X175750499Y-66449986D01*
X175750499Y-66426656D01*
X175740349Y-66327292D01*
X175687003Y-66166303D01*
X175686999Y-66166297D01*
X175686998Y-66166294D01*
X175597970Y-66021959D01*
X175597967Y-66021955D01*
X175478044Y-65902032D01*
X175478040Y-65902029D01*
X175333705Y-65813001D01*
X175333699Y-65812998D01*
X175333697Y-65812997D01*
X175333694Y-65812996D01*
X175172709Y-65759651D01*
X175073346Y-65749500D01*
X173926662Y-65749500D01*
X173926644Y-65749501D01*
X173827292Y-65759650D01*
X173827289Y-65759651D01*
X173666305Y-65812996D01*
X173666294Y-65813001D01*
X173521959Y-65902029D01*
X173521955Y-65902032D01*
X173402032Y-66021955D01*
X173402029Y-66021959D01*
X173313001Y-66166294D01*
X173312996Y-66166305D01*
X173259651Y-66327290D01*
X173249500Y-66426647D01*
X171841940Y-66426647D01*
X171833681Y-61426647D01*
X173249500Y-61426647D01*
X173249500Y-62573337D01*
X173249501Y-62573355D01*
X173259650Y-62672707D01*
X173259651Y-62672710D01*
X173312996Y-62833694D01*
X173313001Y-62833705D01*
X173402029Y-62978040D01*
X173402032Y-62978044D01*
X173521955Y-63097967D01*
X173521959Y-63097970D01*
X173666294Y-63186998D01*
X173666297Y-63186999D01*
X173666303Y-63187003D01*
X173827292Y-63240349D01*
X173926655Y-63250500D01*
X175073344Y-63250499D01*
X175073352Y-63250498D01*
X175073355Y-63250498D01*
X175127760Y-63244940D01*
X175172708Y-63240349D01*
X175333697Y-63187003D01*
X175478044Y-63097968D01*
X175589193Y-62986819D01*
X175650516Y-62953334D01*
X175676874Y-62950500D01*
X177403130Y-62950500D01*
X177470169Y-62970185D01*
X177515924Y-63022989D01*
X177520836Y-63035495D01*
X177565186Y-63169333D01*
X177565187Y-63169336D01*
X177576081Y-63186998D01*
X177657288Y-63318656D01*
X177781344Y-63442712D01*
X177930666Y-63534814D01*
X178097203Y-63589999D01*
X178199991Y-63600500D01*
X180300008Y-63600499D01*
X180402797Y-63589999D01*
X180569334Y-63534814D01*
X180718656Y-63442712D01*
X180842712Y-63318656D01*
X180934814Y-63169334D01*
X180989999Y-63002797D01*
X181000500Y-62900009D01*
X181000499Y-61499992D01*
X181000498Y-61499983D01*
X181499500Y-61499983D01*
X181499500Y-62900001D01*
X181499501Y-62900018D01*
X181510000Y-63002796D01*
X181510001Y-63002799D01*
X181565185Y-63169331D01*
X181565187Y-63169336D01*
X181576081Y-63186998D01*
X181657288Y-63318656D01*
X181781344Y-63442712D01*
X181930666Y-63534814D01*
X182097203Y-63589999D01*
X182199991Y-63600500D01*
X184300008Y-63600499D01*
X184402797Y-63589999D01*
X184569334Y-63534814D01*
X184718656Y-63442712D01*
X184811355Y-63350013D01*
X189125000Y-63350013D01*
X189125000Y-64650000D01*
X190175000Y-64650000D01*
X190675000Y-64650000D01*
X191724999Y-64650000D01*
X191724999Y-63350029D01*
X191724998Y-63350013D01*
X199375000Y-63350013D01*
X199375000Y-64650000D01*
X200425000Y-64650000D01*
X200925000Y-64650000D01*
X201974999Y-64650000D01*
X201974999Y-64224986D01*
X207000001Y-64224986D01*
X207010494Y-64327697D01*
X207065641Y-64494119D01*
X207065643Y-64494124D01*
X207157684Y-64643345D01*
X207281654Y-64767315D01*
X207430875Y-64859356D01*
X207430880Y-64859358D01*
X207597302Y-64914505D01*
X207597309Y-64914506D01*
X207700019Y-64924999D01*
X208599999Y-64924999D01*
X209100000Y-64924999D01*
X209999972Y-64924999D01*
X209999986Y-64924998D01*
X210102697Y-64914505D01*
X210269119Y-64859358D01*
X210269124Y-64859356D01*
X210418345Y-64767315D01*
X210542315Y-64643345D01*
X210634356Y-64494124D01*
X210634358Y-64494119D01*
X210689505Y-64327697D01*
X210689506Y-64327690D01*
X210699999Y-64224986D01*
X210700000Y-64224973D01*
X210700000Y-64012500D01*
X209100000Y-64012500D01*
X209100000Y-64924999D01*
X208599999Y-64924999D01*
X208600000Y-64924998D01*
X208600000Y-64012500D01*
X207000001Y-64012500D01*
X207000001Y-64224986D01*
X201974999Y-64224986D01*
X201974999Y-63350028D01*
X201974998Y-63350013D01*
X201970856Y-63309466D01*
X201970856Y-63309465D01*
X201969890Y-63300013D01*
X207000000Y-63300013D01*
X207000000Y-63512500D01*
X208600000Y-63512500D01*
X209100000Y-63512500D01*
X210699999Y-63512500D01*
X210699999Y-63300028D01*
X210699998Y-63300013D01*
X210689505Y-63197302D01*
X210634358Y-63030880D01*
X210634356Y-63030875D01*
X210542315Y-62881654D01*
X210418345Y-62757684D01*
X210269124Y-62665643D01*
X210269119Y-62665641D01*
X210102697Y-62610494D01*
X210102690Y-62610493D01*
X209999986Y-62600000D01*
X209100000Y-62600000D01*
X209100000Y-63512500D01*
X208600000Y-63512500D01*
X208600000Y-62600000D01*
X207700028Y-62600000D01*
X207700012Y-62600001D01*
X207597302Y-62610494D01*
X207430880Y-62665641D01*
X207430875Y-62665643D01*
X207281654Y-62757684D01*
X207157684Y-62881654D01*
X207065643Y-63030875D01*
X207065641Y-63030880D01*
X207010494Y-63197302D01*
X207010493Y-63197309D01*
X207000000Y-63300013D01*
X201969890Y-63300013D01*
X201964506Y-63247303D01*
X201909358Y-63080880D01*
X201909356Y-63080875D01*
X201817315Y-62931654D01*
X201693345Y-62807684D01*
X201544124Y-62715643D01*
X201544119Y-62715641D01*
X201377697Y-62660494D01*
X201377690Y-62660493D01*
X201274986Y-62650000D01*
X200925000Y-62650000D01*
X200925000Y-64650000D01*
X200425000Y-64650000D01*
X200425000Y-62650000D01*
X200075028Y-62650000D01*
X200075012Y-62650001D01*
X199972302Y-62660494D01*
X199805880Y-62715641D01*
X199805875Y-62715643D01*
X199656654Y-62807684D01*
X199532684Y-62931654D01*
X199440643Y-63080875D01*
X199440641Y-63080880D01*
X199385494Y-63247302D01*
X199385493Y-63247309D01*
X199375000Y-63350013D01*
X191724998Y-63350013D01*
X191724998Y-63350012D01*
X191714505Y-63247302D01*
X191659358Y-63080880D01*
X191659356Y-63080875D01*
X191567315Y-62931654D01*
X191443345Y-62807684D01*
X191294124Y-62715643D01*
X191294119Y-62715641D01*
X191127697Y-62660494D01*
X191127690Y-62660493D01*
X191024986Y-62650000D01*
X190675000Y-62650000D01*
X190675000Y-64650000D01*
X190175000Y-64650000D01*
X190175000Y-62650000D01*
X189825028Y-62650000D01*
X189825012Y-62650001D01*
X189722302Y-62660494D01*
X189555880Y-62715641D01*
X189555875Y-62715643D01*
X189406654Y-62807684D01*
X189282684Y-62931654D01*
X189190643Y-63080875D01*
X189190641Y-63080880D01*
X189135494Y-63247302D01*
X189135493Y-63247309D01*
X189125000Y-63350013D01*
X184811355Y-63350013D01*
X184842712Y-63318656D01*
X184858862Y-63292473D01*
X184865466Y-63281767D01*
X184934810Y-63169340D01*
X184934814Y-63169334D01*
X184979164Y-63035494D01*
X185018936Y-62978051D01*
X185083451Y-62951228D01*
X185096869Y-62950500D01*
X187798920Y-62950500D01*
X187896462Y-62931096D01*
X187943913Y-62921658D01*
X188080495Y-62865084D01*
X188129729Y-62832186D01*
X188203416Y-62782952D01*
X189329168Y-61657197D01*
X189390489Y-61623714D01*
X189460180Y-61628698D01*
X189481942Y-61639341D01*
X189499814Y-61650364D01*
X189555657Y-61684809D01*
X189555660Y-61684810D01*
X189555666Y-61684814D01*
X189722203Y-61739999D01*
X189824991Y-61750500D01*
X191025008Y-61750499D01*
X191127797Y-61739999D01*
X191294334Y-61684814D01*
X191443656Y-61592712D01*
X191567712Y-61468656D01*
X191659814Y-61319334D01*
X191714999Y-61152797D01*
X191725500Y-61050009D01*
X191725499Y-57949992D01*
X191725498Y-57949983D01*
X199374500Y-57949983D01*
X199374500Y-61050001D01*
X199374501Y-61050018D01*
X199385000Y-61152796D01*
X199385001Y-61152799D01*
X199440185Y-61319331D01*
X199440187Y-61319336D01*
X199471024Y-61369331D01*
X199532288Y-61468656D01*
X199656344Y-61592712D01*
X199805666Y-61684814D01*
X199972203Y-61739999D01*
X200074991Y-61750500D01*
X201275008Y-61750499D01*
X201377797Y-61739999D01*
X201544334Y-61684814D01*
X201693656Y-61592712D01*
X201817712Y-61468656D01*
X201909814Y-61319334D01*
X201964999Y-61152797D01*
X201975500Y-61050009D01*
X201975499Y-60174983D01*
X206999500Y-60174983D01*
X206999500Y-61100001D01*
X206999501Y-61100019D01*
X207010000Y-61202796D01*
X207010001Y-61202799D01*
X207054836Y-61338100D01*
X207065186Y-61369334D01*
X207157288Y-61518656D01*
X207281344Y-61642712D01*
X207430666Y-61734814D01*
X207597203Y-61789999D01*
X207699991Y-61800500D01*
X210000008Y-61800499D01*
X210102797Y-61789999D01*
X210269334Y-61734814D01*
X210418656Y-61642712D01*
X210542712Y-61518656D01*
X210634814Y-61369334D01*
X210689999Y-61202797D01*
X210700500Y-61100009D01*
X210700499Y-60477135D01*
X213574500Y-60477135D01*
X213574500Y-61922870D01*
X213574501Y-61922876D01*
X213580908Y-61982483D01*
X213631202Y-62117328D01*
X213631206Y-62117335D01*
X213717452Y-62232544D01*
X213717455Y-62232547D01*
X213802938Y-62296540D01*
X213844809Y-62352473D01*
X213849793Y-62422165D01*
X213828946Y-62468690D01*
X213745051Y-62584163D01*
X213661084Y-62748956D01*
X213661083Y-62748959D01*
X213603933Y-62924852D01*
X213575000Y-63107526D01*
X213575000Y-63292473D01*
X213603933Y-63475147D01*
X213661083Y-63651040D01*
X213661084Y-63651043D01*
X213745050Y-63815834D01*
X213760015Y-63836430D01*
X214350000Y-63246445D01*
X214350000Y-63252661D01*
X214377259Y-63354394D01*
X214429920Y-63445606D01*
X214504394Y-63520080D01*
X214595606Y-63572741D01*
X214697339Y-63600000D01*
X214703553Y-63600000D01*
X214113568Y-64189983D01*
X214113568Y-64189984D01*
X214134165Y-64204949D01*
X214298956Y-64288915D01*
X214298959Y-64288916D01*
X214474852Y-64346066D01*
X214657527Y-64375000D01*
X214842473Y-64375000D01*
X215025147Y-64346066D01*
X215201040Y-64288916D01*
X215201043Y-64288915D01*
X215365836Y-64204947D01*
X215365845Y-64204942D01*
X215386430Y-64189984D01*
X215386431Y-64189983D01*
X214796448Y-63600000D01*
X214802661Y-63600000D01*
X214904394Y-63572741D01*
X214995606Y-63520080D01*
X215070080Y-63445606D01*
X215122741Y-63354394D01*
X215150000Y-63252661D01*
X215150000Y-63246447D01*
X215739983Y-63836430D01*
X215739984Y-63836430D01*
X215754942Y-63815845D01*
X215754947Y-63815836D01*
X215838915Y-63651043D01*
X215838916Y-63651040D01*
X215896066Y-63475147D01*
X215925000Y-63292473D01*
X215925000Y-63107526D01*
X215896066Y-62924852D01*
X215838916Y-62748959D01*
X215838915Y-62748956D01*
X215754947Y-62584161D01*
X215671054Y-62468691D01*
X215647574Y-62402884D01*
X215663400Y-62334831D01*
X215697058Y-62296542D01*
X215782546Y-62232546D01*
X215868796Y-62117331D01*
X215919091Y-61982483D01*
X215925500Y-61922873D01*
X215925499Y-60477128D01*
X215919091Y-60417517D01*
X215868796Y-60282669D01*
X215868795Y-60282668D01*
X215868793Y-60282664D01*
X215782547Y-60167455D01*
X215782544Y-60167452D01*
X215667335Y-60081206D01*
X215667328Y-60081202D01*
X215532482Y-60030908D01*
X215532483Y-60030908D01*
X215472883Y-60024501D01*
X215472881Y-60024500D01*
X215472873Y-60024500D01*
X215472864Y-60024500D01*
X214027129Y-60024500D01*
X214027123Y-60024501D01*
X213967516Y-60030908D01*
X213832671Y-60081202D01*
X213832664Y-60081206D01*
X213717455Y-60167452D01*
X213717452Y-60167455D01*
X213631206Y-60282664D01*
X213631202Y-60282671D01*
X213580908Y-60417517D01*
X213574501Y-60477116D01*
X213574501Y-60477123D01*
X213574500Y-60477135D01*
X210700499Y-60477135D01*
X210700499Y-60174992D01*
X210700176Y-60171834D01*
X210689999Y-60072203D01*
X210689998Y-60072200D01*
X210674192Y-60024500D01*
X210634814Y-59905666D01*
X210542712Y-59756344D01*
X210418656Y-59632288D01*
X210269334Y-59540186D01*
X210102797Y-59485001D01*
X210102795Y-59485000D01*
X210000016Y-59474500D01*
X210000009Y-59474500D01*
X209724500Y-59474500D01*
X209657461Y-59454815D01*
X209611706Y-59402011D01*
X209600500Y-59350500D01*
X209600500Y-59029604D01*
X209609939Y-58982151D01*
X209619737Y-58958497D01*
X209650500Y-58803842D01*
X209650500Y-58646158D01*
X209650500Y-58646155D01*
X209650499Y-58646153D01*
X209619737Y-58491503D01*
X209563647Y-58356088D01*
X209559396Y-58345825D01*
X209559395Y-58345823D01*
X209532768Y-58305973D01*
X209521309Y-58284535D01*
X209517415Y-58275134D01*
X209515765Y-58270524D01*
X209432954Y-58146588D01*
X209432953Y-58146586D01*
X209432951Y-58146584D01*
X209360867Y-58074500D01*
X209278416Y-57992048D01*
X209155494Y-57909916D01*
X209155492Y-57909915D01*
X209155490Y-57909914D01*
X209018912Y-57853342D01*
X209018906Y-57853340D01*
X208873919Y-57824500D01*
X208873917Y-57824500D01*
X208726083Y-57824500D01*
X208726081Y-57824500D01*
X208581093Y-57853340D01*
X208581087Y-57853342D01*
X208444509Y-57909914D01*
X208444502Y-57909918D01*
X208384545Y-57949980D01*
X208321584Y-57992048D01*
X208321582Y-57992049D01*
X208321579Y-57992052D01*
X208321578Y-57992052D01*
X208217052Y-58096578D01*
X208217052Y-58096579D01*
X208217049Y-58096582D01*
X208217048Y-58096584D01*
X208183637Y-58146588D01*
X208134918Y-58219502D01*
X208134914Y-58219509D01*
X208078342Y-58356087D01*
X208078340Y-58356093D01*
X208049500Y-58501080D01*
X208049500Y-58803846D01*
X208080261Y-58958489D01*
X208080263Y-58958497D01*
X208090061Y-58982151D01*
X208099500Y-59029604D01*
X208099500Y-59350500D01*
X208079815Y-59417539D01*
X208027011Y-59463294D01*
X207975500Y-59474500D01*
X207699999Y-59474500D01*
X207699980Y-59474501D01*
X207597203Y-59485000D01*
X207597200Y-59485001D01*
X207430668Y-59540185D01*
X207430663Y-59540187D01*
X207281342Y-59632289D01*
X207157289Y-59756342D01*
X207065187Y-59905663D01*
X207065186Y-59905666D01*
X207010001Y-60072203D01*
X207010001Y-60072204D01*
X207010000Y-60072204D01*
X206999500Y-60174983D01*
X201975499Y-60174983D01*
X201975499Y-59485001D01*
X201975499Y-57949998D01*
X201975498Y-57949981D01*
X201964999Y-57847203D01*
X201964998Y-57847200D01*
X201960526Y-57833705D01*
X201909814Y-57680666D01*
X201817712Y-57531344D01*
X201693656Y-57407288D01*
X201544334Y-57315186D01*
X201544328Y-57315184D01*
X201510494Y-57303972D01*
X201453050Y-57264199D01*
X201426228Y-57199683D01*
X201425500Y-57186267D01*
X201425500Y-56507940D01*
X201445185Y-56440901D01*
X201461815Y-56420262D01*
X201484289Y-56397789D01*
X201571894Y-56266679D01*
X201632237Y-56120997D01*
X201663000Y-55966342D01*
X201663000Y-55808658D01*
X201663000Y-55808655D01*
X201662999Y-55808653D01*
X201651233Y-55749500D01*
X201632237Y-55654003D01*
X201627285Y-55642048D01*
X201571897Y-55508327D01*
X201571890Y-55508314D01*
X201484289Y-55377211D01*
X201484286Y-55377207D01*
X201372792Y-55265713D01*
X201372788Y-55265710D01*
X201241685Y-55178109D01*
X201241672Y-55178102D01*
X201096001Y-55117764D01*
X201095989Y-55117761D01*
X200941345Y-55087000D01*
X200941342Y-55087000D01*
X200783658Y-55087000D01*
X200783655Y-55087000D01*
X200629010Y-55117761D01*
X200628998Y-55117764D01*
X200483327Y-55178102D01*
X200483314Y-55178109D01*
X200352211Y-55265710D01*
X200352207Y-55265713D01*
X200240713Y-55377207D01*
X200240707Y-55377215D01*
X200153107Y-55508318D01*
X200153106Y-55508319D01*
X200143305Y-55531980D01*
X200126659Y-55560607D01*
X200121899Y-55566731D01*
X200092048Y-55596584D01*
X200053683Y-55654003D01*
X200051230Y-55657673D01*
X200051220Y-55657687D01*
X200009919Y-55719499D01*
X200009912Y-55719511D01*
X199953343Y-55856082D01*
X199953340Y-55856092D01*
X199924500Y-56001079D01*
X199924500Y-57186267D01*
X199904815Y-57253306D01*
X199852011Y-57299061D01*
X199839506Y-57303972D01*
X199805671Y-57315184D01*
X199805663Y-57315187D01*
X199656342Y-57407289D01*
X199532289Y-57531342D01*
X199440187Y-57680663D01*
X199440186Y-57680666D01*
X199385001Y-57847203D01*
X199385001Y-57847204D01*
X199385000Y-57847204D01*
X199374500Y-57949983D01*
X191725498Y-57949983D01*
X191721405Y-57909918D01*
X191714999Y-57847203D01*
X191714998Y-57847200D01*
X191710526Y-57833705D01*
X191659814Y-57680666D01*
X191567712Y-57531344D01*
X191443656Y-57407288D01*
X191294334Y-57315186D01*
X191294328Y-57315184D01*
X191260494Y-57303972D01*
X191203050Y-57264199D01*
X191176228Y-57199683D01*
X191175500Y-57186267D01*
X191175500Y-56754604D01*
X191184939Y-56707151D01*
X191194737Y-56683497D01*
X191225500Y-56528842D01*
X191225500Y-56371158D01*
X191225500Y-56371155D01*
X191225499Y-56371153D01*
X191194739Y-56216511D01*
X191194738Y-56216508D01*
X191194737Y-56216503D01*
X191184937Y-56192844D01*
X191177802Y-56156974D01*
X191176097Y-56157142D01*
X191175500Y-56151079D01*
X191146659Y-56006092D01*
X191146658Y-56006091D01*
X191146658Y-56006087D01*
X191130195Y-55966342D01*
X191090087Y-55869511D01*
X191090080Y-55869498D01*
X191007951Y-55746584D01*
X191007948Y-55746580D01*
X190903419Y-55642051D01*
X190903415Y-55642048D01*
X190780501Y-55559919D01*
X190780488Y-55559912D01*
X190643917Y-55503343D01*
X190643907Y-55503340D01*
X190498920Y-55474500D01*
X190498918Y-55474500D01*
X190351082Y-55474500D01*
X190351080Y-55474500D01*
X190206092Y-55503340D01*
X190206082Y-55503343D01*
X190069511Y-55559912D01*
X190069498Y-55559919D01*
X189946584Y-55642048D01*
X189946580Y-55642051D01*
X189842051Y-55746580D01*
X189842048Y-55746584D01*
X189759919Y-55869498D01*
X189759912Y-55869511D01*
X189703343Y-56006082D01*
X189703340Y-56006092D01*
X189674499Y-56151079D01*
X189673903Y-56157142D01*
X189672197Y-56156974D01*
X189665062Y-56192844D01*
X189655263Y-56216503D01*
X189655262Y-56216506D01*
X189655260Y-56216511D01*
X189624500Y-56371153D01*
X189624500Y-56528846D01*
X189655261Y-56683489D01*
X189655263Y-56683497D01*
X189665061Y-56707151D01*
X189674500Y-56754604D01*
X189674500Y-57186267D01*
X189654815Y-57253306D01*
X189602011Y-57299061D01*
X189589506Y-57303972D01*
X189555671Y-57315184D01*
X189555663Y-57315187D01*
X189406342Y-57407289D01*
X189282289Y-57531342D01*
X189190187Y-57680663D01*
X189190186Y-57680666D01*
X189135001Y-57847203D01*
X189135001Y-57847204D01*
X189135000Y-57847204D01*
X189124500Y-57949983D01*
X189124500Y-59687770D01*
X189104815Y-59754809D01*
X189088181Y-59775451D01*
X187450451Y-61413181D01*
X187389128Y-61446666D01*
X187362770Y-61449500D01*
X185096870Y-61449500D01*
X185029831Y-61429815D01*
X184984076Y-61377011D01*
X184979164Y-61364505D01*
X184964196Y-61319336D01*
X184934814Y-61230666D01*
X184842712Y-61081344D01*
X184718656Y-60957288D01*
X184569334Y-60865186D01*
X184402797Y-60810001D01*
X184402795Y-60810000D01*
X184300010Y-60799500D01*
X182199998Y-60799500D01*
X182199981Y-60799501D01*
X182097203Y-60810000D01*
X182097200Y-60810001D01*
X181930668Y-60865185D01*
X181930663Y-60865187D01*
X181781342Y-60957289D01*
X181657289Y-61081342D01*
X181565187Y-61230663D01*
X181565186Y-61230666D01*
X181510001Y-61397203D01*
X181510001Y-61397204D01*
X181510000Y-61397204D01*
X181499500Y-61499983D01*
X181000498Y-61499983D01*
X180989999Y-61397203D01*
X180934814Y-61230666D01*
X180842712Y-61081344D01*
X180718656Y-60957288D01*
X180569334Y-60865186D01*
X180402797Y-60810001D01*
X180402795Y-60810000D01*
X180300010Y-60799500D01*
X178199998Y-60799500D01*
X178199981Y-60799501D01*
X178097203Y-60810000D01*
X178097200Y-60810001D01*
X177930668Y-60865185D01*
X177930663Y-60865187D01*
X177781342Y-60957289D01*
X177657289Y-61081342D01*
X177565187Y-61230663D01*
X177565186Y-61230666D01*
X177520835Y-61364505D01*
X177481064Y-61421949D01*
X177416549Y-61448772D01*
X177403131Y-61449500D01*
X175864811Y-61449500D01*
X175797772Y-61429815D01*
X175752017Y-61377011D01*
X175741453Y-61338100D01*
X175740349Y-61327292D01*
X175740348Y-61327289D01*
X175708331Y-61230668D01*
X175687003Y-61166303D01*
X175686999Y-61166297D01*
X175686998Y-61166294D01*
X175597970Y-61021959D01*
X175597967Y-61021955D01*
X175478044Y-60902032D01*
X175478040Y-60902029D01*
X175333705Y-60813001D01*
X175333699Y-60812998D01*
X175333697Y-60812997D01*
X175324653Y-60810000D01*
X175172709Y-60759651D01*
X175073346Y-60749500D01*
X173926662Y-60749500D01*
X173926644Y-60749501D01*
X173827292Y-60759650D01*
X173827289Y-60759651D01*
X173666305Y-60812996D01*
X173666294Y-60813001D01*
X173521959Y-60902029D01*
X173521955Y-60902032D01*
X173402032Y-61021955D01*
X173402029Y-61021959D01*
X173313001Y-61166294D01*
X173312996Y-61166305D01*
X173259651Y-61327290D01*
X173249500Y-61426647D01*
X171833681Y-61426647D01*
X171825422Y-56426647D01*
X173249500Y-56426647D01*
X173249500Y-57573337D01*
X173249501Y-57573355D01*
X173259650Y-57672707D01*
X173259651Y-57672710D01*
X173312996Y-57833694D01*
X173313001Y-57833705D01*
X173402029Y-57978040D01*
X173402032Y-57978044D01*
X173521955Y-58097967D01*
X173521959Y-58097970D01*
X173666294Y-58186998D01*
X173666297Y-58186999D01*
X173666303Y-58187003D01*
X173827292Y-58240349D01*
X173926655Y-58250500D01*
X175073344Y-58250499D01*
X175073352Y-58250498D01*
X175073355Y-58250498D01*
X175127760Y-58244940D01*
X175172708Y-58240349D01*
X175333697Y-58187003D01*
X175478044Y-58097968D01*
X175597968Y-57978044D01*
X175687003Y-57833697D01*
X175740349Y-57672708D01*
X175750500Y-57573345D01*
X175750499Y-56426656D01*
X175749845Y-56420257D01*
X175740349Y-56327292D01*
X175740348Y-56327289D01*
X175720264Y-56266679D01*
X175687003Y-56166303D01*
X175686999Y-56166297D01*
X175686998Y-56166294D01*
X175597970Y-56021959D01*
X175597967Y-56021955D01*
X175478044Y-55902032D01*
X175478040Y-55902029D01*
X175333705Y-55813001D01*
X175333699Y-55812998D01*
X175333697Y-55812997D01*
X175320588Y-55808653D01*
X175172709Y-55759651D01*
X175073346Y-55749500D01*
X173926662Y-55749500D01*
X173926644Y-55749501D01*
X173827292Y-55759650D01*
X173827289Y-55759651D01*
X173666305Y-55812996D01*
X173666294Y-55813001D01*
X173521959Y-55902029D01*
X173521955Y-55902032D01*
X173402032Y-56021955D01*
X173402029Y-56021959D01*
X173313001Y-56166294D01*
X173312996Y-56166305D01*
X173259651Y-56327290D01*
X173249500Y-56426647D01*
X171825422Y-56426647D01*
X171805845Y-44574704D01*
X171825419Y-44507633D01*
X171878147Y-44461791D01*
X171929845Y-44450500D01*
X218856292Y-44450500D01*
X218923331Y-44470185D01*
G37*
%TD.AperFunction*%
%TD*%
M02*
