M48
; DRILL file {KiCad 9.0.1} date 2025-04-24T14:36:58+0200
; FORMAT={-:-/ absolute / metric / decimal}
; #@! TF.CreationDate,2025-04-24T14:36:58+02:00
; #@! TF.GenerationSoftware,Kicad,Pcbnew,9.0.1
; #@! TF.FileFunction,Plated,1,2,PTH
FMAT,2
METRIC
; #@! TA.AperFunction,Plated,PTH,ViaDrill
T1C0.300
; #@! TA.AperFunction,Plated,PTH,ComponentDrill
T2C0.750
; #@! TA.AperFunction,Plated,PTH,ComponentDrill
T3C0.800
; #@! TA.AperFunction,Plated,PTH,ComponentDrill
T4C1.520
%
G90
G05
T1
X93.657Y-80.029
X96.264Y-93.966
X100.877Y-91.25
X102.64Y-62.191
X102.917Y-107.689
X115.296Y-98.325
X115.84Y-96.121
X117.571Y-99.921
X120.251Y-112.704
X120.56Y-97.852
X138.495Y-103.792
X147.463Y-85.97
X174.365Y-91.911
X191.965Y-53.296
X197.664Y-95.571
X198.279Y-91.8
X201.268Y-84.048
X204.257Y-80.029
X206.475Y-56.266
X221.623Y-86.011
X222.994Y-56.266
X226.172Y-82.184
X234.498Y-56.266
X236.334Y-91.165
X237.139Y-77.059
X237.553Y-92.724
T2
X154.0Y-57.0
X154.0Y-62.0
X154.0Y-67.0
X154.0Y-72.0
X154.0Y-77.0
X174.5Y-57.0
X174.5Y-62.0
X174.5Y-67.0
X174.5Y-72.0
X174.5Y-77.0
T3
X70.0Y-58.5
X70.0Y-63.5
X86.0Y-58.5
X86.0Y-63.5
X100.0Y-58.5
X100.0Y-63.5
X159.88Y-102.0
X159.88Y-104.54
X167.5Y-102.0
X167.5Y-104.54
T4
X39.5Y-58.5
X39.5Y-63.58
M30
