%TF.GenerationSoftware,KiCad,Pcbnew,9.0.1*%
%TF.CreationDate,2025-04-24T14:38:41+02:00*%
%TF.ProjectId,flyback,666c7962-6163-46b2-9e6b-696361645f70,rev?*%
%TF.SameCoordinates,Original*%
%TF.FileFunction,Legend,Top*%
%TF.FilePolarity,Positive*%
%FSLAX46Y46*%
G04 Gerber Fmt 4.6, Leading zero omitted, Abs format (unit mm)*
G04 Created by KiCad (PCBNEW 9.0.1) date 2025-04-24 14:38:41*
%MOMM*%
%LPD*%
G01*
G04 APERTURE LIST*
%ADD10C,0.150000*%
%ADD11C,0.100000*%
%ADD12C,0.200000*%
%ADD13C,0.120000*%
G04 APERTURE END LIST*
D10*
X97761904Y-95045180D02*
X97761904Y-94235657D01*
X97761904Y-94235657D02*
X97714285Y-94140419D01*
X97714285Y-94140419D02*
X97666666Y-94092800D01*
X97666666Y-94092800D02*
X97571428Y-94045180D01*
X97571428Y-94045180D02*
X97380952Y-94045180D01*
X97380952Y-94045180D02*
X97285714Y-94092800D01*
X97285714Y-94092800D02*
X97238095Y-94140419D01*
X97238095Y-94140419D02*
X97190476Y-94235657D01*
X97190476Y-94235657D02*
X97190476Y-95045180D01*
X96190476Y-94045180D02*
X96761904Y-94045180D01*
X96476190Y-94045180D02*
X96476190Y-95045180D01*
X96476190Y-95045180D02*
X96571428Y-94902323D01*
X96571428Y-94902323D02*
X96666666Y-94807085D01*
X96666666Y-94807085D02*
X96761904Y-94759466D01*
X105290866Y-97931380D02*
X105290866Y-98931380D01*
X105290866Y-98931380D02*
X105052771Y-98931380D01*
X105052771Y-98931380D02*
X104909914Y-98883761D01*
X104909914Y-98883761D02*
X104814676Y-98788523D01*
X104814676Y-98788523D02*
X104767057Y-98693285D01*
X104767057Y-98693285D02*
X104719438Y-98502809D01*
X104719438Y-98502809D02*
X104719438Y-98359952D01*
X104719438Y-98359952D02*
X104767057Y-98169476D01*
X104767057Y-98169476D02*
X104814676Y-98074238D01*
X104814676Y-98074238D02*
X104909914Y-97979000D01*
X104909914Y-97979000D02*
X105052771Y-97931380D01*
X105052771Y-97931380D02*
X105290866Y-97931380D01*
X103909914Y-97979000D02*
X104005152Y-97931380D01*
X104005152Y-97931380D02*
X104195628Y-97931380D01*
X104195628Y-97931380D02*
X104290866Y-97979000D01*
X104290866Y-97979000D02*
X104338485Y-98074238D01*
X104338485Y-98074238D02*
X104338485Y-98455190D01*
X104338485Y-98455190D02*
X104290866Y-98550428D01*
X104290866Y-98550428D02*
X104195628Y-98598047D01*
X104195628Y-98598047D02*
X104005152Y-98598047D01*
X104005152Y-98598047D02*
X103909914Y-98550428D01*
X103909914Y-98550428D02*
X103862295Y-98455190D01*
X103862295Y-98455190D02*
X103862295Y-98359952D01*
X103862295Y-98359952D02*
X104338485Y-98264714D01*
X103481342Y-97979000D02*
X103386104Y-97931380D01*
X103386104Y-97931380D02*
X103195628Y-97931380D01*
X103195628Y-97931380D02*
X103100390Y-97979000D01*
X103100390Y-97979000D02*
X103052771Y-98074238D01*
X103052771Y-98074238D02*
X103052771Y-98121857D01*
X103052771Y-98121857D02*
X103100390Y-98217095D01*
X103100390Y-98217095D02*
X103195628Y-98264714D01*
X103195628Y-98264714D02*
X103338485Y-98264714D01*
X103338485Y-98264714D02*
X103433723Y-98312333D01*
X103433723Y-98312333D02*
X103481342Y-98407571D01*
X103481342Y-98407571D02*
X103481342Y-98455190D01*
X103481342Y-98455190D02*
X103433723Y-98550428D01*
X103433723Y-98550428D02*
X103338485Y-98598047D01*
X103338485Y-98598047D02*
X103195628Y-98598047D01*
X103195628Y-98598047D02*
X103100390Y-98550428D01*
X102624199Y-97931380D02*
X102624199Y-98598047D01*
X102624199Y-98931380D02*
X102671818Y-98883761D01*
X102671818Y-98883761D02*
X102624199Y-98836142D01*
X102624199Y-98836142D02*
X102576580Y-98883761D01*
X102576580Y-98883761D02*
X102624199Y-98931380D01*
X102624199Y-98931380D02*
X102624199Y-98836142D01*
X101719438Y-98598047D02*
X101719438Y-97788523D01*
X101719438Y-97788523D02*
X101767057Y-97693285D01*
X101767057Y-97693285D02*
X101814676Y-97645666D01*
X101814676Y-97645666D02*
X101909914Y-97598047D01*
X101909914Y-97598047D02*
X102052771Y-97598047D01*
X102052771Y-97598047D02*
X102148009Y-97645666D01*
X101719438Y-97979000D02*
X101814676Y-97931380D01*
X101814676Y-97931380D02*
X102005152Y-97931380D01*
X102005152Y-97931380D02*
X102100390Y-97979000D01*
X102100390Y-97979000D02*
X102148009Y-98026619D01*
X102148009Y-98026619D02*
X102195628Y-98121857D01*
X102195628Y-98121857D02*
X102195628Y-98407571D01*
X102195628Y-98407571D02*
X102148009Y-98502809D01*
X102148009Y-98502809D02*
X102100390Y-98550428D01*
X102100390Y-98550428D02*
X102005152Y-98598047D01*
X102005152Y-98598047D02*
X101814676Y-98598047D01*
X101814676Y-98598047D02*
X101719438Y-98550428D01*
X101243247Y-98598047D02*
X101243247Y-97931380D01*
X101243247Y-98502809D02*
X101195628Y-98550428D01*
X101195628Y-98550428D02*
X101100390Y-98598047D01*
X101100390Y-98598047D02*
X100957533Y-98598047D01*
X100957533Y-98598047D02*
X100862295Y-98550428D01*
X100862295Y-98550428D02*
X100814676Y-98455190D01*
X100814676Y-98455190D02*
X100814676Y-97931380D01*
X99909914Y-97931380D02*
X99909914Y-98455190D01*
X99909914Y-98455190D02*
X99957533Y-98550428D01*
X99957533Y-98550428D02*
X100052771Y-98598047D01*
X100052771Y-98598047D02*
X100243247Y-98598047D01*
X100243247Y-98598047D02*
X100338485Y-98550428D01*
X99909914Y-97979000D02*
X100005152Y-97931380D01*
X100005152Y-97931380D02*
X100243247Y-97931380D01*
X100243247Y-97931380D02*
X100338485Y-97979000D01*
X100338485Y-97979000D02*
X100386104Y-98074238D01*
X100386104Y-98074238D02*
X100386104Y-98169476D01*
X100386104Y-98169476D02*
X100338485Y-98264714D01*
X100338485Y-98264714D02*
X100243247Y-98312333D01*
X100243247Y-98312333D02*
X100005152Y-98312333D01*
X100005152Y-98312333D02*
X99909914Y-98359952D01*
X99576580Y-98598047D02*
X99195628Y-98598047D01*
X99433723Y-98931380D02*
X99433723Y-98074238D01*
X99433723Y-98074238D02*
X99386104Y-97979000D01*
X99386104Y-97979000D02*
X99290866Y-97931380D01*
X99290866Y-97931380D02*
X99195628Y-97931380D01*
X98719437Y-97931380D02*
X98814675Y-97979000D01*
X98814675Y-97979000D02*
X98862294Y-98026619D01*
X98862294Y-98026619D02*
X98909913Y-98121857D01*
X98909913Y-98121857D02*
X98909913Y-98407571D01*
X98909913Y-98407571D02*
X98862294Y-98502809D01*
X98862294Y-98502809D02*
X98814675Y-98550428D01*
X98814675Y-98550428D02*
X98719437Y-98598047D01*
X98719437Y-98598047D02*
X98576580Y-98598047D01*
X98576580Y-98598047D02*
X98481342Y-98550428D01*
X98481342Y-98550428D02*
X98433723Y-98502809D01*
X98433723Y-98502809D02*
X98386104Y-98407571D01*
X98386104Y-98407571D02*
X98386104Y-98121857D01*
X98386104Y-98121857D02*
X98433723Y-98026619D01*
X98433723Y-98026619D02*
X98481342Y-97979000D01*
X98481342Y-97979000D02*
X98576580Y-97931380D01*
X98576580Y-97931380D02*
X98719437Y-97931380D01*
X97957532Y-97931380D02*
X97957532Y-98598047D01*
X97957532Y-98407571D02*
X97909913Y-98502809D01*
X97909913Y-98502809D02*
X97862294Y-98550428D01*
X97862294Y-98550428D02*
X97767056Y-98598047D01*
X97767056Y-98598047D02*
X97671818Y-98598047D01*
X97386103Y-98836142D02*
X97338484Y-98883761D01*
X97338484Y-98883761D02*
X97243246Y-98931380D01*
X97243246Y-98931380D02*
X97005151Y-98931380D01*
X97005151Y-98931380D02*
X96909913Y-98883761D01*
X96909913Y-98883761D02*
X96862294Y-98836142D01*
X96862294Y-98836142D02*
X96814675Y-98740904D01*
X96814675Y-98740904D02*
X96814675Y-98645666D01*
X96814675Y-98645666D02*
X96862294Y-98502809D01*
X96862294Y-98502809D02*
X97433722Y-97931380D01*
X97433722Y-97931380D02*
X96814675Y-97931380D01*
X96195627Y-98931380D02*
X96100389Y-98931380D01*
X96100389Y-98931380D02*
X96005151Y-98883761D01*
X96005151Y-98883761D02*
X95957532Y-98836142D01*
X95957532Y-98836142D02*
X95909913Y-98740904D01*
X95909913Y-98740904D02*
X95862294Y-98550428D01*
X95862294Y-98550428D02*
X95862294Y-98312333D01*
X95862294Y-98312333D02*
X95909913Y-98121857D01*
X95909913Y-98121857D02*
X95957532Y-98026619D01*
X95957532Y-98026619D02*
X96005151Y-97979000D01*
X96005151Y-97979000D02*
X96100389Y-97931380D01*
X96100389Y-97931380D02*
X96195627Y-97931380D01*
X96195627Y-97931380D02*
X96290865Y-97979000D01*
X96290865Y-97979000D02*
X96338484Y-98026619D01*
X96338484Y-98026619D02*
X96386103Y-98121857D01*
X96386103Y-98121857D02*
X96433722Y-98312333D01*
X96433722Y-98312333D02*
X96433722Y-98550428D01*
X96433722Y-98550428D02*
X96386103Y-98740904D01*
X96386103Y-98740904D02*
X96338484Y-98836142D01*
X96338484Y-98836142D02*
X96290865Y-98883761D01*
X96290865Y-98883761D02*
X96195627Y-98931380D01*
X95386103Y-97931380D02*
X95195627Y-97931380D01*
X95195627Y-97931380D02*
X95100389Y-97979000D01*
X95100389Y-97979000D02*
X95052770Y-98026619D01*
X95052770Y-98026619D02*
X94957532Y-98169476D01*
X94957532Y-98169476D02*
X94909913Y-98359952D01*
X94909913Y-98359952D02*
X94909913Y-98740904D01*
X94909913Y-98740904D02*
X94957532Y-98836142D01*
X94957532Y-98836142D02*
X95005151Y-98883761D01*
X95005151Y-98883761D02*
X95100389Y-98931380D01*
X95100389Y-98931380D02*
X95290865Y-98931380D01*
X95290865Y-98931380D02*
X95386103Y-98883761D01*
X95386103Y-98883761D02*
X95433722Y-98836142D01*
X95433722Y-98836142D02*
X95481341Y-98740904D01*
X95481341Y-98740904D02*
X95481341Y-98502809D01*
X95481341Y-98502809D02*
X95433722Y-98407571D01*
X95433722Y-98407571D02*
X95386103Y-98359952D01*
X95386103Y-98359952D02*
X95290865Y-98312333D01*
X95290865Y-98312333D02*
X95100389Y-98312333D01*
X95100389Y-98312333D02*
X95005151Y-98359952D01*
X95005151Y-98359952D02*
X94957532Y-98407571D01*
X94957532Y-98407571D02*
X94909913Y-98502809D01*
X200444642Y-76129580D02*
X200397023Y-76177200D01*
X200397023Y-76177200D02*
X200254166Y-76224819D01*
X200254166Y-76224819D02*
X200158928Y-76224819D01*
X200158928Y-76224819D02*
X200016071Y-76177200D01*
X200016071Y-76177200D02*
X199920833Y-76081961D01*
X199920833Y-76081961D02*
X199873214Y-75986723D01*
X199873214Y-75986723D02*
X199825595Y-75796247D01*
X199825595Y-75796247D02*
X199825595Y-75653390D01*
X199825595Y-75653390D02*
X199873214Y-75462914D01*
X199873214Y-75462914D02*
X199920833Y-75367676D01*
X199920833Y-75367676D02*
X200016071Y-75272438D01*
X200016071Y-75272438D02*
X200158928Y-75224819D01*
X200158928Y-75224819D02*
X200254166Y-75224819D01*
X200254166Y-75224819D02*
X200397023Y-75272438D01*
X200397023Y-75272438D02*
X200444642Y-75320057D01*
X201397023Y-76224819D02*
X200825595Y-76224819D01*
X201111309Y-76224819D02*
X201111309Y-75224819D01*
X201111309Y-75224819D02*
X201016071Y-75367676D01*
X201016071Y-75367676D02*
X200920833Y-75462914D01*
X200920833Y-75462914D02*
X200825595Y-75510533D01*
X202016071Y-75224819D02*
X202111309Y-75224819D01*
X202111309Y-75224819D02*
X202206547Y-75272438D01*
X202206547Y-75272438D02*
X202254166Y-75320057D01*
X202254166Y-75320057D02*
X202301785Y-75415295D01*
X202301785Y-75415295D02*
X202349404Y-75605771D01*
X202349404Y-75605771D02*
X202349404Y-75843866D01*
X202349404Y-75843866D02*
X202301785Y-76034342D01*
X202301785Y-76034342D02*
X202254166Y-76129580D01*
X202254166Y-76129580D02*
X202206547Y-76177200D01*
X202206547Y-76177200D02*
X202111309Y-76224819D01*
X202111309Y-76224819D02*
X202016071Y-76224819D01*
X202016071Y-76224819D02*
X201920833Y-76177200D01*
X201920833Y-76177200D02*
X201873214Y-76129580D01*
X201873214Y-76129580D02*
X201825595Y-76034342D01*
X201825595Y-76034342D02*
X201777976Y-75843866D01*
X201777976Y-75843866D02*
X201777976Y-75605771D01*
X201777976Y-75605771D02*
X201825595Y-75415295D01*
X201825595Y-75415295D02*
X201873214Y-75320057D01*
X201873214Y-75320057D02*
X201920833Y-75272438D01*
X201920833Y-75272438D02*
X202016071Y-75224819D01*
X237982142Y-96054819D02*
X237648809Y-95578628D01*
X237410714Y-96054819D02*
X237410714Y-95054819D01*
X237410714Y-95054819D02*
X237791666Y-95054819D01*
X237791666Y-95054819D02*
X237886904Y-95102438D01*
X237886904Y-95102438D02*
X237934523Y-95150057D01*
X237934523Y-95150057D02*
X237982142Y-95245295D01*
X237982142Y-95245295D02*
X237982142Y-95388152D01*
X237982142Y-95388152D02*
X237934523Y-95483390D01*
X237934523Y-95483390D02*
X237886904Y-95531009D01*
X237886904Y-95531009D02*
X237791666Y-95578628D01*
X237791666Y-95578628D02*
X237410714Y-95578628D01*
X238934523Y-96054819D02*
X238363095Y-96054819D01*
X238648809Y-96054819D02*
X238648809Y-95054819D01*
X238648809Y-95054819D02*
X238553571Y-95197676D01*
X238553571Y-95197676D02*
X238458333Y-95292914D01*
X238458333Y-95292914D02*
X238363095Y-95340533D01*
X239839285Y-95054819D02*
X239363095Y-95054819D01*
X239363095Y-95054819D02*
X239315476Y-95531009D01*
X239315476Y-95531009D02*
X239363095Y-95483390D01*
X239363095Y-95483390D02*
X239458333Y-95435771D01*
X239458333Y-95435771D02*
X239696428Y-95435771D01*
X239696428Y-95435771D02*
X239791666Y-95483390D01*
X239791666Y-95483390D02*
X239839285Y-95531009D01*
X239839285Y-95531009D02*
X239886904Y-95626247D01*
X239886904Y-95626247D02*
X239886904Y-95864342D01*
X239886904Y-95864342D02*
X239839285Y-95959580D01*
X239839285Y-95959580D02*
X239791666Y-96007200D01*
X239791666Y-96007200D02*
X239696428Y-96054819D01*
X239696428Y-96054819D02*
X239458333Y-96054819D01*
X239458333Y-96054819D02*
X239363095Y-96007200D01*
X239363095Y-96007200D02*
X239315476Y-95959580D01*
X210300595Y-78304819D02*
X210300595Y-79114342D01*
X210300595Y-79114342D02*
X210348214Y-79209580D01*
X210348214Y-79209580D02*
X210395833Y-79257200D01*
X210395833Y-79257200D02*
X210491071Y-79304819D01*
X210491071Y-79304819D02*
X210681547Y-79304819D01*
X210681547Y-79304819D02*
X210776785Y-79257200D01*
X210776785Y-79257200D02*
X210824404Y-79209580D01*
X210824404Y-79209580D02*
X210872023Y-79114342D01*
X210872023Y-79114342D02*
X210872023Y-78304819D01*
X211252976Y-78304819D02*
X211872023Y-78304819D01*
X211872023Y-78304819D02*
X211538690Y-78685771D01*
X211538690Y-78685771D02*
X211681547Y-78685771D01*
X211681547Y-78685771D02*
X211776785Y-78733390D01*
X211776785Y-78733390D02*
X211824404Y-78781009D01*
X211824404Y-78781009D02*
X211872023Y-78876247D01*
X211872023Y-78876247D02*
X211872023Y-79114342D01*
X211872023Y-79114342D02*
X211824404Y-79209580D01*
X211824404Y-79209580D02*
X211776785Y-79257200D01*
X211776785Y-79257200D02*
X211681547Y-79304819D01*
X211681547Y-79304819D02*
X211395833Y-79304819D01*
X211395833Y-79304819D02*
X211300595Y-79257200D01*
X211300595Y-79257200D02*
X211252976Y-79209580D01*
X200482142Y-84554819D02*
X200148809Y-84078628D01*
X199910714Y-84554819D02*
X199910714Y-83554819D01*
X199910714Y-83554819D02*
X200291666Y-83554819D01*
X200291666Y-83554819D02*
X200386904Y-83602438D01*
X200386904Y-83602438D02*
X200434523Y-83650057D01*
X200434523Y-83650057D02*
X200482142Y-83745295D01*
X200482142Y-83745295D02*
X200482142Y-83888152D01*
X200482142Y-83888152D02*
X200434523Y-83983390D01*
X200434523Y-83983390D02*
X200386904Y-84031009D01*
X200386904Y-84031009D02*
X200291666Y-84078628D01*
X200291666Y-84078628D02*
X199910714Y-84078628D01*
X201434523Y-84554819D02*
X200863095Y-84554819D01*
X201148809Y-84554819D02*
X201148809Y-83554819D01*
X201148809Y-83554819D02*
X201053571Y-83697676D01*
X201053571Y-83697676D02*
X200958333Y-83792914D01*
X200958333Y-83792914D02*
X200863095Y-83840533D01*
X201815476Y-83650057D02*
X201863095Y-83602438D01*
X201863095Y-83602438D02*
X201958333Y-83554819D01*
X201958333Y-83554819D02*
X202196428Y-83554819D01*
X202196428Y-83554819D02*
X202291666Y-83602438D01*
X202291666Y-83602438D02*
X202339285Y-83650057D01*
X202339285Y-83650057D02*
X202386904Y-83745295D01*
X202386904Y-83745295D02*
X202386904Y-83840533D01*
X202386904Y-83840533D02*
X202339285Y-83983390D01*
X202339285Y-83983390D02*
X201767857Y-84554819D01*
X201767857Y-84554819D02*
X202386904Y-84554819D01*
X187982142Y-98754819D02*
X187648809Y-98278628D01*
X187410714Y-98754819D02*
X187410714Y-97754819D01*
X187410714Y-97754819D02*
X187791666Y-97754819D01*
X187791666Y-97754819D02*
X187886904Y-97802438D01*
X187886904Y-97802438D02*
X187934523Y-97850057D01*
X187934523Y-97850057D02*
X187982142Y-97945295D01*
X187982142Y-97945295D02*
X187982142Y-98088152D01*
X187982142Y-98088152D02*
X187934523Y-98183390D01*
X187934523Y-98183390D02*
X187886904Y-98231009D01*
X187886904Y-98231009D02*
X187791666Y-98278628D01*
X187791666Y-98278628D02*
X187410714Y-98278628D01*
X188934523Y-98754819D02*
X188363095Y-98754819D01*
X188648809Y-98754819D02*
X188648809Y-97754819D01*
X188648809Y-97754819D02*
X188553571Y-97897676D01*
X188553571Y-97897676D02*
X188458333Y-97992914D01*
X188458333Y-97992914D02*
X188363095Y-98040533D01*
X189886904Y-98754819D02*
X189315476Y-98754819D01*
X189601190Y-98754819D02*
X189601190Y-97754819D01*
X189601190Y-97754819D02*
X189505952Y-97897676D01*
X189505952Y-97897676D02*
X189410714Y-97992914D01*
X189410714Y-97992914D02*
X189315476Y-98040533D01*
X237982142Y-90154819D02*
X237648809Y-89678628D01*
X237410714Y-90154819D02*
X237410714Y-89154819D01*
X237410714Y-89154819D02*
X237791666Y-89154819D01*
X237791666Y-89154819D02*
X237886904Y-89202438D01*
X237886904Y-89202438D02*
X237934523Y-89250057D01*
X237934523Y-89250057D02*
X237982142Y-89345295D01*
X237982142Y-89345295D02*
X237982142Y-89488152D01*
X237982142Y-89488152D02*
X237934523Y-89583390D01*
X237934523Y-89583390D02*
X237886904Y-89631009D01*
X237886904Y-89631009D02*
X237791666Y-89678628D01*
X237791666Y-89678628D02*
X237410714Y-89678628D01*
X238934523Y-90154819D02*
X238363095Y-90154819D01*
X238648809Y-90154819D02*
X238648809Y-89154819D01*
X238648809Y-89154819D02*
X238553571Y-89297676D01*
X238553571Y-89297676D02*
X238458333Y-89392914D01*
X238458333Y-89392914D02*
X238363095Y-89440533D01*
X239267857Y-89154819D02*
X239886904Y-89154819D01*
X239886904Y-89154819D02*
X239553571Y-89535771D01*
X239553571Y-89535771D02*
X239696428Y-89535771D01*
X239696428Y-89535771D02*
X239791666Y-89583390D01*
X239791666Y-89583390D02*
X239839285Y-89631009D01*
X239839285Y-89631009D02*
X239886904Y-89726247D01*
X239886904Y-89726247D02*
X239886904Y-89964342D01*
X239886904Y-89964342D02*
X239839285Y-90059580D01*
X239839285Y-90059580D02*
X239791666Y-90107200D01*
X239791666Y-90107200D02*
X239696428Y-90154819D01*
X239696428Y-90154819D02*
X239410714Y-90154819D01*
X239410714Y-90154819D02*
X239315476Y-90107200D01*
X239315476Y-90107200D02*
X239267857Y-90059580D01*
X237982142Y-93104819D02*
X237648809Y-92628628D01*
X237410714Y-93104819D02*
X237410714Y-92104819D01*
X237410714Y-92104819D02*
X237791666Y-92104819D01*
X237791666Y-92104819D02*
X237886904Y-92152438D01*
X237886904Y-92152438D02*
X237934523Y-92200057D01*
X237934523Y-92200057D02*
X237982142Y-92295295D01*
X237982142Y-92295295D02*
X237982142Y-92438152D01*
X237982142Y-92438152D02*
X237934523Y-92533390D01*
X237934523Y-92533390D02*
X237886904Y-92581009D01*
X237886904Y-92581009D02*
X237791666Y-92628628D01*
X237791666Y-92628628D02*
X237410714Y-92628628D01*
X238934523Y-93104819D02*
X238363095Y-93104819D01*
X238648809Y-93104819D02*
X238648809Y-92104819D01*
X238648809Y-92104819D02*
X238553571Y-92247676D01*
X238553571Y-92247676D02*
X238458333Y-92342914D01*
X238458333Y-92342914D02*
X238363095Y-92390533D01*
X239791666Y-92438152D02*
X239791666Y-93104819D01*
X239553571Y-92057200D02*
X239315476Y-92771485D01*
X239315476Y-92771485D02*
X239934523Y-92771485D01*
X162928095Y-106324819D02*
X162928095Y-107134342D01*
X162928095Y-107134342D02*
X162975714Y-107229580D01*
X162975714Y-107229580D02*
X163023333Y-107277200D01*
X163023333Y-107277200D02*
X163118571Y-107324819D01*
X163118571Y-107324819D02*
X163309047Y-107324819D01*
X163309047Y-107324819D02*
X163404285Y-107277200D01*
X163404285Y-107277200D02*
X163451904Y-107229580D01*
X163451904Y-107229580D02*
X163499523Y-107134342D01*
X163499523Y-107134342D02*
X163499523Y-106324819D01*
X163928095Y-106420057D02*
X163975714Y-106372438D01*
X163975714Y-106372438D02*
X164070952Y-106324819D01*
X164070952Y-106324819D02*
X164309047Y-106324819D01*
X164309047Y-106324819D02*
X164404285Y-106372438D01*
X164404285Y-106372438D02*
X164451904Y-106420057D01*
X164451904Y-106420057D02*
X164499523Y-106515295D01*
X164499523Y-106515295D02*
X164499523Y-106610533D01*
X164499523Y-106610533D02*
X164451904Y-106753390D01*
X164451904Y-106753390D02*
X163880476Y-107324819D01*
X163880476Y-107324819D02*
X164499523Y-107324819D01*
X187419642Y-97109580D02*
X187372023Y-97157200D01*
X187372023Y-97157200D02*
X187229166Y-97204819D01*
X187229166Y-97204819D02*
X187133928Y-97204819D01*
X187133928Y-97204819D02*
X186991071Y-97157200D01*
X186991071Y-97157200D02*
X186895833Y-97061961D01*
X186895833Y-97061961D02*
X186848214Y-96966723D01*
X186848214Y-96966723D02*
X186800595Y-96776247D01*
X186800595Y-96776247D02*
X186800595Y-96633390D01*
X186800595Y-96633390D02*
X186848214Y-96442914D01*
X186848214Y-96442914D02*
X186895833Y-96347676D01*
X186895833Y-96347676D02*
X186991071Y-96252438D01*
X186991071Y-96252438D02*
X187133928Y-96204819D01*
X187133928Y-96204819D02*
X187229166Y-96204819D01*
X187229166Y-96204819D02*
X187372023Y-96252438D01*
X187372023Y-96252438D02*
X187419642Y-96300057D01*
X188372023Y-97204819D02*
X187800595Y-97204819D01*
X188086309Y-97204819D02*
X188086309Y-96204819D01*
X188086309Y-96204819D02*
X187991071Y-96347676D01*
X187991071Y-96347676D02*
X187895833Y-96442914D01*
X187895833Y-96442914D02*
X187800595Y-96490533D01*
X188752976Y-96300057D02*
X188800595Y-96252438D01*
X188800595Y-96252438D02*
X188895833Y-96204819D01*
X188895833Y-96204819D02*
X189133928Y-96204819D01*
X189133928Y-96204819D02*
X189229166Y-96252438D01*
X189229166Y-96252438D02*
X189276785Y-96300057D01*
X189276785Y-96300057D02*
X189324404Y-96395295D01*
X189324404Y-96395295D02*
X189324404Y-96490533D01*
X189324404Y-96490533D02*
X189276785Y-96633390D01*
X189276785Y-96633390D02*
X188705357Y-97204819D01*
X188705357Y-97204819D02*
X189324404Y-97204819D01*
X212709580Y-59442857D02*
X212757200Y-59490476D01*
X212757200Y-59490476D02*
X212804819Y-59633333D01*
X212804819Y-59633333D02*
X212804819Y-59728571D01*
X212804819Y-59728571D02*
X212757200Y-59871428D01*
X212757200Y-59871428D02*
X212661961Y-59966666D01*
X212661961Y-59966666D02*
X212566723Y-60014285D01*
X212566723Y-60014285D02*
X212376247Y-60061904D01*
X212376247Y-60061904D02*
X212233390Y-60061904D01*
X212233390Y-60061904D02*
X212042914Y-60014285D01*
X212042914Y-60014285D02*
X211947676Y-59966666D01*
X211947676Y-59966666D02*
X211852438Y-59871428D01*
X211852438Y-59871428D02*
X211804819Y-59728571D01*
X211804819Y-59728571D02*
X211804819Y-59633333D01*
X211804819Y-59633333D02*
X211852438Y-59490476D01*
X211852438Y-59490476D02*
X211900057Y-59442857D01*
X212804819Y-58490476D02*
X212804819Y-59061904D01*
X212804819Y-58776190D02*
X211804819Y-58776190D01*
X211804819Y-58776190D02*
X211947676Y-58871428D01*
X211947676Y-58871428D02*
X212042914Y-58966666D01*
X212042914Y-58966666D02*
X212090533Y-59061904D01*
X212138152Y-57633333D02*
X212804819Y-57633333D01*
X211757200Y-57871428D02*
X212471485Y-58109523D01*
X212471485Y-58109523D02*
X212471485Y-57490476D01*
X187294642Y-83059580D02*
X187247023Y-83107200D01*
X187247023Y-83107200D02*
X187104166Y-83154819D01*
X187104166Y-83154819D02*
X187008928Y-83154819D01*
X187008928Y-83154819D02*
X186866071Y-83107200D01*
X186866071Y-83107200D02*
X186770833Y-83011961D01*
X186770833Y-83011961D02*
X186723214Y-82916723D01*
X186723214Y-82916723D02*
X186675595Y-82726247D01*
X186675595Y-82726247D02*
X186675595Y-82583390D01*
X186675595Y-82583390D02*
X186723214Y-82392914D01*
X186723214Y-82392914D02*
X186770833Y-82297676D01*
X186770833Y-82297676D02*
X186866071Y-82202438D01*
X186866071Y-82202438D02*
X187008928Y-82154819D01*
X187008928Y-82154819D02*
X187104166Y-82154819D01*
X187104166Y-82154819D02*
X187247023Y-82202438D01*
X187247023Y-82202438D02*
X187294642Y-82250057D01*
X188247023Y-83154819D02*
X187675595Y-83154819D01*
X187961309Y-83154819D02*
X187961309Y-82154819D01*
X187961309Y-82154819D02*
X187866071Y-82297676D01*
X187866071Y-82297676D02*
X187770833Y-82392914D01*
X187770833Y-82392914D02*
X187675595Y-82440533D01*
X189199404Y-83154819D02*
X188627976Y-83154819D01*
X188913690Y-83154819D02*
X188913690Y-82154819D01*
X188913690Y-82154819D02*
X188818452Y-82297676D01*
X188818452Y-82297676D02*
X188723214Y-82392914D01*
X188723214Y-82392914D02*
X188627976Y-82440533D01*
X217764405Y-93654819D02*
X217764405Y-92654819D01*
X217764405Y-92654819D02*
X218002500Y-92654819D01*
X218002500Y-92654819D02*
X218145357Y-92702438D01*
X218145357Y-92702438D02*
X218240595Y-92797676D01*
X218240595Y-92797676D02*
X218288214Y-92892914D01*
X218288214Y-92892914D02*
X218335833Y-93083390D01*
X218335833Y-93083390D02*
X218335833Y-93226247D01*
X218335833Y-93226247D02*
X218288214Y-93416723D01*
X218288214Y-93416723D02*
X218240595Y-93511961D01*
X218240595Y-93511961D02*
X218145357Y-93607200D01*
X218145357Y-93607200D02*
X218002500Y-93654819D01*
X218002500Y-93654819D02*
X217764405Y-93654819D01*
X219192976Y-92654819D02*
X219002500Y-92654819D01*
X219002500Y-92654819D02*
X218907262Y-92702438D01*
X218907262Y-92702438D02*
X218859643Y-92750057D01*
X218859643Y-92750057D02*
X218764405Y-92892914D01*
X218764405Y-92892914D02*
X218716786Y-93083390D01*
X218716786Y-93083390D02*
X218716786Y-93464342D01*
X218716786Y-93464342D02*
X218764405Y-93559580D01*
X218764405Y-93559580D02*
X218812024Y-93607200D01*
X218812024Y-93607200D02*
X218907262Y-93654819D01*
X218907262Y-93654819D02*
X219097738Y-93654819D01*
X219097738Y-93654819D02*
X219192976Y-93607200D01*
X219192976Y-93607200D02*
X219240595Y-93559580D01*
X219240595Y-93559580D02*
X219288214Y-93464342D01*
X219288214Y-93464342D02*
X219288214Y-93226247D01*
X219288214Y-93226247D02*
X219240595Y-93131009D01*
X219240595Y-93131009D02*
X219192976Y-93083390D01*
X219192976Y-93083390D02*
X219097738Y-93035771D01*
X219097738Y-93035771D02*
X218907262Y-93035771D01*
X218907262Y-93035771D02*
X218812024Y-93083390D01*
X218812024Y-93083390D02*
X218764405Y-93131009D01*
X218764405Y-93131009D02*
X218716786Y-93226247D01*
X223424642Y-84054819D02*
X223091309Y-83578628D01*
X222853214Y-84054819D02*
X222853214Y-83054819D01*
X222853214Y-83054819D02*
X223234166Y-83054819D01*
X223234166Y-83054819D02*
X223329404Y-83102438D01*
X223329404Y-83102438D02*
X223377023Y-83150057D01*
X223377023Y-83150057D02*
X223424642Y-83245295D01*
X223424642Y-83245295D02*
X223424642Y-83388152D01*
X223424642Y-83388152D02*
X223377023Y-83483390D01*
X223377023Y-83483390D02*
X223329404Y-83531009D01*
X223329404Y-83531009D02*
X223234166Y-83578628D01*
X223234166Y-83578628D02*
X222853214Y-83578628D01*
X224377023Y-84054819D02*
X223805595Y-84054819D01*
X224091309Y-84054819D02*
X224091309Y-83054819D01*
X224091309Y-83054819D02*
X223996071Y-83197676D01*
X223996071Y-83197676D02*
X223900833Y-83292914D01*
X223900833Y-83292914D02*
X223805595Y-83340533D01*
X224710357Y-83054819D02*
X225377023Y-83054819D01*
X225377023Y-83054819D02*
X224948452Y-84054819D01*
X226209580Y-59642857D02*
X226257200Y-59690476D01*
X226257200Y-59690476D02*
X226304819Y-59833333D01*
X226304819Y-59833333D02*
X226304819Y-59928571D01*
X226304819Y-59928571D02*
X226257200Y-60071428D01*
X226257200Y-60071428D02*
X226161961Y-60166666D01*
X226161961Y-60166666D02*
X226066723Y-60214285D01*
X226066723Y-60214285D02*
X225876247Y-60261904D01*
X225876247Y-60261904D02*
X225733390Y-60261904D01*
X225733390Y-60261904D02*
X225542914Y-60214285D01*
X225542914Y-60214285D02*
X225447676Y-60166666D01*
X225447676Y-60166666D02*
X225352438Y-60071428D01*
X225352438Y-60071428D02*
X225304819Y-59928571D01*
X225304819Y-59928571D02*
X225304819Y-59833333D01*
X225304819Y-59833333D02*
X225352438Y-59690476D01*
X225352438Y-59690476D02*
X225400057Y-59642857D01*
X226304819Y-58690476D02*
X226304819Y-59261904D01*
X226304819Y-58976190D02*
X225304819Y-58976190D01*
X225304819Y-58976190D02*
X225447676Y-59071428D01*
X225447676Y-59071428D02*
X225542914Y-59166666D01*
X225542914Y-59166666D02*
X225590533Y-59261904D01*
X225304819Y-57785714D02*
X225304819Y-58261904D01*
X225304819Y-58261904D02*
X225781009Y-58309523D01*
X225781009Y-58309523D02*
X225733390Y-58261904D01*
X225733390Y-58261904D02*
X225685771Y-58166666D01*
X225685771Y-58166666D02*
X225685771Y-57928571D01*
X225685771Y-57928571D02*
X225733390Y-57833333D01*
X225733390Y-57833333D02*
X225781009Y-57785714D01*
X225781009Y-57785714D02*
X225876247Y-57738095D01*
X225876247Y-57738095D02*
X226114342Y-57738095D01*
X226114342Y-57738095D02*
X226209580Y-57785714D01*
X226209580Y-57785714D02*
X226257200Y-57833333D01*
X226257200Y-57833333D02*
X226304819Y-57928571D01*
X226304819Y-57928571D02*
X226304819Y-58166666D01*
X226304819Y-58166666D02*
X226257200Y-58261904D01*
X226257200Y-58261904D02*
X226209580Y-58309523D01*
X223424642Y-81104819D02*
X223091309Y-80628628D01*
X222853214Y-81104819D02*
X222853214Y-80104819D01*
X222853214Y-80104819D02*
X223234166Y-80104819D01*
X223234166Y-80104819D02*
X223329404Y-80152438D01*
X223329404Y-80152438D02*
X223377023Y-80200057D01*
X223377023Y-80200057D02*
X223424642Y-80295295D01*
X223424642Y-80295295D02*
X223424642Y-80438152D01*
X223424642Y-80438152D02*
X223377023Y-80533390D01*
X223377023Y-80533390D02*
X223329404Y-80581009D01*
X223329404Y-80581009D02*
X223234166Y-80628628D01*
X223234166Y-80628628D02*
X222853214Y-80628628D01*
X224377023Y-81104819D02*
X223805595Y-81104819D01*
X224091309Y-81104819D02*
X224091309Y-80104819D01*
X224091309Y-80104819D02*
X223996071Y-80247676D01*
X223996071Y-80247676D02*
X223900833Y-80342914D01*
X223900833Y-80342914D02*
X223805595Y-80390533D01*
X225234166Y-80104819D02*
X225043690Y-80104819D01*
X225043690Y-80104819D02*
X224948452Y-80152438D01*
X224948452Y-80152438D02*
X224900833Y-80200057D01*
X224900833Y-80200057D02*
X224805595Y-80342914D01*
X224805595Y-80342914D02*
X224757976Y-80533390D01*
X224757976Y-80533390D02*
X224757976Y-80914342D01*
X224757976Y-80914342D02*
X224805595Y-81009580D01*
X224805595Y-81009580D02*
X224853214Y-81057200D01*
X224853214Y-81057200D02*
X224948452Y-81104819D01*
X224948452Y-81104819D02*
X225138928Y-81104819D01*
X225138928Y-81104819D02*
X225234166Y-81057200D01*
X225234166Y-81057200D02*
X225281785Y-81009580D01*
X225281785Y-81009580D02*
X225329404Y-80914342D01*
X225329404Y-80914342D02*
X225329404Y-80676247D01*
X225329404Y-80676247D02*
X225281785Y-80581009D01*
X225281785Y-80581009D02*
X225234166Y-80533390D01*
X225234166Y-80533390D02*
X225138928Y-80485771D01*
X225138928Y-80485771D02*
X224948452Y-80485771D01*
X224948452Y-80485771D02*
X224853214Y-80533390D01*
X224853214Y-80533390D02*
X224805595Y-80581009D01*
X224805595Y-80581009D02*
X224757976Y-80676247D01*
X234659580Y-59580357D02*
X234707200Y-59627976D01*
X234707200Y-59627976D02*
X234754819Y-59770833D01*
X234754819Y-59770833D02*
X234754819Y-59866071D01*
X234754819Y-59866071D02*
X234707200Y-60008928D01*
X234707200Y-60008928D02*
X234611961Y-60104166D01*
X234611961Y-60104166D02*
X234516723Y-60151785D01*
X234516723Y-60151785D02*
X234326247Y-60199404D01*
X234326247Y-60199404D02*
X234183390Y-60199404D01*
X234183390Y-60199404D02*
X233992914Y-60151785D01*
X233992914Y-60151785D02*
X233897676Y-60104166D01*
X233897676Y-60104166D02*
X233802438Y-60008928D01*
X233802438Y-60008928D02*
X233754819Y-59866071D01*
X233754819Y-59866071D02*
X233754819Y-59770833D01*
X233754819Y-59770833D02*
X233802438Y-59627976D01*
X233802438Y-59627976D02*
X233850057Y-59580357D01*
X234754819Y-58627976D02*
X234754819Y-59199404D01*
X234754819Y-58913690D02*
X233754819Y-58913690D01*
X233754819Y-58913690D02*
X233897676Y-59008928D01*
X233897676Y-59008928D02*
X233992914Y-59104166D01*
X233992914Y-59104166D02*
X234040533Y-59199404D01*
X233754819Y-57770833D02*
X233754819Y-57961309D01*
X233754819Y-57961309D02*
X233802438Y-58056547D01*
X233802438Y-58056547D02*
X233850057Y-58104166D01*
X233850057Y-58104166D02*
X233992914Y-58199404D01*
X233992914Y-58199404D02*
X234183390Y-58247023D01*
X234183390Y-58247023D02*
X234564342Y-58247023D01*
X234564342Y-58247023D02*
X234659580Y-58199404D01*
X234659580Y-58199404D02*
X234707200Y-58151785D01*
X234707200Y-58151785D02*
X234754819Y-58056547D01*
X234754819Y-58056547D02*
X234754819Y-57866071D01*
X234754819Y-57866071D02*
X234707200Y-57770833D01*
X234707200Y-57770833D02*
X234659580Y-57723214D01*
X234659580Y-57723214D02*
X234564342Y-57675595D01*
X234564342Y-57675595D02*
X234326247Y-57675595D01*
X234326247Y-57675595D02*
X234231009Y-57723214D01*
X234231009Y-57723214D02*
X234183390Y-57770833D01*
X234183390Y-57770833D02*
X234135771Y-57866071D01*
X234135771Y-57866071D02*
X234135771Y-58056547D01*
X234135771Y-58056547D02*
X234183390Y-58151785D01*
X234183390Y-58151785D02*
X234231009Y-58199404D01*
X234231009Y-58199404D02*
X234326247Y-58247023D01*
D11*
X168738095Y-50957419D02*
X168738095Y-51766942D01*
X168738095Y-51766942D02*
X168785714Y-51862180D01*
X168785714Y-51862180D02*
X168833333Y-51909800D01*
X168833333Y-51909800D02*
X168928571Y-51957419D01*
X168928571Y-51957419D02*
X169119047Y-51957419D01*
X169119047Y-51957419D02*
X169214285Y-51909800D01*
X169214285Y-51909800D02*
X169261904Y-51862180D01*
X169261904Y-51862180D02*
X169309523Y-51766942D01*
X169309523Y-51766942D02*
X169309523Y-50957419D01*
X170214285Y-51290752D02*
X170214285Y-51957419D01*
X169976190Y-50909800D02*
X169738095Y-51624085D01*
X169738095Y-51624085D02*
X170357142Y-51624085D01*
D10*
X197739761Y-97650057D02*
X197644523Y-97602438D01*
X197644523Y-97602438D02*
X197549285Y-97507200D01*
X197549285Y-97507200D02*
X197406428Y-97364342D01*
X197406428Y-97364342D02*
X197311190Y-97316723D01*
X197311190Y-97316723D02*
X197215952Y-97316723D01*
X197263571Y-97554819D02*
X197168333Y-97507200D01*
X197168333Y-97507200D02*
X197073095Y-97411961D01*
X197073095Y-97411961D02*
X197025476Y-97221485D01*
X197025476Y-97221485D02*
X197025476Y-96888152D01*
X197025476Y-96888152D02*
X197073095Y-96697676D01*
X197073095Y-96697676D02*
X197168333Y-96602438D01*
X197168333Y-96602438D02*
X197263571Y-96554819D01*
X197263571Y-96554819D02*
X197454047Y-96554819D01*
X197454047Y-96554819D02*
X197549285Y-96602438D01*
X197549285Y-96602438D02*
X197644523Y-96697676D01*
X197644523Y-96697676D02*
X197692142Y-96888152D01*
X197692142Y-96888152D02*
X197692142Y-97221485D01*
X197692142Y-97221485D02*
X197644523Y-97411961D01*
X197644523Y-97411961D02*
X197549285Y-97507200D01*
X197549285Y-97507200D02*
X197454047Y-97554819D01*
X197454047Y-97554819D02*
X197263571Y-97554819D01*
X198073095Y-96650057D02*
X198120714Y-96602438D01*
X198120714Y-96602438D02*
X198215952Y-96554819D01*
X198215952Y-96554819D02*
X198454047Y-96554819D01*
X198454047Y-96554819D02*
X198549285Y-96602438D01*
X198549285Y-96602438D02*
X198596904Y-96650057D01*
X198596904Y-96650057D02*
X198644523Y-96745295D01*
X198644523Y-96745295D02*
X198644523Y-96840533D01*
X198644523Y-96840533D02*
X198596904Y-96983390D01*
X198596904Y-96983390D02*
X198025476Y-97554819D01*
X198025476Y-97554819D02*
X198644523Y-97554819D01*
X187361905Y-87454819D02*
X187361905Y-86454819D01*
X187361905Y-86454819D02*
X187600000Y-86454819D01*
X187600000Y-86454819D02*
X187742857Y-86502438D01*
X187742857Y-86502438D02*
X187838095Y-86597676D01*
X187838095Y-86597676D02*
X187885714Y-86692914D01*
X187885714Y-86692914D02*
X187933333Y-86883390D01*
X187933333Y-86883390D02*
X187933333Y-87026247D01*
X187933333Y-87026247D02*
X187885714Y-87216723D01*
X187885714Y-87216723D02*
X187838095Y-87311961D01*
X187838095Y-87311961D02*
X187742857Y-87407200D01*
X187742857Y-87407200D02*
X187600000Y-87454819D01*
X187600000Y-87454819D02*
X187361905Y-87454819D01*
X188266667Y-86454819D02*
X188885714Y-86454819D01*
X188885714Y-86454819D02*
X188552381Y-86835771D01*
X188552381Y-86835771D02*
X188695238Y-86835771D01*
X188695238Y-86835771D02*
X188790476Y-86883390D01*
X188790476Y-86883390D02*
X188838095Y-86931009D01*
X188838095Y-86931009D02*
X188885714Y-87026247D01*
X188885714Y-87026247D02*
X188885714Y-87264342D01*
X188885714Y-87264342D02*
X188838095Y-87359580D01*
X188838095Y-87359580D02*
X188790476Y-87407200D01*
X188790476Y-87407200D02*
X188695238Y-87454819D01*
X188695238Y-87454819D02*
X188409524Y-87454819D01*
X188409524Y-87454819D02*
X188314286Y-87407200D01*
X188314286Y-87407200D02*
X188266667Y-87359580D01*
X195636905Y-52689819D02*
X195636905Y-51689819D01*
X195636905Y-51689819D02*
X195875000Y-51689819D01*
X195875000Y-51689819D02*
X196017857Y-51737438D01*
X196017857Y-51737438D02*
X196113095Y-51832676D01*
X196113095Y-51832676D02*
X196160714Y-51927914D01*
X196160714Y-51927914D02*
X196208333Y-52118390D01*
X196208333Y-52118390D02*
X196208333Y-52261247D01*
X196208333Y-52261247D02*
X196160714Y-52451723D01*
X196160714Y-52451723D02*
X196113095Y-52546961D01*
X196113095Y-52546961D02*
X196017857Y-52642200D01*
X196017857Y-52642200D02*
X195875000Y-52689819D01*
X195875000Y-52689819D02*
X195636905Y-52689819D01*
X197065476Y-52023152D02*
X197065476Y-52689819D01*
X196827381Y-51642200D02*
X196589286Y-52356485D01*
X196589286Y-52356485D02*
X197208333Y-52356485D01*
X90519642Y-99964580D02*
X90472023Y-100012200D01*
X90472023Y-100012200D02*
X90329166Y-100059819D01*
X90329166Y-100059819D02*
X90233928Y-100059819D01*
X90233928Y-100059819D02*
X90091071Y-100012200D01*
X90091071Y-100012200D02*
X89995833Y-99916961D01*
X89995833Y-99916961D02*
X89948214Y-99821723D01*
X89948214Y-99821723D02*
X89900595Y-99631247D01*
X89900595Y-99631247D02*
X89900595Y-99488390D01*
X89900595Y-99488390D02*
X89948214Y-99297914D01*
X89948214Y-99297914D02*
X89995833Y-99202676D01*
X89995833Y-99202676D02*
X90091071Y-99107438D01*
X90091071Y-99107438D02*
X90233928Y-99059819D01*
X90233928Y-99059819D02*
X90329166Y-99059819D01*
X90329166Y-99059819D02*
X90472023Y-99107438D01*
X90472023Y-99107438D02*
X90519642Y-99155057D01*
X91472023Y-100059819D02*
X90900595Y-100059819D01*
X91186309Y-100059819D02*
X91186309Y-99059819D01*
X91186309Y-99059819D02*
X91091071Y-99202676D01*
X91091071Y-99202676D02*
X90995833Y-99297914D01*
X90995833Y-99297914D02*
X90900595Y-99345533D01*
X91805357Y-99059819D02*
X92472023Y-99059819D01*
X92472023Y-99059819D02*
X92043452Y-100059819D01*
X33874819Y-61373333D02*
X34589104Y-61373333D01*
X34589104Y-61373333D02*
X34731961Y-61420952D01*
X34731961Y-61420952D02*
X34827200Y-61516190D01*
X34827200Y-61516190D02*
X34874819Y-61659047D01*
X34874819Y-61659047D02*
X34874819Y-61754285D01*
X34874819Y-60373333D02*
X34874819Y-60944761D01*
X34874819Y-60659047D02*
X33874819Y-60659047D01*
X33874819Y-60659047D02*
X34017676Y-60754285D01*
X34017676Y-60754285D02*
X34112914Y-60849523D01*
X34112914Y-60849523D02*
X34160533Y-60944761D01*
X123082142Y-110009819D02*
X122748809Y-109533628D01*
X122510714Y-110009819D02*
X122510714Y-109009819D01*
X122510714Y-109009819D02*
X122891666Y-109009819D01*
X122891666Y-109009819D02*
X122986904Y-109057438D01*
X122986904Y-109057438D02*
X123034523Y-109105057D01*
X123034523Y-109105057D02*
X123082142Y-109200295D01*
X123082142Y-109200295D02*
X123082142Y-109343152D01*
X123082142Y-109343152D02*
X123034523Y-109438390D01*
X123034523Y-109438390D02*
X122986904Y-109486009D01*
X122986904Y-109486009D02*
X122891666Y-109533628D01*
X122891666Y-109533628D02*
X122510714Y-109533628D01*
X124034523Y-110009819D02*
X123463095Y-110009819D01*
X123748809Y-110009819D02*
X123748809Y-109009819D01*
X123748809Y-109009819D02*
X123653571Y-109152676D01*
X123653571Y-109152676D02*
X123558333Y-109247914D01*
X123558333Y-109247914D02*
X123463095Y-109295533D01*
X124510714Y-110009819D02*
X124701190Y-110009819D01*
X124701190Y-110009819D02*
X124796428Y-109962200D01*
X124796428Y-109962200D02*
X124844047Y-109914580D01*
X124844047Y-109914580D02*
X124939285Y-109771723D01*
X124939285Y-109771723D02*
X124986904Y-109581247D01*
X124986904Y-109581247D02*
X124986904Y-109200295D01*
X124986904Y-109200295D02*
X124939285Y-109105057D01*
X124939285Y-109105057D02*
X124891666Y-109057438D01*
X124891666Y-109057438D02*
X124796428Y-109009819D01*
X124796428Y-109009819D02*
X124605952Y-109009819D01*
X124605952Y-109009819D02*
X124510714Y-109057438D01*
X124510714Y-109057438D02*
X124463095Y-109105057D01*
X124463095Y-109105057D02*
X124415476Y-109200295D01*
X124415476Y-109200295D02*
X124415476Y-109438390D01*
X124415476Y-109438390D02*
X124463095Y-109533628D01*
X124463095Y-109533628D02*
X124510714Y-109581247D01*
X124510714Y-109581247D02*
X124605952Y-109628866D01*
X124605952Y-109628866D02*
X124796428Y-109628866D01*
X124796428Y-109628866D02*
X124891666Y-109581247D01*
X124891666Y-109581247D02*
X124939285Y-109533628D01*
X124939285Y-109533628D02*
X124986904Y-109438390D01*
X123086905Y-102359819D02*
X123086905Y-101359819D01*
X123086905Y-101359819D02*
X123325000Y-101359819D01*
X123325000Y-101359819D02*
X123467857Y-101407438D01*
X123467857Y-101407438D02*
X123563095Y-101502676D01*
X123563095Y-101502676D02*
X123610714Y-101597914D01*
X123610714Y-101597914D02*
X123658333Y-101788390D01*
X123658333Y-101788390D02*
X123658333Y-101931247D01*
X123658333Y-101931247D02*
X123610714Y-102121723D01*
X123610714Y-102121723D02*
X123563095Y-102216961D01*
X123563095Y-102216961D02*
X123467857Y-102312200D01*
X123467857Y-102312200D02*
X123325000Y-102359819D01*
X123325000Y-102359819D02*
X123086905Y-102359819D01*
X123991667Y-101359819D02*
X124658333Y-101359819D01*
X124658333Y-101359819D02*
X124229762Y-102359819D01*
X125761905Y-84454819D02*
X125761905Y-83454819D01*
X125761905Y-83454819D02*
X126000000Y-83454819D01*
X126000000Y-83454819D02*
X126142857Y-83502438D01*
X126142857Y-83502438D02*
X126238095Y-83597676D01*
X126238095Y-83597676D02*
X126285714Y-83692914D01*
X126285714Y-83692914D02*
X126333333Y-83883390D01*
X126333333Y-83883390D02*
X126333333Y-84026247D01*
X126333333Y-84026247D02*
X126285714Y-84216723D01*
X126285714Y-84216723D02*
X126238095Y-84311961D01*
X126238095Y-84311961D02*
X126142857Y-84407200D01*
X126142857Y-84407200D02*
X126000000Y-84454819D01*
X126000000Y-84454819D02*
X125761905Y-84454819D01*
X127238095Y-83454819D02*
X126761905Y-83454819D01*
X126761905Y-83454819D02*
X126714286Y-83931009D01*
X126714286Y-83931009D02*
X126761905Y-83883390D01*
X126761905Y-83883390D02*
X126857143Y-83835771D01*
X126857143Y-83835771D02*
X127095238Y-83835771D01*
X127095238Y-83835771D02*
X127190476Y-83883390D01*
X127190476Y-83883390D02*
X127238095Y-83931009D01*
X127238095Y-83931009D02*
X127285714Y-84026247D01*
X127285714Y-84026247D02*
X127285714Y-84264342D01*
X127285714Y-84264342D02*
X127238095Y-84359580D01*
X127238095Y-84359580D02*
X127190476Y-84407200D01*
X127190476Y-84407200D02*
X127095238Y-84454819D01*
X127095238Y-84454819D02*
X126857143Y-84454819D01*
X126857143Y-84454819D02*
X126761905Y-84407200D01*
X126761905Y-84407200D02*
X126714286Y-84359580D01*
X115357142Y-82304819D02*
X115023809Y-81828628D01*
X114785714Y-82304819D02*
X114785714Y-81304819D01*
X114785714Y-81304819D02*
X115166666Y-81304819D01*
X115166666Y-81304819D02*
X115261904Y-81352438D01*
X115261904Y-81352438D02*
X115309523Y-81400057D01*
X115309523Y-81400057D02*
X115357142Y-81495295D01*
X115357142Y-81495295D02*
X115357142Y-81638152D01*
X115357142Y-81638152D02*
X115309523Y-81733390D01*
X115309523Y-81733390D02*
X115261904Y-81781009D01*
X115261904Y-81781009D02*
X115166666Y-81828628D01*
X115166666Y-81828628D02*
X114785714Y-81828628D01*
X116309523Y-82304819D02*
X115738095Y-82304819D01*
X116023809Y-82304819D02*
X116023809Y-81304819D01*
X116023809Y-81304819D02*
X115928571Y-81447676D01*
X115928571Y-81447676D02*
X115833333Y-81542914D01*
X115833333Y-81542914D02*
X115738095Y-81590533D01*
X116880952Y-81733390D02*
X116785714Y-81685771D01*
X116785714Y-81685771D02*
X116738095Y-81638152D01*
X116738095Y-81638152D02*
X116690476Y-81542914D01*
X116690476Y-81542914D02*
X116690476Y-81495295D01*
X116690476Y-81495295D02*
X116738095Y-81400057D01*
X116738095Y-81400057D02*
X116785714Y-81352438D01*
X116785714Y-81352438D02*
X116880952Y-81304819D01*
X116880952Y-81304819D02*
X117071428Y-81304819D01*
X117071428Y-81304819D02*
X117166666Y-81352438D01*
X117166666Y-81352438D02*
X117214285Y-81400057D01*
X117214285Y-81400057D02*
X117261904Y-81495295D01*
X117261904Y-81495295D02*
X117261904Y-81542914D01*
X117261904Y-81542914D02*
X117214285Y-81638152D01*
X117214285Y-81638152D02*
X117166666Y-81685771D01*
X117166666Y-81685771D02*
X117071428Y-81733390D01*
X117071428Y-81733390D02*
X116880952Y-81733390D01*
X116880952Y-81733390D02*
X116785714Y-81781009D01*
X116785714Y-81781009D02*
X116738095Y-81828628D01*
X116738095Y-81828628D02*
X116690476Y-81923866D01*
X116690476Y-81923866D02*
X116690476Y-82114342D01*
X116690476Y-82114342D02*
X116738095Y-82209580D01*
X116738095Y-82209580D02*
X116785714Y-82257200D01*
X116785714Y-82257200D02*
X116880952Y-82304819D01*
X116880952Y-82304819D02*
X117071428Y-82304819D01*
X117071428Y-82304819D02*
X117166666Y-82257200D01*
X117166666Y-82257200D02*
X117214285Y-82209580D01*
X117214285Y-82209580D02*
X117261904Y-82114342D01*
X117261904Y-82114342D02*
X117261904Y-81923866D01*
X117261904Y-81923866D02*
X117214285Y-81828628D01*
X117214285Y-81828628D02*
X117166666Y-81781009D01*
X117166666Y-81781009D02*
X117071428Y-81733390D01*
X115319642Y-86679580D02*
X115272023Y-86727200D01*
X115272023Y-86727200D02*
X115129166Y-86774819D01*
X115129166Y-86774819D02*
X115033928Y-86774819D01*
X115033928Y-86774819D02*
X114891071Y-86727200D01*
X114891071Y-86727200D02*
X114795833Y-86631961D01*
X114795833Y-86631961D02*
X114748214Y-86536723D01*
X114748214Y-86536723D02*
X114700595Y-86346247D01*
X114700595Y-86346247D02*
X114700595Y-86203390D01*
X114700595Y-86203390D02*
X114748214Y-86012914D01*
X114748214Y-86012914D02*
X114795833Y-85917676D01*
X114795833Y-85917676D02*
X114891071Y-85822438D01*
X114891071Y-85822438D02*
X115033928Y-85774819D01*
X115033928Y-85774819D02*
X115129166Y-85774819D01*
X115129166Y-85774819D02*
X115272023Y-85822438D01*
X115272023Y-85822438D02*
X115319642Y-85870057D01*
X116272023Y-86774819D02*
X115700595Y-86774819D01*
X115986309Y-86774819D02*
X115986309Y-85774819D01*
X115986309Y-85774819D02*
X115891071Y-85917676D01*
X115891071Y-85917676D02*
X115795833Y-86012914D01*
X115795833Y-86012914D02*
X115700595Y-86060533D01*
X116605357Y-85774819D02*
X117224404Y-85774819D01*
X117224404Y-85774819D02*
X116891071Y-86155771D01*
X116891071Y-86155771D02*
X117033928Y-86155771D01*
X117033928Y-86155771D02*
X117129166Y-86203390D01*
X117129166Y-86203390D02*
X117176785Y-86251009D01*
X117176785Y-86251009D02*
X117224404Y-86346247D01*
X117224404Y-86346247D02*
X117224404Y-86584342D01*
X117224404Y-86584342D02*
X117176785Y-86679580D01*
X117176785Y-86679580D02*
X117129166Y-86727200D01*
X117129166Y-86727200D02*
X117033928Y-86774819D01*
X117033928Y-86774819D02*
X116748214Y-86774819D01*
X116748214Y-86774819D02*
X116652976Y-86727200D01*
X116652976Y-86727200D02*
X116605357Y-86679580D01*
X104582142Y-90209819D02*
X104248809Y-89733628D01*
X104010714Y-90209819D02*
X104010714Y-89209819D01*
X104010714Y-89209819D02*
X104391666Y-89209819D01*
X104391666Y-89209819D02*
X104486904Y-89257438D01*
X104486904Y-89257438D02*
X104534523Y-89305057D01*
X104534523Y-89305057D02*
X104582142Y-89400295D01*
X104582142Y-89400295D02*
X104582142Y-89543152D01*
X104582142Y-89543152D02*
X104534523Y-89638390D01*
X104534523Y-89638390D02*
X104486904Y-89686009D01*
X104486904Y-89686009D02*
X104391666Y-89733628D01*
X104391666Y-89733628D02*
X104010714Y-89733628D01*
X105534523Y-90209819D02*
X104963095Y-90209819D01*
X105248809Y-90209819D02*
X105248809Y-89209819D01*
X105248809Y-89209819D02*
X105153571Y-89352676D01*
X105153571Y-89352676D02*
X105058333Y-89447914D01*
X105058333Y-89447914D02*
X104963095Y-89495533D01*
X106153571Y-89209819D02*
X106248809Y-89209819D01*
X106248809Y-89209819D02*
X106344047Y-89257438D01*
X106344047Y-89257438D02*
X106391666Y-89305057D01*
X106391666Y-89305057D02*
X106439285Y-89400295D01*
X106439285Y-89400295D02*
X106486904Y-89590771D01*
X106486904Y-89590771D02*
X106486904Y-89828866D01*
X106486904Y-89828866D02*
X106439285Y-90019342D01*
X106439285Y-90019342D02*
X106391666Y-90114580D01*
X106391666Y-90114580D02*
X106344047Y-90162200D01*
X106344047Y-90162200D02*
X106248809Y-90209819D01*
X106248809Y-90209819D02*
X106153571Y-90209819D01*
X106153571Y-90209819D02*
X106058333Y-90162200D01*
X106058333Y-90162200D02*
X106010714Y-90114580D01*
X106010714Y-90114580D02*
X105963095Y-90019342D01*
X105963095Y-90019342D02*
X105915476Y-89828866D01*
X105915476Y-89828866D02*
X105915476Y-89590771D01*
X105915476Y-89590771D02*
X105963095Y-89400295D01*
X105963095Y-89400295D02*
X106010714Y-89305057D01*
X106010714Y-89305057D02*
X106058333Y-89257438D01*
X106058333Y-89257438D02*
X106153571Y-89209819D01*
X96833333Y-78804819D02*
X96500000Y-78328628D01*
X96261905Y-78804819D02*
X96261905Y-77804819D01*
X96261905Y-77804819D02*
X96642857Y-77804819D01*
X96642857Y-77804819D02*
X96738095Y-77852438D01*
X96738095Y-77852438D02*
X96785714Y-77900057D01*
X96785714Y-77900057D02*
X96833333Y-77995295D01*
X96833333Y-77995295D02*
X96833333Y-78138152D01*
X96833333Y-78138152D02*
X96785714Y-78233390D01*
X96785714Y-78233390D02*
X96738095Y-78281009D01*
X96738095Y-78281009D02*
X96642857Y-78328628D01*
X96642857Y-78328628D02*
X96261905Y-78328628D01*
X97309524Y-78804819D02*
X97500000Y-78804819D01*
X97500000Y-78804819D02*
X97595238Y-78757200D01*
X97595238Y-78757200D02*
X97642857Y-78709580D01*
X97642857Y-78709580D02*
X97738095Y-78566723D01*
X97738095Y-78566723D02*
X97785714Y-78376247D01*
X97785714Y-78376247D02*
X97785714Y-77995295D01*
X97785714Y-77995295D02*
X97738095Y-77900057D01*
X97738095Y-77900057D02*
X97690476Y-77852438D01*
X97690476Y-77852438D02*
X97595238Y-77804819D01*
X97595238Y-77804819D02*
X97404762Y-77804819D01*
X97404762Y-77804819D02*
X97309524Y-77852438D01*
X97309524Y-77852438D02*
X97261905Y-77900057D01*
X97261905Y-77900057D02*
X97214286Y-77995295D01*
X97214286Y-77995295D02*
X97214286Y-78233390D01*
X97214286Y-78233390D02*
X97261905Y-78328628D01*
X97261905Y-78328628D02*
X97309524Y-78376247D01*
X97309524Y-78376247D02*
X97404762Y-78423866D01*
X97404762Y-78423866D02*
X97595238Y-78423866D01*
X97595238Y-78423866D02*
X97690476Y-78376247D01*
X97690476Y-78376247D02*
X97738095Y-78328628D01*
X97738095Y-78328628D02*
X97785714Y-78233390D01*
X97058333Y-75304819D02*
X96725000Y-74828628D01*
X96486905Y-75304819D02*
X96486905Y-74304819D01*
X96486905Y-74304819D02*
X96867857Y-74304819D01*
X96867857Y-74304819D02*
X96963095Y-74352438D01*
X96963095Y-74352438D02*
X97010714Y-74400057D01*
X97010714Y-74400057D02*
X97058333Y-74495295D01*
X97058333Y-74495295D02*
X97058333Y-74638152D01*
X97058333Y-74638152D02*
X97010714Y-74733390D01*
X97010714Y-74733390D02*
X96963095Y-74781009D01*
X96963095Y-74781009D02*
X96867857Y-74828628D01*
X96867857Y-74828628D02*
X96486905Y-74828628D01*
X97629762Y-74733390D02*
X97534524Y-74685771D01*
X97534524Y-74685771D02*
X97486905Y-74638152D01*
X97486905Y-74638152D02*
X97439286Y-74542914D01*
X97439286Y-74542914D02*
X97439286Y-74495295D01*
X97439286Y-74495295D02*
X97486905Y-74400057D01*
X97486905Y-74400057D02*
X97534524Y-74352438D01*
X97534524Y-74352438D02*
X97629762Y-74304819D01*
X97629762Y-74304819D02*
X97820238Y-74304819D01*
X97820238Y-74304819D02*
X97915476Y-74352438D01*
X97915476Y-74352438D02*
X97963095Y-74400057D01*
X97963095Y-74400057D02*
X98010714Y-74495295D01*
X98010714Y-74495295D02*
X98010714Y-74542914D01*
X98010714Y-74542914D02*
X97963095Y-74638152D01*
X97963095Y-74638152D02*
X97915476Y-74685771D01*
X97915476Y-74685771D02*
X97820238Y-74733390D01*
X97820238Y-74733390D02*
X97629762Y-74733390D01*
X97629762Y-74733390D02*
X97534524Y-74781009D01*
X97534524Y-74781009D02*
X97486905Y-74828628D01*
X97486905Y-74828628D02*
X97439286Y-74923866D01*
X97439286Y-74923866D02*
X97439286Y-75114342D01*
X97439286Y-75114342D02*
X97486905Y-75209580D01*
X97486905Y-75209580D02*
X97534524Y-75257200D01*
X97534524Y-75257200D02*
X97629762Y-75304819D01*
X97629762Y-75304819D02*
X97820238Y-75304819D01*
X97820238Y-75304819D02*
X97915476Y-75257200D01*
X97915476Y-75257200D02*
X97963095Y-75209580D01*
X97963095Y-75209580D02*
X98010714Y-75114342D01*
X98010714Y-75114342D02*
X98010714Y-74923866D01*
X98010714Y-74923866D02*
X97963095Y-74828628D01*
X97963095Y-74828628D02*
X97915476Y-74781009D01*
X97915476Y-74781009D02*
X97820238Y-74733390D01*
X129833333Y-67304819D02*
X129500000Y-66828628D01*
X129261905Y-67304819D02*
X129261905Y-66304819D01*
X129261905Y-66304819D02*
X129642857Y-66304819D01*
X129642857Y-66304819D02*
X129738095Y-66352438D01*
X129738095Y-66352438D02*
X129785714Y-66400057D01*
X129785714Y-66400057D02*
X129833333Y-66495295D01*
X129833333Y-66495295D02*
X129833333Y-66638152D01*
X129833333Y-66638152D02*
X129785714Y-66733390D01*
X129785714Y-66733390D02*
X129738095Y-66781009D01*
X129738095Y-66781009D02*
X129642857Y-66828628D01*
X129642857Y-66828628D02*
X129261905Y-66828628D01*
X130166667Y-66304819D02*
X130833333Y-66304819D01*
X130833333Y-66304819D02*
X130404762Y-67304819D01*
X122075057Y-57030238D02*
X122027438Y-57125476D01*
X122027438Y-57125476D02*
X121932200Y-57220714D01*
X121932200Y-57220714D02*
X121789342Y-57363571D01*
X121789342Y-57363571D02*
X121741723Y-57458809D01*
X121741723Y-57458809D02*
X121741723Y-57554047D01*
X121979819Y-57506428D02*
X121932200Y-57601666D01*
X121932200Y-57601666D02*
X121836961Y-57696904D01*
X121836961Y-57696904D02*
X121646485Y-57744523D01*
X121646485Y-57744523D02*
X121313152Y-57744523D01*
X121313152Y-57744523D02*
X121122676Y-57696904D01*
X121122676Y-57696904D02*
X121027438Y-57601666D01*
X121027438Y-57601666D02*
X120979819Y-57506428D01*
X120979819Y-57506428D02*
X120979819Y-57315952D01*
X120979819Y-57315952D02*
X121027438Y-57220714D01*
X121027438Y-57220714D02*
X121122676Y-57125476D01*
X121122676Y-57125476D02*
X121313152Y-57077857D01*
X121313152Y-57077857D02*
X121646485Y-57077857D01*
X121646485Y-57077857D02*
X121836961Y-57125476D01*
X121836961Y-57125476D02*
X121932200Y-57220714D01*
X121932200Y-57220714D02*
X121979819Y-57315952D01*
X121979819Y-57315952D02*
X121979819Y-57506428D01*
X121979819Y-56125476D02*
X121979819Y-56696904D01*
X121979819Y-56411190D02*
X120979819Y-56411190D01*
X120979819Y-56411190D02*
X121122676Y-56506428D01*
X121122676Y-56506428D02*
X121217914Y-56601666D01*
X121217914Y-56601666D02*
X121265533Y-56696904D01*
X122986905Y-119859819D02*
X122986905Y-118859819D01*
X122986905Y-118859819D02*
X123225000Y-118859819D01*
X123225000Y-118859819D02*
X123367857Y-118907438D01*
X123367857Y-118907438D02*
X123463095Y-119002676D01*
X123463095Y-119002676D02*
X123510714Y-119097914D01*
X123510714Y-119097914D02*
X123558333Y-119288390D01*
X123558333Y-119288390D02*
X123558333Y-119431247D01*
X123558333Y-119431247D02*
X123510714Y-119621723D01*
X123510714Y-119621723D02*
X123463095Y-119716961D01*
X123463095Y-119716961D02*
X123367857Y-119812200D01*
X123367857Y-119812200D02*
X123225000Y-119859819D01*
X123225000Y-119859819D02*
X122986905Y-119859819D01*
X123939286Y-118955057D02*
X123986905Y-118907438D01*
X123986905Y-118907438D02*
X124082143Y-118859819D01*
X124082143Y-118859819D02*
X124320238Y-118859819D01*
X124320238Y-118859819D02*
X124415476Y-118907438D01*
X124415476Y-118907438D02*
X124463095Y-118955057D01*
X124463095Y-118955057D02*
X124510714Y-119050295D01*
X124510714Y-119050295D02*
X124510714Y-119145533D01*
X124510714Y-119145533D02*
X124463095Y-119288390D01*
X124463095Y-119288390D02*
X123891667Y-119859819D01*
X123891667Y-119859819D02*
X124510714Y-119859819D01*
X53311905Y-67104819D02*
X53311905Y-66104819D01*
X53311905Y-66104819D02*
X53550000Y-66104819D01*
X53550000Y-66104819D02*
X53692857Y-66152438D01*
X53692857Y-66152438D02*
X53788095Y-66247676D01*
X53788095Y-66247676D02*
X53835714Y-66342914D01*
X53835714Y-66342914D02*
X53883333Y-66533390D01*
X53883333Y-66533390D02*
X53883333Y-66676247D01*
X53883333Y-66676247D02*
X53835714Y-66866723D01*
X53835714Y-66866723D02*
X53788095Y-66961961D01*
X53788095Y-66961961D02*
X53692857Y-67057200D01*
X53692857Y-67057200D02*
X53550000Y-67104819D01*
X53550000Y-67104819D02*
X53311905Y-67104819D01*
X54835714Y-67104819D02*
X54264286Y-67104819D01*
X54550000Y-67104819D02*
X54550000Y-66104819D01*
X54550000Y-66104819D02*
X54454762Y-66247676D01*
X54454762Y-66247676D02*
X54359524Y-66342914D01*
X54359524Y-66342914D02*
X54264286Y-66390533D01*
X119434580Y-103571666D02*
X119482200Y-103619285D01*
X119482200Y-103619285D02*
X119529819Y-103762142D01*
X119529819Y-103762142D02*
X119529819Y-103857380D01*
X119529819Y-103857380D02*
X119482200Y-104000237D01*
X119482200Y-104000237D02*
X119386961Y-104095475D01*
X119386961Y-104095475D02*
X119291723Y-104143094D01*
X119291723Y-104143094D02*
X119101247Y-104190713D01*
X119101247Y-104190713D02*
X118958390Y-104190713D01*
X118958390Y-104190713D02*
X118767914Y-104143094D01*
X118767914Y-104143094D02*
X118672676Y-104095475D01*
X118672676Y-104095475D02*
X118577438Y-104000237D01*
X118577438Y-104000237D02*
X118529819Y-103857380D01*
X118529819Y-103857380D02*
X118529819Y-103762142D01*
X118529819Y-103762142D02*
X118577438Y-103619285D01*
X118577438Y-103619285D02*
X118625057Y-103571666D01*
X119529819Y-103095475D02*
X119529819Y-102904999D01*
X119529819Y-102904999D02*
X119482200Y-102809761D01*
X119482200Y-102809761D02*
X119434580Y-102762142D01*
X119434580Y-102762142D02*
X119291723Y-102666904D01*
X119291723Y-102666904D02*
X119101247Y-102619285D01*
X119101247Y-102619285D02*
X118720295Y-102619285D01*
X118720295Y-102619285D02*
X118625057Y-102666904D01*
X118625057Y-102666904D02*
X118577438Y-102714523D01*
X118577438Y-102714523D02*
X118529819Y-102809761D01*
X118529819Y-102809761D02*
X118529819Y-103000237D01*
X118529819Y-103000237D02*
X118577438Y-103095475D01*
X118577438Y-103095475D02*
X118625057Y-103143094D01*
X118625057Y-103143094D02*
X118720295Y-103190713D01*
X118720295Y-103190713D02*
X118958390Y-103190713D01*
X118958390Y-103190713D02*
X119053628Y-103143094D01*
X119053628Y-103143094D02*
X119101247Y-103095475D01*
X119101247Y-103095475D02*
X119148866Y-103000237D01*
X119148866Y-103000237D02*
X119148866Y-102809761D01*
X119148866Y-102809761D02*
X119101247Y-102714523D01*
X119101247Y-102714523D02*
X119053628Y-102666904D01*
X119053628Y-102666904D02*
X118958390Y-102619285D01*
X92859580Y-61166666D02*
X92907200Y-61214285D01*
X92907200Y-61214285D02*
X92954819Y-61357142D01*
X92954819Y-61357142D02*
X92954819Y-61452380D01*
X92954819Y-61452380D02*
X92907200Y-61595237D01*
X92907200Y-61595237D02*
X92811961Y-61690475D01*
X92811961Y-61690475D02*
X92716723Y-61738094D01*
X92716723Y-61738094D02*
X92526247Y-61785713D01*
X92526247Y-61785713D02*
X92383390Y-61785713D01*
X92383390Y-61785713D02*
X92192914Y-61738094D01*
X92192914Y-61738094D02*
X92097676Y-61690475D01*
X92097676Y-61690475D02*
X92002438Y-61595237D01*
X92002438Y-61595237D02*
X91954819Y-61452380D01*
X91954819Y-61452380D02*
X91954819Y-61357142D01*
X91954819Y-61357142D02*
X92002438Y-61214285D01*
X92002438Y-61214285D02*
X92050057Y-61166666D01*
X92383390Y-60595237D02*
X92335771Y-60690475D01*
X92335771Y-60690475D02*
X92288152Y-60738094D01*
X92288152Y-60738094D02*
X92192914Y-60785713D01*
X92192914Y-60785713D02*
X92145295Y-60785713D01*
X92145295Y-60785713D02*
X92050057Y-60738094D01*
X92050057Y-60738094D02*
X92002438Y-60690475D01*
X92002438Y-60690475D02*
X91954819Y-60595237D01*
X91954819Y-60595237D02*
X91954819Y-60404761D01*
X91954819Y-60404761D02*
X92002438Y-60309523D01*
X92002438Y-60309523D02*
X92050057Y-60261904D01*
X92050057Y-60261904D02*
X92145295Y-60214285D01*
X92145295Y-60214285D02*
X92192914Y-60214285D01*
X92192914Y-60214285D02*
X92288152Y-60261904D01*
X92288152Y-60261904D02*
X92335771Y-60309523D01*
X92335771Y-60309523D02*
X92383390Y-60404761D01*
X92383390Y-60404761D02*
X92383390Y-60595237D01*
X92383390Y-60595237D02*
X92431009Y-60690475D01*
X92431009Y-60690475D02*
X92478628Y-60738094D01*
X92478628Y-60738094D02*
X92573866Y-60785713D01*
X92573866Y-60785713D02*
X92764342Y-60785713D01*
X92764342Y-60785713D02*
X92859580Y-60738094D01*
X92859580Y-60738094D02*
X92907200Y-60690475D01*
X92907200Y-60690475D02*
X92954819Y-60595237D01*
X92954819Y-60595237D02*
X92954819Y-60404761D01*
X92954819Y-60404761D02*
X92907200Y-60309523D01*
X92907200Y-60309523D02*
X92859580Y-60261904D01*
X92859580Y-60261904D02*
X92764342Y-60214285D01*
X92764342Y-60214285D02*
X92573866Y-60214285D01*
X92573866Y-60214285D02*
X92478628Y-60261904D01*
X92478628Y-60261904D02*
X92431009Y-60309523D01*
X92431009Y-60309523D02*
X92383390Y-60404761D01*
X78859580Y-61166666D02*
X78907200Y-61214285D01*
X78907200Y-61214285D02*
X78954819Y-61357142D01*
X78954819Y-61357142D02*
X78954819Y-61452380D01*
X78954819Y-61452380D02*
X78907200Y-61595237D01*
X78907200Y-61595237D02*
X78811961Y-61690475D01*
X78811961Y-61690475D02*
X78716723Y-61738094D01*
X78716723Y-61738094D02*
X78526247Y-61785713D01*
X78526247Y-61785713D02*
X78383390Y-61785713D01*
X78383390Y-61785713D02*
X78192914Y-61738094D01*
X78192914Y-61738094D02*
X78097676Y-61690475D01*
X78097676Y-61690475D02*
X78002438Y-61595237D01*
X78002438Y-61595237D02*
X77954819Y-61452380D01*
X77954819Y-61452380D02*
X77954819Y-61357142D01*
X77954819Y-61357142D02*
X78002438Y-61214285D01*
X78002438Y-61214285D02*
X78050057Y-61166666D01*
X77954819Y-60833332D02*
X77954819Y-60166666D01*
X77954819Y-60166666D02*
X78954819Y-60595237D01*
X62859580Y-61166666D02*
X62907200Y-61214285D01*
X62907200Y-61214285D02*
X62954819Y-61357142D01*
X62954819Y-61357142D02*
X62954819Y-61452380D01*
X62954819Y-61452380D02*
X62907200Y-61595237D01*
X62907200Y-61595237D02*
X62811961Y-61690475D01*
X62811961Y-61690475D02*
X62716723Y-61738094D01*
X62716723Y-61738094D02*
X62526247Y-61785713D01*
X62526247Y-61785713D02*
X62383390Y-61785713D01*
X62383390Y-61785713D02*
X62192914Y-61738094D01*
X62192914Y-61738094D02*
X62097676Y-61690475D01*
X62097676Y-61690475D02*
X62002438Y-61595237D01*
X62002438Y-61595237D02*
X61954819Y-61452380D01*
X61954819Y-61452380D02*
X61954819Y-61357142D01*
X61954819Y-61357142D02*
X62002438Y-61214285D01*
X62002438Y-61214285D02*
X62050057Y-61166666D01*
X61954819Y-60309523D02*
X61954819Y-60499999D01*
X61954819Y-60499999D02*
X62002438Y-60595237D01*
X62002438Y-60595237D02*
X62050057Y-60642856D01*
X62050057Y-60642856D02*
X62192914Y-60738094D01*
X62192914Y-60738094D02*
X62383390Y-60785713D01*
X62383390Y-60785713D02*
X62764342Y-60785713D01*
X62764342Y-60785713D02*
X62859580Y-60738094D01*
X62859580Y-60738094D02*
X62907200Y-60690475D01*
X62907200Y-60690475D02*
X62954819Y-60595237D01*
X62954819Y-60595237D02*
X62954819Y-60404761D01*
X62954819Y-60404761D02*
X62907200Y-60309523D01*
X62907200Y-60309523D02*
X62859580Y-60261904D01*
X62859580Y-60261904D02*
X62764342Y-60214285D01*
X62764342Y-60214285D02*
X62526247Y-60214285D01*
X62526247Y-60214285D02*
X62431009Y-60261904D01*
X62431009Y-60261904D02*
X62383390Y-60309523D01*
X62383390Y-60309523D02*
X62335771Y-60404761D01*
X62335771Y-60404761D02*
X62335771Y-60595237D01*
X62335771Y-60595237D02*
X62383390Y-60690475D01*
X62383390Y-60690475D02*
X62431009Y-60738094D01*
X62431009Y-60738094D02*
X62526247Y-60785713D01*
X105020833Y-92584580D02*
X104973214Y-92632200D01*
X104973214Y-92632200D02*
X104830357Y-92679819D01*
X104830357Y-92679819D02*
X104735119Y-92679819D01*
X104735119Y-92679819D02*
X104592262Y-92632200D01*
X104592262Y-92632200D02*
X104497024Y-92536961D01*
X104497024Y-92536961D02*
X104449405Y-92441723D01*
X104449405Y-92441723D02*
X104401786Y-92251247D01*
X104401786Y-92251247D02*
X104401786Y-92108390D01*
X104401786Y-92108390D02*
X104449405Y-91917914D01*
X104449405Y-91917914D02*
X104497024Y-91822676D01*
X104497024Y-91822676D02*
X104592262Y-91727438D01*
X104592262Y-91727438D02*
X104735119Y-91679819D01*
X104735119Y-91679819D02*
X104830357Y-91679819D01*
X104830357Y-91679819D02*
X104973214Y-91727438D01*
X104973214Y-91727438D02*
X105020833Y-91775057D01*
X105925595Y-91679819D02*
X105449405Y-91679819D01*
X105449405Y-91679819D02*
X105401786Y-92156009D01*
X105401786Y-92156009D02*
X105449405Y-92108390D01*
X105449405Y-92108390D02*
X105544643Y-92060771D01*
X105544643Y-92060771D02*
X105782738Y-92060771D01*
X105782738Y-92060771D02*
X105877976Y-92108390D01*
X105877976Y-92108390D02*
X105925595Y-92156009D01*
X105925595Y-92156009D02*
X105973214Y-92251247D01*
X105973214Y-92251247D02*
X105973214Y-92489342D01*
X105973214Y-92489342D02*
X105925595Y-92584580D01*
X105925595Y-92584580D02*
X105877976Y-92632200D01*
X105877976Y-92632200D02*
X105782738Y-92679819D01*
X105782738Y-92679819D02*
X105544643Y-92679819D01*
X105544643Y-92679819D02*
X105449405Y-92632200D01*
X105449405Y-92632200D02*
X105401786Y-92584580D01*
X114558333Y-93709819D02*
X114225000Y-93233628D01*
X113986905Y-93709819D02*
X113986905Y-92709819D01*
X113986905Y-92709819D02*
X114367857Y-92709819D01*
X114367857Y-92709819D02*
X114463095Y-92757438D01*
X114463095Y-92757438D02*
X114510714Y-92805057D01*
X114510714Y-92805057D02*
X114558333Y-92900295D01*
X114558333Y-92900295D02*
X114558333Y-93043152D01*
X114558333Y-93043152D02*
X114510714Y-93138390D01*
X114510714Y-93138390D02*
X114463095Y-93186009D01*
X114463095Y-93186009D02*
X114367857Y-93233628D01*
X114367857Y-93233628D02*
X113986905Y-93233628D01*
X115415476Y-92709819D02*
X115225000Y-92709819D01*
X115225000Y-92709819D02*
X115129762Y-92757438D01*
X115129762Y-92757438D02*
X115082143Y-92805057D01*
X115082143Y-92805057D02*
X114986905Y-92947914D01*
X114986905Y-92947914D02*
X114939286Y-93138390D01*
X114939286Y-93138390D02*
X114939286Y-93519342D01*
X114939286Y-93519342D02*
X114986905Y-93614580D01*
X114986905Y-93614580D02*
X115034524Y-93662200D01*
X115034524Y-93662200D02*
X115129762Y-93709819D01*
X115129762Y-93709819D02*
X115320238Y-93709819D01*
X115320238Y-93709819D02*
X115415476Y-93662200D01*
X115415476Y-93662200D02*
X115463095Y-93614580D01*
X115463095Y-93614580D02*
X115510714Y-93519342D01*
X115510714Y-93519342D02*
X115510714Y-93281247D01*
X115510714Y-93281247D02*
X115463095Y-93186009D01*
X115463095Y-93186009D02*
X115415476Y-93138390D01*
X115415476Y-93138390D02*
X115320238Y-93090771D01*
X115320238Y-93090771D02*
X115129762Y-93090771D01*
X115129762Y-93090771D02*
X115034524Y-93138390D01*
X115034524Y-93138390D02*
X114986905Y-93186009D01*
X114986905Y-93186009D02*
X114939286Y-93281247D01*
X97058333Y-117009819D02*
X96725000Y-116533628D01*
X96486905Y-117009819D02*
X96486905Y-116009819D01*
X96486905Y-116009819D02*
X96867857Y-116009819D01*
X96867857Y-116009819D02*
X96963095Y-116057438D01*
X96963095Y-116057438D02*
X97010714Y-116105057D01*
X97010714Y-116105057D02*
X97058333Y-116200295D01*
X97058333Y-116200295D02*
X97058333Y-116343152D01*
X97058333Y-116343152D02*
X97010714Y-116438390D01*
X97010714Y-116438390D02*
X96963095Y-116486009D01*
X96963095Y-116486009D02*
X96867857Y-116533628D01*
X96867857Y-116533628D02*
X96486905Y-116533628D01*
X97963095Y-116009819D02*
X97486905Y-116009819D01*
X97486905Y-116009819D02*
X97439286Y-116486009D01*
X97439286Y-116486009D02*
X97486905Y-116438390D01*
X97486905Y-116438390D02*
X97582143Y-116390771D01*
X97582143Y-116390771D02*
X97820238Y-116390771D01*
X97820238Y-116390771D02*
X97915476Y-116438390D01*
X97915476Y-116438390D02*
X97963095Y-116486009D01*
X97963095Y-116486009D02*
X98010714Y-116581247D01*
X98010714Y-116581247D02*
X98010714Y-116819342D01*
X98010714Y-116819342D02*
X97963095Y-116914580D01*
X97963095Y-116914580D02*
X97915476Y-116962200D01*
X97915476Y-116962200D02*
X97820238Y-117009819D01*
X97820238Y-117009819D02*
X97582143Y-117009819D01*
X97582143Y-117009819D02*
X97486905Y-116962200D01*
X97486905Y-116962200D02*
X97439286Y-116914580D01*
X104058333Y-109709819D02*
X103725000Y-109233628D01*
X103486905Y-109709819D02*
X103486905Y-108709819D01*
X103486905Y-108709819D02*
X103867857Y-108709819D01*
X103867857Y-108709819D02*
X103963095Y-108757438D01*
X103963095Y-108757438D02*
X104010714Y-108805057D01*
X104010714Y-108805057D02*
X104058333Y-108900295D01*
X104058333Y-108900295D02*
X104058333Y-109043152D01*
X104058333Y-109043152D02*
X104010714Y-109138390D01*
X104010714Y-109138390D02*
X103963095Y-109186009D01*
X103963095Y-109186009D02*
X103867857Y-109233628D01*
X103867857Y-109233628D02*
X103486905Y-109233628D01*
X104915476Y-109043152D02*
X104915476Y-109709819D01*
X104677381Y-108662200D02*
X104439286Y-109376485D01*
X104439286Y-109376485D02*
X105058333Y-109376485D01*
X84558333Y-92709819D02*
X84225000Y-92233628D01*
X83986905Y-92709819D02*
X83986905Y-91709819D01*
X83986905Y-91709819D02*
X84367857Y-91709819D01*
X84367857Y-91709819D02*
X84463095Y-91757438D01*
X84463095Y-91757438D02*
X84510714Y-91805057D01*
X84510714Y-91805057D02*
X84558333Y-91900295D01*
X84558333Y-91900295D02*
X84558333Y-92043152D01*
X84558333Y-92043152D02*
X84510714Y-92138390D01*
X84510714Y-92138390D02*
X84463095Y-92186009D01*
X84463095Y-92186009D02*
X84367857Y-92233628D01*
X84367857Y-92233628D02*
X83986905Y-92233628D01*
X84891667Y-91709819D02*
X85510714Y-91709819D01*
X85510714Y-91709819D02*
X85177381Y-92090771D01*
X85177381Y-92090771D02*
X85320238Y-92090771D01*
X85320238Y-92090771D02*
X85415476Y-92138390D01*
X85415476Y-92138390D02*
X85463095Y-92186009D01*
X85463095Y-92186009D02*
X85510714Y-92281247D01*
X85510714Y-92281247D02*
X85510714Y-92519342D01*
X85510714Y-92519342D02*
X85463095Y-92614580D01*
X85463095Y-92614580D02*
X85415476Y-92662200D01*
X85415476Y-92662200D02*
X85320238Y-92709819D01*
X85320238Y-92709819D02*
X85034524Y-92709819D01*
X85034524Y-92709819D02*
X84939286Y-92662200D01*
X84939286Y-92662200D02*
X84891667Y-92614580D01*
X104058333Y-104009819D02*
X103725000Y-103533628D01*
X103486905Y-104009819D02*
X103486905Y-103009819D01*
X103486905Y-103009819D02*
X103867857Y-103009819D01*
X103867857Y-103009819D02*
X103963095Y-103057438D01*
X103963095Y-103057438D02*
X104010714Y-103105057D01*
X104010714Y-103105057D02*
X104058333Y-103200295D01*
X104058333Y-103200295D02*
X104058333Y-103343152D01*
X104058333Y-103343152D02*
X104010714Y-103438390D01*
X104010714Y-103438390D02*
X103963095Y-103486009D01*
X103963095Y-103486009D02*
X103867857Y-103533628D01*
X103867857Y-103533628D02*
X103486905Y-103533628D01*
X104439286Y-103105057D02*
X104486905Y-103057438D01*
X104486905Y-103057438D02*
X104582143Y-103009819D01*
X104582143Y-103009819D02*
X104820238Y-103009819D01*
X104820238Y-103009819D02*
X104915476Y-103057438D01*
X104915476Y-103057438D02*
X104963095Y-103105057D01*
X104963095Y-103105057D02*
X105010714Y-103200295D01*
X105010714Y-103200295D02*
X105010714Y-103295533D01*
X105010714Y-103295533D02*
X104963095Y-103438390D01*
X104963095Y-103438390D02*
X104391667Y-104009819D01*
X104391667Y-104009819D02*
X105010714Y-104009819D01*
X90558333Y-104709819D02*
X90225000Y-104233628D01*
X89986905Y-104709819D02*
X89986905Y-103709819D01*
X89986905Y-103709819D02*
X90367857Y-103709819D01*
X90367857Y-103709819D02*
X90463095Y-103757438D01*
X90463095Y-103757438D02*
X90510714Y-103805057D01*
X90510714Y-103805057D02*
X90558333Y-103900295D01*
X90558333Y-103900295D02*
X90558333Y-104043152D01*
X90558333Y-104043152D02*
X90510714Y-104138390D01*
X90510714Y-104138390D02*
X90463095Y-104186009D01*
X90463095Y-104186009D02*
X90367857Y-104233628D01*
X90367857Y-104233628D02*
X89986905Y-104233628D01*
X91510714Y-104709819D02*
X90939286Y-104709819D01*
X91225000Y-104709819D02*
X91225000Y-103709819D01*
X91225000Y-103709819D02*
X91129762Y-103852676D01*
X91129762Y-103852676D02*
X91034524Y-103947914D01*
X91034524Y-103947914D02*
X90939286Y-103995533D01*
X123495833Y-115564580D02*
X123448214Y-115612200D01*
X123448214Y-115612200D02*
X123305357Y-115659819D01*
X123305357Y-115659819D02*
X123210119Y-115659819D01*
X123210119Y-115659819D02*
X123067262Y-115612200D01*
X123067262Y-115612200D02*
X122972024Y-115516961D01*
X122972024Y-115516961D02*
X122924405Y-115421723D01*
X122924405Y-115421723D02*
X122876786Y-115231247D01*
X122876786Y-115231247D02*
X122876786Y-115088390D01*
X122876786Y-115088390D02*
X122924405Y-114897914D01*
X122924405Y-114897914D02*
X122972024Y-114802676D01*
X122972024Y-114802676D02*
X123067262Y-114707438D01*
X123067262Y-114707438D02*
X123210119Y-114659819D01*
X123210119Y-114659819D02*
X123305357Y-114659819D01*
X123305357Y-114659819D02*
X123448214Y-114707438D01*
X123448214Y-114707438D02*
X123495833Y-114755057D01*
X124352976Y-114993152D02*
X124352976Y-115659819D01*
X124114881Y-114612200D02*
X123876786Y-115326485D01*
X123876786Y-115326485D02*
X124495833Y-115326485D01*
X104058333Y-108444580D02*
X104010714Y-108492200D01*
X104010714Y-108492200D02*
X103867857Y-108539819D01*
X103867857Y-108539819D02*
X103772619Y-108539819D01*
X103772619Y-108539819D02*
X103629762Y-108492200D01*
X103629762Y-108492200D02*
X103534524Y-108396961D01*
X103534524Y-108396961D02*
X103486905Y-108301723D01*
X103486905Y-108301723D02*
X103439286Y-108111247D01*
X103439286Y-108111247D02*
X103439286Y-107968390D01*
X103439286Y-107968390D02*
X103486905Y-107777914D01*
X103486905Y-107777914D02*
X103534524Y-107682676D01*
X103534524Y-107682676D02*
X103629762Y-107587438D01*
X103629762Y-107587438D02*
X103772619Y-107539819D01*
X103772619Y-107539819D02*
X103867857Y-107539819D01*
X103867857Y-107539819D02*
X104010714Y-107587438D01*
X104010714Y-107587438D02*
X104058333Y-107635057D01*
X104391667Y-107539819D02*
X105010714Y-107539819D01*
X105010714Y-107539819D02*
X104677381Y-107920771D01*
X104677381Y-107920771D02*
X104820238Y-107920771D01*
X104820238Y-107920771D02*
X104915476Y-107968390D01*
X104915476Y-107968390D02*
X104963095Y-108016009D01*
X104963095Y-108016009D02*
X105010714Y-108111247D01*
X105010714Y-108111247D02*
X105010714Y-108349342D01*
X105010714Y-108349342D02*
X104963095Y-108444580D01*
X104963095Y-108444580D02*
X104915476Y-108492200D01*
X104915476Y-108492200D02*
X104820238Y-108539819D01*
X104820238Y-108539819D02*
X104534524Y-108539819D01*
X104534524Y-108539819D02*
X104439286Y-108492200D01*
X104439286Y-108492200D02*
X104391667Y-108444580D01*
X97058333Y-85944580D02*
X97010714Y-85992200D01*
X97010714Y-85992200D02*
X96867857Y-86039819D01*
X96867857Y-86039819D02*
X96772619Y-86039819D01*
X96772619Y-86039819D02*
X96629762Y-85992200D01*
X96629762Y-85992200D02*
X96534524Y-85896961D01*
X96534524Y-85896961D02*
X96486905Y-85801723D01*
X96486905Y-85801723D02*
X96439286Y-85611247D01*
X96439286Y-85611247D02*
X96439286Y-85468390D01*
X96439286Y-85468390D02*
X96486905Y-85277914D01*
X96486905Y-85277914D02*
X96534524Y-85182676D01*
X96534524Y-85182676D02*
X96629762Y-85087438D01*
X96629762Y-85087438D02*
X96772619Y-85039819D01*
X96772619Y-85039819D02*
X96867857Y-85039819D01*
X96867857Y-85039819D02*
X97010714Y-85087438D01*
X97010714Y-85087438D02*
X97058333Y-85135057D01*
X97439286Y-85135057D02*
X97486905Y-85087438D01*
X97486905Y-85087438D02*
X97582143Y-85039819D01*
X97582143Y-85039819D02*
X97820238Y-85039819D01*
X97820238Y-85039819D02*
X97915476Y-85087438D01*
X97915476Y-85087438D02*
X97963095Y-85135057D01*
X97963095Y-85135057D02*
X98010714Y-85230295D01*
X98010714Y-85230295D02*
X98010714Y-85325533D01*
X98010714Y-85325533D02*
X97963095Y-85468390D01*
X97963095Y-85468390D02*
X97391667Y-86039819D01*
X97391667Y-86039819D02*
X98010714Y-86039819D01*
X97058333Y-89444580D02*
X97010714Y-89492200D01*
X97010714Y-89492200D02*
X96867857Y-89539819D01*
X96867857Y-89539819D02*
X96772619Y-89539819D01*
X96772619Y-89539819D02*
X96629762Y-89492200D01*
X96629762Y-89492200D02*
X96534524Y-89396961D01*
X96534524Y-89396961D02*
X96486905Y-89301723D01*
X96486905Y-89301723D02*
X96439286Y-89111247D01*
X96439286Y-89111247D02*
X96439286Y-88968390D01*
X96439286Y-88968390D02*
X96486905Y-88777914D01*
X96486905Y-88777914D02*
X96534524Y-88682676D01*
X96534524Y-88682676D02*
X96629762Y-88587438D01*
X96629762Y-88587438D02*
X96772619Y-88539819D01*
X96772619Y-88539819D02*
X96867857Y-88539819D01*
X96867857Y-88539819D02*
X97010714Y-88587438D01*
X97010714Y-88587438D02*
X97058333Y-88635057D01*
X98010714Y-89539819D02*
X97439286Y-89539819D01*
X97725000Y-89539819D02*
X97725000Y-88539819D01*
X97725000Y-88539819D02*
X97629762Y-88682676D01*
X97629762Y-88682676D02*
X97534524Y-88777914D01*
X97534524Y-88777914D02*
X97439286Y-88825533D01*
D12*
%TO.C,U1*%
X97900001Y-92000000D02*
X96099999Y-92000000D01*
X100099999Y-97000000D02*
X96099999Y-97000000D01*
D13*
%TO.C,C10*%
X200826248Y-78185000D02*
X201348752Y-78185000D01*
X200826248Y-76715000D02*
X201348752Y-76715000D01*
%TO.C,R15*%
X238397936Y-97985000D02*
X238852064Y-97985000D01*
X238397936Y-96515000D02*
X238852064Y-96515000D01*
%TO.C,U3*%
X212465000Y-78290000D02*
X211985000Y-78290000D01*
X212225000Y-77960000D01*
X212465000Y-78290000D01*
G36*
X212465000Y-78290000D02*
G01*
X211985000Y-78290000D01*
X212225000Y-77960000D01*
X212465000Y-78290000D01*
G37*
X211062500Y-74890000D02*
X210412500Y-74890000D01*
X211062500Y-74890000D02*
X211712500Y-74890000D01*
X211062500Y-78010000D02*
X210412500Y-78010000D01*
X211062500Y-78010000D02*
X211712500Y-78010000D01*
%TO.C,R12*%
X201352064Y-81715000D02*
X200897936Y-81715000D01*
X201352064Y-83185000D02*
X200897936Y-83185000D01*
%TO.C,R11*%
X188397936Y-100685000D02*
X188852064Y-100685000D01*
X188397936Y-99215000D02*
X188852064Y-99215000D01*
%TO.C,R13*%
X238397936Y-92085000D02*
X238852064Y-92085000D01*
X238397936Y-90615000D02*
X238852064Y-90615000D01*
%TO.C,R14*%
X238397936Y-95035000D02*
X238852064Y-95035000D01*
X238397936Y-93565000D02*
X238852064Y-93565000D01*
%TO.C,U2*%
X162690000Y-105870000D02*
G75*
G02*
X164690000Y-105870000I1000000J0D01*
G01*
X161040000Y-100670000D02*
X161040000Y-105870000D01*
X161040000Y-105870000D02*
X162690000Y-105870000D01*
X164690000Y-105870000D02*
X166340000Y-105870000D01*
X166340000Y-100670000D02*
X161040000Y-100670000D01*
X166340000Y-105870000D02*
X166340000Y-100670000D01*
%TO.C,C12*%
X188773752Y-93090000D02*
X187351248Y-93090000D01*
X188773752Y-95810000D02*
X187351248Y-95810000D01*
%TO.C,C14*%
X204590000Y-62210000D02*
X206940000Y-62210000D01*
X211410000Y-62210000D02*
X209060000Y-62210000D01*
X204590000Y-56454437D02*
X204590000Y-62210000D01*
X211410000Y-56454437D02*
X211410000Y-62210000D01*
X205654437Y-55390000D02*
X204590000Y-56454437D01*
X205654437Y-55390000D02*
X206940000Y-55390000D01*
X210345563Y-55390000D02*
X211410000Y-56454437D01*
X210345563Y-55390000D02*
X209060000Y-55390000D01*
X210241250Y-54756250D02*
X209453750Y-54756250D01*
X209847500Y-54362500D02*
X209847500Y-55150000D01*
%TO.C,C11*%
X187226248Y-86360000D02*
X188648752Y-86360000D01*
X187226248Y-83640000D02*
X188648752Y-83640000D01*
%TO.C,D6*%
X216242500Y-96150000D02*
X219902500Y-96150000D01*
X216242500Y-94250000D02*
X219902500Y-94250000D01*
X216242500Y-94250000D02*
X216242500Y-96150000D01*
%TO.C,R17*%
X223840436Y-85985000D02*
X224294564Y-85985000D01*
X223840436Y-84515000D02*
X224294564Y-84515000D01*
%TO.C,C15*%
X218090000Y-62410000D02*
X220440000Y-62410000D01*
X224910000Y-62410000D02*
X222560000Y-62410000D01*
X218090000Y-56654437D02*
X218090000Y-62410000D01*
X224910000Y-56654437D02*
X224910000Y-62410000D01*
X219154437Y-55590000D02*
X218090000Y-56654437D01*
X219154437Y-55590000D02*
X220440000Y-55590000D01*
X223845563Y-55590000D02*
X224910000Y-56654437D01*
X223845563Y-55590000D02*
X222560000Y-55590000D01*
X223741250Y-54956250D02*
X222953750Y-54956250D01*
X223347500Y-54562500D02*
X223347500Y-55350000D01*
%TO.C,R16*%
X223840436Y-83035000D02*
X224294564Y-83035000D01*
X223840436Y-81565000D02*
X224294564Y-81565000D01*
%TO.C,C16*%
X230640000Y-58226248D02*
X230640000Y-59648752D01*
X233360000Y-58226248D02*
X233360000Y-59648752D01*
%TO.C,Q2*%
X199355000Y-96330000D02*
X198875000Y-96330000D01*
X199115000Y-96000000D01*
X199355000Y-96330000D01*
G36*
X199355000Y-96330000D02*
G01*
X198875000Y-96330000D01*
X199115000Y-96000000D01*
X199355000Y-96330000D01*
G37*
X196875000Y-96010000D02*
X196875000Y-95120000D01*
X196875000Y-96010000D02*
X198725000Y-96010000D01*
X196890000Y-92890000D02*
X198740000Y-92890000D01*
X196890000Y-93780000D02*
X196890000Y-92890000D01*
%TO.C,D3*%
X185840000Y-89950000D02*
X189500000Y-89950000D01*
X185840000Y-88050000D02*
X189500000Y-88050000D01*
X185840000Y-88050000D02*
X185840000Y-89950000D01*
%TO.C,D4*%
X192865000Y-56385000D02*
X198375000Y-56385000D01*
X192865000Y-53085000D02*
X198375000Y-53085000D01*
X192865000Y-53085000D02*
X192865000Y-56385000D01*
%TO.C,C17*%
X90451248Y-100545000D02*
X91873752Y-100545000D01*
X90451248Y-103265000D02*
X91873752Y-103265000D01*
%TO.C,J1*%
X35690000Y-66120000D02*
X43310000Y-66120000D01*
X43310000Y-66120000D02*
X43310000Y-55960000D01*
X35690000Y-55960000D02*
X35690000Y-66120000D01*
X42040000Y-55960000D02*
X42040000Y-66120000D01*
X43310000Y-55960000D02*
X35690000Y-55960000D01*
%TO.C,R19*%
X123952064Y-108640000D02*
X123497936Y-108640000D01*
X123952064Y-107170000D02*
X123497936Y-107170000D01*
%TO.C,D7*%
X121565000Y-102955000D02*
X121565000Y-104855000D01*
X121565000Y-102955000D02*
X125225000Y-102955000D01*
X121565000Y-104855000D02*
X125225000Y-104855000D01*
%TO.C,D5*%
X122990000Y-84850000D02*
X122990000Y-88150000D01*
X122990000Y-84850000D02*
X128500000Y-84850000D01*
X122990000Y-88150000D02*
X128500000Y-88150000D01*
%TO.C,R18*%
X115772936Y-82765000D02*
X116227064Y-82765000D01*
X115772936Y-84235000D02*
X116227064Y-84235000D01*
%TO.C,C13*%
X115701248Y-87265000D02*
X116223752Y-87265000D01*
X115701248Y-88735000D02*
X116223752Y-88735000D01*
%TO.C,R10*%
X104997936Y-90670000D02*
X105452064Y-90670000D01*
X104997936Y-92140000D02*
X105452064Y-92140000D01*
%TO.C,R9*%
X96772936Y-79265000D02*
X97227064Y-79265000D01*
X96772936Y-80735000D02*
X97227064Y-80735000D01*
%TO.C,R8*%
X96997936Y-75765000D02*
X97452064Y-75765000D01*
X96997936Y-77235000D02*
X97452064Y-77235000D01*
%TO.C,R7*%
X129772936Y-67765000D02*
X130227064Y-67765000D01*
X129772936Y-69235000D02*
X130227064Y-69235000D01*
%TO.C,Q1*%
X122885000Y-61975000D02*
X122415000Y-62315000D01*
X122415000Y-61635000D01*
X122885000Y-61975000D01*
G36*
X122885000Y-61975000D02*
G01*
X122415000Y-62315000D01*
X122415000Y-61635000D01*
X122885000Y-61975000D01*
G37*
X129475000Y-53825000D02*
X129475000Y-60245000D01*
X122575000Y-53825000D02*
X122575000Y-60245000D01*
X129475000Y-60245000D02*
X129205000Y-60245000D01*
X122575000Y-60245000D02*
X122845000Y-60245000D01*
%TO.C,D2*%
X125985000Y-118355000D02*
X125985000Y-116455000D01*
X125985000Y-118355000D02*
X122325000Y-118355000D01*
X125985000Y-116455000D02*
X122325000Y-116455000D01*
%TO.C,D1*%
X57335000Y-65800000D02*
X57335000Y-65010000D01*
X57335000Y-63190000D02*
X57335000Y-59910000D01*
X57335000Y-58090000D02*
X57335000Y-57300000D01*
X57335000Y-57300000D02*
X50765000Y-57300000D01*
X57325000Y-65800000D02*
X50775000Y-65800000D01*
X50765000Y-65010000D02*
X50765000Y-65800000D01*
X50765000Y-63190000D02*
X50765000Y-59910000D01*
X50765000Y-57300000D02*
X50765000Y-58090000D01*
X58262500Y-65290000D02*
X58262500Y-65010000D01*
X58542500Y-65010000D01*
X58262500Y-65290000D01*
G36*
X58262500Y-65290000D02*
G01*
X58262500Y-65010000D01*
X58542500Y-65010000D01*
X58262500Y-65290000D01*
G37*
%TO.C,C9*%
X116572500Y-98967500D02*
X116572500Y-99755000D01*
X116966250Y-99361250D02*
X116178750Y-99361250D01*
X117070563Y-99995000D02*
X115785000Y-99995000D01*
X117070563Y-99995000D02*
X118135000Y-101059437D01*
X112379437Y-99995000D02*
X113665000Y-99995000D01*
X112379437Y-99995000D02*
X111315000Y-101059437D01*
X118135000Y-101059437D02*
X118135000Y-106815000D01*
X111315000Y-101059437D02*
X111315000Y-106815000D01*
X118135000Y-106815000D02*
X115785000Y-106815000D01*
X111315000Y-106815000D02*
X113665000Y-106815000D01*
%TO.C,C8*%
X106370000Y-61000000D02*
G75*
G02*
X93630000Y-61000000I-6370000J0D01*
G01*
X93630000Y-61000000D02*
G75*
G02*
X106370000Y-61000000I6370000J0D01*
G01*
%TO.C,C7*%
X92370000Y-61000000D02*
G75*
G02*
X79630000Y-61000000I-6370000J0D01*
G01*
X79630000Y-61000000D02*
G75*
G02*
X92370000Y-61000000I6370000J0D01*
G01*
%TO.C,C6*%
X76370000Y-61000000D02*
G75*
G02*
X63630000Y-61000000I-6370000J0D01*
G01*
X63630000Y-61000000D02*
G75*
G02*
X76370000Y-61000000I6370000J0D01*
G01*
%TO.C,C5*%
X104926248Y-93170000D02*
X105448752Y-93170000D01*
X104926248Y-94640000D02*
X105448752Y-94640000D01*
%TO.C,R6*%
X114497936Y-94170000D02*
X114952064Y-94170000D01*
X114497936Y-95640000D02*
X114952064Y-95640000D01*
%TO.C,R5*%
X97452064Y-115640000D02*
X96997936Y-115640000D01*
X97452064Y-114170000D02*
X96997936Y-114170000D01*
%TO.C,R4*%
X103997936Y-110170000D02*
X104452064Y-110170000D01*
X103997936Y-111640000D02*
X104452064Y-111640000D01*
%TO.C,R3*%
X84497936Y-93170000D02*
X84952064Y-93170000D01*
X84497936Y-94640000D02*
X84952064Y-94640000D01*
%TO.C,R2*%
X104452064Y-102640000D02*
X103997936Y-102640000D01*
X104452064Y-101170000D02*
X103997936Y-101170000D01*
%TO.C,R1*%
X90497936Y-105170000D02*
X90952064Y-105170000D01*
X90497936Y-106640000D02*
X90952064Y-106640000D01*
%TO.C,C4*%
X124373752Y-114265000D02*
X122951248Y-114265000D01*
X124373752Y-111545000D02*
X122951248Y-111545000D01*
%TO.C,C3*%
X104486252Y-107140000D02*
X103963748Y-107140000D01*
X104486252Y-105670000D02*
X103963748Y-105670000D01*
%TO.C,C2*%
X97486252Y-84640000D02*
X96963748Y-84640000D01*
X97486252Y-83170000D02*
X96963748Y-83170000D01*
%TO.C,C1*%
X97486252Y-88140000D02*
X96963748Y-88140000D01*
X97486252Y-86670000D02*
X96963748Y-86670000D01*
%TD*%
M02*
